<?xml version="1.0" standalone="no"?>
<!DOCTYPE svg PUBLIC "-//W3C//DTD SVG 1.1//EN" "http://www.w3.org/Graphics/SVG/1.1/DTD/svg11.dtd" >
<svg xmlns="http://www.w3.org/2000/svg" xmlns:xlink="http://www.w3.org/1999/xlink" version="1.1">
<metadata>
Created by FontForge 20170731 at Thu Apr 27 19:46:29 2017
 By Aleksey,,,
Copyright 2017 Dinamo (Johannes Breyer, Fabian Harb)
</metadata>
<defs>
<font id="FavoritMono-Bold" horiz-adv-x="600" >
  <font-face 
    font-family="Favorit Mono Bold"
    font-weight="700"
    font-stretch="normal"
    units-per-em="1000"
    panose-1="2 0 0 6 3 0 0 2 0 4"
    ascent="780"
    descent="-220"
    x-height="500"
    cap-height="700"
    bbox="-390 -310 1777 1016"
    underline-thickness="50"
    underline-position="-200"
    unicode-range="U+000D-FB02"
  />
<missing-glyph 
d="M50 0v700h500v-700h-500zM155 105h290v490h-290v-490z" />
    <glyph glyph-name="fi" unicode="fi" horiz-adv-x="1200" 
d="M226 0v395h-186v105h186v70q0 130 130 130h284v-108h-229q-34 0 -44.5 -10.5t-10.5 -44.5v-37h620v-395h174v-105h-484v105h180v290h-490v-395h-130zM838 552v148h146v-148h-146z" />
    <glyph glyph-name="fl" unicode="fl" horiz-adv-x="1200" 
d="M226 0v395h-186v105h186v70q0 130 130 130h624v-595h174v-105h-484v105h180v487h-439q-34 0 -44.5 -10.5t-10.5 -44.5v-37h259v-105h-259v-395h-130z" />
    <glyph glyph-name="f_f" unicode="ff" horiz-adv-x="1200" 
d="M921 592q-34 0 -44.5 -10.5t-10.5 -44.5v-37h259v-105h-259v-395h-130v395h-400v-395h-130v395h-166v105h166v70q0 130 130 130h284v-108h-229q-34 0 -44.5 -10.5t-10.5 -44.5v-37h400v70q0 130 130 130h284v-108h-229z" />
    <glyph glyph-name="f_f_i" unicode="ffi" horiz-adv-x="1800" 
d="M1576 105h174v-105h-484v105h180v290h-489v-395h-130v395h-491v-395h-130v395h-166v105h166v70q0 130 130 130h284v-108h-229q-34 0 -44.5 -10.5t-10.5 -44.5v-37h491v70q0 130 130 130h284v-108h-229q-34 0 -44.5 -10.5t-10.5 -44.5v-37h619v-395zM1584 700v-148h-146
v148h146z" />
    <glyph glyph-name="f_f_l" unicode="ffl" horiz-adv-x="1800" 
d="M1580 105h174v-105h-484v105h180v487h-439q-34 0 -44.5 -10.5t-10.5 -44.5v-37h259v-105h-259v-395h-130v395h-490v-395h-130v395h-166v105h166v70q0 130 130 130h284v-108h-229q-34 0 -44.5 -10.5t-10.5 -44.5v-37h490v70q0 130 130 130h624v-595z" />
    <glyph glyph-name=".notdef" 
d="M50 0v700h500v-700h-500zM155 105h290v490h-290v-490z" />
    <glyph glyph-name=".null" 
 />
    <glyph glyph-name=".null" 
 />
    <glyph glyph-name="nonmarkingreturn" horiz-adv-x="333" 
 />
    <glyph glyph-name="CR" unicode="&#xd;" 
 />
    <glyph glyph-name="space" unicode=" " 
 />
    <glyph glyph-name="exclam" unicode="!" 
d="M265 175l-31 285v240h133v-240l-31 -285h-71zM230 0v135h140v-135h-140z" />
    <glyph glyph-name="quotedbl" unicode="&#x22;" 
d="M189 460l-32 135v105h115v-105l-32 -135h-51zM359 460l-32 135v105h115v-105l-32 -135h-51z" />
    <glyph glyph-name="numbersign" unicode="#" 
d="M595 425h-110l-24 -150h91v-115h-109l-25 -160h-116l25 160h-114l-25 -160h-116l25 160h-93v115h111l24 150h-92v115h110l25 160h116l-25 -160h114l25 160h116l-25 -160h92v-115zM345 275l24 150h-114l-24 -150h114z" />
    <glyph glyph-name="dollar" unicode="$" 
d="M375 405q189 -38 189 -200q0 -93 -71 -154t-193 -61h-6l-18 -110h-115l21 126q-154 47 -162 229h135q5 -67 49 -98l28 163h-2q-175 36 -175 200q0 82 66.5 144t178.5 66l19 110h115l-21 -123q78 -23 120 -80.5t42 -136.5h-135q-4 61 -48 89l-27 -162zM190 503
q0 -31 15 -48t48 -25l27 158q-42 -7 -66 -30.5t-24 -54.5zM315 110q55 1 84.5 25t29.5 60q0 64 -74 79l-12 3z" />
    <glyph glyph-name="percent" unicode="%" 
d="M146 401q-67 0 -99.5 44.5t-32.5 106.5t32.5 107t99.5 45q66 0 98.5 -45t32.5 -107t-32.5 -106.5t-98.5 -44.5zM40 0l420 700h100l-420 -700h-100zM144 476h3q42 0 42 76q0 77 -42 77h-3q-42 0 -42 -77q0 -76 42 -76zM454 -3q-67 0 -99.5 44.5t-32.5 106.5t32.5 107
t99.5 45q66 0 98.5 -45t32.5 -107t-32.5 -106.5t-98.5 -44.5zM452 72h3q42 0 42 76q0 77 -42 77h-3q-42 0 -42 -77q0 -76 42 -76z" />
    <glyph glyph-name="ampersand" unicode="&#x26;" 
d="M247 0q-80 0 -140.5 51.5t-60.5 133.5q0 62 34 106t89 64q-52 21 -85 63t-33 102q0 83 57.5 131.5t136.5 48.5h99v-105h-59q-45 0 -74.5 -22.5t-29.5 -68.5t30 -71t74 -25h64v121h130v-121h91v-105h-91v-303h-232zM285 105h64v198h-64q-46 0 -77.5 -24t-31.5 -73t32 -75
t77 -26z" />
    <glyph glyph-name="quotesingle" unicode="'" 
d="M275 460l-32 135v105h115v-105l-32 -135h-51z" />
    <glyph glyph-name="parenleft" unicode="(" 
d="M530 -145q-62 0 -121 30.5t-108.5 88.5t-80 156t-30.5 220t30.5 220t80 156t108.5 88.5t121 30.5v-110q-28 -4 -55 -17t-55.5 -42t-50 -70.5t-35.5 -107.5t-14 -148t14 -148t35.5 -107.5t50 -70.5t55.5 -42t55 -17v-110z" />
    <glyph glyph-name="parenright" unicode=")" 
d="M70 845q62 0 121 -30.5t108.5 -88.5t80 -156t30.5 -220t-30.5 -220t-80 -156t-108.5 -88.5t-121 -30.5v110q28 4 55 17t55.5 42t50 70.5t35.5 107.5t14 148t-14 148t-35.5 107.5t-50 70.5t-55.5 42t-55 17v110z" />
    <glyph glyph-name="asterisk" unicode="*" 
d="M478 630v-92h-95l53 -87l-84 -46l-52 87l-53 -87l-84 46l53 87h-95v92h95l-53 87l84 46l53 -87l52 87l84 -46l-53 -87h95z" />
    <glyph glyph-name="plus" unicode="+" 
d="M233 15v185h-180v115h180v185h133v-185h180v-115h-180v-185h-133z" />
    <glyph glyph-name="comma" unicode="," 
d="M198 -150v75h36q32 0 47 18t15 47v10h-65v145h145v-160q0 -54 -39.5 -94.5t-97.5 -40.5h-41z" />
    <glyph glyph-name="hyphen" unicode="-" 
d="M155 250v105h290v-105h-290z" />
    <glyph glyph-name="period" unicode="." 
d="M228 0v145h145v-145h-145z" />
    <glyph glyph-name="slash" unicode="/" 
d="M98 0l270 700h135l-265 -700h-140z" />
    <glyph glyph-name="zero" unicode="0" 
d="M300 710q128 0 200 -98t72 -262q0 -165 -70.5 -262.5t-201.5 -97.5t-201.5 97.5t-70.5 262.5q0 164 72 262t200 98zM296 595q-135 0 -135 -245q0 -46 4 -78l241 261q-33 62 -102 62h-8zM304 105q135 0 135 245q0 34 -3 66l-238 -257q35 -54 98 -54h8z" />
    <glyph glyph-name="one" unicode="1" 
d="M391 115h191v-115h-520v115h202v397l-155 -149v165l177 172h105v-585z" />
    <glyph glyph-name="two" unicode="2" 
d="M221 115h325v-115h-493v121l238 224q66 62 89 94t23 68q0 38 -26 63t-67 25h-10q-46 0 -76 -30.5t-31 -83.5h-133q0 105 68.5 167t175.5 62q104 0 168 -55.5t64 -142.5q0 -64 -30 -113.5t-103 -116.5z" />
    <glyph glyph-name="three" unicode="3" 
d="M291 -10q-112 0 -180 55t-68 148h133q4 -40 32.5 -64t77.5 -24h10q56 0 84.5 28.5t28.5 66.5q0 44 -34 68t-90 24h-47v115h42q57 0 91 26.5t34 71.5q0 38 -29.5 64t-74.5 26h-10q-40 0 -69 -24.5t-33 -65.5h-133q0 89 68.5 147t171.5 58q109 0 175.5 -56.5t66.5 -138.5
q0 -60 -33.5 -103.5t-89.5 -58.5q57 -15 92.5 -59.5t35.5 -103.5q0 -95 -70 -147.5t-182 -52.5z" />
    <glyph glyph-name="four" unicode="4" 
d="M490 257h105v-115h-105v-142h-127v142h-338v131l334 427h131v-443zM155 257h208v265z" />
    <glyph glyph-name="five" unicode="5" 
d="M339 438q97 0 158 -60.5t61 -156.5q0 -104 -68.5 -167.5t-183.5 -63.5q-107 0 -178 57t-82 148h133q10 -42 43 -66t82 -24h6q50 0 82.5 30t32.5 81t-32 79t-83 28h-6q-68 0 -112 -48h-122l86 425h395v-115h-294l-40 -191q46 44 122 44z" />
    <glyph glyph-name="six" unicode="6" 
d="M335 460q95 0 160.5 -63.5t65.5 -166.5q0 -100 -68 -170t-187 -70q-128 0 -198 88t-70 249q0 171 90 277t224 106q89 0 151 -51.5t73 -138.5h-133q-4 33 -28.5 54t-68.5 21h-8q-65 0 -117.5 -55.5t-63.5 -173.5q23 43 71 68.5t107 25.5zM311 105q51 0 84 34.5t33 85.5
t-33 85.5t-84 34.5h-8q-53 0 -88.5 -34t-35.5 -86t34.5 -86t89.5 -34h8z" />
    <glyph glyph-name="seven" unicode="7" 
d="M48 700h505v-110q-252 -164 -252 -525v-65h-139v65q0 345 234 515h-348v120z" />
    <glyph glyph-name="eight" unicode="8" 
d="M300 -10q-108 0 -168.5 55t-60.5 135q0 118 118 159q-57 20 -94.5 67t-37.5 114q0 77 64.5 133.5t178.5 56.5t178.5 -56.5t64.5 -133.5q0 -67 -37.5 -114t-94.5 -67q118 -41 118 -159q0 -80 -60.5 -135t-168.5 -55zM295 400h10q43 0 74 28t31 70t-30.5 69.5t-74.5 27.5
h-10q-44 0 -74.5 -27.5t-30.5 -69.5t31 -70t74 -28zM295 105h10q39 0 65 25t26 65t-26.5 65.5t-64.5 25.5h-10q-38 0 -64.5 -25.5t-26.5 -65.5t26 -65t65 -25z" />
    <glyph glyph-name="nine" unicode="9" 
d="M294 710q128 0 198 -88t70 -249q0 -171 -90 -277t-224 -106q-89 0 -151 51.5t-73 138.5h133q4 -33 28.5 -54t68.5 -21h8q65 0 117.5 55.5t63.5 173.5q-23 -43 -71 -68.5t-107 -25.5q-95 0 -160.5 63.5t-65.5 166.5q0 100 68 170t187 70zM297 355q53 0 88.5 34t35.5 86
t-34.5 86t-89.5 34h-8q-51 0 -84 -34.5t-33 -85.5t33 -85.5t84 -34.5h8z" />
    <glyph glyph-name="colon" unicode=":" 
d="M228 355v145h145v-145h-145zM228 0v145h145v-145h-145z" />
    <glyph glyph-name="semicolon" unicode=";" 
d="M228 355v145h145v-145h-145zM198 -150v75h36q32 0 47 18t15 47v10h-65v145h145v-160q0 -54 -39.5 -94.5t-97.5 -40.5h-41z" />
    <glyph glyph-name="less" unicode="&#x3c;" 
d="M510 486v-125l-278 -105l278 -105v-125l-425 170v120z" />
    <glyph glyph-name="equal" unicode="=" 
d="M53 300v115h494v-115h-494zM53 100v115h494v-115h-494z" />
    <glyph glyph-name="greater" unicode="&#x3e;" 
d="M90 486l425 -170v-120l-425 -170v125l278 105l-278 105v125z" />
    <glyph glyph-name="question" unicode="?" 
d="M184 191v154q0 38 21 59t58 21h27q93 0 93 80q0 37 -25.5 58.5t-67.5 21.5h-200v115h218q91 0 149 -53t58 -142q0 -78 -49.5 -131.5t-132.5 -53.5h-1q-14 0 -19.5 -5t-5.5 -20v-104h-123zM175 -5v135h140v-135h-140z" />
    <glyph glyph-name="at" unicode="@" 
d="M380 -125q-180 0 -275 114.5t-95 313.5q0 196 83 311.5t226 115.5q126 0 191 -70.5t65 -180.5v-384h-110v69q-41 -79 -124 -79q-71 0 -118.5 59.5t-47.5 155.5q0 95 47 152.5t119 57.5q89 0 124 -80v34q0 75 -39 117t-104 42h-8q-91 0 -140 -86t-49 -232q0 -327 257 -327
h203v-103h-205zM370 185h7q34 0 56.5 33t22.5 82t-22 79.5t-57 30.5h-7q-36 0 -58 -30t-22 -80q0 -49 22 -82t58 -33z" />
    <glyph glyph-name="A" unicode="A" 
d="M450 0l-45 165h-210l-45 -165h-142l213 700h166l206 -700h-143zM228 285h144l-72 263z" />
    <glyph glyph-name="B" unicode="B" 
d="M75 0v700h260q98 0 156.5 -52t58.5 -129q0 -62 -32.5 -105t-85.5 -59q58 -12 95.5 -56.5t37.5 -112.5q0 -80 -62 -133t-158 -53h-270zM210 413h105q100 0 100 84q0 83 -100 83h-105v-167zM210 120h115q50 0 77.5 22.5t27.5 66.5q0 88 -105 88h-115v-177z" />
    <glyph glyph-name="C" unicode="C" 
d="M315 -10q-133 0 -204 97t-71 263t71 263t204 97q117 0 176.5 -66t67.5 -174h-135q-6 56 -34 88t-74 32h-2q-64 0 -101.5 -64t-37.5 -176t37.5 -176t101.5 -64h2q92 0 108 120h135q-8 -110 -67 -175t-177 -65z" />
    <glyph glyph-name="D" unicode="D" 
d="M59 0v700h209q133 0 216.5 -91.5t83.5 -258.5q0 -168 -81.5 -259t-213.5 -91h-214zM194 120h64q79 0 127 53.5t48 176.5t-48 176.5t-127 53.5h-64v-460z" />
    <glyph glyph-name="E" unicode="E" 
d="M64 0v700h465v-120h-330v-161h280v-120h-280v-179h340v-120h-475z" />
    <glyph glyph-name="F" unicode="F" 
d="M76 0v700h460v-120h-325v-180h295v-120h-295v-280h-135z" />
    <glyph glyph-name="G" unicode="G" 
d="M295 -10q-121 0 -191.5 100t-70.5 260q0 166 72 263t208 97q118 0 179.5 -69t67.5 -181h-135q-4 56 -32.5 93t-80.5 37h-2q-68 0 -105 -64.5t-37 -175.5t38.5 -175.5t110.5 -64.5h2q56 0 91.5 35.5t35.5 94.5v5h-133v120h163q85 0 85 -85v-280h-115v68q-51 -78 -151 -78z
" />
    <glyph glyph-name="H" unicode="H" 
d="M50 0v700h135v-290h230v290h135v-700h-135v290h-230v-290h-135z" />
    <glyph glyph-name="I" unicode="I" 
d="M505 590h-138v-480h138v-110h-410v110h137v480h-137v110h410v-110z" />
    <glyph glyph-name="J" unicode="J" 
d="M89 0v130h218q34 0 47 13t13 47v510h135v-560q0 -64 -38 -102t-102 -38h-273z" />
    <glyph glyph-name="K" unicode="K" 
d="M457 0l-182 306l-75 -91v-215h-135v700h135v-302l250 302h154l-242 -290l246 -410h-151z" />
    <glyph glyph-name="L" unicode="L" 
d="M58 0v700h135v-580h372v-120h-507z" />
    <glyph glyph-name="M" unicode="M" 
d="M400 700h154v-700h-124v440l-71 -260h-120l-69 258v-438h-124v700h154l100 -369z" />
    <glyph glyph-name="N" unicode="N" 
d="M417 700h131v-700h-150l-215 469v-469h-131v700h153l212 -463v463z" />
    <glyph glyph-name="O" unicode="O" 
d="M300 -10q-131 0 -199.5 97t-68.5 263t68.5 263t199.5 97t199.5 -97t68.5 -263t-68.5 -263t-199.5 -97zM299 110h2q132 0 132 240t-132 240h-2q-132 0 -132 -240t132 -240z" />
    <glyph glyph-name="P" unicode="P" 
d="M65 0v700h270q103 0 164 -58t61 -162t-61 -162.5t-164 -58.5h-135v-259h-135zM200 379h120q51 0 78 27.5t27 73.5t-27 73t-78 27h-120v-201z" />
    <glyph glyph-name="Q" unicode="Q" 
d="M364 -35q0 -34 10.5 -44.5t44.5 -10.5h128v-110h-182q-130 0 -130 130v67q-100 24 -151.5 116.5t-51.5 236.5q0 166 68.5 263t199.5 97t199.5 -97t68.5 -263q0 -144 -51.5 -237t-152.5 -116v-32zM167 350q0 -240 132 -240h2q132 0 132 240t-132 240h-2q-132 0 -132 -240z
" />
    <glyph glyph-name="R" unicode="R" 
d="M436 333q107 0 107 -98v-235h-135v200q0 38 -14 51.5t-51 13.5h-146v-265h-135v700h276q91 0 153 -54t62 -136q0 -132 -119 -177h2zM298 383q120 0 120 101q0 96 -120 96h-101v-197h101z" />
    <glyph glyph-name="S" unicode="S" 
d="M300 -10q-138 0 -206.5 65t-73.5 180h135q8 -125 154 -125h4q55 0 85.5 24.5t30.5 60.5q0 64 -74 79l-125 26q-175 36 -175 200q0 85 70.5 147.5t189.5 62.5q124 0 192 -64t68 -166h-135q-4 53 -38 81.5t-89 28.5h-3q-55 0 -87.5 -25t-32.5 -62q0 -34 18.5 -51.5
t61.5 -25.5l105 -21q189 -38 189 -200q0 -93 -71 -154t-193 -61z" />
    <glyph glyph-name="T" unicode="T" 
d="M232 0v580h-192v120h520v-120h-193v-580h-135z" />
    <glyph glyph-name="U" unicode="U" 
d="M300 -10q-118 0 -185.5 66.5t-67.5 180.5v463h135v-443q0 -147 116 -147h4q116 0 116 147v443h135v-463q0 -114 -67.5 -180.5t-185.5 -66.5z" />
    <glyph glyph-name="V" unicode="V" 
d="M443 700h147l-201 -700h-175l-203 700h148l144 -534z" />
    <glyph glyph-name="W" unicode="W" 
d="M455 700h122l-61 -700h-152l-63 372l-76 -372h-142l-60 700h121l31 -480l67 330h119l67 -328z" />
    <glyph glyph-name="X" unicode="X" 
d="M588 0h-152l-138 251l-139 -251h-147l210 359l-195 341h150l125 -231l126 231h145l-195 -335z" />
    <glyph glyph-name="Y" unicode="Y" 
d="M443 700h145l-221 -424v-276h-135v276l-220 424h148l142 -301z" />
    <glyph glyph-name="Z" unicode="Z" 
d="M218 120h327v-120h-480v117l313 463h-305v120h459v-115z" />
    <glyph glyph-name="bracketleft" unicode="[" 
d="M220 -145v990h240v-105h-110v-780h110v-105h-240z" />
    <glyph glyph-name="backslash" unicode="\" 
d="M98 700h140l265 -700h-135z" />
    <glyph glyph-name="bracketright" unicode="]" 
d="M380 845v-990h-240v105h110v780h-110v105h240z" />
    <glyph glyph-name="asciicircum" unicode="^" 
d="M537 285h-139l-99 246l-99 -246h-137l175 415h124z" />
    <glyph glyph-name="underscore" unicode="_" 
d="M65 -105v105h470v-105h-470z" />
    <glyph glyph-name="grave" unicode="`" 
d="M275 550l-100 150h150l25 -150h-75z" />
    <glyph glyph-name="a" unicode="a" 
d="M510 110q0 -75 5 -110h-122q-4 21 -6 61q-50 -71 -148 -71q-69 0 -116.5 40.5t-47.5 106.5q0 76 51 117t132 48l126 11v12q0 35 -22 57.5t-59 22.5h-6q-35 0 -57.5 -18t-24.5 -42h-130q8 72 65.5 118.5t149.5 46.5q96 0 153 -47t57 -133v-220zM271 95q46 0 79.5 30.5
t33.5 78.5v14l-108 -11q-29 -3 -51 -18t-22 -43q0 -23 18 -37t45 -14h5z" />
    <glyph glyph-name="b" unicode="b" 
d="M195 700v-265q17 29 56 52t88 23q104 0 163 -76t59 -184t-59 -184t-163 -76q-49 0 -88 23t-56 52v-65h-130v700h130zM317 405h-8q-47 0 -80.5 -43t-33.5 -112t33.5 -112t80.5 -43h8q50 0 82 43t32 113t-32 112t-82 42z" />
    <glyph glyph-name="c" unicode="c" 
d="M308 -10q-104 0 -172 71t-68 189t68 189t172 71q100 0 159 -46.5t66 -138.5h-130q-13 80 -92 80h-6q-53 0 -80 -43.5t-27 -111.5t27 -111.5t80 -43.5h6q79 0 92 80h130q-7 -92 -66 -138.5t-159 -46.5z" />
    <glyph glyph-name="d" unicode="d" 
d="M533 700v-700h-130v65q-17 -29 -56 -52t-88 -23q-104 0 -163 76t-59 184t59 184t163 76q49 0 88 -23t56 -52v265h130zM289 405h-8q-50 0 -82 -42t-32 -112t32 -113t82 -43h8q47 0 80.5 43t33.5 112t-33.5 112t-80.5 43z" />
    <glyph glyph-name="e" unicode="e" 
d="M533 256q0 -15 -2 -47h-338q2 -45 33.5 -79.5t80.5 -34.5h6q36 0 59 18t30 45h129q-19 -76 -77 -122t-149 -46q-99 0 -168.5 70.5t-69.5 189.5q0 114 65.5 187t174.5 73t167.5 -70.5t58.5 -183.5zM300 405q-42 0 -73 -28t-34 -71h214q-1 39 -28 69t-73 30h-6z" />
    <glyph glyph-name="f" unicode="f" 
d="M206 0v395h-166v105h166v70q0 130 130 130h214v-108h-159q-34 0 -44.5 -10.5t-10.5 -44.5v-37h189v-105h-189v-395h-130z" />
    <glyph glyph-name="g" unicode="g" 
d="M281 -220q-100 0 -166 46t-70 119h130q5 -27 34 -43.5t78 -16.5h6q51 0 84 31t33 89v65q-42 -70 -141 -70q-91 0 -153.5 68t-62.5 187t62.5 187t153.5 68q99 0 141 -70v60h130v-511q0 -85 -68 -147t-191 -62zM295 105h8q46 0 76.5 40.5t30.5 109.5t-30.5 109.5
t-76.5 40.5h-8q-49 0 -80.5 -40.5t-31.5 -109.5t31.5 -109.5t80.5 -40.5z" />
    <glyph glyph-name="h" unicode="h" 
d="M356 510q87 0 130.5 -51.5t43.5 -138.5v-320h-130v305q0 48 -20.5 74t-58.5 26h-8q-45 0 -76.5 -37t-31.5 -90v-278h-130v700h130v-273q23 38 63 60.5t88 22.5z" />
    <glyph glyph-name="i" unicode="i" 
d="M384 700v-148h-146v148h146zM376 105h174v-105h-484v105h180v290h-153v105h283v-395z" />
    <glyph glyph-name="j" unicode="j" 
d="M287 700h146v-148h-146v148zM142 500h283v-575q0 -60 -32.5 -92.5t-92.5 -32.5h-224v110h164q30 0 42.5 12.5t12.5 42.5v430h-153v105z" />
    <glyph glyph-name="k" unicode="k" 
d="M407 0l-139 208l-58 -59v-149h-130v700h130v-386l181 186h159l-192 -199l202 -301h-153z" />
    <glyph glyph-name="l" unicode="l" 
d="M380 105h174v-105h-484v105h180v490h-153v105h283v-595z" />
    <glyph glyph-name="m" unicode="m" 
d="M443 510q47 0 79 -36.5t32 -95.5v-378h-116v332q0 22 -1.5 34.5t-9 23t-21.5 10.5h-1q-45 0 -45 -90v-310h-120l4 22v310q0 22 -1.5 34.5t-9 23t-21.5 10.5h-1q-45 0 -45 -90v-310h-116v500h112v-48q34 58 95 58q55 0 83 -52q41 52 103 52z" />
    <glyph glyph-name="n" unicode="n" 
d="M75 0v500h130v-73q23 38 63 60.5t88 22.5q87 0 130.5 -51.5t43.5 -138.5v-320h-130v305q0 48 -20.5 74t-58.5 26h-8q-45 0 -76.5 -37t-31.5 -90v-278h-130z" />
    <glyph glyph-name="o" unicode="o" 
d="M300 -10q-111 0 -180.5 73t-69.5 187t69.5 187t180.5 73t180.5 -73t69.5 -187t-69.5 -187t-180.5 -73zM296 95h8q53 0 84 41t31 114t-31 114t-84 41h-8q-53 0 -84 -41t-31 -114t31 -114t84 -41z" />
    <glyph glyph-name="p" unicode="p" 
d="M67 -200v700h130v-65q17 29 56 52t88 23q104 0 163 -76t59 -184t-59 -184t-163 -76q-49 0 -88 23t-56 52v-265h-130zM311 95h8q50 0 82 42t32 112t-32 113t-82 43h-8q-47 0 -80.5 -43t-33.5 -112t33.5 -112t80.5 -43z" />
    <glyph glyph-name="q" unicode="q" 
d="M405 -200v265q-17 -29 -56 -52t-88 -23q-104 0 -163 76t-59 184t59 184t163 76q49 0 88 -23t56 -52v65h130v-700h-130zM283 95h8q47 0 80.5 43t33.5 112t-33.5 112t-80.5 43h-8q-50 0 -82 -43t-32 -113t32 -112t82 -42z" />
    <glyph glyph-name="r" unicode="r" 
d="M114 0v500h130v-90q34 95 162 95h111v-115h-120q-153 0 -153 -150v-240h-130z" />
    <glyph glyph-name="s" unicode="s" 
d="M301 -10q-101 0 -158.5 46.5t-57.5 128.5h133q0 -34 23 -54.5t61 -20.5h8q30 0 48 13.5t18 35.5q0 37 -51 50l-65 16q-80 20 -117.5 55.5t-37.5 95.5q0 68 54.5 111t147.5 43q97 0 150.5 -46t53.5 -129h-130q-8 75 -75 75h-8q-27 0 -45 -13.5t-18 -35.5q0 -35 64 -51
l67 -17q72 -18 106 -54t34 -95q0 -67 -54 -110.5t-151 -43.5z" />
    <glyph glyph-name="t" unicode="t" 
d="M337 0q-130 0 -130 130v265h-155v105h155v162h130v-162h176v-105h-176v-230q0 -34 10.5 -44.5t44.5 -10.5h143v-110h-198z" />
    <glyph glyph-name="u" unicode="u" 
d="M390 500h130v-500h-130v74q-23 -39 -61.5 -61.5t-84.5 -22.5q-84 0 -126.5 51.5t-42.5 138.5v320h130v-305q0 -48 19.5 -74t54.5 -26h8q43 0 73 37t30 90v278z" />
    <glyph glyph-name="v" unicode="v" 
d="M434 500h134l-173 -500h-189l-173 500h138l132 -404z" />
    <glyph glyph-name="w" unicode="w" 
d="M461 500h114l-73 -500h-138l-63 282l-63 -282h-139l-73 500h114l43 -363l56 263h123l57 -263z" />
    <glyph glyph-name="x" unicode="x" 
d="M553 0h-145l-109 153l-110 -153h-141l181 252l-176 248h145l104 -146l105 146h141l-176 -245z" />
    <glyph glyph-name="y" unicode="y" 
d="M578 500l-213 -456v-116q0 -130 -130 -130h-182v112h133q34 0 44.5 10.5t10.5 44.5v74l-218 461h146l135 -304l130 304h144z" />
    <glyph glyph-name="z" unicode="z" 
d="M247 115h273v-115h-435v100l258 285h-253v115h415v-100z" />
    <glyph glyph-name="braceleft" unicode="{" 
d="M390 -145q-135 0 -135 155v205q0 38 -10 51.5t-40 13.5h-25v140h25q30 0 40 13.5t10 51.5v205q0 155 135 155h86v-105h-31q-36 0 -48 -16t-12 -59v-213q0 -46 -22 -68.5t-58 -22.5v-22q36 0 58 -22.5t22 -68.5v-213q0 -43 12 -59t48 -16h31v-105h-86z" />
    <glyph glyph-name="bar" unicode="|" 
d="M233 -85v870h133v-870h-133z" />
    <glyph glyph-name="braceright" unicode="}" 
d="M210 845q135 0 135 -155v-205q0 -38 10 -51.5t40 -13.5h25v-140h-25q-30 0 -40 -13.5t-10 -51.5v-205q0 -155 -135 -155h-86v105h31q36 0 48 16t12 59v213q0 46 22 68.5t58 22.5v22q-36 0 -58 22.5t-22 68.5v213q0 43 -12 59t-48 16h-31v105h86z" />
    <glyph glyph-name="asciitilde" unicode="~" 
d="M380 340q-38 0 -80 24l-18 10q-28 16 -42 16q-13 0 -23.5 -11.5t-10.5 -28.5h-95v26q0 47 32.5 80.5t79.5 33.5q37 0 75 -20l18 -10q36 -20 49 -20t21.5 11.5t8.5 28.5h95v-26q0 -47 -32.5 -80.5t-77.5 -33.5z" />
    <glyph glyph-name="uni00A0" unicode="&#xa0;" 
 />
    <glyph glyph-name="exclamdown" unicode="&#xa1;" 
d="M230 500h140v-135h-140v135zM265 325h71l31 -285v-240h-133v240z" />
    <glyph glyph-name="cent" unicode="&#xa2;" 
d="M335 104q27 4 45 23.5t23 47.5h129q-8 -85 -66.5 -135t-148.5 -50h-1l-19 -110h-103l22 128q-71 27 -110 92t-39 150q0 109 62 181.5t171 78.5l19 110h103l-21 -123q56 -20 90.5 -64.5t40.5 -107.5h-129q-5 29 -23 47zM197 250q0 -74 40 -115l44 257q-40 -12 -62 -51.5
t-22 -90.5z" />
    <glyph glyph-name="sterling" unicode="&#xa3;" 
d="M236 115h322v-115h-516v115h43q32 0 46.5 15t16.5 47l6 87l-112 -27v110l121 29l8 114q16 210 222 210h115v-115h-118q-44 0 -64 -21.5t-24 -78.5l-6 -77l111 26v-110l-119 -28l-8 -99q-5 -56 -44 -82z" />
    <glyph glyph-name="currency" unicode="&#xa4;" 
d="M541 305q0 -59 -26 -108l77 -77l-90 -90l-77 73q-58 -33 -128 -33t-125 32l-75 -72l-90 90l73 73q-27 52 -27 112t27 112l-73 73l90 90l75 -72q55 32 125 32t128 -33l77 73l90 -90l-77 -77q26 -49 26 -108zM300 189q49 0 80.5 33.5t31.5 82.5t-31.5 82.5t-80.5 33.5h-6
q-49 0 -80.5 -33.5t-31.5 -82.5t31.5 -82.5t80.5 -33.5h6z" />
    <glyph glyph-name="yen" unicode="&#xa5;" 
d="M588 700l-140 -268l83 18v-110l-148 -33l-16 -31v-35l134 30v-110l-134 -30v-131h-135v101l-132 -29v110l132 29v63l-162 -36v110l112 25l-170 327h148l141 -301h1l141 301h145z" />
    <glyph glyph-name="brokenbar" unicode="&#xa6;" 
d="M233 415v370h133v-370h-133zM233 -85v380h133v-380h-133z" />
    <glyph glyph-name="section" unicode="&#xa7;" 
d="M107 -60v105h205q52 0 52 41q0 31 -45 47l-139 52q-59 22 -86.5 54.5t-26.5 82.5q2 78 91 125q-53 38 -53 110q0 143 179 143h188v-105h-180q-57 0 -57 -40q0 -33 43 -46l91 -30q83 -27 123 -59.5t40 -92.5q0 -42 -25 -78t-68 -57q58 -46 58 -108q0 -61 -44.5 -102.5
t-136.5 -41.5h-209zM347 243q25 9 38.5 28t13.5 37q0 42 -62 61l-87 28q-50 -21 -50 -67q0 -15 9 -25.5t19.5 -15.5t30.5 -13z" />
    <glyph glyph-name="dieresis" unicode="&#xa8;" 
d="M140 565v130h120v-130h-120zM340 565v130h120v-130h-120z" />
    <glyph glyph-name="copyright" unicode="&#xa9;" 
d="M300 51q-124 0 -212 88t-88 212t88 212t212 88t212 -88t88 -212t-88 -212t-212 -88zM300 132q91 0 153 64t62 155t-62 155t-153 64t-153 -64t-62 -155t62 -155t153 -64zM301 186q-72 0 -108 46t-36 119t36 119t108 46q68 0 101.5 -34t33.5 -88h-88q-5 47 -45 47h-3
q-52 0 -52 -90t52 -90h3q41 0 46 49h87q0 -54 -34 -89t-101 -35z" />
    <glyph glyph-name="ordfeminine" unicode="&#xaa;" 
d="M256 410q-40 0 -66.5 24t-26.5 63q0 73 108 86l65 8v9q0 33 -32 33h-4q-29 0 -34 -22h-93q2 43 36 68.5t95 25.5q57 0 92.5 -27.5t35.5 -71.5v-128q0 -36 4 -63h-89q-2 9 -4 36q-32 -41 -87 -41zM287 476h4q19 0 33 13t14 36v10l-55 -10q-24 -5 -24 -25q0 -24 28 -24z
" />
    <glyph glyph-name="guillemotleft" unicode="&#xab;" 
d="M325 500l-145 -215l145 -215h-150l-145 215l145 215h150zM565 500l-145 -215l145 -215h-150l-145 215l145 215h150z" />
    <glyph glyph-name="logicalnot" unicode="&#xac;" 
d="M408 115v135h-349v115h482v-250h-133z" />
    <glyph glyph-name="uni00AD" unicode="&#xad;" 
d="M155 250v105h290v-105h-290z" />
    <glyph glyph-name="registered" unicode="&#xae;" 
d="M302 51q-124 0 -212 88t-88 212t88 212t212 88t212 -88t88 -212t-88 -212t-212 -88zM302 132q91 0 153 64t62 155t-62 155t-153 64t-153 -64t-62 -155t62 -155t153 -64zM181 193v316h152q51 0 78 -24.5t27 -62.5q0 -34 -18.5 -55t-48.5 -27q62 0 62 -49v-98h-84v81
q0 17 -6 23t-24 6h-52v-110h-86zM267 374h51q34 0 34 31q0 32 -35 32h-50v-63z" />
    <glyph glyph-name="macron" unicode="&#xaf;" 
d="M147 565v105h305v-105h-305z" />
    <glyph glyph-name="degree" unicode="&#xb0;" 
d="M300 340q-79 0 -132 53t-53 132t53 132t132 53t132 -53t53 -132t-53 -132t-132 -53zM300 448q30 0 50.5 22t20.5 55q0 31 -20.5 51.5t-50.5 20.5t-50.5 -20.5t-20.5 -51.5q0 -33 20.5 -55t50.5 -22z" />
    <glyph glyph-name="plusminus" unicode="&#xb1;" 
d="M366 390h181v-115h-181v-105h-133v105h-180v115h180v110h133v-110zM53 0v115h494v-115h-494z" />
    <glyph glyph-name="uni00B2" unicode="&#xb2;" 
d="M153 415v84l149 135q38 34 38 57q0 15 -10.5 25.5t-26.5 10.5h-4q-16 0 -28 -13t-13 -30h-107q4 59 47.5 95t108.5 36q63 0 102 -36t39 -81q0 -33 -14.5 -56t-43.5 -50l-95 -87h154v-90h-296z" />
    <glyph glyph-name="uni00B3" unicode="&#xb3;" 
d="M297 410q-64 0 -107.5 31t-43.5 86h108q1 -13 13.5 -21.5t28.5 -8.5h5q19 0 31.5 11t12.5 28t-12 26.5t-31 9.5h-37v84h37q18 0 29 10t11 26t-10 26t-28 10h-5q-15 0 -25.5 -8.5t-12.5 -19.5h-108q0 54 43 84.5t106 30.5q61 0 104.5 -30.5t43.5 -82.5q0 -63 -55 -87
q58 -27 58 -93q0 -53 -46 -82.5t-110 -29.5z" />
    <glyph glyph-name="acute" unicode="&#xb4;" 
d="M235 550l25 150h150l-100 -150h-75z" />
    <glyph glyph-name="uni00B5" unicode="&#xb5;" 
d="M395 500h130v-500h-130v74q-23 -39 -61.5 -61.5t-84.5 -22.5q-21 0 -39 3v-193h-130v700h130v-305q0 -48 19.5 -74t54.5 -26h8q43 0 73 37t30 90v278z" />
    <glyph glyph-name="paragraph" unicode="&#xb6;" 
d="M226 -200v474h-4q-86 0 -147.5 63t-61.5 150q0 88 62.5 150.5t150.5 62.5h361v-104h-70v-796h-113v796h-65v-796h-113z" />
    <glyph glyph-name="periodcentered" unicode="&#xb7;" 
d="M228 276v145h145v-145h-145z" />
    <glyph glyph-name="cedilla" unicode="&#xb8;" 
d="M215 -245v75h85q40 0 40 30q0 12 -9 21t-26 9h-55v125h70v-60q40 0 67.5 -24.5t27.5 -70.5q0 -48 -33.5 -76.5t-86.5 -28.5h-80z" />
    <glyph glyph-name="uni00B9" unicode="&#xb9;" 
d="M287 415v256l-109 -90v126l125 103h89v-395h-105z" />
    <glyph glyph-name="ordmasculine" unicode="&#xba;" 
d="M300 410q-70 0 -112 41.5t-42 105.5t42 106t112 42t112 -42t42 -106t-42 -105.5t-112 -41.5zM300 490q52 0 52 67q0 68 -52 68t-52 -68q0 -67 52 -67z" />
    <glyph glyph-name="guillemotright" unicode="&#xbb;" 
d="M185 500l145 -215l-145 -215h-150l145 215l-145 215h150zM425 500l145 -215l-145 -215h-150l145 215l-145 215h150z" />
    <glyph glyph-name="onequarter" unicode="&#xbc;" 
d="M106 403v183l-79 -66v103l91 77h75v-297h-87zM40 0l420 700h100l-420 -700h-100zM458 -1v41h-149v92l129 164h98v-189h40v-67h-40v-41h-78zM381 107h77v100z" />
    <glyph glyph-name="onehalf" unicode="&#xbd;" 
d="M106 403v183l-79 -66v103l91 77h75v-297h-87zM40 0l420 700h100l-420 -700h-100zM354 0v64l114 106q22 20 22 35q0 25 -23 25h-3q-12 0 -19 -8.5t-7 -20.5h-87q3 44 37 71.5t83 27.5t78.5 -27.5t29.5 -59.5q0 -39 -37 -74l-70 -66h107v-73h-225z" />
    <glyph glyph-name="threequarters" unicode="&#xbe;" 
d="M145 400q-49 0 -82.5 22.5t-33.5 63.5h88q5 -17 28 -17h2q28 0 28 26q0 24 -28 24h-28v66h26q28 0 28 25q0 24 -24 24h-2q-19 0 -25 -17h-88q0 40 33 63t81 23q51 0 82 -22.5t31 -62.5q0 -48 -39 -65q41 -19 41 -69q0 -39 -33.5 -61.5t-84.5 -22.5zM40 0l420 700h100
l-420 -700h-100zM458 -1v41h-149v92l129 164h98v-189h40v-67h-40v-41h-78zM381 107h77v100z" />
    <glyph glyph-name="questiondown" unicode="&#xbf;" 
d="M430 505v-135h-140v135h140zM421 309v-154q0 -38 -21 -59t-58 -21h-27q-93 0 -93 -80q0 -37 25.5 -58.5t67.5 -21.5h200v-115h-218q-91 0 -149 53t-58 142q0 78 49.5 131.5t132.5 53.5h1q14 0 19.5 5t5.5 20v104h123z" />
    <glyph glyph-name="Agrave" unicode="&#xc0;" 
d="M344 745h-90l-105 145h155zM450 0l-45 165h-210l-45 -165h-142l213 700h166l206 -700h-143zM228 285h144l-72 263z" />
    <glyph glyph-name="Aacute" unicode="&#xc1;" 
d="M455 890l-105 -145h-90l40 145h155zM450 0l-45 165h-210l-45 -165h-142l213 700h166l206 -700h-143zM228 285h144l-72 263z" />
    <glyph glyph-name="Acircumflex" unicode="&#xc2;" 
d="M303 803l-80 -58h-110l120 145h140l120 -145h-110zM450 0l-45 165h-210l-45 -165h-142l213 700h166l206 -700h-143zM228 285h144l-72 263z" />
    <glyph glyph-name="Atilde" unicode="&#xc3;" 
d="M239 800q-13 0 -23.5 -11.5t-10.5 -28.5h-95v26q0 47 32.5 80.5t79.5 33.5q37 0 75 -20l18 -10q36 -20 49 -20t21.5 11.5t8.5 28.5h95v-26q0 -47 -32.5 -80.5t-77.5 -33.5q-38 0 -80 24l-18 10q-28 16 -42 16zM450 0l-45 165h-210l-45 -165h-142l213 700h166l206 -700
h-143zM228 285h144l-72 263z" />
    <glyph glyph-name="Adieresis" unicode="&#xc4;" 
d="M264 885v-120h-125v120h125zM459 885v-120h-125v120h125zM450 0l-45 165h-210l-45 -165h-142l213 700h166l206 -700h-143zM228 285h144l-72 263z" />
    <glyph glyph-name="Aring" unicode="&#xc5;" 
d="M306 730q-44 0 -77 32t-33 78q0 43 33.5 76.5t76.5 33.5q46 0 78 -33t32 -77q0 -47 -31.5 -78.5t-78.5 -31.5zM306 880q-16 0 -28 -12t-12 -28t12 -28t28 -12t27.5 12t11.5 28t-11.5 28t-27.5 12zM450 0l-45 165h-210l-45 -165h-142l213 700h166l206 -700h-143zM228 285
h144l-72 263z" />
    <glyph glyph-name="AE" unicode="&#xc6;" 
d="M408 120h170v-120h-305v138h-99l-32 -138h-136l181 700h381v-120h-160v-161h125v-120h-125v-179zM202 258h71v309z" />
    <glyph glyph-name="Ccedilla" unicode="&#xc7;" 
d="M316 110q92 0 108 120h135q-7 -102 -58 -165.5t-152 -72.5v-37q40 0 67.5 -24.5t27.5 -70.5q0 -48 -33.5 -76.5t-86.5 -28.5h-80v75h85q40 0 40 30q0 12 -8.5 21t-26.5 9h-55v102q-116 13 -177.5 109t-61.5 249q0 166 71 263t204 97q117 0 176.5 -66t67.5 -174h-135
q-6 56 -34 88t-74 32h-2q-64 0 -101.5 -64t-37.5 -176t37.5 -176t101.5 -64h2z" />
    <glyph glyph-name="Egrave" unicode="&#xc8;" 
d="M343 745h-90l-105 145h155zM64 0v700h465v-120h-330v-161h280v-120h-280v-179h340v-120h-475z" />
    <glyph glyph-name="Eacute" unicode="&#xc9;" 
d="M259 745l40 145h155l-105 -145h-90zM64 0v700h465v-120h-330v-161h280v-120h-280v-179h340v-120h-475z" />
    <glyph glyph-name="Ecircumflex" unicode="&#xca;" 
d="M302 803l-80 -58h-110l120 145h140l120 -145h-110zM199 120h340v-120h-475v700h465v-120h-330v-161h280v-120h-280v-179z" />
    <glyph glyph-name="Edieresis" unicode="&#xcb;" 
d="M138 765v120h125v-120h-125zM333 765v120h125v-120h-125zM64 0v700h465v-120h-330v-161h280v-120h-280v-179h340v-120h-475z" />
    <glyph glyph-name="Igrave" unicode="&#xcc;" 
d="M341 745h-90l-105 145h155zM505 590h-138v-480h138v-110h-410v110h137v480h-137v110h410v-110z" />
    <glyph glyph-name="Iacute" unicode="&#xcd;" 
d="M452 890l-105 -145h-90l40 145h155zM505 590h-138v-480h138v-110h-410v110h137v480h-137v110h410v-110z" />
    <glyph glyph-name="Icircumflex" unicode="&#xce;" 
d="M300 803l-80 -58h-110l120 145h140l120 -145h-110zM505 590h-138v-480h138v-110h-410v110h137v480h-137v110h410v-110z" />
    <glyph glyph-name="Idieresis" unicode="&#xcf;" 
d="M261 885v-120h-125v120h125zM456 885v-120h-125v120h125zM505 590h-138v-480h138v-110h-410v110h137v480h-137v110h410v-110z" />
    <glyph glyph-name="Eth" unicode="&#xd0;" 
d="M268 700q133 0 216.5 -91.5t83.5 -258.5q0 -168 -81.5 -259t-213.5 -91h-214v290h-59v120h59v290h209zM258 120q79 0 127 53.5t48 176.5t-48 176.5t-127 53.5h-64v-170h149v-120h-149v-170h64z" />
    <glyph glyph-name="Ntilde" unicode="&#xd1;" 
d="M247 800q-13 0 -23.5 -11.5t-10.5 -28.5h-95v26q0 47 32.5 80.5t79.5 33.5q37 0 75 -20l18 -10q36 -20 49 -20t21.5 11.5t8.5 28.5h95v-26q0 -47 -32.5 -80.5t-77.5 -33.5q-38 0 -80 24l-18 10q-28 16 -42 16zM417 700h131v-700h-150l-215 469v-469h-131v700h153
l212 -463v463z" />
    <glyph glyph-name="Ograve" unicode="&#xd2;" 
d="M341 745h-90l-105 145h155zM300 -10q-131 0 -199.5 97t-68.5 263t68.5 263t199.5 97t199.5 -97t68.5 -263t-68.5 -263t-199.5 -97zM299 110h2q132 0 132 240t-132 240h-2q-132 0 -132 -240t132 -240z" />
    <glyph glyph-name="Oacute" unicode="&#xd3;" 
d="M257 745l40 145h155l-105 -145h-90zM300 -10q-131 0 -199.5 97t-68.5 263t68.5 263t199.5 97t199.5 -97t68.5 -263t-68.5 -263t-199.5 -97zM299 110h2q132 0 132 240t-132 240h-2q-132 0 -132 -240t132 -240z" />
    <glyph glyph-name="Ocircumflex" unicode="&#xd4;" 
d="M300 803l-80 -58h-110l120 145h140l120 -145h-110zM300 710q131 0 199.5 -97t68.5 -263t-68.5 -263t-199.5 -97t-199.5 97t-68.5 263t68.5 263t199.5 97zM301 110q132 0 132 240t-132 240h-2q-132 0 -132 -240t132 -240h2z" />
    <glyph glyph-name="Otilde" unicode="&#xd5;" 
d="M376 750q-38 0 -80 24l-18 10q-28 16 -42 16q-13 0 -23.5 -11.5t-10.5 -28.5h-95v26q0 47 32.5 80.5t79.5 33.5q37 0 75 -20l18 -10q36 -20 49 -20t21.5 11.5t8.5 28.5h95v-26q0 -47 -32.5 -80.5t-77.5 -33.5zM300 -10q-131 0 -199.5 97t-68.5 263t68.5 263t199.5 97
t199.5 -97t68.5 -263t-68.5 -263t-199.5 -97zM299 110h2q132 0 132 240t-132 240h-2q-132 0 -132 -240t132 -240z" />
    <glyph glyph-name="Odieresis" unicode="&#xd6;" 
d="M136 765v120h125v-120h-125zM331 765v120h125v-120h-125zM300 -10q-131 0 -199.5 97t-68.5 263t68.5 263t199.5 97t199.5 -97t68.5 -263t-68.5 -263t-199.5 -97zM299 110h2q132 0 132 240t-132 240h-2q-132 0 -132 -240t132 -240z" />
    <glyph glyph-name="multiply" unicode="&#xd7;" 
d="M527 114l-83 -83l-144 145l-145 -145l-81 82l144 144l-145 145l83 83l145 -145l144 144l81 -82l-143 -143z" />
    <glyph glyph-name="Oslash" unicode="&#xd8;" 
d="M584 680l-64 -99q48 -91 48 -231q0 -166 -68.5 -263t-199.5 -97q-82 0 -138 38l-47 -72l-97 64l63 97q-49 91 -49 233q0 166 68.5 263t199.5 97q81 0 140 -39l47 73zM167 350q0 -50 6 -91l198 307q-27 24 -70 24h-2q-132 0 -132 -240zM433 350q0 49 -6 88l-197 -305
q28 -23 69 -23h2q132 0 132 240z" />
    <glyph glyph-name="Ugrave" unicode="&#xd9;" 
d="M344 745h-90l-105 145h155zM300 -10q-118 0 -185.5 66.5t-67.5 180.5v463h135v-443q0 -147 116 -147h4q116 0 116 147v443h135v-463q0 -114 -67.5 -180.5t-185.5 -66.5z" />
    <glyph glyph-name="Uacute" unicode="&#xda;" 
d="M260 745l40 145h155l-105 -145h-90zM300 -10q-118 0 -185.5 66.5t-67.5 180.5v463h135v-443q0 -147 116 -147h4q116 0 116 147v443h135v-463q0 -114 -67.5 -180.5t-185.5 -66.5z" />
    <glyph glyph-name="Ucircumflex" unicode="&#xdb;" 
d="M303 803l-80 -58h-110l120 145h140l120 -145h-110zM418 700h135v-463q0 -114 -67.5 -180.5t-185.5 -66.5t-185.5 66.5t-67.5 180.5v463h135v-443q0 -147 116 -147h4q116 0 116 147v443z" />
    <glyph glyph-name="Udieresis" unicode="&#xdc;" 
d="M139 765v120h125v-120h-125zM334 765v120h125v-120h-125zM300 -10q-118 0 -185.5 66.5t-67.5 180.5v463h135v-443q0 -147 116 -147h4q116 0 116 147v443h135v-463q0 -114 -67.5 -180.5t-185.5 -66.5z" />
    <glyph glyph-name="Yacute" unicode="&#xdd;" 
d="M455 890l-105 -145h-90l40 145h155zM443 700h145l-221 -424v-276h-135v276l-220 424h148l142 -301z" />
    <glyph glyph-name="Thorn" unicode="&#xde;" 
d="M82 0v700h135v-125h175q103 0 166.5 -60t63.5 -165t-63.5 -165t-166.5 -60h-175v-125h-135zM217 245h165q51 0 78 28.5t27 76.5q0 49 -27 77t-78 28h-165v-210z" />
    <glyph glyph-name="germandbls" unicode="&#xdf;" 
d="M92 -185v688q0 95 58 151t158 56q92 0 150.5 -52t58.5 -128q0 -115 -116 -162q58 -10 99.5 -57.5t41.5 -112.5q0 -92 -63.5 -145t-163.5 -53h-48v105h18q60 0 93.5 28t33.5 80q0 50 -35.5 74.5t-91.5 24.5h-18v105h18q44 0 75.5 26t31.5 72q0 43 -23 66.5t-58 23.5h-6
q-36 0 -59.5 -27t-23.5 -80v-683h-130z" />
    <glyph glyph-name="agrave" unicode="&#xe0;" 
d="M337 550h-75l-100 150h150zM510 110q0 -75 5 -110h-122q-4 21 -6 61q-50 -71 -148 -71q-69 0 -116.5 40.5t-47.5 106.5q0 76 51 117t132 48l126 11v12q0 35 -22 57.5t-59 22.5h-6q-35 0 -57.5 -18t-24.5 -42h-130q8 72 65.5 118.5t149.5 46.5q96 0 153 -47t57 -133v-220z
M271 95q46 0 79.5 30.5t33.5 78.5v14l-108 -11q-29 -3 -51 -18t-22 -43q0 -23 18 -37t45 -14h5z" />
    <glyph glyph-name="aacute" unicode="&#xe1;" 
d="M432 700l-100 -150h-75l25 150h150zM510 110q0 -75 5 -110h-122q-4 21 -6 61q-50 -71 -148 -71q-69 0 -116.5 40.5t-47.5 106.5q0 76 51 117t132 48l126 11v12q0 35 -22 57.5t-59 22.5h-6q-35 0 -57.5 -18t-24.5 -42h-130q8 72 65.5 118.5t149.5 46.5q96 0 153 -47
t57 -133v-220zM271 95q46 0 79.5 30.5t33.5 78.5v14l-108 -11q-29 -3 -51 -18t-22 -43q0 -23 18 -37t45 -14h5z" />
    <glyph glyph-name="acircumflex" unicode="&#xe2;" 
d="M297 622l-100 -72h-80l100 150h160l100 -150h-80zM510 110q0 -75 5 -110h-122q-4 21 -6 61q-50 -71 -148 -71q-69 0 -116.5 40.5t-47.5 106.5q0 76 51 117t132 48l126 11v12q0 35 -22 57.5t-59 22.5h-6q-35 0 -57.5 -18t-24.5 -42h-130q8 72 65.5 118.5t149.5 46.5
q96 0 153 -47t57 -133v-220zM271 95q46 0 79.5 30.5t33.5 78.5v14l-108 -11q-29 -3 -51 -18t-22 -43q0 -23 18 -37t45 -14h5z" />
    <glyph glyph-name="atilde" unicode="&#xe3;" 
d="M236 605q-13 0 -23.5 -11.5t-10.5 -28.5h-95v26q0 47 32.5 80.5t79.5 33.5q37 0 75 -20l18 -10q36 -20 49 -20t21.5 11.5t8.5 28.5h95v-26q0 -47 -32.5 -80.5t-77.5 -33.5q-38 0 -80 24l-18 10q-28 16 -42 16zM510 110q0 -75 5 -110h-122q-4 21 -6 61q-50 -71 -148 -71
q-69 0 -116.5 40.5t-47.5 106.5q0 76 51 117t132 48l126 11v12q0 35 -22 57.5t-59 22.5h-6q-35 0 -57.5 -18t-24.5 -42h-130q8 72 65.5 118.5t149.5 46.5q96 0 153 -47t57 -133v-220zM271 95q46 0 79.5 30.5t33.5 78.5v14l-108 -11q-29 -3 -51 -18t-22 -43q0 -23 18 -37
t45 -14h5z" />
    <glyph glyph-name="adieresis" unicode="&#xe4;" 
d="M257 695v-130h-120v130h120zM457 695v-130h-120v130h120zM510 110q0 -75 5 -110h-122q-4 21 -6 61q-50 -71 -148 -71q-69 0 -116.5 40.5t-47.5 106.5q0 76 51 117t132 48l126 11v12q0 35 -22 57.5t-59 22.5h-6q-35 0 -57.5 -18t-24.5 -42h-130q8 72 65.5 118.5
t149.5 46.5q96 0 153 -47t57 -133v-220zM271 95q46 0 79.5 30.5t33.5 78.5v14l-108 -11q-29 -3 -51 -18t-22 -43q0 -23 18 -37t45 -14h5z" />
    <glyph glyph-name="aring" unicode="&#xe5;" 
d="M297 540q-42 0 -73.5 30.5t-31.5 74.5q0 41 32 73t73 32q44 0 74.5 -31.5t30.5 -73.5q0 -45 -30 -75t-75 -30zM297 689q-18 0 -31 -13t-13 -31t13 -31t31 -13t30.5 13t12.5 31t-12.5 31t-30.5 13zM510 110q0 -75 5 -110h-122q-4 21 -6 61q-50 -71 -148 -71
q-69 0 -116.5 40.5t-47.5 106.5q0 76 51 117t132 48l126 11v12q0 35 -22 57.5t-59 22.5h-6q-35 0 -57.5 -18t-24.5 -42h-130q8 72 65.5 118.5t149.5 46.5q96 0 153 -47t57 -133v-220zM271 95q46 0 79.5 30.5t33.5 78.5v14l-108 -11q-29 -3 -51 -18t-22 -43q0 -23 18 -37
t45 -14h5z" />
    <glyph glyph-name="ae" unicode="&#xe6;" 
d="M594 285v-76h-224q0 -51 15.5 -82.5t46.5 -31.5h2q42 0 49 63h110q-1 -73 -40 -120.5t-110 -47.5q-97 0 -141 74q-45 -74 -131 -74q-75 0 -118.5 44t-43.5 116q0 77 43.5 113.5t117.5 36.5h70v19q0 86 -53 86h-3q-26 0 -39 -18t-14 -41h-115q5 70 50 117t120 47
q86 0 128 -58q43 58 119 58q81 0 121 -61.5t40 -163.5zM371 300h118q0 46 -13.5 75.5t-41.5 29.5h-2q-29 0 -44.5 -32t-16.5 -73zM240 181v28h-58q-63 0 -63 -60q0 -25 16.5 -39.5t39.5 -14.5h2q33 0 48 26.5t15 59.5z" />
    <glyph glyph-name="ccedilla" unicode="&#xe7;" 
d="M311 95q79 0 92 80h130q-7 -83 -56.5 -129t-133.5 -54v-37q40 0 67.5 -24.5t27.5 -70.5q0 -48 -33.5 -76.5t-86.5 -28.5h-80v75h85q40 0 40 30q0 12 -8.5 21t-26.5 9h-55v102q-91 12 -148 81.5t-57 176.5q0 118 68 189t172 71q100 0 159 -46.5t66 -138.5h-130
q-13 80 -92 80h-6q-53 0 -80 -43.5t-27 -111.5t27 -111.5t80 -43.5h6z" />
    <glyph glyph-name="egrave" unicode="&#xe8;" 
d="M345 550h-75l-100 150h150zM533 256q0 -15 -2 -47h-338q2 -45 33.5 -79.5t80.5 -34.5h6q36 0 59 18t30 45h129q-19 -76 -77 -122t-149 -46q-99 0 -168.5 70.5t-69.5 189.5q0 114 65.5 187t174.5 73t167.5 -70.5t58.5 -183.5zM300 405q-42 0 -73 -28t-34 -71h214
q-1 39 -28 69t-73 30h-6z" />
    <glyph glyph-name="eacute" unicode="&#xe9;" 
d="M440 700l-100 -150h-75l25 150h150zM533 256q0 -15 -2 -47h-338q2 -45 33.5 -79.5t80.5 -34.5h6q36 0 59 18t30 45h129q-19 -76 -77 -122t-149 -46q-99 0 -168.5 70.5t-69.5 189.5q0 114 65.5 187t174.5 73t167.5 -70.5t58.5 -183.5zM300 405q-42 0 -73 -28t-34 -71h214
q-1 39 -28 69t-73 30h-6z" />
    <glyph glyph-name="ecircumflex" unicode="&#xea;" 
d="M305 622l-100 -72h-80l100 150h160l100 -150h-80zM533 256q0 -15 -2 -47h-338q2 -45 33.5 -79.5t80.5 -34.5h6q36 0 59 18t30 45h129q-19 -76 -77 -122t-149 -46q-99 0 -168.5 70.5t-69.5 189.5q0 114 65.5 187t174.5 73t167.5 -70.5t58.5 -183.5zM300 405q-42 0 -73 -28
t-34 -71h214q-1 39 -28 69t-73 30h-6z" />
    <glyph glyph-name="edieresis" unicode="&#xeb;" 
d="M265 695v-130h-120v130h120zM465 695v-130h-120v130h120zM533 256q0 -15 -2 -47h-338q2 -45 33.5 -79.5t80.5 -34.5h6q36 0 59 18t30 45h129q-19 -76 -77 -122t-149 -46q-99 0 -168.5 70.5t-69.5 189.5q0 114 65.5 187t174.5 73t167.5 -70.5t58.5 -183.5zM300 405
q-42 0 -73 -28t-34 -71h214q-1 39 -28 69t-73 30h-6z" />
    <glyph glyph-name="igrave" unicode="&#xec;" 
d="M351 550h-75l-100 150h150zM376 105h174v-105h-484v105h180v290h-153v105h283v-395z" />
    <glyph glyph-name="iacute" unicode="&#xed;" 
d="M446 700l-100 -150h-75l25 150h150zM376 105h174v-105h-484v105h180v290h-153v105h283v-395z" />
    <glyph glyph-name="icircumflex" unicode="&#xee;" 
d="M311 622l-100 -72h-80l100 150h160l100 -150h-80zM376 105h174v-105h-484v105h180v290h-153v105h283v-395z" />
    <glyph glyph-name="idieresis" unicode="&#xef;" 
d="M271 695v-130h-120v130h120zM471 695v-130h-120v130h120zM376 105h174v-105h-484v105h180v290h-153v105h283v-395z" />
    <glyph glyph-name="eth" unicode="&#xf0;" 
d="M451 594q91 -112 91 -302q0 -129 -64.5 -215.5t-185.5 -86.5q-110 0 -177.5 71t-67.5 180q0 100 63 167t167 67q65 0 123 -45q-10 62 -45 99l-64 -43l-56 79l25 17q-37 8 -76 8v110q121 0 191 -40l76 51l56 -79zM298 95q56 0 87.5 41.5t31.5 103.5q0 55 -32.5 92.5
t-88.5 37.5h-8q-52 0 -81.5 -37t-29.5 -92q0 -63 29.5 -104.5t83.5 -41.5h8z" />
    <glyph glyph-name="ntilde" unicode="&#xf1;" 
d="M379 555q-38 0 -80 24l-18 10q-28 16 -42 16q-13 0 -23.5 -11.5t-10.5 -28.5h-95v26q0 47 32.5 80.5t79.5 33.5q37 0 75 -20l18 -10q36 -20 49 -20t21.5 11.5t8.5 28.5h95v-26q0 -47 -32.5 -80.5t-77.5 -33.5zM75 0v500h130v-73q23 38 63 60.5t88 22.5q87 0 130.5 -51.5
t43.5 -138.5v-320h-130v305q0 48 -20.5 74t-58.5 26h-8q-45 0 -76.5 -37t-31.5 -90v-278h-130z" />
    <glyph glyph-name="ograve" unicode="&#xf2;" 
d="M265 550l-100 150h150l25 -150h-75zM300 -10q-111 0 -180.5 73t-69.5 187t69.5 187t180.5 73t180.5 -73t69.5 -187t-69.5 -187t-180.5 -73zM296 95h8q53 0 84 41t31 114t-31 114t-84 41h-8q-53 0 -84 -41t-31 -114t31 -114t84 -41z" />
    <glyph glyph-name="oacute" unicode="&#xf3;" 
d="M260 550l25 150h150l-100 -150h-75zM300 -10q-111 0 -180.5 73t-69.5 187t69.5 187t180.5 73t180.5 -73t69.5 -187t-69.5 -187t-180.5 -73zM296 95h8q53 0 84 41t31 114t-31 114t-84 41h-8q-53 0 -84 -41t-31 -114t31 -114t84 -41z" />
    <glyph glyph-name="ocircumflex" unicode="&#xf4;" 
d="M300 622l-100 -72h-80l100 150h160l100 -150h-80zM300 510q111 0 180.5 -73t69.5 -187t-69.5 -187t-180.5 -73t-180.5 73t-69.5 187t69.5 187t180.5 73zM304 95q53 0 84 41t31 114t-31 114t-84 41h-8q-53 0 -84 -41t-31 -114t31 -114t84 -41h8z" />
    <glyph glyph-name="otilde" unicode="&#xf5;" 
d="M472 555q-38 0 -80 24l-18 10q-28 16 -42 16q-13 0 -23.5 -11.5t-10.5 -28.5h-95v26q0 47 32.5 80.5t79.5 33.5q37 0 75 -20l18 -10q36 -20 49 -20t21.5 11.5t8.5 28.5h95v-26q0 -47 -32.5 -80.5t-77.5 -33.5zM300 -10q-111 0 -180.5 73t-69.5 187t69.5 187t180.5 73
t180.5 -73t69.5 -187t-69.5 -187t-180.5 -73zM296 95h8q53 0 84 41t31 114t-31 114t-84 41h-8q-53 0 -84 -41t-31 -114t31 -114t84 -41z" />
    <glyph glyph-name="odieresis" unicode="&#xf6;" 
d="M140 565v130h120v-130h-120zM340 565v130h120v-130h-120zM300 -10q-111 0 -180.5 73t-69.5 187t69.5 187t180.5 73t180.5 -73t69.5 -187t-69.5 -187t-180.5 -73zM296 95h8q53 0 84 41t31 114t-31 114t-84 41h-8q-53 0 -84 -41t-31 -114t31 -114t84 -41z" />
    <glyph glyph-name="divide" unicode="&#xf7;" 
d="M230 360v135h140v-135h-140zM53 200v115h494v-115h-494zM230 20v135h140v-135h-140z" />
    <glyph glyph-name="oslash" unicode="&#xf8;" 
d="M497 417q53 -69 53 -167q0 -114 -69.5 -187t-180.5 -73q-60 0 -113 24l-50 -65l-84 70l49 64q-52 71 -52 167q0 114 69.5 187t180.5 73q62 0 111 -23l48 62l89 -66zM181 250q0 -30 6 -56l156 204q-17 7 -39 7h-8q-53 0 -84 -41t-31 -114zM304 95q53 0 84 41t31 114
q0 31 -6 58l-158 -206q23 -7 41 -7h8z" />
    <glyph glyph-name="ugrave" unicode="&#xf9;" 
d="M346 550h-75l-100 150h150zM390 500h130v-500h-130v74q-23 -39 -61.5 -61.5t-84.5 -22.5q-84 0 -126.5 51.5t-42.5 138.5v320h130v-305q0 -48 19.5 -74t54.5 -26h8q43 0 73 37t30 90v278z" />
    <glyph glyph-name="uacute" unicode="&#xfa;" 
d="M441 700l-100 -150h-75l25 150h150zM390 500h130v-500h-130v74q-23 -39 -61.5 -61.5t-84.5 -22.5q-84 0 -126.5 51.5t-42.5 138.5v320h130v-305q0 -48 19.5 -74t54.5 -26h8q43 0 73 37t30 90v278z" />
    <glyph glyph-name="ucircumflex" unicode="&#xfb;" 
d="M306 622l-100 -72h-80l100 150h160l100 -150h-80zM390 500h130v-500h-130v74q-23 -39 -61.5 -61.5t-84.5 -22.5q-84 0 -126.5 51.5t-42.5 138.5v320h130v-305q0 -48 19.5 -74t54.5 -26h8q43 0 73 37t30 90v278z" />
    <glyph glyph-name="udieresis" unicode="&#xfc;" 
d="M266 695v-130h-120v130h120zM466 695v-130h-120v130h120zM390 500h130v-500h-130v74q-23 -39 -61.5 -61.5t-84.5 -22.5q-84 0 -126.5 51.5t-42.5 138.5v320h130v-305q0 -48 19.5 -74t54.5 -26h8q43 0 73 37t30 90v278z" />
    <glyph glyph-name="yacute" unicode="&#xfd;" 
d="M445 700l-100 -150h-75l25 150h150zM578 500l-213 -456v-116q0 -130 -130 -130h-182v112h133q34 0 44.5 10.5t10.5 44.5v74l-218 461h146l135 -304l130 304h144z" />
    <glyph glyph-name="thorn" unicode="&#xfe;" 
d="M341 510q104 0 163 -76t59 -184t-59 -184t-163 -76q-49 0 -88 23t-56 52v-265h-130v900h130v-265q17 29 56 52t88 23zM319 95q50 0 82 42t32 112t-32 113t-82 43h-8q-47 0 -80.5 -43t-33.5 -112t33.5 -112t80.5 -43h8z" />
    <glyph glyph-name="ydieresis" unicode="&#xff;" 
d="M270 695v-130h-120v130h120zM470 695v-130h-120v130h120zM578 500l-213 -456v-116q0 -130 -130 -130h-182v112h133q34 0 44.5 10.5t10.5 44.5v74l-218 461h146l135 -304l130 304h144z" />
    <glyph glyph-name="Amacron" unicode="&#x100;" 
d="M475 875v-110h-335v110h335zM450 0l-45 165h-210l-45 -165h-142l213 700h166l206 -700h-143zM228 285h144l-72 263z" />
    <glyph glyph-name="amacron" unicode="&#x101;" 
d="M449 670v-105h-305v105h305zM510 110q0 -75 5 -110h-122q-4 21 -6 61q-50 -71 -148 -71q-69 0 -116.5 40.5t-47.5 106.5q0 76 51 117t132 48l126 11v12q0 35 -22 57.5t-59 22.5h-6q-35 0 -57.5 -18t-24.5 -42h-130q8 72 65.5 118.5t149.5 46.5q96 0 153 -47t57 -133v-220
zM271 95q46 0 79.5 30.5t33.5 78.5v14l-108 -11q-29 -3 -51 -18t-22 -43q0 -23 18 -37t45 -14h5z" />
    <glyph glyph-name="Abreve" unicode="&#x102;" 
d="M302 740q-74 0 -121.5 41t-48.5 109h110q3 -27 19.5 -41t40.5 -14t40.5 14t19.5 41h110q-1 -68 -48.5 -109t-121.5 -41zM450 0l-45 165h-210l-45 -165h-142l213 700h166l206 -700h-143zM228 285h144l-72 263z" />
    <glyph glyph-name="abreve" unicode="&#x103;" 
d="M297 540q-74 0 -121.5 44t-48.5 116h110q2 -30 17.5 -47.5t42.5 -17.5t42.5 17.5t17.5 47.5h110q-1 -72 -48.5 -116t-121.5 -44zM510 110q0 -75 5 -110h-122q-4 21 -6 61q-50 -71 -148 -71q-69 0 -116.5 40.5t-47.5 106.5q0 76 51 117t132 48l126 11v12q0 35 -22 57.5
t-59 22.5h-6q-35 0 -57.5 -18t-24.5 -42h-130q8 72 65.5 118.5t149.5 46.5q96 0 153 -47t57 -133v-220zM271 95q46 0 79.5 30.5t33.5 78.5v14l-108 -11q-29 -3 -51 -18t-22 -43q0 -23 18 -37t45 -14h5z" />
    <glyph glyph-name="Aogonek" unicode="&#x104;" 
d="M544 0q-80 -46 -80 -90q0 -25 14.5 -37.5t35.5 -12.5h30v-80h-50q-52 0 -86 28t-34 72q0 74 76 120l-45 165h-210l-45 -165h-142l213 700h166l206 -700h-49zM228 285h144l-72 263z" />
    <glyph glyph-name="aogonek" unicode="&#x105;" 
d="M435 -90q0 -25 14.5 -37.5t35.5 -12.5h30v-80h-50q-52 0 -86 28t-34 72q0 74 76 120h-28q-4 21 -6 61q-50 -71 -148 -71q-69 0 -116.5 40.5t-47.5 106.5q0 76 51 117t132 48l126 11v12q0 35 -22 57.5t-59 22.5h-6q-35 0 -57.5 -18t-24.5 -42h-130q8 72 65.5 118.5
t149.5 46.5q96 0 153 -47t57 -133v-220q0 -75 5 -110q-80 -46 -80 -90zM271 95q46 0 79.5 30.5t33.5 78.5v14l-108 -11q-29 -3 -51 -18t-22 -43q0 -23 18 -37t45 -14h5z" />
    <glyph glyph-name="Cacute" unicode="&#x106;" 
d="M279 745l40 145h155l-105 -145h-90zM315 -10q-133 0 -204 97t-71 263t71 263t204 97q117 0 176.5 -66t67.5 -174h-135q-6 56 -34 88t-74 32h-2q-64 0 -101.5 -64t-37.5 -176t37.5 -176t101.5 -64h2q92 0 108 120h135q-8 -110 -67 -175t-177 -65z" />
    <glyph glyph-name="cacute" unicode="&#x107;" 
d="M273 550l25 150h150l-100 -150h-75zM308 -10q-104 0 -172 71t-68 189t68 189t172 71q100 0 159 -46.5t66 -138.5h-130q-13 80 -92 80h-6q-53 0 -80 -43.5t-27 -111.5t27 -111.5t80 -43.5h6q79 0 92 80h130q-7 -92 -66 -138.5t-159 -46.5z" />
    <glyph glyph-name="Ccircumflex" unicode="&#x108;" 
d="M322 803l-80 -58h-110l120 145h140l120 -145h-110zM316 110q92 0 108 120h135q-8 -110 -67 -175t-177 -65q-133 0 -204 97t-71 263t71 263t204 97q117 0 176.5 -66t67.5 -174h-135q-6 56 -34 88t-74 32h-2q-64 0 -101.5 -64t-37.5 -176t37.5 -176t101.5 -64h2z" />
    <glyph glyph-name="ccircumflex" unicode="&#x109;" 
d="M313 622l-100 -72h-80l100 150h160l100 -150h-80zM311 95q79 0 92 80h130q-7 -92 -66 -138.5t-159 -46.5q-104 0 -172 71t-68 189t68 189t172 71q100 0 159 -46.5t66 -138.5h-130q-13 80 -92 80h-6q-53 0 -80 -43.5t-27 -111.5t27 -111.5t80 -43.5h6z" />
    <glyph glyph-name="Cdotaccent" unicode="&#x10a;" 
d="M249 765v135h140v-135h-140zM315 -10q-133 0 -204 97t-71 263t71 263t204 97q117 0 176.5 -66t67.5 -174h-135q-6 56 -34 88t-74 32h-2q-64 0 -101.5 -64t-37.5 -176t37.5 -176t101.5 -64h2q92 0 108 120h135q-8 -110 -67 -175t-177 -65z" />
    <glyph glyph-name="cdotaccent" unicode="&#x10b;" 
d="M243 565v135h140v-135h-140zM308 -10q-104 0 -172 71t-68 189t68 189t172 71q100 0 159 -46.5t66 -138.5h-130q-13 80 -92 80h-6q-53 0 -80 -43.5t-27 -111.5t27 -111.5t80 -43.5h6q79 0 92 80h130q-7 -92 -66 -138.5t-159 -46.5z" />
    <glyph glyph-name="Ccaron" unicode="&#x10c;" 
d="M389 745h-140l-120 145h110l80 -58l80 58h110zM316 110q92 0 108 120h135q-8 -110 -67 -175t-177 -65q-133 0 -204 97t-71 263t71 263t204 97q117 0 176.5 -66t67.5 -174h-135q-6 56 -34 88t-74 32h-2q-64 0 -101.5 -64t-37.5 -176t37.5 -176t101.5 -64h2z" />
    <glyph glyph-name="ccaron" unicode="&#x10d;" 
d="M393 550h-160l-100 150h80l100 -72l100 72h80zM311 95q79 0 92 80h130q-7 -92 -66 -138.5t-159 -46.5q-104 0 -172 71t-68 189t68 189t172 71q100 0 159 -46.5t66 -138.5h-130q-13 80 -92 80h-6q-53 0 -80 -43.5t-27 -111.5t27 -111.5t80 -43.5h6z" />
    <glyph glyph-name="Dcaron" unicode="&#x10e;" 
d="M358 745h-140l-120 145h110l80 -58l80 58h110zM268 700q133 0 216.5 -91.5t83.5 -258.5q0 -168 -81.5 -259t-213.5 -91h-214v700h209zM258 120q79 0 127 53.5t48 176.5t-48 176.5t-127 53.5h-64v-460h64z" />
    <glyph glyph-name="dcaron" unicode="&#x10f;" 
d="M199 -10q-96 0 -146.5 75t-50.5 185t50.5 185t146.5 75q80 0 119 -68v258h130v-700h-130v58q-39 -68 -119 -68zM479 471v70h13q50 0 50 36v1h-49v122h122v-122q0 -47 -33.5 -77t-85.5 -30h-17zM221 95h8q38 0 63.5 42.5t25.5 112.5t-25.5 112.5t-63.5 42.5h-8
q-41 0 -65 -41.5t-24 -112.5q0 -72 24 -114t65 -42z" />
    <glyph glyph-name="Dcroat" unicode="&#x110;" 
d="M268 700q133 0 216.5 -91.5t83.5 -258.5q0 -168 -81.5 -259t-213.5 -91h-214v290h-59v120h59v290h209zM258 120q79 0 127 53.5t48 176.5t-48 176.5t-127 53.5h-64v-170h149v-120h-149v-170h64z" />
    <glyph glyph-name="dcroat" unicode="&#x111;" 
d="M610 645v-90h-76v-555h-130v65q-17 -29 -56 -52t-88 -23q-104 0 -163 76t-59 184t59 184t163 76q49 0 88 -23t56 -52v120h-139v90h139v55h130v-55h76zM290 95q47 0 80.5 43t33.5 112t-33.5 112t-80.5 43h-8q-50 0 -82 -42t-32 -112t32 -113t82 -43h8z" />
    <glyph glyph-name="Emacron" unicode="&#x112;" 
d="M139 765v110h335v-110h-335zM64 0v700h465v-120h-330v-161h280v-120h-280v-179h340v-120h-475z" />
    <glyph glyph-name="emacron" unicode="&#x113;" 
d="M457 670v-105h-305v105h305zM533 256q0 -15 -2 -47h-338q2 -45 33.5 -79.5t80.5 -34.5h6q36 0 59 18t30 45h129q-19 -76 -77 -122t-149 -46q-99 0 -168.5 70.5t-69.5 189.5q0 114 65.5 187t174.5 73t167.5 -70.5t58.5 -183.5zM300 405q-42 0 -73 -28t-34 -71h214
q-1 39 -28 69t-73 30h-6z" />
    <glyph glyph-name="Ebreve" unicode="&#x114;" 
d="M301 740q-74 0 -121.5 41t-48.5 109h110q3 -27 19.5 -41t40.5 -14t40.5 14t19.5 41h110q-1 -68 -48.5 -109t-121.5 -41zM64 0v700h465v-120h-330v-161h280v-120h-280v-179h340v-120h-475z" />
    <glyph glyph-name="ebreve" unicode="&#x115;" 
d="M305 540q-74 0 -121.5 44t-48.5 116h110q2 -30 17.5 -47.5t42.5 -17.5t42.5 17.5t17.5 47.5h110q-1 -72 -48.5 -116t-121.5 -44zM533 256q0 -15 -2 -47h-338q2 -45 33.5 -79.5t80.5 -34.5h6q36 0 59 18t30 45h129q-19 -76 -77 -122t-149 -46q-99 0 -168.5 70.5
t-69.5 189.5q0 114 65.5 187t174.5 73t167.5 -70.5t58.5 -183.5zM300 405q-42 0 -73 -28t-34 -71h214q-1 39 -28 69t-73 30h-6z" />
    <glyph glyph-name="Edotaccent" unicode="&#x116;" 
d="M229 765v135h140v-135h-140zM64 0v700h465v-120h-330v-161h280v-120h-280v-179h340v-120h-475z" />
    <glyph glyph-name="edotaccent" unicode="&#x117;" 
d="M375 700v-135h-140v135h140zM533 256q0 -15 -2 -47h-338q2 -45 33.5 -79.5t80.5 -34.5h6q36 0 59 18t30 45h129q-19 -76 -77 -122t-149 -46q-99 0 -168.5 70.5t-69.5 189.5q0 114 65.5 187t174.5 73t167.5 -70.5t58.5 -183.5zM300 405q-42 0 -73 -28t-34 -71h214
q-1 39 -28 69t-73 30h-6z" />
    <glyph glyph-name="Eogonek" unicode="&#x118;" 
d="M539 0q-80 -46 -80 -90q0 -25 14.5 -37.5t35.5 -12.5h30v-80h-50q-52 0 -86 28t-34 72q0 74 76 120h-381v700h465v-120h-330v-161h280v-120h-280v-179h340v-120z" />
    <glyph glyph-name="eogonek" unicode="&#x119;" 
d="M533 256q0 -15 -2 -47h-338q2 -45 33.5 -79.5t80.5 -34.5h6q36 0 59 18t30 45h129q-27 -109 -124 -149q-78 -45 -78 -89q0 -25 14.5 -37.5t35.5 -12.5h30v-80h-50q-52 0 -86 28t-34 72q0 57 49 101q-93 6 -157 75.5t-64 183.5t65.5 187t174.5 73t167.5 -70.5t58.5 -183.5
zM300 405q-42 0 -73 -28t-34 -71h214q-1 39 -28 69t-73 30h-6z" />
    <glyph glyph-name="Ecaron" unicode="&#x11a;" 
d="M369 745h-140l-120 145h110l80 -58l80 58h110zM199 120h340v-120h-475v700h465v-120h-330v-161h280v-120h-280v-179z" />
    <glyph glyph-name="ecaron" unicode="&#x11b;" 
d="M385 550h-160l-100 150h80l100 -72l100 72h80zM533 256q0 -15 -2 -47h-338q2 -45 33.5 -79.5t80.5 -34.5h6q36 0 59 18t30 45h129q-19 -76 -77 -122t-149 -46q-99 0 -168.5 70.5t-69.5 189.5q0 114 65.5 187t174.5 73t167.5 -70.5t58.5 -183.5zM300 405q-42 0 -73 -28
t-34 -71h214q-1 39 -28 69t-73 30h-6z" />
    <glyph glyph-name="Gcircumflex" unicode="&#x11c;" 
d="M316 803l-80 -58h-110l120 145h140l120 -145h-110zM476 365q85 0 85 -85v-280h-115v68q-51 -78 -151 -78q-121 0 -191.5 100t-70.5 260q0 166 72 263t208 97q118 0 179.5 -69t67.5 -181h-135q-4 56 -32.5 93t-80.5 37h-2q-68 0 -105 -64.5t-37 -175.5t38.5 -175.5
t110.5 -64.5h2q56 0 91.5 35.5t35.5 94.5v5h-133v120h163z" />
    <glyph glyph-name="gcircumflex" unicode="&#x11d;" 
d="M284 622l-100 -72h-80l100 150h160l100 -150h-80zM410 500h130v-511q0 -85 -68 -147t-191 -62q-100 0 -166 46t-70 119h130q5 -27 34 -43.5t78 -16.5h6q51 0 84 31t33 89v65q-42 -70 -141 -70q-91 0 -153.5 68t-62.5 187t62.5 187t153.5 68q99 0 141 -70v60zM303 105
q46 0 76.5 40.5t30.5 109.5t-30.5 109.5t-76.5 40.5h-8q-49 0 -80.5 -40.5t-31.5 -109.5t31.5 -109.5t80.5 -40.5h8z" />
    <glyph glyph-name="Gbreve" unicode="&#x11e;" 
d="M315 740q-74 0 -121.5 41t-48.5 109h110q3 -27 19.5 -41t40.5 -14t40.5 14t19.5 41h110q-1 -68 -48.5 -109t-121.5 -41zM295 -10q-121 0 -191.5 100t-70.5 260q0 166 72 263t208 97q118 0 179.5 -69t67.5 -181h-135q-4 56 -32.5 93t-80.5 37h-2q-68 0 -105 -64.5
t-37 -175.5t38.5 -175.5t110.5 -64.5h2q56 0 91.5 35.5t35.5 94.5v5h-133v120h163q85 0 85 -85v-280h-115v68q-51 -78 -151 -78z" />
    <glyph glyph-name="gbreve" unicode="&#x11f;" 
d="M284 540q-74 0 -121.5 44t-48.5 116h110q2 -30 17.5 -47.5t42.5 -17.5t42.5 17.5t17.5 47.5h110q-1 -72 -48.5 -116t-121.5 -44zM281 -220q-100 0 -166 46t-70 119h130q5 -27 34 -43.5t78 -16.5h6q51 0 84 31t33 89v65q-42 -70 -141 -70q-91 0 -153.5 68t-62.5 187
t62.5 187t153.5 68q99 0 141 -70v60h130v-511q0 -85 -68 -147t-191 -62zM295 105h8q46 0 76.5 40.5t30.5 109.5t-30.5 109.5t-76.5 40.5h-8q-49 0 -80.5 -40.5t-31.5 -109.5t31.5 -109.5t80.5 -40.5z" />
    <glyph glyph-name="Gdotaccent" unicode="&#x120;" 
d="M243 765v135h140v-135h-140zM295 -10q-121 0 -191.5 100t-70.5 260q0 166 72 263t208 97q118 0 179.5 -69t67.5 -181h-135q-4 56 -32.5 93t-80.5 37h-2q-68 0 -105 -64.5t-37 -175.5t38.5 -175.5t110.5 -64.5h2q56 0 91.5 35.5t35.5 94.5v5h-133v120h163q85 0 85 -85
v-280h-115v68q-51 -78 -151 -78z" />
    <glyph glyph-name="gdotaccent" unicode="&#x121;" 
d="M214 565v135h140v-135h-140zM281 -220q-100 0 -166 46t-70 119h130q5 -27 34 -43.5t78 -16.5h6q51 0 84 31t33 89v65q-42 -70 -141 -70q-91 0 -153.5 68t-62.5 187t62.5 187t153.5 68q99 0 141 -70v60h130v-511q0 -85 -68 -147t-191 -62zM295 105h8q46 0 76.5 40.5
t30.5 109.5t-30.5 109.5t-76.5 40.5h-8q-49 0 -80.5 -40.5t-31.5 -109.5t31.5 -109.5t80.5 -40.5z" />
    <glyph glyph-name="Gcommaaccent" unicode="&#x122;" 
d="M295 -10q-121 0 -191.5 100t-70.5 260q0 166 72 263t208 97q118 0 179.5 -69t67.5 -181h-135q-4 56 -32.5 93t-80.5 37h-2q-68 0 -105 -64.5t-37 -175.5t38.5 -175.5t110.5 -64.5h2q56 0 91.5 35.5t35.5 94.5v5h-133v120h163q85 0 85 -85v-280h-115v68q-51 -78 -151 -78z
M228 -310v75h23q54 0 54 39v1h-52v130h130v-130q0 -50 -35.5 -82.5t-91.5 -32.5h-28z" />
    <glyph glyph-name="gcommaaccent" unicode="&#x123;" 
d="M374 810v-75h-23q-54 0 -54 -39v-1h52v-130h-130v130q0 50 35.5 82.5t91.5 32.5h28zM281 -220q-100 0 -166 46t-70 119h130q5 -27 34 -43.5t78 -16.5h6q51 0 84 31t33 89v65q-42 -70 -141 -70q-91 0 -153.5 68t-62.5 187t62.5 187t153.5 68q99 0 141 -70v60h130v-511
q0 -85 -68 -147t-191 -62zM295 105h8q46 0 76.5 40.5t30.5 109.5t-30.5 109.5t-76.5 40.5h-8q-49 0 -80.5 -40.5t-31.5 -109.5t31.5 -109.5t80.5 -40.5z" />
    <glyph glyph-name="Hcircumflex" unicode="&#x124;" 
d="M303 803l-80 -58h-110l120 145h140l120 -145h-110zM415 700h135v-700h-135v290h-230v-290h-135v700h135v-290h230v290z" />
    <glyph glyph-name="hcircumflex" unicode="&#x125;" 
d="M321 803l-80 -58h-110l120 145h140l120 -145h-110zM356 510q87 0 130.5 -51.5t43.5 -138.5v-320h-130v305q0 48 -20.5 74t-58.5 26h-8q-45 0 -76.5 -37t-31.5 -90v-278h-130v700h130v-273q23 38 63 60.5t88 22.5z" />
    <glyph glyph-name="Hbar" unicode="&#x126;" 
d="M584 607v-115h-34v-492h-135v290h-230v-290h-135v492h-34v115h34v93h135v-93h230v93h135v-93h34zM415 410v82h-230v-82h230z" />
    <glyph glyph-name="hbar" unicode="&#x127;" 
d="M356 510q87 0 130.5 -51.5t43.5 -138.5v-320h-130v305q0 48 -20.5 74t-58.5 26h-8q-45 0 -76.5 -37t-31.5 -90v-278h-130v555h-78v90h78v55h130v-55h117v-90h-117v-128q23 38 63 60.5t88 22.5z" />
    <glyph glyph-name="Itilde" unicode="&#x128;" 
d="M236 800q-13 0 -23.5 -11.5t-10.5 -28.5h-95v26q0 47 32.5 80.5t79.5 33.5q37 0 75 -20l18 -10q36 -20 49 -20t21.5 11.5t8.5 28.5h95v-26q0 -47 -32.5 -80.5t-77.5 -33.5q-38 0 -80 24l-18 10q-28 16 -42 16zM505 590h-138v-480h138v-110h-410v110h137v480h-137v110h410
v-110z" />
    <glyph glyph-name="itilde" unicode="&#x129;" 
d="M250 605q-13 0 -23.5 -11.5t-10.5 -28.5h-95v26q0 47 32.5 80.5t79.5 33.5q37 0 75 -20l18 -10q36 -20 49 -20t21.5 11.5t8.5 28.5h95v-26q0 -47 -32.5 -80.5t-77.5 -33.5q-38 0 -80 24l-18 10q-28 16 -42 16zM376 105h174v-105h-484v105h180v290h-153v105h283v-395z" />
    <glyph glyph-name="Imacron" unicode="&#x12a;" 
d="M472 875v-110h-335v110h335zM505 590h-138v-480h138v-110h-410v110h137v480h-137v110h410v-110z" />
    <glyph glyph-name="imacron" unicode="&#x12b;" 
d="M463 670v-105h-305v105h305zM376 105h174v-105h-484v105h180v290h-153v105h283v-395z" />
    <glyph glyph-name="Ibreve" unicode="&#x12c;" 
d="M299 740q-74 0 -121.5 41t-48.5 109h110q3 -27 19.5 -41t40.5 -14t40.5 14t19.5 41h110q-1 -68 -48.5 -109t-121.5 -41zM505 590h-138v-480h138v-110h-410v110h137v480h-137v110h410v-110z" />
    <glyph glyph-name="ibreve" unicode="&#x12d;" 
d="M311 540q-74 0 -121.5 44t-48.5 116h110q2 -30 17.5 -47.5t42.5 -17.5t42.5 17.5t17.5 47.5h110q-1 -72 -48.5 -116t-121.5 -44zM376 105h174v-105h-484v105h180v290h-153v105h283v-395z" />
    <glyph glyph-name="Iogonek" unicode="&#x12e;" 
d="M505 590h-138v-480h138v-110h-136q-80 -46 -80 -90q0 -25 14.5 -37.5t35.5 -12.5h30v-80h-50q-52 0 -86 28t-34 72q0 74 76 120h-180v110h137v480h-137v110h410v-110z" />
    <glyph glyph-name="iogonek" unicode="&#x12f;" 
d="M384 700v-148h-146v148h146zM376 105h174v-105h-174q-80 -46 -80 -90q0 -25 14.5 -37.5t35.5 -12.5h30v-80h-50q-52 0 -86 28t-34 72q0 74 76 120h-216v105h180v290h-153v105h283v-395z" />
    <glyph glyph-name="Idotaccent" unicode="&#x130;" 
d="M367 900v-135h-140v135h140zM505 590h-138v-480h138v-110h-410v110h137v480h-137v110h410v-110z" />
    <glyph glyph-name="dotlessi" unicode="&#x131;" 
d="M376 105h174v-105h-484v105h180v290h-153v105h283v-395z" />
    <glyph glyph-name="IJ" unicode="&#x132;" 
d="M385 700h135v-560q0 -64 -38 -102t-102 -38h-290v130h235q34 0 47 13t13 47v510zM225 700v-494h-135v494h135z" />
    <glyph glyph-name="ij" unicode="&#x133;" 
d="M97 565v135h140v-135h-140zM364 565v135h140v-135h-140zM102 -200v110h212q30 0 42.5 12.5t12.5 42.5v535h130v-575q0 -60 -32.5 -92.5t-92.5 -32.5h-272zM102 0v500h130v-500h-130z" />
    <glyph glyph-name="Jcircumflex" unicode="&#x134;" 
d="M508 890l120 -145h-110l-80 58l-80 -58h-110l120 145h140zM367 190v510h135v-560q0 -64 -38 -102t-102 -38h-273v130h218q34 0 47 13t13 47z" />
    <glyph glyph-name="jcircumflex" unicode="&#x135;" 
d="M423 700l100 -150h-80l-100 72l-100 -72h-80l100 150h160zM142 500h283v-575q0 -60 -32.5 -92.5t-92.5 -32.5h-224v110h164q30 0 42.5 12.5t12.5 42.5v430h-153v105z" />
    <glyph glyph-name="Kcommaaccent" unicode="&#x136;" 
d="M362 410l246 -410h-151l-182 306l-75 -91v-215h-135v700h135v-302l250 302h154zM238 -195v130h130v-130q0 -50 -35.5 -82.5t-91.5 -32.5h-28v75h23q54 0 54 39v1h-52z" />
    <glyph glyph-name="kcommaaccent" unicode="&#x137;" 
d="M358 301l202 -301h-153l-139 208l-58 -59v-149h-130v700h130v-386l181 186h159zM215 -195v130h130v-130q0 -50 -35.5 -82.5t-91.5 -32.5h-28v75h23q54 0 54 39v1h-52z" />
    <glyph glyph-name="Lacute" unicode="&#x139;" 
d="M85 745l40 145h155l-105 -145h-90zM58 0v700h135v-580h372v-120h-507z" />
    <glyph glyph-name="lacute" unicode="&#x13a;" 
d="M470 890l-105 -145h-90l40 145h155zM380 105h174v-105h-484v105h180v490h-153v105h283v-595z" />
    <glyph glyph-name="Lcommaaccent" unicode="&#x13b;" 
d="M58 0v700h135v-580h372v-120h-507zM228 -310v75h23q54 0 54 39v1h-52v130h130v-130q0 -50 -35.5 -82.5t-91.5 -32.5h-28z" />
    <glyph glyph-name="lcommaaccent" unicode="&#x13c;" 
d="M380 105h174v-105h-484v105h180v490h-153v105h283v-595zM250 -195v130h130v-130q0 -50 -35.5 -82.5t-91.5 -32.5h-28v75h23q54 0 54 39v1h-52z" />
    <glyph glyph-name="Lcaron" unicode="&#x13d;" 
d="M58 0v700h135v-580h372v-120h-507zM306 455v75h23q54 0 54 39v1h-52v130h130v-130q0 -50 -35.5 -82.5t-91.5 -32.5h-28z" />
    <glyph glyph-name="lcaron" unicode="&#x13e;" 
d="M380 105h174v-105h-484v105h180v490h-153v105h283v-595zM453 700h130v-130q0 -50 -35.5 -82.5t-91.5 -32.5h-28v75h23q54 0 54 39v1h-52v130z" />
    <glyph glyph-name="Ldot" unicode="&#x13f;" 
d="M58 0v700h135v-580h372v-120h-507zM350 306v145h145v-145h-145z" />
    <glyph glyph-name="ldot" unicode="&#x140;" 
d="M380 105h174v-105h-484v105h180v490h-153v105h283v-595zM544 451h145v-145h-145v145z" />
    <glyph glyph-name="Lslash" unicode="&#x141;" 
d="M243 120h372v-120h-507v249l-119 -67v135l119 67v316h135v-241l146 82v-134l-146 -82v-205z" />
    <glyph glyph-name="lslash" unicode="&#x142;" 
d="M380 105h174v-105h-484v105h180v197l-78 -44v120l78 44v173h-153v105h283v-204l82 46v-120l-82 -46v-271z" />
    <glyph glyph-name="Nacute" unicode="&#x143;" 
d="M463 890l-105 -145h-90l40 145h155zM417 700h131v-700h-150l-215 469v-469h-131v700h153l212 -463v463z" />
    <glyph glyph-name="nacute" unicode="&#x144;" 
d="M260 550l25 150h150l-100 -150h-75zM75 0v500h130v-73q23 38 63 60.5t88 22.5q87 0 130.5 -51.5t43.5 -138.5v-320h-130v305q0 48 -20.5 74t-58.5 26h-8q-45 0 -76.5 -37t-31.5 -90v-278h-130z" />
    <glyph glyph-name="Ncommaaccent" unicode="&#x145;" 
d="M417 700h131v-700h-150l-215 469v-469h-131v700h153l212 -463v463zM243 -195v130h130v-130q0 -50 -35.5 -82.5t-91.5 -32.5h-28v75h23q54 0 54 39v1h-52z" />
    <glyph glyph-name="ncommaaccent" unicode="&#x146;" 
d="M75 0v500h130v-73q23 38 63 60.5t88 22.5q87 0 130.5 -51.5t43.5 -138.5v-320h-130v305q0 48 -20.5 74t-58.5 26h-8q-45 0 -76.5 -37t-31.5 -90v-278h-130zM220 -310v75h23q54 0 54 39v1h-52v130h130v-130q0 -50 -35.5 -82.5t-91.5 -32.5h-28z" />
    <glyph glyph-name="Ncaron" unicode="&#x147;" 
d="M378 745h-140l-120 145h110l80 -58l80 58h110zM417 700h131v-700h-150l-215 469v-469h-131v700h153l212 -463v463z" />
    <glyph glyph-name="ncaron" unicode="&#x148;" 
d="M380 550h-160l-100 150h80l100 -72l100 72h80zM356 510q87 0 130.5 -51.5t43.5 -138.5v-320h-130v305q0 48 -20.5 74t-58.5 26h-8q-45 0 -76.5 -37t-31.5 -90v-278h-130v500h130v-73q23 38 63 60.5t88 22.5z" />
    <glyph glyph-name="Eng" unicode="&#x14a;" 
d="M417 700h131v-770q0 -60 -35 -95t-95 -35h-120v110h60q30 0 42.5 12.5t12.5 42.5v35l-230 447v-447h-131v700h138l227 -442v442z" />
    <glyph glyph-name="eng" unicode="&#x14b;" 
d="M356 510q87 0 130.5 -51.5t43.5 -138.5v-397q0 -60 -32.5 -92.5t-92.5 -32.5h-110v112h50q30 0 42.5 12.5t12.5 42.5v340q0 48 -20.5 74t-58.5 26h-8q-45 0 -76.5 -37t-31.5 -90v-278h-130v500h130v-73q23 38 63 60.5t88 22.5z" />
    <glyph glyph-name="Omacron" unicode="&#x14c;" 
d="M137 765v110h335v-110h-335zM300 -10q-131 0 -199.5 97t-68.5 263t68.5 263t199.5 97t199.5 -97t68.5 -263t-68.5 -263t-199.5 -97zM299 110h2q132 0 132 240t-132 240h-2q-132 0 -132 -240t132 -240z" />
    <glyph glyph-name="omacron" unicode="&#x14d;" 
d="M147 565v105h305v-105h-305zM300 -10q-111 0 -180.5 73t-69.5 187t69.5 187t180.5 73t180.5 -73t69.5 -187t-69.5 -187t-180.5 -73zM296 95h8q53 0 84 41t31 114t-31 114t-84 41h-8q-53 0 -84 -41t-31 -114t31 -114t84 -41z" />
    <glyph glyph-name="Obreve" unicode="&#x14e;" 
d="M299 740q-74 0 -121.5 41t-48.5 109h110q3 -27 19.5 -41t40.5 -14t40.5 14t19.5 41h110q-1 -68 -48.5 -109t-121.5 -41zM300 -10q-131 0 -199.5 97t-68.5 263t68.5 263t199.5 97t199.5 -97t68.5 -263t-68.5 -263t-199.5 -97zM299 110h2q132 0 132 240t-132 240h-2
q-132 0 -132 -240t132 -240z" />
    <glyph glyph-name="obreve" unicode="&#x14f;" 
d="M300 540q-74 0 -121.5 44t-48.5 116h110q2 -30 17.5 -47.5t42.5 -17.5t42.5 17.5t17.5 47.5h110q-1 -72 -48.5 -116t-121.5 -44zM300 -10q-111 0 -180.5 73t-69.5 187t69.5 187t180.5 73t180.5 -73t69.5 -187t-69.5 -187t-180.5 -73zM296 95h8q53 0 84 41t31 114t-31 114
t-84 41h-8q-53 0 -84 -41t-31 -114t31 -114t84 -41z" />
    <glyph glyph-name="Ohungarumlaut" unicode="&#x150;" 
d="M156 745l40 145h155l-105 -145h-90zM345 745l40 145h155l-105 -145h-90zM300 -10q-131 0 -199.5 97t-68.5 263t68.5 263t199.5 97t199.5 -97t68.5 -263t-68.5 -263t-199.5 -97zM299 110h2q132 0 132 240t-132 240h-2q-132 0 -132 -240t132 -240z" />
    <glyph glyph-name="ohungarumlaut" unicode="&#x151;" 
d="M185 550l25 150h150l-100 -150h-75zM344 550l25 150h150l-100 -150h-75zM300 -10q-111 0 -180.5 73t-69.5 187t69.5 187t180.5 73t180.5 -73t69.5 -187t-69.5 -187t-180.5 -73zM296 95h8q53 0 84 41t31 114t-31 114t-84 41h-8q-53 0 -84 -41t-31 -114t31 -114t84 -41z
" />
    <glyph glyph-name="OE" unicode="&#x152;" 
d="M435 120h145v-120h-286q-131 0 -202.5 93.5t-71.5 256.5t71.5 256.5t202.5 93.5h276v-120h-135v-161h123v-120h-123v-179zM293 120h10v460h-10q-66 0 -102 -61.5t-36 -168.5t36 -168.5t102 -61.5z" />
    <glyph glyph-name="oe" unicode="&#x153;" 
d="M186 -10q-86 0 -133 70.5t-47 189.5t47 189.5t133 70.5q84 0 126 -58q44 58 117 58q84 0 124.5 -61.5t40.5 -163.5v-76h-224q0 -51 15.5 -82.5t46.5 -31.5h2q42 0 49 63h110q-1 -73 -40 -120.5t-110 -47.5q-104 0 -141 64q-42 -64 -116 -64zM187 95h2q54 0 54 155
q0 83 -13 119t-40 36h-3q-56 0 -56 -155t56 -155zM371 300h118q0 40 -14 72.5t-41 32.5h-2q-29 0 -44.5 -32t-16.5 -73z" />
    <glyph glyph-name="Racute" unicode="&#x154;" 
d="M452 890l-105 -145h-90l40 145h155zM436 333q107 0 107 -98v-235h-135v200q0 38 -14 51.5t-51 13.5h-146v-265h-135v700h276q91 0 153 -54t62 -136q0 -132 -119 -177h2zM298 383q120 0 120 101q0 96 -120 96h-101v-197h101z" />
    <glyph glyph-name="racute" unicode="&#x155;" 
d="M286 550l25 150h150l-100 -150h-75zM114 0v500h130v-90q34 95 162 95h111v-115h-120q-153 0 -153 -150v-240h-130z" />
    <glyph glyph-name="Rcommaaccent" unicode="&#x156;" 
d="M436 333q107 0 107 -98v-235h-135v200q0 38 -14 51.5t-51 13.5h-146v-265h-135v700h276q91 0 153 -54t62 -136q0 -132 -119 -177h2zM298 383q120 0 120 101q0 96 -120 96h-101v-197h101zM240 -195v130h130v-130q0 -50 -35.5 -82.5t-91.5 -32.5h-28v75h23q54 0 54 39v1
h-52z" />
    <glyph glyph-name="rcommaaccent" unicode="&#x157;" 
d="M114 0v500h130v-90q34 95 162 95h111v-115h-120q-153 0 -153 -150v-240h-130zM89 -310v75h23q54 0 54 39v1h-52v130h130v-130q0 -50 -35.5 -82.5t-91.5 -32.5h-28z" />
    <glyph glyph-name="Rcaron" unicode="&#x158;" 
d="M367 745h-140l-120 145h110l80 -58l80 58h110zM436 333q107 0 107 -98v-235h-135v200q0 38 -14 51.5t-51 13.5h-146v-265h-135v700h276q91 0 153 -54t62 -136q0 -132 -119 -177h2zM298 383q120 0 120 101q0 96 -120 96h-101v-197h101z" />
    <glyph glyph-name="rcaron" unicode="&#x159;" 
d="M146 700h80l100 -72l100 72h80l-100 -150h-160zM114 0v500h130v-90q34 95 162 95h111v-115h-120q-153 0 -153 -150v-240h-130z" />
    <glyph glyph-name="Sacute" unicode="&#x15a;" 
d="M277 750l40 145h155l-105 -145h-90zM300 -10q-138 0 -206.5 65t-73.5 180h135q8 -125 154 -125h4q55 0 85.5 24.5t30.5 60.5q0 64 -74 79l-125 26q-175 36 -175 200q0 85 70.5 147.5t189.5 62.5q124 0 192 -64t68 -166h-135q-4 53 -38 81.5t-89 28.5h-3q-55 0 -87.5 -25
t-32.5 -62q0 -34 18.5 -51.5t61.5 -25.5l105 -21q189 -38 189 -200q0 -93 -71 -154t-193 -61z" />
    <glyph glyph-name="sacute" unicode="&#x15b;" 
d="M259 550l25 150h150l-100 -150h-75zM301 -10q-101 0 -158.5 46.5t-57.5 128.5h133q0 -34 23 -54.5t61 -20.5h8q30 0 48 13.5t18 35.5q0 37 -51 50l-65 16q-80 20 -117.5 55.5t-37.5 95.5q0 68 54.5 111t147.5 43q97 0 150.5 -46t53.5 -129h-130q-8 75 -75 75h-8
q-27 0 -45 -13.5t-18 -35.5q0 -35 64 -51l67 -17q72 -18 106 -54t34 -95q0 -67 -54 -110.5t-151 -43.5z" />
    <glyph glyph-name="Scircumflex" unicode="&#x15c;" 
d="M320 808l-80 -58h-110l120 145h140l120 -145h-110zM375 405q189 -38 189 -200q0 -93 -71 -154t-193 -61q-138 0 -206.5 65t-73.5 180h135q8 -125 154 -125h4q55 0 85.5 24.5t30.5 60.5q0 64 -74 79l-125 26q-175 36 -175 200q0 85 70.5 147.5t189.5 62.5q124 0 192 -64
t68 -166h-135q-4 53 -38 81.5t-89 28.5h-3q-55 0 -87.5 -25t-32.5 -62q0 -34 18.5 -51.5t61.5 -25.5z" />
    <glyph glyph-name="scircumflex" unicode="&#x15d;" 
d="M479 550h-80l-100 72l-100 -72h-80l100 150h160zM301 -10q-101 0 -158.5 46.5t-57.5 128.5h133q0 -34 23 -54.5t61 -20.5h8q30 0 48 13.5t18 35.5q0 37 -51 50l-65 16q-80 20 -117.5 55.5t-37.5 95.5q0 68 54.5 111t147.5 43q97 0 150.5 -46t53.5 -129h-130q-8 75 -75 75
h-8q-27 0 -45 -13.5t-18 -35.5q0 -35 64 -51l67 -17q72 -18 106 -54t34 -95q0 -67 -54 -110.5t-151 -43.5z" />
    <glyph glyph-name="Scedilla" unicode="&#x15e;" 
d="M375 405q189 -38 189 -200q0 -87 -62.5 -146.5t-171.5 -67.5v-36q40 0 67.5 -24.5t27.5 -70.5q0 -48 -33.5 -76.5t-86.5 -28.5h-80v75h85q40 0 40 30q0 12 -9 21t-26 9h-55v102q-118 9 -176.5 73t-63.5 170h135q8 -125 154 -125h4q55 0 85.5 24.5t30.5 60.5q0 64 -74 79
l-125 26q-175 36 -175 200q0 85 70.5 147.5t189.5 62.5q124 0 192 -64t68 -166h-135q-4 53 -38 81.5t-89 28.5h-3q-55 0 -87.5 -25t-32.5 -62q0 -34 18.5 -51.5t61.5 -25.5z" />
    <glyph glyph-name="scedilla" unicode="&#x15f;" 
d="M366 293q72 -18 106 -54t34 -95q0 -63 -48 -106t-136 -47v-36q40 0 67.5 -24.5t27.5 -70.5q0 -48 -33.5 -76.5t-86.5 -28.5h-80v75h85q40 0 40 30q0 12 -9 21t-26 9h-55v103q-79 11 -123 55.5t-44 116.5h133q0 -34 23 -54.5t61 -20.5h8q30 0 48 13.5t18 35.5q0 37 -51 50
l-65 16q-80 20 -117.5 55.5t-37.5 95.5q0 68 54.5 111t147.5 43q97 0 150.5 -46t53.5 -129h-130q-8 75 -75 75h-8q-27 0 -45 -13.5t-18 -35.5q0 -35 64 -51z" />
    <glyph glyph-name="Scaron" unicode="&#x160;" 
d="M387 750h-140l-120 145h110l80 -58l80 58h110zM375 405q189 -38 189 -200q0 -93 -71 -154t-193 -61q-138 0 -206.5 65t-73.5 180h135q8 -125 154 -125h4q55 0 85.5 24.5t30.5 60.5q0 64 -74 79l-125 26q-175 36 -175 200q0 85 70.5 147.5t189.5 62.5q124 0 192 -64
t68 -166h-135q-4 53 -38 81.5t-89 28.5h-3q-55 0 -87.5 -25t-32.5 -62q0 -34 18.5 -51.5t61.5 -25.5z" />
    <glyph glyph-name="scaron" unicode="&#x161;" 
d="M119 700h80l100 -72l100 72h80l-100 -150h-160zM301 -10q-101 0 -158.5 46.5t-57.5 128.5h133q0 -34 23 -54.5t61 -20.5h8q30 0 48 13.5t18 35.5q0 37 -51 50l-65 16q-80 20 -117.5 55.5t-37.5 95.5q0 68 54.5 111t147.5 43q97 0 150.5 -46t53.5 -129h-130q-8 75 -75 75
h-8q-27 0 -45 -13.5t-18 -35.5q0 -35 64 -51l67 -17q72 -18 106 -54t34 -95q0 -67 -54 -110.5t-151 -43.5z" />
    <glyph glyph-name="uni0162" unicode="&#x162;" 
d="M367 0h-32v-45q40 0 67.5 -24.5t27.5 -70.5q0 -48 -33.5 -76.5t-86.5 -28.5h-80v75h85q40 0 40 30q0 12 -8.5 21t-26.5 9h-55v110h-33v580h-192v120h520v-120h-193v-580z" />
    <glyph glyph-name="uni0163" unicode="&#x163;" 
d="M535 0h-156v-43q40 0 67.5 -24.5t27.5 -70.5q0 -48 -33.5 -76.5t-86.5 -28.5h-80v75h85q40 0 40 30q0 12 -8.5 21t-26.5 9h-55v110q-102 14 -102 128v265h-155v105h155v162h130v-162h176v-105h-176v-230q0 -34 10.5 -44.5t44.5 -10.5h143v-110z" />
    <glyph glyph-name="Tcaron" unicode="&#x164;" 
d="M370 745h-140l-120 145h110l80 -58l80 58h110zM40 700h520v-120h-193v-580h-135v580h-192v120z" />
    <glyph glyph-name="tcaron" unicode="&#x165;" 
d="M374 528v53h17q40 0 40 27v1h-38v91h96v-91q0 -35 -26 -58t-68 -23h-21zM337 0q-130 0 -130 130v265h-155v105h155v162h130v-162h176v-105h-176v-230q0 -34 10.5 -44.5t44.5 -10.5h143v-110h-198z" />
    <glyph glyph-name="Tbar" unicode="&#x166;" 
d="M570 580h-193v-142h137v-115h-137v-323h-135v323h-135v115h135v142h-192v120h520v-120z" />
    <glyph glyph-name="tbar" unicode="&#x167;" 
d="M392 110h143v-110h-198q-130 0 -130 130v85h-143v105h143v75h-155v105h155v162h130v-162h176v-105h-176v-75h161v-105h-161v-50q0 -34 10.5 -44.5t44.5 -10.5z" />
    <glyph glyph-name="Utilde" unicode="&#x168;" 
d="M379 750q-38 0 -80 24l-18 10q-28 16 -42 16q-13 0 -23.5 -11.5t-10.5 -28.5h-95v26q0 47 32.5 80.5t79.5 33.5q37 0 75 -20l18 -10q36 -20 49 -20t21.5 11.5t8.5 28.5h95v-26q0 -47 -32.5 -80.5t-77.5 -33.5zM300 -10q-118 0 -185.5 66.5t-67.5 180.5v463h135v-443
q0 -147 116 -147h4q116 0 116 147v443h135v-463q0 -114 -67.5 -180.5t-185.5 -66.5z" />
    <glyph glyph-name="utilde" unicode="&#x169;" 
d="M245 605q-13 0 -23.5 -11.5t-10.5 -28.5h-95v26q0 47 32.5 80.5t79.5 33.5q37 0 75 -20l18 -10q36 -20 49 -20t21.5 11.5t8.5 28.5h95v-26q0 -47 -32.5 -80.5t-77.5 -33.5q-38 0 -80 24l-18 10q-28 16 -42 16zM390 500h130v-500h-130v74q-23 -39 -61.5 -61.5t-84.5 -22.5
q-84 0 -126.5 51.5t-42.5 138.5v320h130v-305q0 -48 19.5 -74t54.5 -26h8q43 0 73 37t30 90v278z" />
    <glyph glyph-name="Umacron" unicode="&#x16a;" 
d="M140 765v110h335v-110h-335zM300 -10q-118 0 -185.5 66.5t-67.5 180.5v463h135v-443q0 -147 116 -147h4q116 0 116 147v443h135v-463q0 -114 -67.5 -180.5t-185.5 -66.5z" />
    <glyph glyph-name="umacron" unicode="&#x16b;" 
d="M458 670v-105h-305v105h305zM390 500h130v-500h-130v74q-23 -39 -61.5 -61.5t-84.5 -22.5q-84 0 -126.5 51.5t-42.5 138.5v320h130v-305q0 -48 19.5 -74t54.5 -26h8q43 0 73 37t30 90v278z" />
    <glyph glyph-name="Ubreve" unicode="&#x16c;" 
d="M302 740q-74 0 -121.5 41t-48.5 109h110q3 -27 19.5 -41t40.5 -14t40.5 14t19.5 41h110q-1 -68 -48.5 -109t-121.5 -41zM300 -10q-118 0 -185.5 66.5t-67.5 180.5v463h135v-443q0 -147 116 -147h4q116 0 116 147v443h135v-463q0 -114 -67.5 -180.5t-185.5 -66.5z" />
    <glyph glyph-name="ubreve" unicode="&#x16d;" 
d="M306 540q-74 0 -121.5 44t-48.5 116h110q2 -30 17.5 -47.5t42.5 -17.5t42.5 17.5t17.5 47.5h110q-1 -72 -48.5 -116t-121.5 -44zM390 500h130v-500h-130v74q-23 -39 -61.5 -61.5t-84.5 -22.5q-84 0 -126.5 51.5t-42.5 138.5v320h130v-305q0 -48 19.5 -74t54.5 -26h8
q43 0 73 37t30 90v278z" />
    <glyph glyph-name="Uring" unicode="&#x16e;" 
d="M306 730q-44 0 -77 32t-33 78q0 43 33.5 76.5t76.5 33.5q46 0 78 -33t32 -77q0 -47 -31.5 -78.5t-78.5 -31.5zM306 800q16 0 27.5 12t11.5 28t-11.5 28t-27.5 12t-28 -12t-12 -28t12 -28t28 -12zM300 -10q-118 0 -185.5 66.5t-67.5 180.5v463h135v-443q0 -147 116 -147h4
q116 0 116 147v443h135v-463q0 -114 -67.5 -180.5t-185.5 -66.5z" />
    <glyph glyph-name="uring" unicode="&#x16f;" 
d="M306 540q-42 0 -73.5 30.5t-31.5 74.5q0 41 32 73t73 32q44 0 74.5 -31.5t30.5 -73.5q0 -45 -30 -75t-75 -30zM306 689q-18 0 -31 -13t-13 -31t13 -31t31 -13t30.5 13t12.5 31t-12.5 31t-30.5 13zM390 500h130v-500h-130v74q-23 -39 -61.5 -61.5t-84.5 -22.5
q-84 0 -126.5 51.5t-42.5 138.5v320h130v-305q0 -48 19.5 -74t54.5 -26h8q43 0 73 37t30 90v278z" />
    <glyph glyph-name="Uhungarumlaut" unicode="&#x170;" 
d="M159 745l40 145h155l-105 -145h-90zM348 745l40 145h155l-105 -145h-90zM300 -10q-118 0 -185.5 66.5t-67.5 180.5v463h135v-443q0 -147 116 -147h4q116 0 116 147v443h135v-463q0 -114 -67.5 -180.5t-185.5 -66.5z" />
    <glyph glyph-name="uhungarumlaut" unicode="&#x171;" 
d="M366 700l-100 -150h-75l25 150h150zM425 550h-75l25 150h150zM390 222v278h130v-500h-130v74q-23 -39 -61.5 -61.5t-84.5 -22.5q-84 0 -126.5 51.5t-42.5 138.5v320h130v-305q0 -48 19.5 -74t54.5 -26h8q43 0 73 37t30 90z" />
    <glyph glyph-name="Uogonek" unicode="&#x172;" 
d="M418 700h135v-463q0 -97 -49.5 -160.5t-138.5 -80.5q-73 -43 -73 -86q0 -25 14.5 -37.5t35.5 -12.5h30v-80h-50q-52 0 -86 28t-34 72q0 67 64 112q-103 10 -161 74.5t-58 170.5v463h135v-443q0 -147 116 -147h4q116 0 116 147v443z" />
    <glyph glyph-name="uogonek" unicode="&#x173;" 
d="M520 0q-80 -46 -80 -90q0 -25 14.5 -37.5t35.5 -12.5h30v-80h-50q-52 0 -86 28t-34 72q0 74 76 120h-36v74q-23 -39 -61.5 -61.5t-84.5 -22.5q-84 0 -126.5 51.5t-42.5 138.5v320h130v-305q0 -48 19.5 -74t54.5 -26h8q43 0 73 37t30 90v278h130v-500z" />
    <glyph glyph-name="Wcircumflex" unicode="&#x174;" 
d="M303 803l-80 -58h-110l120 145h140l120 -145h-110zM455 700h122l-61 -700h-152l-63 372l-76 -372h-142l-60 700h121l31 -480l67 330h119l67 -328z" />
    <glyph glyph-name="wcircumflex" unicode="&#x175;" 
d="M300 622l-100 -72h-80l100 150h160l100 -150h-80zM461 500h114l-73 -500h-138l-63 282l-63 -282h-139l-73 500h114l43 -363l56 263h123l57 -263z" />
    <glyph glyph-name="Ycircumflex" unicode="&#x176;" 
d="M303 803l-80 -58h-110l120 145h140l120 -145h-110zM443 700h145l-221 -424v-276h-135v276l-220 424h148l142 -301z" />
    <glyph glyph-name="ycircumflex" unicode="&#x177;" 
d="M310 622l-100 -72h-80l100 150h160l100 -150h-80zM578 500l-213 -456v-116q0 -130 -130 -130h-182v112h133q34 0 44.5 10.5t10.5 44.5v74l-218 461h146l135 -304l130 304h144z" />
    <glyph glyph-name="Ydieresis" unicode="&#x178;" 
d="M264 885v-120h-125v120h125zM459 885v-120h-125v120h125zM443 700h145l-221 -424v-276h-135v276l-220 424h148l142 -301z" />
    <glyph glyph-name="Zacute" unicode="&#x179;" 
d="M455 890l-105 -145h-90l40 145h155zM218 120h327v-120h-480v117l313 463h-305v120h459v-115z" />
    <glyph glyph-name="zacute" unicode="&#x17a;" 
d="M418 700l-100 -150h-75l25 150h150zM247 115h273v-115h-435v100l258 285h-253v115h415v-100z" />
    <glyph glyph-name="Zdotaccent" unicode="&#x17b;" 
d="M370 900v-135h-140v135h140zM218 120h327v-120h-480v117l313 463h-305v120h459v-115z" />
    <glyph glyph-name="zdotaccent" unicode="&#x17c;" 
d="M353 700v-135h-140v135h140zM247 115h273v-115h-435v100l258 285h-253v115h415v-100z" />
    <glyph glyph-name="Zcaron" unicode="&#x17d;" 
d="M370 745h-140l-120 145h110l80 -58l80 58h110zM218 120h327v-120h-480v117l313 463h-305v120h459v-115z" />
    <glyph glyph-name="zcaron" unicode="&#x17e;" 
d="M363 550h-160l-100 150h80l100 -72l100 72h80zM247 115h273v-115h-435v100l258 285h-253v115h415v-100z" />
    <glyph glyph-name="florin" unicode="&#x192;" 
d="M482 585q-39 0 -55 -15.5t-22 -54.5l-7 -47h116v-112h-133l-56 -366q-16 -102 -60.5 -146t-134.5 -44h-73v115h60q41 0 59 16t23 54l57 371h-98v112h115l6 42q16 103 58.5 146.5t130.5 43.5h74v-115h-60z" />
    <glyph glyph-name="uni01E2" unicode="&#x1e2;" 
d="M498 875v-110h-335v110h335zM408 120h170v-120h-305v138h-99l-32 -138h-136l181 700h381v-120h-160v-161h125v-120h-125v-179zM202 258h71v309z" />
    <glyph glyph-name="uni01E3" unicode="&#x1e3;" 
d="M157 565v105h305v-105h-305zM594 285v-76h-224q0 -51 15.5 -82.5t46.5 -31.5h2q42 0 49 63h110q-1 -73 -40 -120.5t-110 -47.5q-97 0 -141 74q-45 -74 -131 -74q-75 0 -118.5 44t-43.5 116q0 77 43.5 113.5t117.5 36.5h70v19q0 86 -53 86h-3q-26 0 -39 -18t-14 -41h-115
q5 70 50 117t120 47q86 0 128 -58q43 58 119 58q81 0 121 -61.5t40 -163.5zM371 300h118q0 46 -13.5 75.5t-41.5 29.5h-2q-29 0 -44.5 -32t-16.5 -73zM240 181v28h-58q-63 0 -63 -60q0 -25 16.5 -39.5t39.5 -14.5h2q33 0 48 26.5t15 59.5z" />
    <glyph glyph-name="Aringacute" unicode="&#x1fa;" 
d="M407 1016l-62 -88h-79l16 88h125zM302 729q-38 0 -63.5 25.5t-25.5 63.5t25.5 63.5t63.5 25.5t63.5 -25.5t25.5 -63.5t-25.5 -63.5t-63.5 -25.5zM302 852q-14 0 -24 -10t-10 -24t10 -24t24 -10q13 0 23 10t10 24t-10 24t-23 10zM450 0l-45 165h-210l-45 -165h-142
l213 700h166l206 -700h-143zM228 285h144l-72 263z" />
    <glyph glyph-name="aringacute" unicode="&#x1fb;" 
d="M436 901l-96 -135h-79l25 135h150zM297 530q-42 0 -73.5 30.5t-31.5 74.5q0 41 32 73t73 32q44 0 74.5 -31.5t30.5 -73.5q0 -45 -30 -75t-75 -30zM299 679q-18 0 -31 -13t-13 -31t13 -31t31 -13t30.5 13t12.5 31t-12.5 31t-30.5 13zM510 110q0 -75 5 -110h-122
q-4 21 -6 61q-50 -71 -148 -71q-69 0 -116.5 40.5t-47.5 106.5q0 76 51 117t132 48l126 11v12q0 35 -22 57.5t-59 22.5h-6q-35 0 -57.5 -18t-24.5 -42h-130q8 72 65.5 118.5t149.5 46.5q96 0 153 -47t57 -133v-220zM271 95q46 0 79.5 30.5t33.5 78.5v14l-108 -11
q-29 -3 -51 -18t-22 -43q0 -23 18 -37t45 -14h5z" />
    <glyph glyph-name="AEacute" unicode="&#x1fc;" 
d="M478 890l-105 -145h-90l40 145h155zM408 120h170v-120h-305v138h-99l-32 -138h-136l181 700h381v-120h-160v-161h125v-120h-125v-179zM202 258h71v309z" />
    <glyph glyph-name="aeacute" unicode="&#x1fd;" 
d="M270 550l25 150h150l-100 -150h-75zM594 285v-76h-224q0 -51 15.5 -82.5t46.5 -31.5h2q42 0 49 63h110q-1 -73 -40 -120.5t-110 -47.5q-97 0 -141 74q-45 -74 -131 -74q-75 0 -118.5 44t-43.5 116q0 77 43.5 113.5t117.5 36.5h70v19q0 86 -53 86h-3q-26 0 -39 -18
t-14 -41h-115q5 70 50 117t120 47q86 0 128 -58q43 58 119 58q81 0 121 -61.5t40 -163.5zM371 300h118q0 46 -13.5 75.5t-41.5 29.5h-2q-29 0 -44.5 -32t-16.5 -73zM240 181v28h-58q-63 0 -63 -60q0 -25 16.5 -39.5t39.5 -14.5h2q33 0 48 26.5t15 59.5z" />
    <glyph glyph-name="Oslashacute" unicode="&#x1fe;" 
d="M452 890l-105 -145h-90l40 145h155zM584 680l-64 -99q48 -91 48 -231q0 -166 -68.5 -263t-199.5 -97q-82 0 -138 38l-47 -72l-97 64l63 97q-49 91 -49 233q0 166 68.5 263t199.5 97q81 0 140 -39l47 73zM167 350q0 -50 6 -91l198 307q-27 24 -70 24h-2q-132 0 -132 -240z
M433 350q0 49 -6 88l-197 -305q28 -23 69 -23h2q132 0 132 240z" />
    <glyph glyph-name="oslashacute" unicode="&#x1ff;" 
d="M435 700l-100 -150h-75l25 150h150zM497 417q53 -69 53 -167q0 -114 -69.5 -187t-180.5 -73q-60 0 -113 24l-50 -65l-84 70l49 64q-52 71 -52 167q0 114 69.5 187t180.5 73q62 0 111 -23l48 62l89 -66zM181 250q0 -30 6 -56l156 204q-17 7 -39 7h-8q-53 0 -84 -41
t-31 -114zM304 95q53 0 84 41t31 114q0 31 -6 58l-158 -206q23 -7 41 -7h8z" />
    <glyph glyph-name="Scommaaccent" unicode="&#x218;" 
d="M300 -10q-138 0 -206.5 65t-73.5 180h135q8 -125 154 -125h4q55 0 85.5 24.5t30.5 60.5q0 64 -74 79l-125 26q-175 36 -175 200q0 85 70.5 147.5t189.5 62.5q124 0 192 -64t68 -166h-135q-4 53 -38 81.5t-89 28.5h-3q-55 0 -87.5 -25t-32.5 -62q0 -34 18.5 -51.5
t61.5 -25.5l105 -21q189 -38 189 -200q0 -93 -71 -154t-193 -61zM205 -310v75h23q54 0 54 39v1h-52v130h130v-130q0 -50 -35.5 -82.5t-91.5 -32.5h-28z" />
    <glyph glyph-name="scommaaccent" unicode="&#x219;" 
d="M301 -10q-101 0 -158.5 46.5t-57.5 128.5h133q0 -34 23 -54.5t61 -20.5h8q30 0 48 13.5t18 35.5q0 37 -51 50l-65 16q-80 20 -117.5 55.5t-37.5 95.5q0 68 54.5 111t147.5 43q97 0 150.5 -46t53.5 -129h-130q-8 75 -75 75h-8q-27 0 -45 -13.5t-18 -35.5q0 -35 64 -51
l67 -17q72 -18 106 -54t34 -95q0 -67 -54 -110.5t-151 -43.5zM197 -310v75h23q54 0 54 39v1h-52v130h130v-130q0 -50 -35.5 -82.5t-91.5 -32.5h-28z" />
    <glyph glyph-name="uni021A" unicode="&#x21a;" 
d="M232 0v580h-192v120h520v-120h-193v-580h-135zM210 -310v75h23q54 0 54 39v1h-52v130h130v-130q0 -50 -35.5 -82.5t-91.5 -32.5h-28z" />
    <glyph glyph-name="uni021B" unicode="&#x21b;" 
d="M337 0q-130 0 -130 130v265h-155v105h155v162h130v-162h176v-105h-176v-230q0 -34 10.5 -44.5t44.5 -10.5h143v-110h-198zM254 -308v75h23q54 0 54 39v1h-52v130h130v-130q0 -50 -35.5 -82.5t-91.5 -32.5h-28z" />
    <glyph glyph-name="uni0226" unicode="&#x226;" 
d="M370 900v-135h-140v135h140zM450 0l-45 165h-210l-45 -165h-142l213 700h166l206 -700h-143zM228 285h144l-72 263z" />
    <glyph glyph-name="uni0227" unicode="&#x227;" 
d="M367 700v-135h-140v135h140zM510 110q0 -75 5 -110h-122q-4 21 -6 61q-50 -71 -148 -71q-69 0 -116.5 40.5t-47.5 106.5q0 76 51 117t132 48l126 11v12q0 35 -22 57.5t-59 22.5h-6q-35 0 -57.5 -18t-24.5 -42h-130q8 72 65.5 118.5t149.5 46.5q96 0 153 -47t57 -133v-220
zM271 95q46 0 79.5 30.5t33.5 78.5v14l-108 -11q-29 -3 -51 -18t-22 -43q0 -23 18 -37t45 -14h5z" />
    <glyph glyph-name="uni0232" unicode="&#x232;" 
d="M475 875v-110h-335v110h335zM443 700h145l-221 -424v-276h-135v276l-220 424h148l142 -301z" />
    <glyph glyph-name="uni0233" unicode="&#x233;" 
d="M462 670v-105h-305v105h305zM578 500l-213 -456v-116q0 -130 -130 -130h-182v112h133q34 0 44.5 10.5t10.5 44.5v74l-218 461h146l135 -304l130 304h144z" />
    <glyph glyph-name="uni0237" unicode="&#x237;" 
d="M425 500v-575q0 -60 -32.5 -92.5t-92.5 -32.5h-224v110h164q30 0 42.5 12.5t12.5 42.5v430h-153v105h283z" />
    <glyph glyph-name="circumflex" unicode="&#x2c6;" 
d="M480 550h-80l-100 72l-100 -72h-80l100 150h160z" />
    <glyph glyph-name="caron" unicode="&#x2c7;" 
d="M120 700h80l100 -72l100 72h80l-100 -150h-160z" />
    <glyph glyph-name="breve" unicode="&#x2d8;" 
d="M300 540q-74 0 -121.5 44t-48.5 116h110q2 -30 17.5 -47.5t42.5 -17.5t42.5 17.5t17.5 47.5h110q-1 -72 -48.5 -116t-121.5 -44z" />
    <glyph glyph-name="dotaccent" unicode="&#x2d9;" 
d="M230 565v135h140v-135h-140z" />
    <glyph glyph-name="ring" unicode="&#x2da;" 
d="M300 540q-42 0 -73.5 30.5t-31.5 74.5q0 41 32 73t73 32q44 0 74.5 -31.5t30.5 -73.5q0 -45 -30 -75t-75 -30zM300 601q18 0 30.5 13t12.5 31t-12.5 31t-30.5 13t-31 -13t-13 -31t13 -31t31 -13z" />
    <glyph glyph-name="ogonek" unicode="&#x2db;" 
d="M323 -220q-52 0 -86 28t-34 72q0 88 105 135l65 -15q-80 -46 -80 -90q0 -25 14.5 -37.5t35.5 -12.5h30v-80h-50z" />
    <glyph glyph-name="tilde" unicode="&#x2dc;" 
d="M379 555q-38 0 -80 24l-18 10q-28 16 -42 16q-13 0 -23.5 -11.5t-10.5 -28.5h-95v26q0 47 32.5 80.5t79.5 33.5q37 0 75 -20l18 -10q36 -20 49 -20t21.5 11.5t8.5 28.5h95v-26q0 -47 -32.5 -80.5t-77.5 -33.5z" />
    <glyph glyph-name="hungarumlaut" unicode="&#x2dd;" 
d="M154 550l25 150h150l-100 -150h-75zM313 550l25 150h150l-100 -150h-75z" />
    <glyph glyph-name="uni0326" unicode="&#x326;" horiz-adv-x="0" 
d="M-390 -310v75h23q54 0 54 39v1h-52v130h130v-130q0 -50 -35.5 -82.5t-91.5 -32.5h-28z" />
    <glyph glyph-name="uni0394" unicode="&#x394;" 
d="M34 0v89l186 611h166l180 -610v-90h-532zM182 120h234l-117 428z" />
    <glyph glyph-name="uni03A9" unicode="&#x3a9;" 
d="M15 0v113h98q-34 35 -62.5 102t-28.5 155q0 150 72 245t206 95t206 -95t72 -245q0 -88 -28.5 -155t-62.5 -102h98v-113h-247v110q38 26 71.5 92.5t33.5 154.5q0 109 -37 171t-105 62h-2q-68 0 -105 -62t-37 -171q0 -88 33.5 -154.5t71.5 -92.5v-110h-247z" />
    <glyph glyph-name="uni03BC" unicode="&#x3bc;" 
d="M395 500h130v-500h-130v74q-23 -39 -61.5 -61.5t-84.5 -22.5q-21 0 -39 3v-193h-130v700h130v-305q0 -48 19.5 -74t54.5 -26h8q43 0 73 37t30 90v278z" />
    <glyph glyph-name="pi" unicode="&#x3c0;" 
d="M115 0v392h-105v108h570v-108h-95v-244q0 -22 8.5 -31t31.5 -9h55v-108h-120q-105 0 -105 105v287h-110v-392h-130z" />
    <glyph glyph-name="Wgrave" unicode="&#x1e80;" 
d="M344 745h-90l-105 145h155zM455 700h122l-61 -700h-152l-63 372l-76 -372h-142l-60 700h121l31 -480l67 330h119l67 -328z" />
    <glyph glyph-name="wgrave" unicode="&#x1e81;" 
d="M340 550h-75l-100 150h150zM461 500h114l-73 -500h-138l-63 282l-63 -282h-139l-73 500h114l43 -363l56 263h123l57 -263z" />
    <glyph glyph-name="Wacute" unicode="&#x1e82;" 
d="M455 890l-105 -145h-90l40 145h155zM455 700h122l-61 -700h-152l-63 372l-76 -372h-142l-60 700h121l31 -480l67 330h119l67 -328z" />
    <glyph glyph-name="wacute" unicode="&#x1e83;" 
d="M435 700l-100 -150h-75l25 150h150zM461 500h114l-73 -500h-138l-63 282l-63 -282h-139l-73 500h114l43 -363l56 263h123l57 -263z" />
    <glyph glyph-name="Wdieresis" unicode="&#x1e84;" 
d="M264 885v-120h-125v120h125zM459 885v-120h-125v120h125zM455 700h122l-61 -700h-152l-63 372l-76 -372h-142l-60 700h121l31 -480l67 330h119l67 -328z" />
    <glyph glyph-name="wdieresis" unicode="&#x1e85;" 
d="M260 695v-130h-120v130h120zM460 695v-130h-120v130h120zM461 500h114l-73 -500h-138l-63 282l-63 -282h-139l-73 500h114l43 -363l56 263h123l57 -263z" />
    <glyph glyph-name="uni1E9E" unicode="&#x1e9e;" 
d="M74 0v700h231q98 0 156.5 -49t58.5 -131q0 -113 -98 -155q53 -4 98 -52t45 -118q0 -90 -63 -142.5t-172 -52.5h-58v120h50q52 0 80 24t28 66t-27.5 64.5t-79.5 22.5h-51v116h5q51 0 79.5 21.5t28.5 60.5t-27 62t-78 23h-71v-580h-135z" />
    <glyph glyph-name="uni1EA0" unicode="&#x1ea0;" 
d="M593 0h-143l-45 165h-210l-45 -165h-142l213 700h166zM228 285h144l-72 263zM230 -200v135h140v-135h-140z" />
    <glyph glyph-name="uni1EA1" unicode="&#x1ea1;" 
d="M510 110q0 -75 5 -110h-122q-4 21 -6 61q-50 -71 -148 -71q-69 0 -116.5 40.5t-47.5 106.5q0 76 51 117t132 48l126 11v12q0 35 -22 57.5t-59 22.5h-6q-35 0 -57.5 -18t-24.5 -42h-130q8 72 65.5 118.5t149.5 46.5q96 0 153 -47t57 -133v-220zM271 95q46 0 79.5 30.5
t33.5 78.5v14l-108 -11q-29 -3 -51 -18t-22 -43q0 -23 18 -37t45 -14h5zM223 -200v135h140v-135h-140z" />
    <glyph glyph-name="uni1EB8" unicode="&#x1eb8;" 
d="M64 0v700h465v-120h-330v-161h280v-120h-280v-179h340v-120h-475zM239 -200v135h140v-135h-140z" />
    <glyph glyph-name="uni1EB9" unicode="&#x1eb9;" 
d="M533 256q0 -15 -2 -47h-338q2 -45 33.5 -79.5t80.5 -34.5h6q36 0 59 18t30 45h129q-19 -76 -77 -122t-149 -46q-99 0 -168.5 70.5t-69.5 189.5q0 114 65.5 187t174.5 73t167.5 -70.5t58.5 -183.5zM300 405q-42 0 -73 -28t-34 -71h214q-1 39 -28 69t-73 30h-6zM238 -200
v135h140v-135h-140z" />
    <glyph glyph-name="uni1ECA" unicode="&#x1eca;" 
d="M505 590h-138v-480h138v-110h-410v110h137v480h-137v110h410v-110zM230 -200v135h140v-135h-140z" />
    <glyph glyph-name="uni1ECB" unicode="&#x1ecb;" 
d="M384 700v-148h-146v148h146zM376 105h174v-105h-484v105h180v290h-153v105h283v-395zM241 -200v135h140v-135h-140z" />
    <glyph glyph-name="uni1ECC" unicode="&#x1ecc;" 
d="M300 -10q-131 0 -199.5 97t-68.5 263t68.5 263t199.5 97t199.5 -97t68.5 -263t-68.5 -263t-199.5 -97zM299 110h2q132 0 132 240t-132 240h-2q-132 0 -132 -240t132 -240zM227 -200v135h140v-135h-140z" />
    <glyph glyph-name="uni1ECD" unicode="&#x1ecd;" 
d="M300 -10q-111 0 -180.5 73t-69.5 187t69.5 187t180.5 73t180.5 -73t69.5 -187t-69.5 -187t-180.5 -73zM296 95h8q53 0 84 41t31 114t-31 114t-84 41h-8q-53 0 -84 -41t-31 -114t31 -114t84 -41zM220 -200v135h140v-135h-140z" />
    <glyph glyph-name="uni1EE4" unicode="&#x1ee4;" 
d="M300 -10q-118 0 -185.5 66.5t-67.5 180.5v463h135v-443q0 -147 116 -147h4q116 0 116 147v443h135v-463q0 -114 -67.5 -180.5t-185.5 -66.5zM230 -200v135h140v-135h-140z" />
    <glyph glyph-name="uni1EE5" unicode="&#x1ee5;" 
d="M390 500h130v-500h-130v74q-23 -39 -61.5 -61.5t-84.5 -22.5q-84 0 -126.5 51.5t-42.5 138.5v320h130v-305q0 -48 19.5 -74t54.5 -26h8q43 0 73 37t30 90v278zM232 -200v135h140v-135h-140z" />
    <glyph glyph-name="Ygrave" unicode="&#x1ef2;" 
d="M344 745h-90l-105 145h155zM443 700h145l-221 -424v-276h-135v276l-220 424h148l142 -301z" />
    <glyph glyph-name="ygrave" unicode="&#x1ef3;" 
d="M350 550h-75l-100 150h150zM578 500l-213 -456v-116q0 -130 -130 -130h-182v112h133q34 0 44.5 10.5t10.5 44.5v74l-218 461h146l135 -304l130 304h144z" />
    <glyph glyph-name="uni2002" unicode="&#x2002;" 
 />
    <glyph glyph-name="uni2003" unicode="&#x2003;" 
 />
    <glyph glyph-name="uni2009" unicode="&#x2009;" horiz-adv-x="300" 
 />
    <glyph glyph-name="endash" unicode="&#x2013;" 
d="M105 250v105h390v-105h-390z" />
    <glyph glyph-name="emdash" unicode="&#x2014;" 
d="M20 250v105h560v-105h-560z" />
    <glyph glyph-name="quoteleft" unicode="&#x2018;" 
d="M402 700v-75h-36q-32 0 -47 -18t-15 -47v-10h65v-145h-145v160q0 54 39.5 94.5t97.5 40.5h41z" />
    <glyph glyph-name="quoteright" unicode="&#x2019;" 
d="M198 405v75h36q32 0 47 18t15 47v10h-65v145h145v-160q0 -54 -39.5 -94.5t-97.5 -40.5h-41z" />
    <glyph glyph-name="quotesinglbase" unicode="&#x201a;" 
d="M198 -150v75h36q32 0 47 18t15 47v10h-65v145h145v-160q0 -54 -39.5 -94.5t-97.5 -40.5h-41z" />
    <glyph glyph-name="quotedblleft" unicode="&#x201c;" 
d="M292 735v-75h-36q-32 0 -47 -18t-15 -47v-10h65v-145h-145v160q0 54 39.5 94.5t97.5 40.5h41zM497 735v-75h-36q-32 0 -47 -18t-15 -47v-10h65v-145h-145v160q0 54 39.5 94.5t97.5 40.5h41z" />
    <glyph glyph-name="quotedblright" unicode="&#x201d;" 
d="M103 405v75h36q32 0 47 18t15 47v10h-65v145h145v-160q0 -54 -39.5 -94.5t-97.5 -40.5h-41zM308 405v75h36q32 0 47 18t15 47v10h-65v145h145v-160q0 -54 -39.5 -94.5t-97.5 -40.5h-41z" />
    <glyph glyph-name="quotedblbase" unicode="&#x201e;" 
d="M103 -150v75h36q32 0 47 18t15 47v10h-65v145h145v-160q0 -54 -39.5 -94.5t-97.5 -40.5h-41zM308 -150v75h36q32 0 47 18t15 47v10h-65v145h145v-160q0 -54 -39.5 -94.5t-97.5 -40.5h-41z" />
    <glyph glyph-name="dagger" unicode="&#x2020;" 
d="M235 -85v540h-152v110h152v220h130v-220h152v-110h-152v-540h-130z" />
    <glyph glyph-name="daggerdbl" unicode="&#x2021;" 
d="M517 455h-152v-210h152v-110h-152v-220h-130v220h-152v110h152v210h-152v110h152v220h130v-220h152v-110z" />
    <glyph glyph-name="bullet" unicode="&#x2022;" 
d="M300 145q-85 0 -145 60t-60 145t60 145t145 60t145 -60t60 -145t-60 -145t-145 -60z" />
    <glyph glyph-name="ellipsis" unicode="&#x2026;" 
d="M33 0v145h145v-145h-145zM228 0v145h145v-145h-145zM423 0v145h145v-145h-145z" />
    <glyph glyph-name="perthousand" unicode="&#x2030;" 
d="M143 401q-67 0 -99.5 44.5t-32.5 106.5t32.5 107t99.5 45q66 0 98.5 -45t32.5 -107t-32.5 -106.5t-98.5 -44.5zM141 629q-42 0 -42 -77q0 -76 42 -76h3q42 0 42 76q0 77 -42 77h-3zM382 472v-76l-339 -168v76zM458 300q66 0 98.5 -45t32.5 -107t-32.5 -106.5t-98.5 -44.5
q-56 0 -89 33q-35 -33 -89 -33q-67 0 -99.5 44.5t-32.5 106.5t32.5 107t99.5 45q55 0 89 -34q32 34 89 34zM281 72q42 0 42 76q0 77 -42 77h-3q-42 0 -42 -77q0 -76 42 -76h3zM459 72q42 0 42 76q0 77 -42 77h-3q-42 0 -42 -77q0 -76 42 -76h3z" />
    <glyph glyph-name="guilsinglleft" unicode="&#x2039;" 
d="M440 500l-145 -215l145 -215h-150l-145 215l145 215h150z" />
    <glyph glyph-name="guilsinglright" unicode="&#x203a;" 
d="M315 500l145 -215l-145 -215h-150l145 215l-145 215h150z" />
    <glyph glyph-name="fraction" unicode="&#x2044;" 
d="M40 0l420 700h100l-420 -700h-100z" />
    <glyph glyph-name="uni2070" unicode="&#x2070;" 
d="M300 815q86 0 130 -59t44 -144q0 -84 -44 -143t-130 -59t-130 59t-44 143q0 85 44 144t130 59zM298 723q-64 0 -64 -111q0 -20 1 -29l110 118q-17 22 -43 22h-4zM302 502q64 0 64 110q0 20 -1 29l-110 -118q17 -21 43 -21h4z" />
    <glyph glyph-name="uni2074" unicode="&#x2074;" 
d="M323 415v62h-196v109l174 224h119v-249h53v-84h-53v-62h-97zM218 561h105v137z" />
    <glyph glyph-name="uni2075" unicode="&#x2075;" 
d="M297 410q-64 0 -107.5 34.5t-47.5 90.5h112q4 -16 16.5 -26.5t29.5 -10.5h4q20 0 33.5 14.5t13.5 34.5t-12.5 32.5t-32.5 12.5h-4q-24 0 -38 -17h-108l44 235h252v-88h-174l-14 -67q26 23 72 23q47 0 84 -33.5t37 -92.5q0 -65 -44.5 -103.5t-115.5 -38.5z" />
    <glyph glyph-name="uni2076" unicode="&#x2076;" 
d="M304 410q-76 0 -121 49.5t-45 133.5q0 102 50.5 162t135.5 60q62 0 99 -33.5t39 -85.5h-104q-7 31 -39 31h-6q-30 0 -50.5 -27.5t-24.5 -67.5q32 40 91 40q55 0 91 -35t36 -89q0 -60 -42.5 -99t-109.5 -39zM299 498h4q20 0 33.5 13t13.5 33q0 19 -13 31t-34 12h-4
q-19 0 -33 -13t-14 -31q0 -19 13.5 -32t33.5 -13z" />
    <glyph glyph-name="uni2077" unicode="&#x2077;" 
d="M216 415v13q0 169 114 292h-180v90h299v-78q-120 -120 -120 -299v-18h-113z" />
    <glyph glyph-name="uni2078" unicode="&#x2078;" 
d="M300 410q-65 0 -107 30.5t-42 77.5q0 32 18.5 56.5t50.5 34.5q-75 28 -75 98q0 47 45 77.5t110 30.5t109.5 -30.5t44.5 -77.5q0 -70 -76 -98q32 -10 50.5 -34.5t18.5 -56.5q0 -47 -41 -77.5t-106 -30.5zM297 653h5q19 0 32.5 10t13.5 27t-13.5 27t-32.5 10h-5
q-19 0 -32.5 -10t-13.5 -27t13.5 -27t32.5 -10zM297 498h5q16 0 27.5 10t11.5 25t-11.5 25.5t-27.5 10.5h-5q-16 0 -28 -10.5t-12 -25.5t12 -25t28 -10z" />
    <glyph glyph-name="uni2079" unicode="&#x2079;" 
d="M296 815q76 0 121 -49.5t45 -133.5q0 -102 -50.5 -162t-135.5 -60q-62 0 -99 33.5t-39 85.5h104q7 -31 39 -31h6q30 0 50.5 27.5t24.5 67.5q-32 -40 -91 -40q-55 0 -91 35t-36 89q0 60 42.5 99t109.5 39zM301 727h-4q-20 0 -33.5 -13t-13.5 -33q0 -19 13 -31t34 -12h4
q19 0 33 13t14 31q0 19 -13.5 32t-33.5 13z" />
    <glyph glyph-name="Euro" unicode="&#x20ac;" 
d="M335 105q45 0 72 31t34 84h133q-13 -105 -76 -167.5t-168 -62.5q-175 0 -236 165l-72 -16v110l48 11q-4 36 -5 62l-43 -10v110l47 10q16 136 83.5 207t178.5 71q105 0 166.5 -61t76.5 -169h-133q-7 53 -34 84t-72 31h-7q-97 0 -122 -132l178 39v-110l-187 -41v-1
q0 -23 2 -61l143 32v-110l-121 -27q32 -79 107 -79h7z" />
    <glyph glyph-name="uni20BF" unicode="&#x20bf;" 
d="M432 355q58 -12 95.5 -56.5t37.5 -112.5q0 -80 -62 -133t-158 -53h-59l-20 -120h-115l20 120h-96v700h214l20 120h115l-21 -128q69 -16 108 -63.5t39 -109.5t-32.5 -105t-85.5 -59zM210 580v-167h105q100 0 100 84q0 83 -100 83h-105zM325 120q50 0 77.5 22.5t27.5 66.5
q0 88 -105 88h-115v-177h115z" />
    <glyph glyph-name="uni2105" unicode="&#x2105;" 
d="M143 410q-69 0 -112 37.5t-43 109.5t43 110t112 38q67 0 100.5 -32.5t37.5 -80.5h-101q-5 33 -40 33h-4q-46 0 -46 -68q0 -67 46 -67h4q35 0 40 30h101q-5 -47 -38 -78.5t-100 -31.5zM40 0l420 700h100l-420 -700h-100zM458 -10q-70 0 -112 41.5t-42 105.5t42 106t112 42
t112 -42t42 -106t-42 -105.5t-112 -41.5zM458 70q52 0 52 67q0 68 -52 68t-52 -68q0 -67 52 -67z" />
    <glyph glyph-name="uni2113" unicode="&#x2113;" 
d="M306 155q0 -23 8.5 -31.5t30.5 -8.5h91v-115h-155q-105 0 -105 105v68l-75 -46v135l75 45v232q0 82 41 126.5t115 44.5q77 0 121.5 -56.5t44.5 -132.5q0 -70 -41 -135.5t-113 -109.5l-38 -23v-98zM330 595q-24 0 -24 -40v-170q62 44 62 129q0 81 -38 81z" />
    <glyph glyph-name="uni2116" unicode="&#x2116;" horiz-adv-x="1200" 
d="M966 410q-70 0 -112 41.5t-42 105.5t42 106t112 42t112 -42t42 -106t-42 -105.5t-112 -41.5zM589 184v516h135v-700h-175l-295 516v-516h-135v700h175zM966 625q-25 0 -38.5 -18t-13.5 -50q0 -67 52 -67t52 67q0 68 -52 68zM827 270v80h288v-80h-288z" />
    <glyph glyph-name="uni2117" unicode="&#x2117;" 
d="M302 51q-124 0 -212 88t-88 212t88 212t212 88t212 -88t88 -212t-88 -212t-212 -88zM302 132q91 0 153 64t62 155t-62 155t-153 64t-153 -64t-62 -155t62 -155t153 -64zM198 196v316h153q51 0 79.5 -30t28.5 -77t-28.5 -76t-79.5 -29h-65v-104h-88zM286 371h55
q30 0 30 34q0 15 -9 24t-23 9h-53v-67z" />
    <glyph glyph-name="trademark" unicode="&#x2122;" 
d="M10 620v80h239v-80h-77v-300h-85v300h-77zM472 700h108v-380h-78v260l-39 -162h-69l-38 161v-259h-78v380h109l42 -192z" />
    <glyph glyph-name="uni2126" unicode="&#x2126;" 
d="M15 0v113h98q-34 35 -62.5 102t-28.5 155q0 150 72 245t206 95t206 -95t72 -245q0 -88 -28.5 -155t-62.5 -102h98v-113h-247v110q38 26 71.5 92.5t33.5 154.5q0 109 -37 171t-105 62h-2q-68 0 -105 -62t-37 -171q0 -88 33.5 -154.5t71.5 -92.5v-110h-247z" />
    <glyph glyph-name="uni2153" unicode="&#x2153;" 
d="M106 403v183l-79 -66v103l91 77h75v-297h-87zM40 0l420 700h100l-420 -700h-100zM455 -4q-49 0 -82.5 22.5t-33.5 63.5h88q5 -17 28 -17h2q28 0 28 26q0 24 -28 24h-28v66h26q28 0 28 25q0 24 -24 24h-2q-19 0 -25 -17h-88q0 40 33 63t81 23q51 0 82 -22.5t31 -62.5
q0 -48 -39 -65q41 -19 41 -69q0 -39 -33.5 -61.5t-84.5 -22.5z" />
    <glyph glyph-name="uni2154" unicode="&#x2154;" 
d="M3 404v64l114 106q22 20 22 35q0 25 -23 25h-3q-12 0 -19 -8.5t-7 -20.5h-87q3 44 37 71.5t83 27.5t78.5 -27.5t29.5 -59.5q0 -39 -37 -74l-70 -66h107v-73h-225zM40 0l420 700h100l-420 -700h-100zM455 -4q-49 0 -82.5 22.5t-33.5 63.5h88q5 -17 28 -17h2q28 0 28 26
q0 24 -28 24h-28v66h26q28 0 28 25q0 24 -24 24h-2q-19 0 -25 -17h-88q0 40 33 63t81 23q51 0 82 -22.5t31 -62.5q0 -48 -39 -65q41 -19 41 -69q0 -39 -33.5 -61.5t-84.5 -22.5z" />
    <glyph glyph-name="uni2155" unicode="&#x2155;" 
d="M106 403v183l-79 -66v103l91 77h75v-297h-87zM40 0l420 700h100l-420 -700h-100zM454 -4q-49 0 -82.5 26.5t-36.5 68.5h91q6 -24 31 -24h3q12 0 21 10t9 22q0 15 -8.5 23t-21.5 8h-2q-15 0 -24 -11h-89l32 177h195v-71h-132l-8 -41q17 16 52 16t64 -25t29 -71
q0 -49 -34 -78.5t-89 -29.5z" />
    <glyph glyph-name="uni2156" unicode="&#x2156;" 
d="M30 404v64l114 106q22 20 22 35q0 25 -23 25h-3q-12 0 -19 -8.5t-7 -20.5h-87q3 44 37 71.5t83 27.5t78.5 -27.5t29.5 -59.5q0 -39 -37 -74l-70 -66h107v-73h-225zM40 0l420 700h100l-420 -700h-100zM454 -4q-49 0 -82.5 26.5t-36.5 68.5h91q6 -24 31 -24h3q12 0 21 10
t9 22q0 15 -8.5 23t-21.5 8h-2q-15 0 -24 -11h-89l32 177h195v-71h-132l-8 -41q17 16 52 16t64 -25t29 -71q0 -49 -34 -78.5t-89 -29.5z" />
    <glyph glyph-name="uni2157" unicode="&#x2157;" 
d="M142 400q-49 0 -82.5 22.5t-33.5 63.5h88q5 -17 28 -17h2q28 0 28 26q0 24 -28 24h-28v66h26q28 0 28 25q0 24 -24 24h-2q-19 0 -25 -17h-88q0 40 33 63t81 23q51 0 82 -22.5t31 -62.5q0 -48 -39 -65q41 -19 41 -69q0 -39 -33.5 -61.5t-84.5 -22.5zM40 0l420 700h100
l-420 -700h-100zM454 -4q-49 0 -82.5 26.5t-36.5 68.5h91q6 -24 31 -24h3q12 0 21 10t9 22q0 15 -8.5 23t-21.5 8h-2q-15 0 -24 -11h-89l32 177h195v-71h-132l-8 -41q17 16 52 16t64 -25t29 -71q0 -49 -34 -78.5t-89 -29.5z" />
    <glyph glyph-name="uni2158" unicode="&#x2158;" 
d="M147 403v41h-149v92l129 164h98v-189h40v-67h-40v-41h-78zM40 0l420 700h100l-420 -700h-100zM70 511h77v100zM454 -4q-49 0 -82.5 26.5t-36.5 68.5h91q6 -24 31 -24h3q12 0 21 10t9 22q0 15 -8.5 23t-21.5 8h-2q-15 0 -24 -11h-89l32 177h195v-71h-132l-8 -41
q17 16 52 16t64 -25t29 -71q0 -49 -34 -78.5t-89 -29.5z" />
    <glyph glyph-name="uni2159" unicode="&#x2159;" 
d="M106 403v183l-79 -66v103l91 77h75v-297h-87zM40 0l420 700h100l-420 -700h-100zM472 -3q-58 0 -93 36.5t-35 98.5q0 78 39 123t103 45q46 0 74.5 -25t29.5 -66h-84q-3 20 -27 20h-3q-20 0 -33.5 -19t-16.5 -45q23 26 65 26t68.5 -25.5t26.5 -65.5q0 -46 -32 -74.5
t-82 -28.5zM467 69h3q12 0 20.5 8t8.5 20q0 26 -29 26h-3q-13 0 -21.5 -8t-8.5 -19q0 -12 8.5 -19.5t21.5 -7.5z" />
    <glyph glyph-name="uni215A" unicode="&#x215a;" 
d="M115 400q-49 0 -82.5 26.5t-36.5 68.5h91q6 -24 31 -24h3q12 0 21 10t9 22q0 15 -8.5 23t-21.5 8h-2q-15 0 -24 -11h-89l32 177h195v-71h-132l-8 -41q17 16 52 16t64 -25t29 -71q0 -49 -34 -78.5t-89 -29.5zM40 0l420 700h100l-420 -700h-100zM472 -3q-58 0 -93 36.5
t-35 98.5q0 78 39 123t103 45q46 0 74.5 -25t29.5 -66h-84q-3 20 -27 20h-3q-20 0 -33.5 -19t-16.5 -45q23 26 65 26t68.5 -25.5t26.5 -65.5q0 -46 -32 -74.5t-82 -28.5zM467 69h3q12 0 20.5 8t8.5 20q0 26 -29 26h-3q-13 0 -21.5 -8t-8.5 -19q0 -12 8.5 -19.5t21.5 -7.5z
" />
    <glyph glyph-name="oneeighth" unicode="&#x215b;" 
d="M106 403v183l-79 -66v103l91 77h75v-297h-87zM40 0l420 700h100l-420 -700h-100zM473 -3q-51 0 -82.5 23t-31.5 59q0 24 13.5 42t37.5 25q-54 21 -54 74q0 34 34.5 57t83.5 23q48 0 82 -23t34 -57q0 -53 -54 -74q24 -7 37.5 -25t13.5 -42q0 -36 -31.5 -59t-82.5 -23z
M472 178h2q13 0 23 7.5t10 19.5t-10 19t-23 7h-2q-13 0 -23 -7t-10 -19t10 -19.5t23 -7.5zM472 67h2q12 0 20 6.5t8 17.5q0 12 -8 18.5t-20 6.5h-2q-12 0 -20 -6.5t-8 -18.5q0 -11 8 -17.5t20 -6.5z" />
    <glyph glyph-name="threeeighths" unicode="&#x215c;" 
d="M145 400q-49 0 -82.5 22.5t-33.5 63.5h88q5 -17 28 -17h2q28 0 28 26q0 24 -28 24h-28v66h26q28 0 28 25q0 24 -24 24h-2q-19 0 -25 -17h-88q0 40 33 63t81 23q51 0 82 -22.5t31 -62.5q0 -48 -39 -65q41 -19 41 -69q0 -39 -33.5 -61.5t-84.5 -22.5zM40 0l420 700h100
l-420 -700h-100zM473 -3q-51 0 -82.5 23t-31.5 59q0 24 13.5 42t37.5 25q-54 21 -54 74q0 34 34.5 57t83.5 23q48 0 82 -23t34 -57q0 -53 -54 -74q24 -7 37.5 -25t13.5 -42q0 -36 -31.5 -59t-82.5 -23zM472 178h2q13 0 23 7.5t10 19.5t-10 19t-23 7h-2q-13 0 -23 -7t-10 -19
t10 -19.5t23 -7.5zM472 67h2q12 0 20 6.5t8 17.5q0 12 -8 18.5t-20 6.5h-2q-12 0 -20 -6.5t-8 -18.5q0 -11 8 -17.5t20 -6.5z" />
    <glyph glyph-name="fiveeighths" unicode="&#x215d;" 
d="M125 400q-49 0 -82.5 26.5t-36.5 68.5h91q6 -24 31 -24h3q12 0 21 10t9 22q0 15 -8.5 23t-21.5 8h-2q-15 0 -24 -11h-89l32 177h195v-71h-132l-8 -41q17 16 52 16t64 -25t29 -71q0 -49 -34 -78.5t-89 -29.5zM40 0l420 700h100l-420 -700h-100zM473 -3q-51 0 -82.5 23
t-31.5 59q0 24 13.5 42t37.5 25q-54 21 -54 74q0 34 34.5 57t83.5 23q48 0 82 -23t34 -57q0 -53 -54 -74q24 -7 37.5 -25t13.5 -42q0 -36 -31.5 -59t-82.5 -23zM472 178h2q13 0 23 7.5t10 19.5t-10 19t-23 7h-2q-13 0 -23 -7t-10 -19t10 -19.5t23 -7.5zM472 67h2
q12 0 20 6.5t8 17.5q0 12 -8 18.5t-20 6.5h-2q-12 0 -20 -6.5t-8 -18.5q0 -11 8 -17.5t20 -6.5z" />
    <glyph glyph-name="seveneighths" unicode="&#x215e;" 
d="M40 0l420 700h100l-420 -700h-100zM93 403v4q0 127 80 219h-130v74h229v-61q-86 -89 -86 -226v-10h-93zM473 -3q-51 0 -82.5 23t-31.5 59q0 24 13.5 42t37.5 25q-54 21 -54 74q0 34 34.5 57t83.5 23q48 0 82 -23t34 -57q0 -53 -54 -74q24 -7 37.5 -25t13.5 -42
q0 -36 -31.5 -59t-82.5 -23zM472 178h2q13 0 23 7.5t10 19.5t-10 19t-23 7h-2q-13 0 -23 -7t-10 -19t10 -19.5t23 -7.5zM472 67h2q12 0 20 6.5t8 17.5q0 12 -8 18.5t-20 6.5h-2q-12 0 -20 -6.5t-8 -18.5q0 -11 8 -17.5t20 -6.5z" />
    <glyph glyph-name="uni215F" unicode="&#x215f;" 
d="M40 0l420 700h100l-420 -700h-100zM137 433v164l-71 -59v93l82 69h68v-267h-79z" />
    <glyph glyph-name="uni2160" unicode="&#x2160;" 
d="M98 0v105h137v490h-137v105h404v-105h-137v-490h137v-105h-404z" />
    <glyph glyph-name="uni2161" unicode="&#x2161;" 
d="M10 0v105h100v490h-100v105h581v-105h-100v-490h100v-105h-581zM240 105h121v490h-121v-490z" />
    <glyph glyph-name="uni2162" unicode="&#x2162;" 
d="M10 0v105h44v490h-44v105h580v-105h-44v-490h44v-105h-580zM180 105h57v490h-57v-490zM363 105h57v490h-57v-490z" />
    <glyph glyph-name="uni2163" unicode="&#x2163;" horiz-adv-x="1200" 
d="M110 0v105h137v490h-137v105h575v-105h-98l154 -485l143 485h-95v105h321v-105h-96l-148 -490h124v-105h-880zM377 105h242l-159 490h-83v-490z" />
    <glyph glyph-name="uni2164" unicode="&#x2164;" 
d="M593 595h-72l-107 -490h129v-105h-485v105h128l-106 490h-72v105h270v-105h-70l93 -483l92 483h-70v105h270v-105z" />
    <glyph glyph-name="uni2165" unicode="&#x2165;" horiz-adv-x="1200" 
d="M200 0v105h124l-148 490h-96v105h321v-105h-95l143 -485l154 485h-98v105h575v-105h-137v-490h137v-105h-880zM571 105h242v490h-83z" />
    <glyph glyph-name="uni2166" unicode="&#x2166;" horiz-adv-x="1200" 
d="M1185 595h-117v-490h117v-105h-1085v105h136l-132 490h-94v105h311v-105h-87l125 -480l136 480h-90v105h780v-105zM703 105v490h-82l-141 -490h223zM938 105v490h-105v-490h105z" />
    <glyph glyph-name="uni2167" unicode="&#x2167;" horiz-adv-x="1200" 
d="M1168 595h-54v-490h54v-105h-1110v105h128l-106 490h-72v105h270v-105h-70l93 -483l92 483h-70v105h845v-105zM582 105v490h-61l-107 -490h168zM785 105v490h-77v-490h77zM988 105v490h-77v-490h77z" />
    <glyph glyph-name="uni2168" unicode="&#x2168;" horiz-adv-x="1200" 
d="M68 0v105h157v490h-157v105h1060v-105h-110l-183 -240l191 -250h112v-105h-1070zM355 105h150l189 247l-186 243h-153v-490zM766 445l114 150h-229zM643 105h240l-120 157z" />
    <glyph glyph-name="uni2169" unicode="&#x2169;" 
d="M517 105h73v-105h-580v105h85l150 253l-140 237h-85v105h560v-105h-73l-140 -237zM227 595l79 -133l79 133h-158zM306 255l-89 -150h178z" />
    <glyph glyph-name="uni216C" unicode="&#x216c;" 
d="M22 0v105h97v490h-97v105h344v-105h-117v-490h196v165h130v-270h-553z" />
    <glyph glyph-name="uni216D" unicode="&#x216d;" 
d="M291 -10q-129 0 -202.5 96t-73.5 264t73.5 264t202.5 96q109 0 154 -72v62h125v-230h-119q-14 60 -49.5 97.5t-88.5 37.5h-8q-80 0 -120 -66t-40 -189t40 -189t120 -66h8q54 0 90 37.5t48 97.5h119v-230h-125v57q-46 -67 -154 -67z" />
    <glyph glyph-name="uni216E" unicode="&#x216e;" 
d="M10 0v105h77v490h-77v105h279q144 0 217.5 -90.5t73.5 -256.5q0 -170 -73 -261.5t-218 -91.5h-279zM217 105h60q90 0 131.5 61.5t41.5 187.5q0 121 -41.5 181t-131.5 60h-60v-490z" />
    <glyph glyph-name="uni216F" unicode="&#x216f;" 
d="M590 595h-61v-490h61v-105h-236v105h60v314l-66 -219h-95l-67 220v-315h60v-105h-236v105h61v490h-61v105h201l89 -308l89 308h201v-105z" />
    <glyph glyph-name="arrowleft" unicode="&#x2190;" 
d="M271 100l-251 251l251 249l87 -88l-104 -100h311v-124h-311l104 -100z" />
    <glyph glyph-name="arrowup" unicode="&#x2191;" 
d="M50 379l251 251l249 -251l-88 -87l-100 104v-311h-124v311l-100 -104z" />
    <glyph glyph-name="arrowright" unicode="&#x2192;" 
d="M329 600l251 -251l-251 -249l-87 88l104 100h-311v124h311l-104 100z" />
    <glyph glyph-name="arrowdown" unicode="&#x2193;" 
d="M550 321l-251 -251l-249 251l88 87l100 -104v311h124v-311l100 104z" />
    <glyph glyph-name="uni2196" unicode="&#x2196;" 
d="M455 157l-231 230v-159h-124v372h373v-124h-162l231 -230z" />
    <glyph glyph-name="uni2197" unicode="&#x2197;" 
d="M145 157l-87 89l231 230h-162v124h373v-372h-124v159z" />
    <glyph glyph-name="uni2198" unicode="&#x2198;" 
d="M145 542l231 -230v159h124v-372h-373v124h162l-231 230z" />
    <glyph glyph-name="uni2199" unicode="&#x2199;" 
d="M455 542l87 -89l-231 -230h162v-124h-373v372h124v-159z" />
    <glyph glyph-name="uni21A4" unicode="&#x21a4;" 
d="M421 573h132v-446h-132v161h-180l104 -100l-87 -88l-251 251l251 249l87 -88l-104 -100h180v161z" />
    <glyph glyph-name="uni21A5" unicode="&#x21a5;" 
d="M362 394v-180h161v-132h-446v132h161v180l-100 -104l-88 87l251 251l249 -251l-88 -87z" />
    <glyph glyph-name="uni21A6" unicode="&#x21a6;" 
d="M332 600l251 -251l-251 -249l-87 88l104 100h-180v-161h-132v446h132v-161h180l-104 100z" />
    <glyph glyph-name="uni21A7" unicode="&#x21a7;" 
d="M462 390l88 -87l-249 -251l-251 251l88 87l100 -104v180h-161v132h446v-132h-161v-180z" />
    <glyph glyph-name="uni21B0" unicode="&#x21b0;" 
d="M244 412h311v-412h-132v288h-179l104 -100l-87 -88l-251 251l251 249l87 -88z" />
    <glyph glyph-name="uni21B1" unicode="&#x21b1;" 
d="M339 600l251 -249l-251 -251l-87 88l104 100h-179v-288h-132v412h311l-104 100z" />
    <glyph glyph-name="uni21B2" unicode="&#x21b2;" 
d="M423 700h132v-412h-311l104 -100l-87 -88l-251 249l251 251l87 -88l-104 -100h179v288z" />
    <glyph glyph-name="uni21B3" unicode="&#x21b3;" 
d="M339 600l251 -251l-251 -249l-87 88l104 100h-311v412h132v-288h179l-104 100z" />
    <glyph glyph-name="partialdiff" unicode="&#x2202;" 
d="M238 710q102 0 173 -55t103.5 -145t32.5 -208q0 -148 -68 -230t-180 -82t-179.5 68.5t-67.5 182.5q0 105 67 174.5t158 69.5q83 0 128 -50q-13 82 -62.5 121t-112.5 39q-64 0 -113 -17v115q47 17 121 17zM302 109q49 0 81.5 33t32.5 98q0 60 -32.5 95.5t-81.5 35.5h-10
q-46 0 -76.5 -34.5t-30.5 -95.5q0 -63 32.5 -97.5t79.5 -34.5h5z" />
    <glyph glyph-name="uni2206" unicode="&#x2206;" 
d="M34 0v89l186 611h166l180 -610v-90h-532zM182 120h234l-117 428z" />
    <glyph glyph-name="product" unicode="&#x220f;" 
d="M110 0v585h-98v115h576v-115h-96v-585h-132v585h-118v-585h-132z" />
    <glyph glyph-name="summation" unicode="&#x2211;" 
d="M535 700v-113h-306l180 -237l-184 -237h310v-113h-465v100l188 250l-188 255v95h465z" />
    <glyph glyph-name="minus" unicode="&#x2212;" 
d="M53 200v115h494v-115h-494z" />
    <glyph glyph-name="uni2215" unicode="&#x2215;" 
d="M98 0l270 700h135l-265 -700h-140z" />
    <glyph glyph-name="uni2219" unicode="&#x2219;" 
d="M300 145q-85 0 -145 60t-60 145t60 145t145 60t145 -60t60 -145t-60 -145t-145 -60z" />
    <glyph glyph-name="radical" unicode="&#x221a;" 
d="M590 700v-115h-159l-110 -585h-171l-135 500h132l84 -357l103 557h256z" />
    <glyph glyph-name="infinity" unicode="&#x221e;" 
d="M147 170q-60 0 -102 39.5t-42 100.5t42 100.5t102 39.5q96 0 153 -81q57 81 153 81q60 0 102 -39.5t42 -100.5t-42 -100.5t-102 -39.5q-96 0 -153 81q-57 -81 -153 -81zM152 260h3q39 0 80 50q-41 50 -80 50h-3q-21 0 -37 -14t-16 -36t16 -36t37 -14zM445 260h3
q21 0 37 14t16 36t-16 36t-37 14h-3q-39 0 -80 -50q41 -50 80 -50z" />
    <glyph glyph-name="integral" unicode="&#x222b;" 
d="M100 -100v115h53q45 0 62.5 17.5t17.5 62.5v425q0 96 47.5 138t147.5 42h72v-115h-54q-45 0 -62.5 -17.5t-17.5 -62.5v-425q0 -96 -47.5 -138t-147.5 -42h-71z" />
    <glyph glyph-name="approxequal" unicode="&#x2248;" 
d="M412 278q-39 0 -106 24t-83 24q-40 0 -40 -38h-130v40q0 52 40 87.5t97 35.5q45 0 108.5 -24t78.5 -24q40 0 40 38h130v-40q0 -52 -39 -87.5t-96 -35.5zM412 60q-39 0 -106 24t-83 24q-40 0 -40 -38h-130v40q0 52 40 87.5t97 35.5q45 0 108.5 -24t78.5 -24q40 0 40 38
h130v-40q0 -52 -39 -87.5t-96 -35.5z" />
    <glyph glyph-name="notequal" unicode="&#x2260;" 
d="M561 300h-186l-26 -85h212v-115h-248l-26 -85h-123l26 85h-123v115h159l26 85h-185v115h221l26 85h123l-26 -85h150v-115z" />
    <glyph glyph-name="lessequal" unicode="&#x2264;" 
d="M547 525v-125l-327 -71l327 -71v-127l-494 117v160zM53 0v115h494v-115h-494z" />
    <glyph glyph-name="greaterequal" unicode="&#x2265;" 
d="M53 525l494 -117v-160l-494 -117v125l327 71l-327 71v127zM53 0v115h494v-115h-494z" />
    <glyph glyph-name="uni2460" unicode="&#x2460;" 
d="M300 51q-124 0 -212 88t-88 212t88 212t212 88t212 -88t88 -212t-88 -212t-212 -88zM300 132q91 0 153 64t62 155t-62 155t-153 64t-153 -64t-62 -155t62 -155t153 -64zM273 203v183l-79 -66v103l91 77h75v-297h-87z" />
    <glyph glyph-name="uni2461" unicode="&#x2461;" 
d="M300 51q-124 0 -212 88t-88 212t88 212t212 88t212 -88t88 -212t-88 -212t-212 -88zM300 132q91 0 153 64t62 155t-62 155t-153 64t-153 -64t-62 -155t62 -155t153 -64zM189 204v64l114 106q22 20 22 35q0 25 -23 25h-3q-12 0 -19 -8.5t-7 -20.5h-87q3 44 37 71.5
t83 27.5t78.5 -27.5t29.5 -59.5q0 -39 -37 -74l-70 -66h107v-73h-225z" />
    <glyph glyph-name="uni2462" unicode="&#x2462;" 
d="M300 51q-124 0 -212 88t-88 212t88 212t212 88t212 -88t88 -212t-88 -212t-212 -88zM300 132q91 0 153 64t62 155t-62 155t-153 64t-153 -64t-62 -155t62 -155t153 -64zM298 200q-49 0 -82.5 22.5t-33.5 63.5h88q5 -17 28 -17h2q28 0 28 26q0 24 -28 24h-28v66h26
q28 0 28 25q0 24 -24 24h-2q-19 0 -25 -17h-88q0 40 33 63t81 23q51 0 82 -22.5t31 -62.5q0 -48 -39 -65q41 -19 41 -69q0 -39 -33.5 -61.5t-84.5 -22.5z" />
    <glyph glyph-name="uni2463" unicode="&#x2463;" 
d="M300 51q-124 0 -212 88t-88 212t88 212t212 88t212 -88t88 -212t-88 -212t-212 -88zM300 132q91 0 153 64t62 155t-62 155t-153 64t-153 -64t-62 -155t62 -155t153 -64zM309 203v41h-149v92l129 164h98v-189h40v-67h-40v-41h-78zM232 311h77v100z" />
    <glyph glyph-name="uni2464" unicode="&#x2464;" 
d="M300 51q-124 0 -212 88t-88 212t88 212t212 88t212 -88t88 -212t-88 -212t-212 -88zM300 132q91 0 153 64t62 155t-62 155t-153 64t-153 -64t-62 -155t62 -155t153 -64zM292 200q-49 0 -82.5 26.5t-36.5 68.5h91q6 -24 31 -24h3q12 0 21 10t9 22q0 15 -8.5 23t-21.5 8h-2
q-15 0 -24 -11h-89l32 177h195v-71h-132l-8 -41q17 16 52 16t64 -25t29 -71q0 -49 -34 -78.5t-89 -29.5z" />
    <glyph glyph-name="uni2465" unicode="&#x2465;" 
d="M300 51q-124 0 -212 88t-88 212t88 212t212 88t212 -88t88 -212t-88 -212t-212 -88zM300 132q91 0 153 64t62 155t-62 155t-153 64t-153 -64t-62 -155t62 -155t153 -64zM299 201q-58 0 -93 36.5t-35 98.5q0 78 39 123t103 45q46 0 74.5 -25t29.5 -66h-84q-3 20 -27 20h-3
q-20 0 -33.5 -19t-16.5 -45q23 26 65 26t68.5 -25.5t26.5 -65.5q0 -46 -32 -74.5t-82 -28.5zM294 273h3q12 0 20.5 8t8.5 20q0 26 -29 26h-3q-13 0 -21.5 -8t-8.5 -19q0 -12 8.5 -19.5t21.5 -7.5z" />
    <glyph glyph-name="uni2466" unicode="&#x2466;" 
d="M300 51q-124 0 -212 88t-88 212t88 212t212 88t212 -88t88 -212t-88 -212t-212 -88zM300 132q91 0 153 64t62 155t-62 155t-153 64t-153 -64t-62 -155t62 -155t153 -64zM237 203v4q0 127 80 219h-130v74h229v-61q-86 -89 -86 -226v-10h-93z" />
    <glyph glyph-name="uni2467" unicode="&#x2467;" 
d="M300 51q-124 0 -212 88t-88 212t88 212t212 88t212 -88t88 -212t-88 -212t-212 -88zM300 132q91 0 153 64t62 155t-62 155t-153 64t-153 -64t-62 -155t62 -155t153 -64zM299 201q-51 0 -82.5 23t-31.5 59q0 24 13.5 42t37.5 25q-54 21 -54 74q0 34 34.5 57t83.5 23
q48 0 82 -23t34 -57q0 -53 -54 -74q24 -7 37.5 -25t13.5 -42q0 -36 -31.5 -59t-82.5 -23zM298 382h2q13 0 23 7.5t10 19.5t-10 19t-23 7h-2q-13 0 -23 -7t-10 -19t10 -19.5t23 -7.5zM298 271h2q12 0 20 6.5t8 17.5q0 12 -8 18.5t-20 6.5h-2q-12 0 -20 -6.5t-8 -18.5
q0 -11 8 -17.5t20 -6.5z" />
    <glyph glyph-name="uni2468" unicode="&#x2468;" 
d="M300 51q-124 0 -212 88t-88 212t88 212t212 88t212 -88t88 -212t-88 -212t-212 -88zM300 132q91 0 153 64t62 155t-62 155t-153 64t-153 -64t-62 -155t62 -155t153 -64zM299 503q58 0 93 -37t35 -99q0 -78 -39 -123t-103 -45q-46 0 -74.5 25t-29.5 66h84q3 -20 27 -20h3
q20 0 33.5 19t16.5 45q-23 -26 -65 -26t-68.5 25.5t-26.5 65.5q0 46 32 75t82 29zM304 430h-3q-12 0 -20.5 -8t-8.5 -20q0 -26 29 -26h3q13 0 21.5 8t8.5 19q0 12 -8.5 19.5t-21.5 7.5z" />
    <glyph glyph-name="uni24EA" unicode="&#x24ea;" 
d="M300 51q-124 0 -212 88t-88 212t88 212t212 88t212 -88t88 -212t-88 -212t-212 -88zM300 132q91 0 153 64t62 155t-62 155t-153 64t-153 -64t-62 -155t62 -155t153 -64zM300 201q-67 0 -99.5 44.5t-32.5 106.5t32.5 107t99.5 45q66 0 98.5 -45t32.5 -107t-32.5 -106.5
t-98.5 -44.5zM298 276h3q42 0 42 76q0 77 -42 77h-3q-42 0 -42 -77q0 -76 42 -76z" />
    <glyph glyph-name="uni24FF" unicode="&#x24ff;" 
d="M300 50q124 0 212 88t88 212t-88 212t-212 88t-212 -88t-88 -212t88 -212t212 -88zM300 201q-67 0 -99.5 44.5t-32.5 106.5t32.5 107t99.5 45q66 0 98.5 -45t32.5 -107t-32.5 -106.5t-98.5 -44.5zM298 276h3q42 0 42 76q0 77 -42 77h-3q-42 0 -42 -77q0 -76 42 -76z" />
    <glyph glyph-name="lozenge" unicode="&#x25ca;" 
d="M364 700l230 -350l-230 -350h-124l-235 350l235 350h124zM302 121l152 225l-155 235l-152 -230z" />
    <glyph glyph-name="uni2776" unicode="&#x2776;" 
d="M300 50q124 0 212 88t88 212t-88 212t-212 88t-212 -88t-88 -212t88 -212t212 -88zM266 203v183l-79 -66v103l91 77h75v-297h-87z" />
    <glyph glyph-name="uni2777" unicode="&#x2777;" 
d="M300 50q124 0 212 88t88 212t-88 212t-212 88t-212 -88t-88 -212t88 -212t212 -88zM189 204v64l114 106q22 20 22 35q0 25 -23 25h-3q-12 0 -19 -8.5t-7 -20.5h-87q3 44 37 71.5t83 27.5t78.5 -27.5t29.5 -59.5q0 -39 -37 -74l-70 -66h107v-73h-225z" />
    <glyph glyph-name="uni2778" unicode="&#x2778;" 
d="M300 50q124 0 212 88t88 212t-88 212t-212 88t-212 -88t-88 -212t88 -212t212 -88zM298 200q-49 0 -82.5 22.5t-33.5 63.5h88q5 -17 28 -17h2q28 0 28 26q0 24 -28 24h-28v66h26q28 0 28 25q0 24 -24 24h-2q-19 0 -25 -17h-88q0 40 33 63t81 23q51 0 82 -22.5t31 -62.5
q0 -48 -39 -65q41 -19 41 -69q0 -39 -33.5 -61.5t-84.5 -22.5z" />
    <glyph glyph-name="uni2779" unicode="&#x2779;" 
d="M300 50q124 0 212 88t88 212t-88 212t-212 88t-212 -88t-88 -212t88 -212t212 -88zM309 203v41h-149v92l129 164h98v-189h40v-67h-40v-41h-78zM232 311h77v100z" />
    <glyph glyph-name="uni277A" unicode="&#x277a;" 
d="M300 50q124 0 212 88t88 212t-88 212t-212 88t-212 -88t-88 -212t88 -212t212 -88zM299 200q-49 0 -82.5 26.5t-36.5 68.5h91q6 -24 31 -24h3q12 0 21 10t9 22q0 15 -8.5 23t-21.5 8h-2q-15 0 -24 -11h-89l32 177h195v-71h-132l-8 -41q17 16 52 16t64 -25t29 -71
q0 -49 -34 -78.5t-89 -29.5z" />
    <glyph glyph-name="uni277B" unicode="&#x277b;" 
d="M300 50q124 0 212 88t88 212t-88 212t-212 88t-212 -88t-88 -212t88 -212t212 -88zM304 201q-58 0 -93 36.5t-35 98.5q0 78 39 123t103 45q46 0 74.5 -25t29.5 -66h-84q-3 20 -27 20h-3q-20 0 -33.5 -19t-16.5 -45q23 26 65 26t68.5 -25.5t26.5 -65.5q0 -46 -32 -74.5
t-82 -28.5zM299 273h3q12 0 20.5 8t8.5 20q0 26 -29 26h-3q-13 0 -21.5 -8t-8.5 -19q0 -12 8.5 -19.5t21.5 -7.5z" />
    <glyph glyph-name="uni277C" unicode="&#x277c;" 
d="M300 50q124 0 212 88t88 212t-88 212t-212 88t-212 -88t-88 -212t88 -212t212 -88zM237 203v4q0 127 80 219h-130v74h229v-61q-86 -89 -86 -226v-10h-93z" />
    <glyph glyph-name="uni277D" unicode="&#x277d;" 
d="M300 50q124 0 212 88t88 212t-88 212t-212 88t-212 -88t-88 -212t88 -212t212 -88zM299 201q-51 0 -82.5 23t-31.5 59q0 24 13.5 42t37.5 25q-54 21 -54 74q0 34 34.5 57t83.5 23q48 0 82 -23t34 -57q0 -53 -54 -74q24 -7 37.5 -25t13.5 -42q0 -36 -31.5 -59t-82.5 -23z
M298 382h2q13 0 23 7.5t10 19.5t-10 19t-23 7h-2q-13 0 -23 -7t-10 -19t10 -19.5t23 -7.5zM298 271h2q12 0 20 6.5t8 17.5q0 12 -8 18.5t-20 6.5h-2q-12 0 -20 -6.5t-8 -18.5q0 -11 8 -17.5t20 -6.5z" />
    <glyph glyph-name="uni277E" unicode="&#x277e;" 
d="M300 50q124 0 212 88t88 212t-88 212t-212 88t-212 -88t-88 -212t88 -212t212 -88zM294 503q58 0 93 -37t35 -99q0 -78 -39 -123t-103 -45q-46 0 -74.5 25t-29.5 66h84q3 -20 27 -20h3q20 0 33.5 19t16.5 45q-23 -26 -65 -26t-68.5 25.5t-26.5 65.5q0 46 32 75t82 29z
M299 430h-3q-12 0 -20.5 -8t-8.5 -20q0 -26 29 -26h3q13 0 21.5 8t8.5 19q0 12 -8.5 19.5t-21.5 7.5z" />
    <glyph glyph-name="uniE000" unicode="&#xe000;" 
d="M129 179v342h342v-342h-342zM193 243h214v214h-214v-214z" />
    <glyph glyph-name="uniE001" unicode="&#xe001;" 
d="M64 114h472v472h-472v-472zM129 179v342h342v-342h-342z" />
    <glyph glyph-name="uniE002" unicode="&#xe002;" 
d="M0 50v600h600v-600h-600zM64 114h472v472h-472v-472z" />
    <glyph glyph-name="uniE009" unicode="&#xe009;" 
d="M129 179v342h342v-342h-342zM193 243h214v214h-214v-214zM257 307v86h86v-86h-86z" />
    <glyph glyph-name="uniE00A" unicode="&#xe00a;" 
d="M64 114h472v472h-472v-472zM129 179v342h342v-342h-342zM193 243h214v214h-214v-214zM257 307v86h86v-86h-86z" />
    <glyph glyph-name="uniE00B" unicode="&#xe00b;" 
d="M0 50v600h600v-600h-600zM64 114h472v472h-472v-472zM129 179v342h342v-342h-342zM193 243h214v214h-214v-214zM257 307v86h86v-86h-86z" />
    <glyph glyph-name="uniE00C" unicode="&#xe00c;" 
d="M129 179v342h342v-342h-342z" />
    <glyph glyph-name="uniE00D" unicode="&#xe00d;" 
d="M64 114h472v472h-472v-472z" />
    <glyph glyph-name="uniE00E" unicode="&#xe00e;" 
d="M0 50v600h600v-600h-600z" />
    <glyph glyph-name="uniE010" unicode="&#xe010;" 
d="M300 165q-76 0 -130.5 54.5t-54.5 130.5t54.5 130.5t130.5 54.5t130.5 -54.5t54.5 -130.5t-54.5 -130.5t-130.5 -54.5zM300 223q52 0 89.5 37.5t37.5 89.5t-37.5 89.5t-89.5 37.5t-89.5 -37.5t-37.5 -89.5t37.5 -89.5t89.5 -37.5zM300 281q-28 0 -48.5 20.5t-20.5 48.5
t20.5 48.5t48.5 20.5t48.5 -20.5t20.5 -48.5t-20.5 -48.5t-48.5 -20.5z" />
    <glyph glyph-name="uniE011" unicode="&#xe011;" 
d="M300 108q100 0 171 71t71 171t-71 171t-171 71t-171 -71t-71 -171t71 -171t171 -71zM300 165q-76 0 -130.5 54.5t-54.5 130.5t54.5 130.5t130.5 54.5t130.5 -54.5t54.5 -130.5t-54.5 -130.5t-130.5 -54.5zM300 223q52 0 89.5 37.5t37.5 89.5t-37.5 89.5t-89.5 37.5
t-89.5 -37.5t-37.5 -89.5t37.5 -89.5t89.5 -37.5zM300 281q-28 0 -48.5 20.5t-20.5 48.5t20.5 48.5t48.5 20.5t48.5 -20.5t20.5 -48.5t-20.5 -48.5t-48.5 -20.5z" />
    <glyph glyph-name="uniE012" unicode="&#xe012;" 
d="M300 50q-124 0 -212 88t-88 212t88 212t212 88t212 -88t88 -212t-88 -212t-212 -88zM300 108q100 0 171 71t71 171t-71 171t-171 71t-171 -71t-71 -171t71 -171t171 -71zM300 165q-76 0 -130.5 54.5t-54.5 130.5t54.5 130.5t130.5 54.5t130.5 -54.5t54.5 -130.5
t-54.5 -130.5t-130.5 -54.5zM300 223q52 0 89.5 37.5t37.5 89.5t-37.5 89.5t-89.5 37.5t-89.5 -37.5t-37.5 -89.5t37.5 -89.5t89.5 -37.5zM300 281q-28 0 -48.5 20.5t-20.5 48.5t20.5 48.5t48.5 20.5t48.5 -20.5t20.5 -48.5t-20.5 -48.5t-48.5 -20.5z" />
    <glyph glyph-name="uniF8FF" unicode="&#xf8ff;" horiz-adv-x="1200" 
d="M926 705q33 4 67 -2.5t47 -17.5q-3 -27 -4 -28q-14 -8 -32.5 -7.5t-31.5 4.5q2 -43 -18 -75t-59 -29q-10 -33 -35 -55t-53.5 -29.5t-59 -11.5t-51.5 0l4 -12q3 -11 8 -30t11 -42.5t12 -53t9 -56.5q58 -65 81 -86q46 -41 60 -78q9 -24 -17 -29q-22 13 -41.5 32t-44 47
t-41.5 45q-2 -39 11 -103.5t14 -70.5q-29 -23 -42 -3q-14 22 -22 67t-12 89.5t-5 48.5q-33 2 -223 -44q-1 -28 12.5 -55.5t30.5 -47t36 -48.5t27 -56q-14 -18 -37 -5q-10 5 -21 18t-26.5 35.5t-20.5 29.5q-11 15 -23.5 42t-18.5 31q-48 -141 -63 -142h-13t-12 5t-5 15
q2 29 19.5 80.5t42.5 95.5q-7 1 -51.5 4.5t-82 12t-60.5 26.5q-5 6 -10 14q6 7 12.5 12.5t10.5 8t12.5 7.5t12.5 8q14 19 52 47.5t53 50.5l-44 24q-44 23 -50 42q2 2 9 19q9 8 91 -34q8 67 10 71q1 4 10.5 7t18.5 5l8 1q9 -5 11 -15q2 -9 -5 -42t-5 -49q30 0 76 29.5
t60 33.5q4 1 52 13.5t73 20.5q-19 34 -20 72.5t17 60.5q79 1 111.5 -34t15.5 -85q19 2 40.5 14t24.5 24q-9 8 -27 23t-31 29q-23 26 -14.5 54t41.5 40q45 17 73.5 -13.5t21.5 -83.5q27 13 23 114zM857 588q7 19 -2 39t-32 26q-12 -22 1 -42t33 -23zM727 509q14 5 14 34
q-28 28 -57 28q-5 -15 -3 -34.5t11 -28.5q6 -6 35 1zM444 224q33 2 110 25.5t131 19.5q-3 17 -10 41t-9 36q-2 13 -4 29l-3 24t-5 17.5t-11 18.5q-48 -11 -117 -47t-109 -46q6 -22 12.5 -50t10 -47t4.5 -21zM280 236q83 -13 111 -10q-5 13 -13 44t-16 47q-10 -9 -29.5 -25
t-31.5 -28.5t-21 -27.5z" />
    <glyph glyph-name="G.ss02" 
d="M318 365h258v-125q0 -34 -8.5 -68t-29 -67.5t-49.5 -58.5t-74.5 -40.5t-100.5 -15.5q-140 0 -213.5 98.5t-73.5 261.5q0 166 74.5 263t216.5 97q123 0 187 -69t70 -181h-135q-5 57 -35 93.5t-88 36.5h-2q-75 0 -114 -64t-39 -176t40 -176t118 -64h2q63 0 91 38.5t28 93.5
v3h-123v120z" />
    <glyph glyph-name="Gbreve.ss02" 
d="M320 740q-74 0 -121.5 41t-48.5 109h110q3 -27 19.5 -41t40.5 -14t40.5 14t19.5 41h110q-1 -68 -48.5 -109t-121.5 -41zM318 365h258v-125q0 -34 -8.5 -68t-29 -67.5t-49.5 -58.5t-74.5 -40.5t-100.5 -15.5q-140 0 -213.5 98.5t-73.5 261.5q0 166 74.5 263t216.5 97
q123 0 187 -69t70 -181h-135q-5 57 -35 93.5t-88 36.5h-2q-75 0 -114 -64t-39 -176t40 -176t118 -64h2q63 0 91 38.5t28 93.5v3h-123v120z" />
    <glyph glyph-name="Gcircumflex.ss02" 
d="M321 803l-80 -58h-110l120 145h140l120 -145h-110zM318 365h258v-125q0 -34 -8.5 -68t-29 -67.5t-49.5 -58.5t-74.5 -40.5t-100.5 -15.5q-140 0 -213.5 98.5t-73.5 261.5q0 166 74.5 263t216.5 97q123 0 187 -69t70 -181h-135q-5 57 -35 93.5t-88 36.5h-2q-75 0 -114 -64
t-39 -176t40 -176t118 -64h2q63 0 91 38.5t28 93.5v3h-123v120z" />
    <glyph glyph-name="Gcommaaccent.ss02" 
d="M318 365h258v-125q0 -34 -8.5 -68t-29 -67.5t-49.5 -58.5t-74.5 -40.5t-100.5 -15.5q-140 0 -213.5 98.5t-73.5 261.5q0 166 74.5 263t216.5 97q123 0 187 -69t70 -181h-135q-5 57 -35 93.5t-88 36.5h-2q-75 0 -114 -64t-39 -176t40 -176t118 -64h2q63 0 91 38.5t28 93.5
v3h-123v120zM213 -195v130h130v-130q0 -50 -35.5 -82.5t-91.5 -32.5h-28v75h23q54 0 54 39v1h-52z" />
    <glyph glyph-name="Gdotaccent.ss02" 
d="M388 900v-135h-140v135h140zM318 365h258v-125q0 -34 -8.5 -68t-29 -67.5t-49.5 -58.5t-74.5 -40.5t-100.5 -15.5q-140 0 -213.5 98.5t-73.5 261.5q0 166 74.5 263t216.5 97q123 0 187 -69t70 -181h-135q-5 57 -35 93.5t-88 36.5h-2q-75 0 -114 -64t-39 -176t40 -176
t118 -64h2q63 0 91 38.5t28 93.5v3h-123v120z" />
    <glyph glyph-name="R.ss02" 
d="M55 0v700h276q91 0 153 -54t62 -136q0 -58 -30 -104.5t-80 -67.5q37 -4 54 -22t30 -60l81 -256h-145l-65 207q-9 30 -23.5 44t-40.5 14h-137v-265h-135zM190 383h101q120 0 120 101q0 96 -120 96h-101v-197z" />
    <glyph glyph-name="Racute.ss02" 
d="M255 745l40 145h155l-105 -145h-90zM55 0v700h276q91 0 153 -54t62 -136q0 -58 -30 -104.5t-80 -67.5q37 -4 54 -22t30 -60l81 -256h-145l-65 207q-9 30 -23.5 44t-40.5 14h-137v-265h-135zM190 383h101q120 0 120 101q0 96 -120 96h-101v-197z" />
    <glyph glyph-name="Rcaron.ss02" 
d="M365 745h-140l-120 145h110l80 -58l80 58h110zM520 256l81 -256h-145l-65 207q-9 30 -23.5 44t-40.5 14h-137v-265h-135v700h276q91 0 153 -54t62 -136q0 -58 -30 -104.5t-80 -67.5q37 -4 54 -22t30 -60zM291 383q120 0 120 101q0 96 -120 96h-101v-197h101z" />
    <glyph glyph-name="Rcommaaccent.ss02" 
d="M55 0v700h276q91 0 153 -54t62 -136q0 -58 -30 -104.5t-80 -67.5q37 -4 54 -22t30 -60l81 -256h-145l-65 207q-9 30 -23.5 44t-40.5 14h-137v-265h-135zM190 383h101q120 0 120 101q0 96 -120 96h-101v-197zM220 -310v75h23q54 0 54 39v1h-52v130h130v-130
q0 -50 -35.5 -82.5t-91.5 -32.5h-28z" />
    <glyph glyph-name="i.dot" 
d="M384 700v-148h-146v148h146zM376 105h174v-105h-484v105h180v290h-153v105h283v-395z" />
    <glyph glyph-name="a.ss01" 
d="M255 -10q-83 0 -149 69t-66 191q0 124 63 192t152 68q56 0 94.5 -23t55.5 -57v70h130v-500h-130v70q-19 -34 -57 -57t-93 -23zM283 95h8q48 0 81 42t33 113t-33 113t-81 42h-8q-47 0 -80 -44t-33 -110q0 -67 33 -111.5t80 -44.5z" />
    <glyph glyph-name="aacute.ss01" 
d="M250 550l25 150h150l-100 -150h-75zM255 -10q-83 0 -149 69t-66 191q0 124 63 192t152 68q56 0 94.5 -23t55.5 -57v70h130v-500h-130v70q-19 -34 -57 -57t-93 -23zM283 95h8q48 0 81 42t33 113t-33 113t-81 42h-8q-47 0 -80 -44t-33 -110q0 -67 33 -111.5t80 -44.5z" />
    <glyph glyph-name="abreve.ss01" 
d="M290 540q-74 0 -121.5 44t-48.5 116h110q2 -30 17.5 -47.5t42.5 -17.5t42.5 17.5t17.5 47.5h110q-1 -72 -48.5 -116t-121.5 -44zM255 -10q-83 0 -149 69t-66 191q0 124 63 192t152 68q56 0 94.5 -23t55.5 -57v70h130v-500h-130v70q-19 -34 -57 -57t-93 -23zM283 95h8
q48 0 81 42t33 113t-33 113t-81 42h-8q-47 0 -80 -44t-33 -110q0 -67 33 -111.5t80 -44.5z" />
    <glyph glyph-name="acircumflex.ss01" 
d="M470 550h-80l-100 72l-100 -72h-80l100 150h160zM255 -10q-83 0 -149 69t-66 191q0 124 63 192t152 68q56 0 94.5 -23t55.5 -57v70h130v-500h-130v70q-19 -34 -57 -57t-93 -23zM283 95h8q48 0 81 42t33 113t-33 113t-81 42h-8q-47 0 -80 -44t-33 -110q0 -67 33 -111.5
t80 -44.5z" />
    <glyph glyph-name="adieresis.ss01" 
d="M130 565v130h120v-130h-120zM330 565v130h120v-130h-120zM255 -10q-83 0 -149 69t-66 191q0 124 63 192t152 68q56 0 94.5 -23t55.5 -57v70h130v-500h-130v70q-19 -34 -57 -57t-93 -23zM283 95h8q48 0 81 42t33 113t-33 113t-81 42h-8q-47 0 -80 -44t-33 -110
q0 -67 33 -111.5t80 -44.5z" />
    <glyph glyph-name="uni0227.ss01" 
d="M220 565v135h140v-135h-140zM255 -10q-83 0 -149 69t-66 191q0 124 63 192t152 68q56 0 94.5 -23t55.5 -57v70h130v-500h-130v70q-19 -34 -57 -57t-93 -23zM283 95h8q48 0 81 42t33 113t-33 113t-81 42h-8q-47 0 -80 -44t-33 -110q0 -67 33 -111.5t80 -44.5z" />
    <glyph glyph-name="uni1EA1.ss01" 
d="M255 -10q-83 0 -149 69t-66 191q0 124 63 192t152 68q56 0 94.5 -23t55.5 -57v70h130v-500h-130v70q-19 -34 -57 -57t-93 -23zM283 95h8q48 0 81 42t33 113t-33 113t-81 42h-8q-47 0 -80 -44t-33 -110q0 -67 33 -111.5t80 -44.5zM241 -200v135h140v-135h-140z" />
    <glyph glyph-name="agrave.ss01" 
d="M255 550l-100 150h150l25 -150h-75zM255 -10q-83 0 -149 69t-66 191q0 124 63 192t152 68q56 0 94.5 -23t55.5 -57v70h130v-500h-130v70q-19 -34 -57 -57t-93 -23zM283 95h8q48 0 81 42t33 113t-33 113t-81 42h-8q-47 0 -80 -44t-33 -110q0 -67 33 -111.5t80 -44.5z" />
    <glyph glyph-name="amacron.ss01" 
d="M137 565v105h305v-105h-305zM255 -10q-83 0 -149 69t-66 191q0 124 63 192t152 68q56 0 94.5 -23t55.5 -57v70h130v-500h-130v70q-19 -34 -57 -57t-93 -23zM283 95h8q48 0 81 42t33 113t-33 113t-81 42h-8q-47 0 -80 -44t-33 -110q0 -67 33 -111.5t80 -44.5z" />
    <glyph glyph-name="aogonek.ss01" 
d="M535 0q-80 -46 -80 -90q0 -25 14.5 -37.5t35.5 -12.5h30v-80h-50q-52 0 -86 28t-34 72q0 74 76 120h-36v70q-19 -34 -57 -57t-93 -23q-83 0 -149 69t-66 191q0 124 63 192t152 68q56 0 94.5 -23t55.5 -57v70h130v-500zM291 95q48 0 81 42t33 113t-33 113t-81 42h-8
q-47 0 -80 -44t-33 -110q0 -67 33 -111.5t80 -44.5h8z" />
    <glyph glyph-name="aring.ss01" 
d="M290 540q-42 0 -73.5 30.5t-31.5 74.5q0 41 32 73t73 32q44 0 74.5 -31.5t30.5 -73.5q0 -45 -30 -75t-75 -30zM290 601q18 0 30.5 13t12.5 31t-12.5 31t-30.5 13t-31 -13t-13 -31t13 -31t31 -13zM255 -10q-83 0 -149 69t-66 191q0 124 63 192t152 68q56 0 94.5 -23
t55.5 -57v70h130v-500h-130v70q-19 -34 -57 -57t-93 -23zM283 95h8q48 0 81 42t33 113t-33 113t-81 42h-8q-47 0 -80 -44t-33 -110q0 -67 33 -111.5t80 -44.5z" />
    <glyph glyph-name="aringacute.ss01" 
d="M254 766l25 135h150l-96 -135h-79zM290 530q-42 0 -73.5 30.5t-31.5 74.5q0 41 32 73t73 32q44 0 74.5 -31.5t30.5 -73.5q0 -45 -30 -75t-75 -30zM292 591q18 0 30.5 13t12.5 31t-12.5 31t-30.5 13t-31 -13t-13 -31t13 -31t31 -13zM255 -10q-83 0 -149 69t-66 191
q0 124 63 192t152 68q56 0 94.5 -23t55.5 -57v70h130v-500h-130v70q-19 -34 -57 -57t-93 -23zM283 95h8q48 0 81 42t33 113t-33 113t-81 42h-8q-47 0 -80 -44t-33 -110q0 -67 33 -111.5t80 -44.5z" />
    <glyph glyph-name="atilde.ss01" 
d="M369 555q-38 0 -80 24l-18 10q-28 16 -42 16q-13 0 -23.5 -11.5t-10.5 -28.5h-95v26q0 47 32.5 80.5t79.5 33.5q37 0 75 -20l18 -10q36 -20 49 -20t21.5 11.5t8.5 28.5h95v-26q0 -47 -32.5 -80.5t-77.5 -33.5zM255 -10q-83 0 -149 69t-66 191q0 124 63 192t152 68
q56 0 94.5 -23t55.5 -57v70h130v-500h-130v70q-19 -34 -57 -57t-93 -23zM283 95h8q48 0 81 42t33 113t-33 113t-81 42h-8q-47 0 -80 -44t-33 -110q0 -67 33 -111.5t80 -44.5z" />
    <glyph glyph-name="y.ss03" 
d="M407 500h144l-248 -622q-18 -44 -45 -62t-81 -18h-151v112h115q25 0 34 7t18 29l33 86l-230 468h146l147 -305z" />
    <glyph glyph-name="yacute.ss03" 
d="M425 700l-100 -150h-75l25 150h150zM407 500h144l-248 -622q-18 -44 -45 -62t-81 -18h-151v112h115q25 0 34 7t18 29l33 86l-230 468h146l147 -305z" />
    <glyph glyph-name="ycircumflex.ss03" 
d="M290 622l-100 -72h-80l100 150h160l100 -150h-80zM407 500h144l-248 -622q-18 -44 -45 -62t-81 -18h-151v112h115q25 0 34 7t18 29l33 86l-230 468h146l147 -305z" />
    <glyph glyph-name="ydieresis.ss03" 
d="M250 695v-130h-120v130h120zM450 695v-130h-120v130h120zM407 500h144l-248 -622q-18 -44 -45 -62t-81 -18h-151v112h115q25 0 34 7t18 29l33 86l-230 468h146l147 -305z" />
    <glyph glyph-name="ygrave.ss03" 
d="M330 550h-75l-100 150h150zM407 500h144l-248 -622q-18 -44 -45 -62t-81 -18h-151v112h115q25 0 34 7t18 29l33 86l-230 468h146l147 -305z" />
    <glyph glyph-name="uni0233.ss03" 
d="M442 670v-105h-305v105h305zM407 500h144l-248 -622q-18 -44 -45 -62t-81 -18h-151v112h115q25 0 34 7t18 29l33 86l-230 468h146l147 -305z" />
    <glyph glyph-name="i.dot.ss07" 
d="M264 700h146v-148h-146v148zM119 500h283v-500h-130v395h-153v105z" />
    <glyph glyph-name="i.ss07" 
d="M264 700h146v-148h-146v148zM119 500h283v-500h-130v395h-153v105z" />
    <glyph glyph-name="dotlessi.ss07" 
d="M402 500v-500h-130v395h-153v105h283z" />
    <glyph glyph-name="iacute.ss07" 
d="M472 700l-100 -150h-75l25 150h150zM119 500h283v-500h-130v395h-153v105z" />
    <glyph glyph-name="ibreve.ss07" 
d="M397 700h110q-1 -72 -48.5 -116t-121.5 -44t-121.5 44t-48.5 116h110q2 -30 17.5 -47.5t42.5 -17.5t42.5 17.5t17.5 47.5zM119 500h283v-500h-130v395h-153v105z" />
    <glyph glyph-name="icircumflex.ss07" 
d="M417 700l100 -150h-80l-100 72l-100 -72h-80l100 150h160zM119 500h283v-500h-130v395h-153v105z" />
    <glyph glyph-name="idieresis.ss07" 
d="M297 695v-130h-120v130h120zM377 695h120v-130h-120v130zM119 500h283v-500h-130v395h-153v105z" />
    <glyph glyph-name="uni1ECB.ss07" 
d="M264 700h146v-148h-146v148zM272 0v395h-153v105h283v-500h-130zM267 -200v135h140v-135h-140z" />
    <glyph glyph-name="igrave.ss07" 
d="M377 550h-75l-100 150h150zM402 500v-500h-130v395h-153v105h283z" />
    <glyph glyph-name="imacron.ss07" 
d="M184 670h305v-105h-305v105zM119 500h283v-500h-130v395h-153v105z" />
    <glyph glyph-name="iogonek.ss07" 
d="M264 700h146v-148h-146v148zM119 500h283v-500q-80 -46 -80 -90q0 -25 14.5 -37.5t35.5 -12.5h30v-80h-50q-52 0 -86 28t-34 72q0 74 76 120h-36v395h-153v105z" />
    <glyph glyph-name="itilde.ss07" 
d="M431 695h95v-26q0 -47 -32.5 -80.5t-77.5 -33.5q-38 0 -80 24l-18 10q-28 16 -42 16q-13 0 -23.5 -11.5t-10.5 -28.5h-95v26q0 47 32.5 80.5t79.5 33.5q37 0 75 -20l18 -10q36 -20 49 -20t21.5 11.5t8.5 28.5zM119 500h283v-500h-130v395h-153v105z" />
    <glyph glyph-name="r.ss07" 
d="M90 0v500h130v-68q16 32 52 55t90 23q78 0 127.5 -48t50.5 -117h-130q-3 25 -22.5 42.5t-55.5 17.5h-3q-50 0 -79.5 -44t-29.5 -104v-257h-130z" />
    <glyph glyph-name="racute.ss07" 
d="M277 550l25 150h150l-100 -150h-75zM90 0v500h130v-68q16 32 52 55t90 23q78 0 127.5 -48t50.5 -117h-130q-3 25 -22.5 42.5t-55.5 17.5h-3q-50 0 -79.5 -44t-29.5 -104v-257h-130z" />
    <glyph glyph-name="rcaron.ss07" 
d="M137 700h80l100 -72l100 72h80l-100 -150h-160zM90 0v500h130v-68q16 32 52 55t90 23q78 0 127.5 -48t50.5 -117h-130q-3 25 -22.5 42.5t-55.5 17.5h-3q-50 0 -79.5 -44t-29.5 -104v-257h-130z" />
    <glyph glyph-name="rcommaaccent.ss07" 
d="M90 0v500h130v-68q16 32 52 55t90 23q78 0 127.5 -48t50.5 -117h-130q-3 25 -22.5 42.5t-55.5 17.5h-3q-50 0 -79.5 -44t-29.5 -104v-257h-130zM65 -310v75h23q54 0 54 39v1h-52v130h130v-130q0 -50 -35.5 -82.5t-91.5 -32.5h-28z" />
    <glyph glyph-name="I_S_B_N" horiz-adv-x="1800" 
d="M1461 710q124 0 189 -67t65 -188v-455h-135v440q0 150 -126 150h-6q-67 0 -130 -47v128q64 39 143 39zM1152 355q58 -12 95.5 -56.5t37.5 -112.5q0 -80 -62 -133t-158 -53h-162v120h142q50 0 77.5 22.5t27.5 66.5q0 88 -105 88h-142v116h132q100 0 100 84q0 83 -100 83
h-463q-50 0 -81 -20.5t-31 -56.5q0 -34 21 -53t67 -28l103 -20q95 -19 144 -66t49 -131q0 -90 -65 -147.5t-189 -57.5h-500v700h135v-580h370q55 0 84.5 22.5t29.5 58.5q0 31 -18 49.5t-63 27.5l-125 26q-178 37 -178 196q0 84 64 142t186 58h480q98 0 156.5 -52t58.5 -129
q0 -62 -32.5 -105t-85.5 -59z" />
    <glyph glyph-name="w_w_w" horiz-adv-x="1800" 
d="M1666 500h111l-74 -500h-146l-80 272l-81 -272h-144l-64 371l-64 -371h-144l-80 272l-81 -272h-144l-64 371l-64 -371h-144l-80 272l-81 -272h-146l-74 500h111l49 -382l84 282h113l87 -293l66 393h157l67 -393l87 293h113l87 -293l66 393h157l67 -393l87 293h113
l84 -282z" />
    <glyph glyph-name="f_f_i.ss07" horiz-adv-x="1800" 
d="M206 0v395h-166v105h166v70q0 130 130 130h284v-108h-229q-34 0 -44.5 -10.5t-10.5 -44.5v-37h517v70q0 130 130 130h284v-108h-229q-34 0 -44.5 -10.5t-10.5 -44.5v-37h648v-500h-130v395h-518v-395h-130v395h-517v-395h-130zM1493 552v148h146v-148h-146z" />
    <glyph glyph-name="fi.ss07" horiz-adv-x="1200" 
d="M281 0v395h-186v105h186v70q0 130 130 130h284v-108h-229q-34 0 -44.5 -10.5t-10.5 -44.5v-37h620v-500h-130v395h-490v-395h-130zM893 552v148h146v-148h-146z" />
    <glyph glyph-name="a.sups.ss01" 
d="M269 410q-55 0 -94.5 40t-39.5 108t39.5 107.5t94.5 39.5q52 0 84 -36v31h99v-285h-102v37q-35 -42 -81 -42zM293 489q27 0 43.5 19.5t16.5 49.5t-16.5 49t-43.5 19q-24 0 -40 -19t-16 -49t16 -49.5t40 -19.5z" />
    <glyph glyph-name="y.sups.ss03" 
d="M371 700h108l-165 -363q-18 -37 -54 -37h-111v82h52q18 0 25.5 6.5t13.5 21.5l5 12l-125 278h109l71 -161z" />
    <glyph glyph-name="a.sups" 
d="M256 410q-40 0 -66.5 24t-26.5 63q0 73 108 86l65 8v9q0 33 -32 33h-4q-29 0 -34 -22h-93q2 43 36 68.5t95 25.5q57 0 92.5 -27.5t35.5 -71.5v-128q0 -36 4 -63h-89q-2 9 -4 36q-32 -41 -87 -41zM287 476h4q19 0 33 13t14 36v10l-55 -10q-24 -5 -24 -25q0 -24 28 -24z
" />
    <glyph glyph-name="b.sups" 
d="M341 705q55 0 92 -39.5t37 -108.5t-37 -108t-92 -39q-56 0 -86 40v-35h-102v395h99v-145q30 40 89 40zM312 490q24 0 40 18.5t16 48.5t-16 49t-40 19q-27 0 -43.5 -19t-16.5 -49t16.5 -48.5t43.5 -18.5z" />
    <glyph glyph-name="c.sups" 
d="M309 410q-69 0 -112 37.5t-43 109.5t43 110t112 38q67 0 100.5 -32.5t37.5 -80.5h-101q-5 33 -40 33h-4q-46 0 -46 -68q0 -67 46 -67h4q35 0 40 30h101q-5 -47 -38 -78.5t-100 -31.5z" />
    <glyph glyph-name="d.sups" 
d="M348 810h99v-395h-102v35q-30 -40 -86 -40q-55 0 -92 39t-37 108t37 108.5t92 39.5q59 0 89 -40v145zM288 490q27 0 43.5 18.5t16.5 48.5t-16.5 49t-43.5 19q-24 0 -40 -19t-16 -49t16 -48.5t40 -18.5z" />
    <glyph glyph-name="e.sups" 
d="M446 559q0 -17 -1 -22h-196q2 -25 16 -39.5t37 -14.5h4q39 0 44 25h95q-5 -42 -43.5 -70t-97.5 -28q-66 0 -108.5 40t-42.5 105q0 66 41 108t107 42t105.5 -41.5t39.5 -104.5zM299 631q-45 0 -50 -47h100q-1 20 -12.5 33.5t-33.5 13.5h-4z" />
    <glyph glyph-name="f.sups" 
d="M239 415v203h-56v82h56v21q0 89 89 89h95v-75h-60q-22 0 -22 -27v-8h67v-82h-67v-203h-102z" />
    <glyph glyph-name="g.sups" 
d="M344 700h102v-279q0 -57 -41 -96.5t-119 -39.5q-58 0 -97 25.5t-45 76.5h102q7 -27 39 -27h6q59 0 59 58v45q-20 -44 -81 -44q-58 0 -93.5 39t-35.5 104q0 66 34.5 104.5t91.5 38.5q60 0 78 -47v42zM292 497q25 0 38.5 19t13.5 46t-13 46t-38 19q-22 0 -36.5 -17
t-14.5 -48t14 -48t36 -17z" />
    <glyph glyph-name="h.sups" 
d="M348 705q105 0 105 -117v-173h-102v169q0 42 -37 42h-4q-20 0 -34 -13.5t-14 -35.5v-162h-102v395h102v-150q26 45 86 45z" />
    <glyph glyph-name="i.sups" 
d="M246 735v75h108v-75h-108zM249 415v285h102v-285h-102z" />
    <glyph glyph-name="j.sups" 
d="M245 735v75h108v-75h-108zM159 290v85h49q26 0 33 7.5t7 32.5v285h102v-321q0 -89 -89 -89h-102z" />
    <glyph glyph-name="k.sups" 
d="M371 415l-67 103l-29 -30v-73h-100v395h100v-195l81 85h125l-109 -112l115 -173h-116z" />
    <glyph glyph-name="l.sups" 
d="M249 415v395h102v-395h-102z" />
    <glyph glyph-name="m.sups" 
d="M441 705q49 0 75.5 -29t26.5 -77v-184h-102v163q0 47 -39 47h-4q-21 0 -34 -13t-13 -35v-162h-102v163q0 47 -39 47h-4q-21 0 -34 -13t-13 -35v-162h-102v285h102v-38q30 43 90 43q64 0 90 -50q31 50 102 50z" />
    <glyph glyph-name="n.sups" 
d="M341 705q105 0 105 -117v-173h-102v169q0 42 -37 42h-4q-20 0 -34 -13.5t-14 -35.5v-162h-102v285h102v-40q26 45 86 45z" />
    <glyph glyph-name="o.sups" 
d="M300 410q-70 0 -112 41.5t-42 105.5t42 106t112 42t112 -42t42 -106t-42 -105.5t-112 -41.5zM300 490q52 0 52 67q0 68 -52 68t-52 -68q0 -67 52 -67z" />
    <glyph glyph-name="p.sups" 
d="M336 705q55 0 92 -39t37 -108t-37 -108.5t-92 -39.5q-59 0 -89 40v-145h-99v395h102v-35q30 40 86 40zM307 490q24 0 40 19t16 49t-16 48.5t-40 18.5q-27 0 -43.5 -18.5t-16.5 -48.5t16.5 -49t43.5 -19z" />
    <glyph glyph-name="q.sups" 
d="M350 699h102v-395h-99v145q-30 -40 -89 -40q-55 0 -92 39.5t-37 108.5t37 108t92 39q56 0 86 -40v35zM293 489q27 0 43.5 19t16.5 49t-16.5 48.5t-43.5 18.5q-24 0 -40 -18.5t-16 -48.5t16 -49t40 -19z" />
    <glyph glyph-name="r.sups" 
d="M407 702h8v-86h-34q-59 0 -59 -70v-131h-102v285h105v-54q17 56 82 56z" />
    <glyph glyph-name="s.sups" 
d="M299 410q-68 0 -101 24.5t-37 76.5h99q2 -34 39 -34h4q14 0 22.5 6t8.5 16q0 17 -21 21l-67 14q-74 15 -74 79q0 46 37 69t92 23q131 0 139 -99h-97q-2 32 -35 32h-5q-32 0 -32 -20q0 -15 19 -18l72 -16q36 -8 53.5 -25t17.5 -53q0 -48 -39 -72t-95 -24z" />
    <glyph glyph-name="t.sups" 
d="M330 415q-89 0 -89 89v114h-56v82h56v90h102v-90h64v-82h-64v-80q0 -25 7 -32t33 -7h33v-84h-86z" />
    <glyph glyph-name="u.sups" 
d="M258 410q-105 0 -105 117v173h102v-169q0 -42 37 -42h4q20 0 34 13.5t14 35.5v162h102v-285h-102v40q-26 -45 -86 -45z" />
    <glyph glyph-name="v.sups" 
d="M375 700h101l-111 -285h-131l-111 285h107l72 -189z" />
    <glyph glyph-name="w.sups" 
d="M444 700h91l-101 -285h-79l-53 161l-48 -161h-89l-101 285h100l45 -151l50 151h94l47 -150z" />
    <glyph glyph-name="x.sups" 
d="M139 415l107 143l-106 142h107l53 -71l53 71h106l-106 -141l107 -144h-107l-54 72l-54 -72h-106z" />
    <glyph glyph-name="y.sups" 
d="M376 700h108l-130 -248v-70q0 -43 -19.5 -62.5t-62.5 -19.5h-116v82h69q20 0 28 8t8 28v10l-144 272h115l71 -150z" />
    <glyph glyph-name="z.sups" 
d="M297 497h141v-82h-276v65l132 138h-129v82h264v-67z" />
    <glyph glyph-name="zero.osf" 
d="M303 511q114 0 184.5 -73t70.5 -187t-70.5 -187t-184.5 -73t-184.5 73t-70.5 187t70.5 187t184.5 73zM299 406q-59 0 -90 -44.5t-31 -110.5q0 -35 9 -65l186 200q-28 20 -66 20h-8zM307 96q59 0 90 44.5t31 110.5q0 36 -8 61l-184 -198q28 -18 63 -18h8z" />
    <glyph glyph-name="one.osf" 
d="M320 500h97v-500h-123v326l-164 -153v143z" />
    <glyph glyph-name="two.osf" 
d="M387 201l-129 -96h227v-105h-380v123l215 160q45 33 45 72q0 22 -16 36t-42 14h-6q-30 0 -48 -19t-18 -55h-130q0 81 56.5 130t144.5 49q87 0 138 -40.5t51 -105.5q0 -46 -24 -82.5t-84 -80.5z" />
    <glyph glyph-name="three.osf" 
d="M422 153q57 -15 92.5 -59.5t35.5 -103.5q0 -95 -70 -147.5t-182 -52.5t-180 55t-68 148h130q5 -44 34 -71t79 -27h10q57 0 86.5 31.5t29.5 73.5q0 47 -34.5 72.5t-92.5 25.5h-47v105h42q58 0 93 27.5t35 74.5q0 42 -30.5 71t-76.5 29h-10q-42 0 -71.5 -27t-33.5 -73h-130
q0 89 68.5 147t171.5 58q109 0 175.5 -56.5t66.5 -138.5q0 -59 -33.5 -102.5t-89.5 -59.5z" />
    <glyph glyph-name="four.osf" 
d="M492 105h92v-105h-92v-200h-127v200h-327v127l310 373h144v-395zM168 105h197v235z" />
    <glyph glyph-name="five.osf" 
d="M328 238q97 0 158 -60.5t61 -156.5q0 -104 -68.5 -167.5t-183.5 -63.5q-107 0 -178 57t-82 148h130q11 -47 44.5 -73.5t83.5 -26.5h6q51 0 84.5 33t33.5 88t-33.5 86t-84.5 31h-6q-58 0 -112 -58h-122l86 425h395v-105h-295l-43 -205q20 21 55 34.5t71 13.5z" />
    <glyph glyph-name="six.osf" 
d="M332 460q95 0 160.5 -63.5t65.5 -166.5q0 -100 -68 -170t-187 -70q-128 0 -198 88t-70 249q0 171 90 277t224 106q89 0 151 -51.5t73 -138.5h-130q-5 37 -30 61t-70 24h-8q-30 0 -58.5 -13t-54.5 -40t-44.5 -75t-23.5 -112q23 44 71 69.5t107 25.5zM308 95
q53 0 86.5 37.5t33.5 92.5t-33.5 92.5t-86.5 37.5h-8q-55 0 -91 -36.5t-36 -93.5t35 -93.5t92 -36.5h8z" />
    <glyph glyph-name="seven.osf" 
d="M48 500h505v-110q-254 -165 -254 -525v-65h-136v65q0 361 255 530h-370v105z" />
    <glyph glyph-name="eight.osf" 
d="M411 337q118 -41 118 -157q0 -80 -60.5 -135t-168.5 -55t-168.5 55t-60.5 135q0 116 118 157q-57 20 -94.5 68t-37.5 115q0 77 64.5 133.5t178.5 56.5t178.5 -56.5t64.5 -133.5q0 -67 -37.5 -115t-94.5 -68zM295 605q-45 0 -76.5 -30.5t-31.5 -76.5q0 -44 31.5 -73
t76.5 -29h10q45 0 76.5 29t31.5 73q0 46 -31.5 76.5t-76.5 30.5h-10zM305 95q40 0 67 27.5t27 72.5q0 43 -27 69.5t-67 26.5h-10q-40 0 -67 -26.5t-27 -69.5q0 -45 27 -72.5t67 -27.5h10z" />
    <glyph glyph-name="nine.osf" 
d="M297 510q128 0 198 -88t70 -249q0 -171 -90 -277t-224 -106q-89 0 -151 51.5t-73 138.5h130q5 -37 30 -61t70 -24h8q30 0 58.5 13t54.5 40t44.5 75t23.5 112q-23 -44 -71 -69.5t-107 -25.5q-95 0 -160.5 63.5t-65.5 166.5q0 100 68 170t187 70zM300 145q55 0 91 36.5
t36 93.5t-35 93.5t-92 36.5h-8q-53 0 -86.5 -37.5t-33.5 -92.5t33.5 -92.5t86.5 -37.5h8z" />
    <glyph glyph-name="zero.osf.zero" 
d="M302 -10q-114 0 -184.5 73t-70.5 187t70.5 187t184.5 73t184.5 -73t70.5 -187t-70.5 -187t-184.5 -73zM298 95h8q59 0 90 44.5t31 110.5t-31 110.5t-90 44.5h-8q-59 0 -90 -44.5t-31 -110.5t31 -110.5t90 -44.5z" />
    <glyph glyph-name="zero.zero" 
d="M300 -10q-131 0 -201.5 97.5t-70.5 262.5q0 164 72 262t200 98t200 -98t72 -262q0 -165 -70.5 -262.5t-201.5 -97.5zM296 105h8q135 0 135 245t-135 245h-8q-135 0 -135 -245t135 -245z" />
    <glyph glyph-name="zero.subs" 
d="M300 285q86 0 130 -59t44 -144q0 -84 -44 -143t-130 -59t-130 59t-44 143q0 85 44 144t130 59zM298 193q-64 0 -64 -111q0 -20 1 -29l110 118q-17 22 -43 22h-4zM302 -28q64 0 64 110q0 20 -1 29l-110 -118q17 -21 43 -21h4z" />
    <glyph glyph-name="one.subs" 
d="M287 -115v256l-109 -90v126l125 103h89v-395h-105z" />
    <glyph glyph-name="two.subs" 
d="M153 -115v84l149 135q38 34 38 57q0 15 -10.5 25.5t-26.5 10.5h-4q-16 0 -28 -13t-13 -30h-107q4 59 47.5 95t108.5 36q63 0 102 -36t39 -81q0 -33 -14.5 -56t-43.5 -50l-95 -87h154v-90h-296z" />
    <glyph glyph-name="three.subs" 
d="M297 -120q-64 0 -107.5 31t-43.5 86h108q1 -13 13.5 -21.5t28.5 -8.5h5q19 0 31.5 11t12.5 28t-12 26.5t-31 9.5h-37v84h37q18 0 29 10t11 26t-10 26t-28 10h-5q-15 0 -25.5 -8.5t-12.5 -19.5h-108q0 54 43 84.5t106 30.5q61 0 104.5 -30.5t43.5 -82.5q0 -63 -55 -87
q58 -27 58 -93q0 -53 -46 -82.5t-110 -29.5z" />
    <glyph glyph-name="four.subs" 
d="M323 -115v62h-196v109l174 224h119v-249h53v-84h-53v-62h-97zM218 31h105v137z" />
    <glyph glyph-name="five.subs" 
d="M297 -121q-64 0 -107.5 34.5t-47.5 90.5h112q4 -16 16.5 -26.5t29.5 -10.5h4q20 0 33.5 14.5t13.5 34.5t-12.5 32.5t-32.5 12.5h-4q-24 0 -38 -17h-108l44 235h252v-88h-174l-14 -67q26 23 72 23q47 0 84 -33.5t37 -92.5q0 -65 -44.5 -103.5t-115.5 -38.5z" />
    <glyph glyph-name="six.subs" 
d="M304 -120q-76 0 -121 49.5t-45 133.5q0 102 50.5 162t135.5 60q62 0 99 -33.5t39 -85.5h-104q-7 31 -39 31h-6q-30 0 -50.5 -27.5t-24.5 -67.5q32 40 91 40q55 0 91 -35t36 -89q0 -60 -42.5 -99t-109.5 -39zM299 -32h4q20 0 33.5 13t13.5 33q0 19 -13 31t-34 12h-4
q-19 0 -33 -13t-14 -31q0 -19 13.5 -32t33.5 -13z" />
    <glyph glyph-name="seven.subs" 
d="M216 -115v13q0 169 114 292h-180v90h299v-78q-120 -120 -120 -299v-18h-113z" />
    <glyph glyph-name="eight.subs" 
d="M300 -122q-65 0 -107 30.5t-42 77.5q0 32 18.5 56.5t50.5 34.5q-75 28 -75 98q0 47 45 77.5t110 30.5t109.5 -30.5t44.5 -77.5q0 -70 -76 -98q32 -10 50.5 -34.5t18.5 -56.5q0 -47 -41 -77.5t-106 -30.5zM297 121h5q19 0 32.5 10t13.5 27t-13.5 27t-32.5 10h-5
q-19 0 -32.5 -10t-13.5 -27t13.5 -27t32.5 -10zM297 -34h5q16 0 27.5 10t11.5 25t-11.5 25.5t-27.5 10.5h-5q-16 0 -28 -10.5t-12 -25.5t12 -25t28 -10z" />
    <glyph glyph-name="nine.subs" 
d="M296 284q76 0 121 -49.5t45 -133.5q0 -102 -50.5 -162t-135.5 -60q-62 0 -99 33.5t-39 85.5h104q7 -31 39 -31h6q30 0 50.5 27.5t24.5 67.5q-32 -40 -91 -40q-55 0 -91 35t-36 89q0 60 42.5 99t109.5 39zM301 196h-4q-20 0 -33.5 -13t-13.5 -33q0 -19 13 -31t34 -12h4
q19 0 33 13t14 31q0 19 -13.5 32t-33.5 13z" />
    <glyph glyph-name="zero.dnom" 
d="M300 300q66 0 98.5 -45t32.5 -107t-32.5 -106.5t-98.5 -44.5q-67 0 -99.5 44.5t-32.5 106.5t32.5 107t99.5 45zM298 225q-42 0 -42 -77v-11l71 76q-9 12 -26 12h-3zM301 72q42 0 42 76v6l-68 -74q10 -8 23 -8h3z" />
    <glyph glyph-name="one.dnom" horiz-adv-x="601" 
d="M266 -1v183l-79 -66v103l91 77h75v-297h-87z" />
    <glyph glyph-name="two.dnom" 
d="M189 0v64l114 106q22 20 22 35q0 25 -23 25h-3q-12 0 -19 -8.5t-7 -20.5h-87q3 44 37 71.5t83 27.5t78.5 -27.5t29.5 -59.5q0 -39 -37 -74l-70 -66h107v-73h-225z" />
    <glyph glyph-name="three.dnom" 
d="M298 -4q-49 0 -82.5 22.5t-33.5 63.5h88q5 -17 28 -17h2q28 0 28 26q0 24 -28 24h-28v66h26q28 0 28 25q0 24 -24 24h-2q-19 0 -25 -17h-88q0 40 33 63t81 23q51 0 82 -22.5t31 -62.5q0 -48 -39 -65q41 -19 41 -69q0 -39 -33.5 -61.5t-84.5 -22.5z" />
    <glyph glyph-name="four.dnom" 
d="M312 -1v41h-149v92l129 164h98v-189h40v-67h-40v-41h-78zM235 107h77v100z" />
    <glyph glyph-name="five.dnom" 
d="M299 -4q-49 0 -82.5 26.5t-36.5 68.5h91q6 -24 31 -24h3q12 0 21 10t9 22q0 15 -8.5 23t-21.5 8h-2q-15 0 -24 -11h-89l32 177h195v-71h-132l-8 -41q17 16 52 16t64 -25t29 -71q0 -49 -34 -78.5t-89 -29.5z" />
    <glyph glyph-name="six.dnom" horiz-adv-x="599" 
d="M304 -3q-58 0 -93 36.5t-35 98.5q0 78 39 123t103 45q46 0 74.5 -25t29.5 -66h-84q-3 20 -27 20h-3q-20 0 -33.5 -19t-16.5 -45q23 26 65 26t68.5 -25.5t26.5 -65.5q0 -46 -32 -74.5t-82 -28.5zM299 69h3q12 0 20.5 8t8.5 20q0 26 -29 26h-3q-13 0 -21.5 -8t-8.5 -19
q0 -12 8.5 -19.5t21.5 -7.5z" />
    <glyph glyph-name="seven.dnom" 
d="M237 -1v4q0 127 80 219h-130v74h229v-61q-86 -89 -86 -226v-10h-93z" />
    <glyph glyph-name="eight.dnom" horiz-adv-x="599" 
d="M299 -3q-51 0 -82.5 23t-31.5 59q0 24 13.5 42t37.5 25q-54 21 -54 74q0 34 34.5 57t83.5 23q48 0 82 -23t34 -57q0 -53 -54 -74q24 -7 37.5 -25t13.5 -42q0 -36 -31.5 -59t-82.5 -23zM298 178h2q13 0 23 7.5t10 19.5t-10 19t-23 7h-2q-13 0 -23 -7t-10 -19t10 -19.5
t23 -7.5zM298 67h2q12 0 20 6.5t8 17.5q0 12 -8 18.5t-20 6.5h-2q-12 0 -20 -6.5t-8 -18.5q0 -11 8 -17.5t20 -6.5z" />
    <glyph glyph-name="nine.dnom" horiz-adv-x="599" 
d="M294 299q58 0 93 -37t35 -99q0 -78 -39 -123t-103 -45q-46 0 -74.5 25t-29.5 66h84q3 -20 27 -20h3q20 0 33.5 19t16.5 45q-23 -26 -65 -26t-68.5 25.5t-26.5 65.5q0 46 32 75t82 29zM299 226h-3q-12 0 -20.5 -8t-8.5 -20q0 -26 29 -26h3q13 0 21.5 8t8.5 19
q0 12 -8.5 19.5t-21.5 7.5z" />
    <glyph glyph-name="zero.numr" 
d="M300 704q66 0 98.5 -45t32.5 -107t-32.5 -106.5t-98.5 -44.5q-67 0 -99.5 44.5t-32.5 106.5t32.5 107t99.5 45zM298 629q-42 0 -42 -77v-11l71 76q-9 12 -26 12h-3zM301 476q42 0 42 76v6l-68 -74q10 -8 23 -8h3z" />
    <glyph glyph-name="one.numr" horiz-adv-x="601" 
d="M266 403v183l-79 -66v103l91 77h75v-297h-87z" />
    <glyph glyph-name="two.numr" 
d="M189 404v64l114 106q22 20 22 35q0 25 -23 25h-3q-12 0 -19 -8.5t-7 -20.5h-87q3 44 37 71.5t83 27.5t78.5 -27.5t29.5 -59.5q0 -39 -37 -74l-70 -66h107v-73h-225z" />
    <glyph glyph-name="three.numr" 
d="M298 400q-49 0 -82.5 22.5t-33.5 63.5h88q5 -17 28 -17h2q28 0 28 26q0 24 -28 24h-28v66h26q28 0 28 25q0 24 -24 24h-2q-19 0 -25 -17h-88q0 40 33 63t81 23q51 0 82 -22.5t31 -62.5q0 -48 -39 -65q41 -19 41 -69q0 -39 -33.5 -61.5t-84.5 -22.5z" />
    <glyph glyph-name="four.numr" 
d="M312 403v41h-149v92l129 164h98v-189h40v-67h-40v-41h-78zM235 511h77v100z" />
    <glyph glyph-name="five.numr" 
d="M299 400q-49 0 -82.5 26.5t-36.5 68.5h91q6 -24 31 -24h3q12 0 21 10t9 22q0 15 -8.5 23t-21.5 8h-2q-15 0 -24 -11h-89l32 177h195v-71h-132l-8 -41q17 16 52 16t64 -25t29 -71q0 -49 -34 -78.5t-89 -29.5z" />
    <glyph glyph-name="six.numr" horiz-adv-x="599" 
d="M304 401q-58 0 -93 36.5t-35 98.5q0 78 39 123t103 45q46 0 74.5 -25t29.5 -66h-84q-3 20 -27 20h-3q-20 0 -33.5 -19t-16.5 -45q23 26 65 26t68.5 -25.5t26.5 -65.5q0 -46 -32 -74.5t-82 -28.5zM299 473h3q12 0 20.5 8t8.5 20q0 26 -29 26h-3q-13 0 -21.5 -8t-8.5 -19
q0 -12 8.5 -19.5t21.5 -7.5z" />
    <glyph glyph-name="seven.numr" 
d="M237 403v4q0 127 80 219h-130v74h229v-61q-86 -89 -86 -226v-10h-93z" />
    <glyph glyph-name="eight.numr" horiz-adv-x="599" 
d="M299 401q-51 0 -82.5 23t-31.5 59q0 24 13.5 42t37.5 25q-54 21 -54 74q0 34 34.5 57t83.5 23q48 0 82 -23t34 -57q0 -53 -54 -74q24 -7 37.5 -25t13.5 -42q0 -36 -31.5 -59t-82.5 -23zM298 582h2q13 0 23 7.5t10 19.5t-10 19t-23 7h-2q-13 0 -23 -7t-10 -19t10 -19.5
t23 -7.5zM298 471h2q12 0 20 6.5t8 17.5q0 12 -8 18.5t-20 6.5h-2q-12 0 -20 -6.5t-8 -18.5q0 -11 8 -17.5t20 -6.5z" />
    <glyph glyph-name="nine.numr" horiz-adv-x="599" 
d="M294 703q58 0 93 -37t35 -99q0 -78 -39 -123t-103 -45q-46 0 -74.5 25t-29.5 66h84q3 -20 27 -20h3q20 0 33.5 19t16.5 45q-23 -26 -65 -26t-68.5 25.5t-26.5 65.5q0 46 32 75t82 29zM299 630h-3q-12 0 -20.5 -8t-8.5 -20q0 -26 29 -26h3q13 0 21.5 8t8.5 19
q0 12 -8.5 19.5t-21.5 7.5z" />
    <glyph glyph-name="zero.subs.zero" 
d="M300 -120q-86 0 -130 59t-44 143q0 85 44 144t130 59t130 -59t44 -144q0 -84 -44 -143t-130 -59zM298 -28h4q64 0 64 110q0 111 -64 111h-4q-64 0 -64 -111q0 -110 64 -110z" />
    <glyph glyph-name="zero.dnom.zero" 
d="M300 -5q-67 0 -99.5 44.5t-32.5 106.5t32.5 107t99.5 45q66 0 98.5 -45t32.5 -107t-32.5 -106.5t-98.5 -44.5zM298 70h3q42 0 42 76q0 77 -42 77h-3q-42 0 -42 -77q0 -76 42 -76z" />
    <glyph glyph-name="zero.numr.zero" 
d="M300 401q-67 0 -99.5 44.5t-32.5 106.5t32.5 107t99.5 45q66 0 98.5 -45t32.5 -107t-32.5 -106.5t-98.5 -44.5zM298 476h3q42 0 42 76q0 77 -42 77h-3q-42 0 -42 -77q0 -76 42 -76z" />
    <glyph glyph-name="uni2070.zero" 
d="M300 410q-86 0 -130 59t-44 143q0 85 44 144t130 59t130 -59t44 -144q0 -84 -44 -143t-130 -59zM298 502h4q64 0 64 110q0 111 -64 111h-4q-64 0 -64 -111q0 -110 64 -110z" />
    <glyph glyph-name="exclamdown.case" 
d="M230 700h140v-135h-140v135zM265 525h71l31 -285v-240h-133v240z" />
    <glyph glyph-name="questiondown.case" 
d="M425 705v-135h-140v135h140zM416 509v-154q0 -38 -21 -59t-58 -21h-27q-93 0 -93 -80q0 -37 25.5 -58.5t67.5 -21.5h200v-115h-218q-91 0 -149 53t-58 142q0 78 49.5 131.5t132.5 53.5h1q14 0 19.5 5t5.5 20v104h123z" />
    <glyph glyph-name="questiondown.ss05.case" 
d="M414 700v-135h-140v135h140zM406 510v-119q0 -33 -12.5 -49.5t-42.5 -29.5l-53 -22q-25 -10 -37 -16.5t-27.5 -19t-22 -30t-6.5 -41.5q0 -39 24.5 -63.5t70.5 -24.5q42 0 69 26.5t31 68.5h130q-4 -91 -70.5 -145.5t-159.5 -54.5q-96 0 -160.5 52.5t-64.5 140.5
q0 130 145 193l37 16q15 6 19.5 15.5t4.5 29.5v73h125z" />
    <glyph glyph-name="question.ss05" 
d="M204 190v119q0 33 12.5 49.5t42.5 29.5l53 22q25 10 37 16.5t27.5 19t22 30t6.5 41.5q0 39 -24.5 63.5t-70.5 24.5q-42 0 -69 -26.5t-31 -68.5h-130q4 91 70.5 145.5t159.5 54.5q96 0 160.5 -52.5t64.5 -140.5q0 -130 -145 -193l-37 -16q-15 -6 -19.5 -15.5t-4.5 -29.5
v-73h-125zM196 0v135h140v-135h-140z" />
    <glyph glyph-name="questiondown.ss05" 
d="M414 500v-135h-140v135h140zM406 310v-119q0 -33 -12.5 -49.5t-42.5 -29.5l-53 -22q-25 -10 -37 -16.5t-27.5 -19t-22 -30t-6.5 -41.5q0 -39 24.5 -63.5t70.5 -24.5q42 0 69 26.5t31 68.5h130q-4 -91 -70.5 -145.5t-159.5 -54.5q-96 0 -160.5 52.5t-64.5 140.5
q0 130 145 193l37 16q15 6 19.5 15.5t4.5 29.5v73h125z" />
    <glyph glyph-name="braceleft.case" 
d="M355 0q-134 0 -134 155v48q0 38 -10.5 51.5t-40.5 13.5h-15v164h15q30 0 40.5 13.5t10.5 51.5v48q0 155 134 155h95v-120h-40q-37 0 -48 -12t-11 -53v-70q0 -83 -81 -83v-24q81 0 81 -83v-70q0 -41 11 -53t48 -12h40v-120h-95z" />
    <glyph glyph-name="braceright.case" 
d="M245 700q134 0 134 -155v-48q0 -38 10.5 -51.5t40.5 -13.5h15v-164h-15q-30 0 -40.5 -13.5t-10.5 -51.5v-48q0 -155 -134 -155h-95v120h40q37 0 48 12t11 53v70q0 83 81 83v24q-81 0 -81 83v70q0 41 -11 53t-48 12h-40v120h95z" />
    <glyph glyph-name="bracketleft.case" 
d="M195 0v700h220v-120h-85v-460h85v-120h-220z" />
    <glyph glyph-name="bracketright.case" 
d="M405 700v-700h-220v120h85v460h-85v120h220z" />
    <glyph glyph-name="parenleft.case" 
d="M440 -10q-118 5 -199 110.5t-81 248.5q0 94 36.5 175.5t101.5 132t142 53.5v-125q-65 -20 -105 -78.5t-40 -156.5t40.5 -156.5t104.5 -78.5v-125z" />
    <glyph glyph-name="parenright.case" 
d="M160 710q118 -5 199 -110.5t81 -248.5q0 -94 -36.5 -175.5t-101.5 -132t-142 -53.5v125q65 20 105 78.5t40 156.5t-40.5 156.5t-104.5 78.5v125z" />
    <glyph glyph-name="emdash.case" 
d="M20 298v105h560v-105h-560z" />
    <glyph glyph-name="endash.case" 
d="M105 298v105h390v-105h-390z" />
    <glyph glyph-name="hyphen.case" 
d="M155 298v105h290v-105h-290z" />
    <glyph glyph-name="uni00AD.case" 
d="M155 298v105h290v-105h-290z" />
    <glyph glyph-name="guillemotleft.case" 
d="M320 565l-145 -215l145 -215h-150l-145 215l145 215h150zM560 565l-145 -215l145 -215h-150l-145 215l145 215h150z" />
    <glyph glyph-name="guillemotright.case" 
d="M195 565l145 -215l-145 -215h-150l145 215l-145 215h150zM435 565l145 -215l-145 -215h-150l145 215l-145 215h150z" />
    <glyph glyph-name="guilsinglleft.case" 
d="M445 565l-145 -215l145 -215h-150l-145 215l145 215h150z" />
    <glyph glyph-name="guilsinglright.case" 
d="M303 565l145 -215l-145 -215h-150l145 215l-145 215h150z" />
    <glyph glyph-name="bullet_one" 
d="M300 110q-99 0 -169.5 70.5t-70.5 169.5t70.5 169.5t169.5 70.5t169.5 -70.5t70.5 -169.5t-70.5 -169.5t-169.5 -70.5z" />
    <glyph glyph-name="bullet_two" 
d="M300 80q-112 0 -191 79.5t-79 190.5t79 190.5t191 79.5q111 0 190.5 -79.5t79.5 -190.5t-79.5 -190.5t-190.5 -79.5z" />
    <glyph glyph-name="bullet_three" 
d="M300 50q124 0 212 88t88 212t-88 212t-212 88t-212 -88t-88 -212t88 -212t212 -88z" />
    <glyph glyph-name="plus.case" 
d="M233 108v185h-180v115h180v185h133v-185h180v-115h-180v-185h-133z" />
    <glyph glyph-name="minus.case" 
d="M53 293v115h494v-115h-494z" />
    <glyph glyph-name="multiply.case" 
d="M527 207l-83 -83l-144 145l-145 -145l-81 82l144 144l-145 145l83 83l145 -145l144 144l81 -82l-143 -143z" />
    <glyph glyph-name="divide.case" 
d="M230 453v135h140v-135h-140zM53 293v115h494v-115h-494zM230 113v135h140v-135h-140z" />
    <glyph glyph-name="equal.case" 
d="M53 393v115h494v-115h-494zM53 193v115h494v-115h-494z" />
    <glyph glyph-name="notequal.case" 
d="M561 393h-186l-26 -85h212v-115h-248l-26 -85h-123l26 85h-123v115h159l26 85h-185v115h221l26 85h123l-26 -85h150v-115z" />
    <glyph glyph-name="greater.case" 
d="M90 579l425 -170v-120l-425 -170v125l278 105l-278 105v125z" />
    <glyph glyph-name="less.case" 
d="M510 579v-125l-278 -105l278 -105v-125l-425 170v120z" />
    <glyph glyph-name="greaterequal.case" 
d="M53 618l494 -117v-160l-494 -117v125l327 71l-327 71v127zM53 93v115h494v-115h-494z" />
    <glyph glyph-name="lessequal.case" 
d="M547 618v-125l-327 -71l327 -71v-127l-494 117v160zM53 93v115h494v-115h-494z" />
    <glyph glyph-name="plusminus.case" 
d="M366 483h181v-115h-181v-105h-133v105h-180v115h180v110h133v-110zM53 93v115h494v-115h-494z" />
    <glyph glyph-name="approxequal.case" 
d="M412 371q-39 0 -106 24t-83 24q-40 0 -40 -38h-130v40q0 52 40 87.5t97 35.5q45 0 108.5 -24t78.5 -24q40 0 40 38h130v-40q0 -52 -39 -87.5t-96 -35.5zM412 153q-39 0 -106 24t-83 24q-40 0 -40 -38h-130v40q0 52 40 87.5t97 35.5q45 0 108.5 -24t78.5 -24q40 0 40 38
h130v-40q0 -52 -39 -87.5t-96 -35.5z" />
    <glyph glyph-name="logicalnot.case" 
d="M408 208v135h-349v115h482v-250h-133z" />
    <glyph glyph-name="copyright.alt" 
d="M300 280q-94 0 -162 68t-68 162q0 95 67.5 162.5t162.5 67.5t162.5 -67.5t67.5 -162.5t-67.5 -162.5t-162.5 -67.5zM300 334q73 0 123.5 51.5t50.5 124.5q0 74 -50.5 125t-123.5 51q-72 0 -123 -51.5t-51 -124.5t51 -124.5t123 -51.5zM303 385q-49 0 -78.5 32t-29.5 93
q0 60 29.5 92.5t78.5 32.5q43 0 69 -22t29 -59h-63q-4 31 -33 31h-4q-21 0 -31.5 -21.5t-10.5 -53.5q0 -76 42 -76h4q23 0 31 30h63q-3 -37 -28 -58t-68 -21z" />
    <glyph glyph-name="registered.alt" 
d="M300 280q-94 0 -162 68t-68 162q0 95 67.5 162.5t162.5 67.5t162.5 -67.5t67.5 -162.5t-67.5 -162.5t-162.5 -67.5zM300 334q73 0 123.5 51.5t50.5 124.5q0 74 -50.5 125t-123.5 51q-72 0 -123 -51.5t-51 -124.5t51 -124.5t123 -51.5zM216 393v230h98q39 0 60 -17.5
t21 -45.5q0 -23 -12.5 -39.5t-31.5 -20.5q41 0 41 -34v-73h-57v60q0 13 -5.5 18t-19.5 5h-37v-83h-57zM273 523h33q32 0 32 28q0 25 -34 25h-31v-53z" />
    <glyph glyph-name="uni2117.alt" 
d="M300 280q-94 0 -162 68t-68 162q0 95 67.5 162.5t162.5 67.5t162.5 -67.5t67.5 -162.5t-67.5 -162.5t-162.5 -67.5zM300 334q73 0 123.5 51.5t50.5 124.5q0 74 -50.5 125t-123.5 51q-72 0 -123 -51.5t-51 -124.5t51 -124.5t123 -51.5zM223 395v230h103q36 0 56.5 -19.5
t20.5 -56.5t-20.5 -56.5t-56.5 -19.5h-46v-78h-57zM280 520h30q35 0 35 29t-35 29h-30v-58z" />
    <glyph glyph-name="at.case" 
d="M380 -95q-180 0 -275 114.5t-95 313.5q0 196 83 311.5t226 115.5q126 0 191 -70.5t65 -180.5v-384h-110v69q-41 -79 -124 -79q-71 0 -118.5 59.5t-47.5 155.5q0 95 47 152.5t119 57.5q89 0 124 -80v34q0 75 -39 117t-104 42h-8q-91 0 -140 -86t-49 -232q0 -327 257 -327
h203v-103h-205zM370 215h7q34 0 56.5 33t22.5 82t-22 79.5t-57 30.5h-7q-36 0 -58 -30t-22 -80q0 -49 22 -82t58 -33z" />
    <glyph glyph-name="at.ss06.case" 
d="M368 -95q-180 0 -269.5 103.5t-89.5 331.5q0 199 80 309.5t215 110.5q142 0 213 -98.5t71 -277.5q0 -140 -32.5 -199.5t-109.5 -59.5h-93v37q-21 -47 -71 -47q-62 0 -96 59.5t-34 155.5q0 90 34 150t93 60q50 0 74 -40v30h85v-315h11q25 0 32 39t7 125q0 148 -43 219
t-141 71q-195 0 -195 -329q0 -181 59.5 -260t200.5 -79h109v-96h-110zM295 205h4q25 0 39.5 31t14.5 94q0 60 -15 90t-39 30h-4q-24 0 -38.5 -30t-14.5 -90q0 -62 14.5 -93.5t38.5 -31.5z" />
    <glyph glyph-name="ampersand.ss04" 
d="M601 0h-139l-37 44q-75 -54 -185 -54q-93 0 -153.5 49t-60.5 130q0 57 31 101t88 84l13 9q-28 33 -42 53t-27 54t-13 72q0 73 52 120.5t129 47.5q82 0 131.5 -46.5t49.5 -121.5q0 -66 -30.5 -112t-86.5 -87l96 -118q8 32 8 153v22h130v-27q0 -156 -57 -247zM198 537
q0 -49 54 -110l1 1q63 44 63 107q0 31 -15.5 50.5t-43.5 19.5q-27 0 -43 -19t-16 -49zM248 95q62 0 105 35l-124 148l-24 -16q-49 -34 -49 -85q0 -36 26 -59t66 -23z" />
    <glyph glyph-name="at.ss06" 
d="M368 -125q-180 0 -269.5 103.5t-89.5 331.5q0 199 80 309.5t215 110.5q142 0 213 -98.5t71 -277.5q0 -140 -32.5 -199.5t-109.5 -59.5h-93v37q-21 -47 -71 -47q-62 0 -96 59.5t-34 155.5q0 90 34 150t93 60q50 0 74 -40v30h85v-315h11q25 0 32 39t7 125q0 148 -43 219
t-141 71q-195 0 -195 -329q0 -181 59.5 -260t200.5 -79h109v-96h-110zM295 175h4q25 0 39.5 31t14.5 94q0 60 -15 90t-39 30h-4q-24 0 -38.5 -30t-14.5 -90q0 -62 14.5 -93.5t38.5 -31.5z" />
    <glyph glyph-name="whiteCircle_three_numbers" 
d="M300 51q-124 0 -212 88t-88 212t88 212t212 88t212 -88t88 -212t-88 -212t-212 -88zM300 132q91 0 153 64t62 155t-62 155t-153 64t-153 -64t-62 -155t62 -155t153 -64z" />
    <glyph glyph-name="circle_one" 
d="M300 110q-99 0 -169.5 70.5t-70.5 169.5t70.5 169.5t169.5 70.5t169.5 -70.5t70.5 -169.5t-70.5 -169.5t-169.5 -70.5zM300 185q68 0 116.5 48.5t48.5 116.5t-48.5 116.5t-116.5 48.5t-116.5 -48.5t-48.5 -116.5t48.5 -116.5t116.5 -48.5z" />
    <glyph glyph-name="circle_two" 
d="M300 80q-112 0 -191 79.5t-79 190.5t79 190.5t191 79.5q111 0 190.5 -79.5t79.5 -190.5t-79.5 -190.5t-190.5 -79.5zM300 155q80 0 137.5 57.5t57.5 137.5t-57.5 137.5t-137.5 57.5q-81 0 -138 -57.5t-57 -137.5t57 -137.5t138 -57.5z" />
    <glyph glyph-name="caroncomb.alt" horiz-adv-x="0" 
d="M-390 455v75h23q54 0 54 39v1h-52v130h130v-130q0 -50 -35.5 -82.5t-91.5 -32.5h-28z" />
    <glyph glyph-name="acute.case" 
d="M238 745l40 145h155l-105 -145h-90z" />
    <glyph glyph-name="breve.case" 
d="M300 740q-74 0 -121.5 41t-48.5 109h110q3 -27 19.5 -41t40.5 -14t40.5 14t19.5 41h110q-1 -68 -48.5 -109t-121.5 -41z" />
    <glyph glyph-name="caron.case" 
d="M380 890h110l-120 -145h-140l-120 145h110l80 -58z" />
    <glyph glyph-name="circumflex.case" 
d="M490 745h-110l-80 58l-80 -58h-110l120 145h140z" />
    <glyph glyph-name="dieresis.case" 
d="M140 765v120h125v-120h-125zM335 765v120h125v-120h-125z" />
    <glyph glyph-name="dotaccent.case" 
d="M230 765v135h140v-135h-140z" />
    <glyph glyph-name="grave.case" 
d="M367 745h-90l-105 145h155z" />
    <glyph glyph-name="hungarumlaut.case" 
d="M156 745l40 145h155l-105 -145h-90zM345 745l40 145h155l-105 -145h-90z" />
    <glyph glyph-name="macron.case" 
d="M133 765v110h335v-110h-335z" />
    <glyph glyph-name="ring.case" 
d="M300 730q-44 0 -77 32t-33 78q0 43 33.5 76.5t76.5 33.5q46 0 78 -33t32 -77q0 -47 -31.5 -78.5t-78.5 -31.5zM300 800q16 0 27.5 12t11.5 28t-11.5 28t-27.5 12t-28 -12t-12 -28t12 -28t28 -12z" />
    <glyph glyph-name="tilde.case" 
d="M379 750q-38 0 -80 24l-18 10q-28 16 -42 16q-13 0 -23.5 -11.5t-10.5 -28.5h-95v26q0 47 32.5 80.5t79.5 33.5q37 0 75 -20l18 -10q36 -20 49 -20t21.5 11.5t8.5 28.5h95v-26q0 -47 -32.5 -80.5t-77.5 -33.5z" />
    <glyph glyph-name="dotaccent.low" 
d="M230 -200v135h140v-135h-140z" />
    <glyph glyph-name="whitateCircle_three" 
d="M300 50q-124 0 -212 88t-88 212t88 212t212 88t212 -88t88 -212t-88 -212t-212 -88zM300 125q93 0 159 66t66 159t-66 159t-159 66t-159 -66t-66 -159t66 -159t159 -66z" />
    <glyph glyph-name="edgeleft.case" 
d="M346 0q-64 0 -109 38.5t-45 94.5q0 74 54 102q-45 7 -71.5 39t-26.5 78q0 45 26 73.5t73 34.5q-24 13 -39.5 41.5t-15.5 66.5q0 56 42 94t106 38h115v-120h-99q-35 0 -35 -31v-1q0 -33 37 -33h47v-120h-73q-55 0 -55 -43v-1q0 -21 14 -33.5t41 -12.5h73v-120h-47
q-37 0 -37 -31v-1q0 -33 37 -33h97v-120h-109z" />
    <glyph glyph-name="edgeleft" 
d="M365 -145q-59 0 -99.5 33.5t-40.5 91.5q0 52 36 90q-81 17 -81 109v342q0 97 81 114q-36 39 -36 85q0 58 40.5 91.5t99.5 33.5h115v-105h-82q-20 0 -31.5 -10t-11.5 -26v-8q0 -16 11.5 -26t31.5 -10h17v-105h-43q-62 0 -62 -58v-294q0 -58 62 -58h43v-105h-18
q-19 0 -30.5 -9.5t-11.5 -26.5v-8q0 -17 11.5 -26.5t30.5 -9.5h83v-105h-115z" />
    <glyph glyph-name="edgeright.case" 
d="M254 0h-109v120h97q37 0 37 33v1q0 31 -37 31h-47v120h73q27 0 41 12.5t14 33.5v1q0 43 -55 43h-73v120h47q37 0 37 33v1q0 31 -35 31h-99v120h115q64 0 106 -38t42 -94q0 -38 -15.5 -66.5t-39.5 -41.5q47 -6 73 -34.5t26 -73.5q0 -46 -26.5 -78t-71.5 -39
q54 -28 54 -102q0 -56 -45 -94.5t-109 -38.5z" />
    <glyph glyph-name="edgeright" 
d="M235 -145h-115v105h83q19 0 30.5 9.5t11.5 26.5v8q0 17 -11.5 26.5t-30.5 9.5h-18v105h43q62 0 62 58v294q0 58 -62 58h-43v105h17q20 0 31.5 10t11.5 26v8q0 16 -11.5 26t-31.5 10h-82v105h115q59 0 99.5 -33.5t40.5 -91.5q0 -46 -36 -85q81 -17 81 -114v-342
q0 -92 -81 -109q36 -38 36 -90q0 -58 -40.5 -91.5t-99.5 -33.5z" />
    <glyph glyph-name="ringacute.case" 
d="M266 928l16 88h125l-62 -88h-79zM302 729q-38 0 -63.5 25.5t-25.5 63.5t25.5 63.5t63.5 25.5t63.5 -25.5t25.5 -63.5t-25.5 -63.5t-63.5 -25.5zM302 784q13 0 23 10t10 24t-10 24t-23 10q-14 0 -24 -10t-10 -24t10 -24t24 -10z" />
    <glyph glyph-name="ringacute" 
d="M264 766l25 135h150l-96 -135h-79zM300 530q-42 0 -73.5 30.5t-31.5 74.5q0 41 32 73t73 32q44 0 74.5 -31.5t30.5 -73.5q0 -45 -30 -75t-75 -30zM302 591q18 0 30.5 13t12.5 31t-12.5 31t-30.5 13t-31 -13t-13 -31t13 -31t31 -13z" />
    <glyph glyph-name="Triangle" 
d="M0 0l300 534l300 -534h-600z" />
  </font>
</defs>
</svg>
