<?xml version="1.0" standalone="no"?>
<!DOCTYPE svg PUBLIC "-//W3C//DTD SVG 1.1//EN" "http://www.w3.org/Graphics/SVG/1.1/DTD/svg11.dtd" >
<svg xmlns="http://www.w3.org/2000/svg" xmlns:xlink="http://www.w3.org/1999/xlink" version="1.1">
<metadata>
Created by FontForge 20170731 at Thu Apr 27 19:46:28 2017
 By Aleksey,,,
Copyright 2017 Dinamo (Johannes Breyer, Fabian Harb)
</metadata>
<defs>
<font id="FavoritMono-Regular" horiz-adv-x="600" >
  <font-face 
    font-family="Favorit Mono"
    font-weight="400"
    font-stretch="normal"
    units-per-em="1000"
    panose-1="2 0 0 6 3 0 0 2 0 4"
    ascent="780"
    descent="-220"
    x-height="500"
    cap-height="700"
    bbox="-370 -278 1784 1016"
    underline-thickness="50"
    underline-position="-200"
    unicode-range="U+000D-FB02"
  />
<missing-glyph 
d="M50 0v700h500v-700h-500zM131 78h338v544h-338v-544z" />
    <glyph glyph-name="fi" unicode="fi" horiz-adv-x="1200" 
d="M259 0v422h-203v78h203v92q0 108 111 108h269v-79h-239q-27 0 -36.5 -9.5t-9.5 -37.5v-74h607v-422h179v-78h-454v78h183v344h-515v-422h-95zM859 578v117h111v-117h-111z" />
    <glyph glyph-name="fl" unicode="fl" horiz-adv-x="1200" 
d="M261 0v422h-205v78h205v92q0 108 111 108h579v-622h180v-78h-454v78h182v543h-459q-27 0 -36.5 -9.5t-9.5 -37.5v-74h298v-78h-298v-422h-93z" />
    <glyph glyph-name="f_f" unicode="ff" horiz-adv-x="1200" 
d="M896 621q-28 0 -37.5 -9.5t-9.5 -37.5v-74h260v-78h-260v-422h-95v422h-435v-422h-95v422h-168v78h168v92q0 108 111 108h269v-79h-238q-28 0 -37.5 -9.5t-9.5 -37.5v-74h435v92q0 108 111 108h269v-79h-238z" />
    <glyph glyph-name="f_f_i" unicode="ffi" horiz-adv-x="1800" 
d="M1569 78h177v-78h-454v78h182v344h-527v-422h-95v422h-533v-422h-95v422h-168v78h168v92q0 108 111 108h269v-79h-238q-28 0 -37.5 -9.5t-9.5 -37.5v-74h533v92q0 108 111 108h269v-79h-238q-28 0 -37.5 -9.5t-9.5 -37.5v-74h622v-422zM1574 695v-123h-116v123h116z" />
    <glyph glyph-name="f_f_l" unicode="ffl" horiz-adv-x="1800" 
d="M1551 78h180v-78h-454v78h182v543h-459q-27 0 -36.5 -9.5t-9.5 -37.5v-74h298v-78h-298v-422h-93v422h-542v-422h-95v422h-168v78h168v92q0 108 111 108h269v-79h-238q-28 0 -37.5 -9.5t-9.5 -37.5v-74h542v92q0 108 111 108h579v-622z" />
    <glyph glyph-name=".notdef" 
d="M50 0v700h500v-700h-500zM131 78h338v544h-338v-544z" />
    <glyph glyph-name=".null" 
 />
    <glyph glyph-name=".null" 
 />
    <glyph glyph-name="nonmarkingreturn" horiz-adv-x="333" 
 />
    <glyph glyph-name="CR" unicode="&#xd;" 
 />
    <glyph glyph-name="space" unicode=" " 
 />
    <glyph glyph-name="exclam" unicode="!" 
d="M276 191l-25 285v224h99v-224l-25 -285h-49zM247 0v109h105v-109h-105z" />
    <glyph glyph-name="quotedbl" unicode="&#x22;" 
d="M199 476l-25 132v92h89v-92l-28 -132h-36zM361 476l-25 132v92h89v-92l-28 -132h-36z" />
    <glyph glyph-name="numbersign" unicode="#" 
d="M575 441h-106l-29 -182h92v-83h-106l-28 -176h-88l28 176h-131l-29 -176h-87l28 176h-92v83h106l29 182h-92v83h106l28 176h88l-29 -176h132l28 176h88l-28 -176h92v-83zM352 259l29 182h-131l-30 -182h132z" />
    <glyph glyph-name="dollar" unicode="$" 
d="M369 389q182 -38 182 -193q0 -91 -67 -148.5t-183 -57.5h-16l-19 -110h-87l21 122q-165 44 -168 225h100q4 -100 83 -132l37 217l-13 3q-172 36 -172 190q0 85 66.5 145t177.5 60h7l19 110h87l-21 -122q75 -22 116 -77t43 -133h-100q-5 84 -74 116l-36 -211zM268 410
l35 210q-61 -1 -98.5 -33.5t-37.5 -79.5q0 -41 24 -63.5t77 -33.5zM311 80q66 0 103 31.5t37 78.5q0 80 -101 101l-14 3l-36 -214h6h5z" />
    <glyph glyph-name="percent" unicode="%" 
d="M145 400q-62 0 -95.5 43.5t-33.5 108.5t33.5 108.5t95.5 43.5q63 0 96.5 -43.5t33.5 -108.5t-33.5 -108.5t-96.5 -43.5zM49 0l420 700h81l-420 -700h-81zM144 461h3q27 0 41.5 25.5t14.5 65.5t-14.5 65t-41.5 25h-3q-27 0 -41.5 -25t-14.5 -65t14.5 -65.5t41.5 -25.5z
M453 -4q-62 0 -95.5 43.5t-33.5 108.5t33.5 108.5t95.5 43.5q63 0 96.5 -43.5t33.5 -108.5t-33.5 -108.5t-96.5 -43.5zM452 57h3q27 0 41.5 25.5t14.5 65.5t-14.5 65t-41.5 25h-3q-27 0 -41.5 -25t-14.5 -65t14.5 -65.5t41.5 -25.5z" />
    <glyph glyph-name="ampersand" unicode="&#x26;" 
d="M259 0q-80 0 -137 50.5t-57 134.5q0 61 32.5 106.5t86.5 63.5q-51 21 -82.5 63t-31.5 102q0 82 56.5 131t136.5 49h91v-83h-68q-51 0 -85 -28.5t-34 -81.5q0 -51 35 -80.5t87 -29.5h79v124h96v-124h99v-83h-99v-314h-205zM289 83h79v231h-79q-55 0 -91 -28.5t-36 -82.5
q0 -58 36 -89t91 -31z" />
    <glyph glyph-name="quotesingle" unicode="'" 
d="M281 476l-25 132v92h89v-92l-28 -132h-36z" />
    <glyph glyph-name="parenleft" unicode="(" 
d="M500 -145q-125 3 -212 137.5t-87 357.5t87 357.5t212 137.5v-80q-84 -9 -144 -118t-60 -297t60 -297t144 -118v-80z" />
    <glyph glyph-name="parenright" unicode=")" 
d="M100 845q125 -3 212 -137.5t87 -357.5t-87 -357.5t-212 -137.5v80q84 9 144 118t60 297t-60 297t-144 118v80z" />
    <glyph glyph-name="asterisk" unicode="*" 
d="M470 619v-70h-108l57 -96l-63 -35l-56 96l-57 -96l-62 35l57 96h-108v70h108l-57 96l63 35l56 -96l57 96l62 -35l-57 -96h108z" />
    <glyph glyph-name="plus" unicode="+" 
d="M252 15v200h-199v85h199v200h96v-200h199v-85h-199v-200h-96z" />
    <glyph glyph-name="comma" unicode="," 
d="M207 -131v56h33q61 0 61 62v13h-65v126h126v-144q0 -49 -31.5 -81t-82.5 -32h-41z" />
    <glyph glyph-name="hyphen" unicode="-" 
d="M166 263v79h268v-79h-268z" />
    <glyph glyph-name="period" unicode="." 
d="M237 0v126h126v-126h-126z" />
    <glyph glyph-name="slash" unicode="/" 
d="M115 0l270 700h100l-267 -700h-103z" />
    <glyph glyph-name="zero" unicode="0" 
d="M300 713q125 0 195.5 -95.5t70.5 -264.5q0 -170 -70 -265t-196 -95t-196 95t-70 265q0 169 70.5 264.5t195.5 95.5zM295 625q-73 0 -118 -68t-45 -204q0 -64 11 -117l287 310q-44 79 -125 79h-10zM305 81q73 0 118 68t45 204q0 58 -9 103l-283 -306q44 -69 119 -69h10z
" />
    <glyph glyph-name="one" unicode="1" 
d="M378 89h195v-89h-493v89h204v470l-162 -155v121l180 175h76v-611z" />
    <glyph glyph-name="two" unicode="2" 
d="M191 89h348v-89h-471v94l261 256q62 60 82 91.5t20 70.5q0 46 -34 78t-85 32h-10q-57 0 -92.5 -36t-36.5 -97h-98q0 100 64.5 160.5t166.5 60.5q99 0 161 -55t62 -140q0 -61 -27 -105.5t-90 -105.5z" />
    <glyph glyph-name="three" unicode="3" 
d="M297 -10q-105 0 -168.5 51.5t-68.5 143.5h98q8 -50 43 -78.5t91 -28.5h10q62 0 99.5 32.5t37.5 83.5q0 52 -38.5 81.5t-100.5 29.5h-46v89h49q59 0 95.5 32t36.5 82q0 51 -37 82.5t-93 31.5h-10q-50 0 -85 -30t-39 -79h-98q2 86 66 141.5t161 55.5q103 0 168 -53.5
t65 -139.5q0 -58 -33 -103t-86 -63q54 -16 89 -59t35 -104q0 -94 -68.5 -146t-172.5 -52z" />
    <glyph glyph-name="four" unicode="4" 
d="M467 244h111v-87h-111v-157h-93v157h-344v100l336 443h101v-456zM125 244h249v331z" />
    <glyph glyph-name="five" unicode="5" 
d="M330 438q96 0 156 -61t60 -154q0 -103 -68 -168t-175 -65q-101 0 -169.5 53t-77.5 144h98q9 -51 49 -80t97 -29h8q62 0 101 39t39 101q0 60 -37.5 96t-96.5 36h-8q-36 0 -72.5 -17t-60.5 -48h-92l85 415h373v-89h-297l-47 -223q50 50 135 50z" />
    <glyph glyph-name="six" unicode="6" 
d="M327 460q97 0 161.5 -63.5t64.5 -164.5q0 -106 -67 -174t-175 -68q-124 0 -192.5 90t-68.5 250q0 169 83.5 274.5t210.5 105.5q88 0 147.5 -48.5t73.5 -133.5h-98q-8 42 -41.5 68t-81.5 26h-9q-77 0 -133 -71t-65 -201q24 52 76 81t114 29zM315 78q61 0 100.5 42
t39.5 105t-39 105t-101 42h-9q-63 0 -104.5 -41.5t-41.5 -104.5q0 -64 41 -106t105 -42h9z" />
    <glyph glyph-name="seven" unicode="7" 
d="M59 700h483v-94q-127 -81 -194 -217.5t-67 -347.5v-41h-101v46q0 206 70 348t183 215h-374v91z" />
    <glyph glyph-name="eight" unicode="8" 
d="M300 -10q-99 0 -158.5 53t-59.5 135q0 61 33.5 103t84.5 60q-55 18 -93.5 65t-38.5 111q0 83 63 138t169 55t169 -55t63 -138q0 -64 -38.5 -111t-93.5 -65q51 -18 84.5 -60t33.5 -103q0 -82 -59.5 -135t-158.5 -53zM295 389h10q54 0 91.5 33t37.5 82q0 51 -37 84.5
t-92 33.5h-10q-55 0 -92 -33.5t-37 -84.5q0 -49 37.5 -82t91.5 -33zM295 78h10q49 0 82.5 30.5t33.5 78.5t-33.5 79.5t-82.5 31.5h-10q-49 0 -82.5 -31.5t-33.5 -79.5t33.5 -78.5t82.5 -30.5z" />
    <glyph glyph-name="nine" unicode="9" 
d="M289 710q124 0 192.5 -90t68.5 -250q0 -169 -83.5 -274.5t-210.5 -105.5q-88 0 -147.5 48.5t-73.5 133.5h98q8 -42 41.5 -68t81.5 -26h9q77 0 133 71t65 201q-24 -52 -76 -81t-114 -29q-97 0 -161.5 63.5t-64.5 164.5q0 106 67 174t175 68zM294 328q63 0 104.5 41.5
t41.5 104.5q0 64 -41 106t-105 42h-9q-61 0 -100.5 -42t-39.5 -105t39 -105t101 -42h9z" />
    <glyph glyph-name="colon" unicode=":" 
d="M237 379v126h126v-126h-126zM237 0v126h126v-126h-126z" />
    <glyph glyph-name="semicolon" unicode=";" 
d="M237 374v126h126v-126h-126zM207 -131v56h33q61 0 61 62v13h-65v126h126v-144q0 -49 -31.5 -81t-82.5 -32h-41z" />
    <glyph glyph-name="less" unicode="&#x3c;" 
d="M510 473v-92l-318 -124l318 -124v-94l-425 174v86z" />
    <glyph glyph-name="equal" unicode="=" 
d="M53 308v89h494v-89h-494zM53 118v89h494v-89h-494z" />
    <glyph glyph-name="greater" unicode="&#x3e;" 
d="M90 473l425 -174v-86l-425 -174v92l318 124l-318 124v94z" />
    <glyph glyph-name="question" unicode="?" 
d="M204 199v139q0 80 80 80h23q49 0 75.5 26t26.5 72q0 43 -28.5 69.5t-78.5 26.5h-195v88h211q82 0 135.5 -51t53.5 -132q0 -80 -48.5 -131t-124.5 -51h-8q-17 0 -23.5 -6.5t-6.5 -23.5v-106h-92zM196 -2v109h105v-109h-105z" />
    <glyph glyph-name="at" unicode="@" 
d="M411 -125q-187 0 -285.5 114t-98.5 318q0 194 77 308.5t217 114.5q114 0 176.5 -67t62.5 -169v-399h-86v66q-42 -76 -122 -76q-75 0 -120 60t-45 154t45 152.5t120 58.5q83 0 122 -75v45q0 77 -40 124t-110 47h-9q-97 0 -148.5 -93.5t-51.5 -248.5q0 -357 297 -357h153
v-77h-154zM371 161h6q42 0 67.5 39t25.5 99t-25 97.5t-68 37.5h-6q-45 0 -70.5 -37.5t-25.5 -96.5q0 -61 25.5 -100t70.5 -39z" />
    <glyph glyph-name="A" unicode="A" 
d="M477 0l-54 180h-248l-54 -180h-100l218 700h126l215 -700h-103zM202 270h195l-98 326z" />
    <glyph glyph-name="B" unicode="B" 
d="M86 0v700h250q93 0 147 -50t54 -132q0 -62 -31.5 -104.5t-83.5 -58.5q54 -11 92 -54t38 -111q0 -85 -57.5 -137.5t-152.5 -52.5h-256zM186 399h134q54 0 85.5 27.5t31.5 78.5q0 105 -117 105h-134v-211zM186 90h138q128 0 128 111q0 53 -34 81t-93 28h-139v-220z" />
    <glyph glyph-name="C" unicode="C" 
d="M319 -10q-133 0 -203.5 96t-70.5 264q0 166 70.5 263t203.5 97q108 0 167.5 -64t65.5 -168h-100q-4 63 -37.5 102.5t-92.5 39.5h-6q-82 0 -126.5 -72t-44.5 -198q0 -127 44 -198.5t127 -71.5h6q60 0 92 38t38 104h100q-6 -105 -64 -168.5t-169 -63.5z" />
    <glyph glyph-name="D" unicode="D" 
d="M76 0v700h189q132 0 212.5 -93t80.5 -258t-79.5 -257t-210.5 -92h-192zM176 90h84q95 0 146.5 64.5t51.5 195.5t-52 195.5t-146 64.5h-84v-520z" />
    <glyph glyph-name="E" unicode="E" 
d="M81 0v700h443v-90h-343v-205h291v-90h-291v-225h353v-90h-453z" />
    <glyph glyph-name="F" unicode="F" 
d="M92 0v700h441v-90h-341v-225h311v-90h-311v-295h-100z" />
    <glyph glyph-name="G" unicode="G" 
d="M304 -10q-123 0 -192.5 98.5t-69.5 261.5q0 164 70 262t205 98q112 0 170 -66.5t64 -175.5h-100q-5 71 -39 111.5t-94 40.5h-4q-83 0 -127.5 -71.5t-44.5 -198.5q0 -124 44 -197t131 -73h4q64 0 105 41t41 113v33h-147v90h161q74 0 74 -74v-283h-88v74q-53 -84 -163 -84z
" />
    <glyph glyph-name="H" unicode="H" 
d="M66 0v700h100v-305h268v305h100v-700h-100v305h-268v-305h-100z" />
    <glyph glyph-name="I" unicode="I" 
d="M494 617h-144v-534h144v-83h-388v83h144v534h-144v83h388v-83z" />
    <glyph glyph-name="J" unicode="J" 
d="M100 0v95h209q76 0 76 90v515h100v-537q0 -78 -40 -120.5t-110 -42.5h-235z" />
    <glyph glyph-name="K" unicode="K" 
d="M474 0l-204 332l-89 -107v-225h-100v700h100v-339l278 339h117l-240 -289l252 -411h-114z" />
    <glyph glyph-name="L" unicode="L" 
d="M73 0v700h100v-610h375v-90h-475z" />
    <glyph glyph-name="M" unicode="M" 
d="M419 700h122v-700h-93v531l-100 -340h-96l-100 340v-531h-92v700h121l119 -405z" />
    <glyph glyph-name="N" unicode="N" 
d="M436 700h99v-700h-114l-257 537v-537h-99v700h118l253 -529v529z" />
    <glyph glyph-name="O" unicode="O" 
d="M300 -10q-123 0 -190.5 96t-67.5 264t67.5 264t190.5 96t190.5 -96t67.5 -264t-67.5 -264t-190.5 -96zM298 80h4q76 0 116 71t40 199t-40 199t-116 71h-4q-76 0 -116 -71t-40 -199t40 -199t116 -71z" />
    <glyph glyph-name="P" unicode="P" 
d="M82 0v700h248q98 0 158.5 -56t60.5 -157q0 -100 -61.5 -156t-158.5 -56h-147v-275h-100zM182 365h133q64 0 99 31.5t35 90.5t-34.5 91t-99.5 32h-133v-245z" />
    <glyph glyph-name="Q" unicode="Q" 
d="M348 -48q0 -30 11.5 -41.5t41.5 -11.5h138v-86h-171q-117 0 -117 118v63q-101 19 -155 112.5t-54 243.5q0 168 67.5 264t190.5 96t190.5 -96t67.5 -264q0 -151 -54.5 -244t-155.5 -112v-42zM142 350q0 -128 40 -199t116 -71h4q76 0 116 71t40 199t-40 199t-116 71h-4
q-76 0 -116 -71t-40 -199z" />
    <glyph glyph-name="R" unicode="R" 
d="M431 339q51 0 74 -24t23 -72v-243h-100v227q0 29 -12.5 41.5t-41.5 12.5h-194v-281h-100v700h243q92 0 153.5 -53.5t61.5 -134.5q0 -129 -112 -173h5zM300 371q61 0 99.5 33t38.5 90q0 56 -36 86t-102 30h-120v-239h120z" />
    <glyph glyph-name="S" unicode="S" 
d="M301 -10q-132 0 -199.5 63.5t-69.5 173.5h100q7 -147 174 -147h5q66 0 103 31.5t37 78.5q0 80 -101 101l-111 24q-172 36 -172 190q0 85 66.5 145t177.5 60q116 0 182.5 -61t68.5 -161h-100q-4 62 -44.5 97t-105.5 35h-4q-63 0 -102 -32.5t-39 -80.5q0 -41 24 -63.5
t77 -33.5l101 -21q182 -38 182 -193q0 -91 -67 -148.5t-183 -57.5z" />
    <glyph glyph-name="T" unicode="T" 
d="M250 0v610h-199v90h498v-90h-199v-610h-100z" />
    <glyph glyph-name="U" unicode="U" 
d="M300 -10q-113 0 -175.5 65t-62.5 180v465h100v-451q0 -169 136 -169h4q136 0 136 169v451h100v-465q0 -115 -62.5 -180t-175.5 -65z" />
    <glyph glyph-name="V" unicode="V" 
d="M465 700h108l-207 -700h-130l-208 700h108l166 -585z" />
    <glyph glyph-name="W" unicode="W" 
d="M471 700h93l-61 -700h-117l-85 407l-95 -407h-114l-55 700h91l36 -553l87 376h101l83 -377z" />
    <glyph glyph-name="X" unicode="X" 
d="M575 0h-112l-163 278l-167 -278h-108l218 358l-205 342h111l152 -259l154 259h107l-205 -338z" />
    <glyph glyph-name="Y" unicode="Y" 
d="M460 700h108l-219 -422v-278h-100v278l-217 422h110l159 -329z" />
    <glyph glyph-name="Z" unicode="Z" 
d="M178 90h356v-90h-464v94l343 516h-334v90h444v-90z" />
    <glyph glyph-name="bracketleft" unicode="[" 
d="M239 -145v990h218v-78h-123v-834h123v-78h-218z" />
    <glyph glyph-name="backslash" unicode="\" 
d="M115 700h103l267 -700h-100z" />
    <glyph glyph-name="bracketright" unicode="]" 
d="M361 845v-990h-218v78h123v834h-123v78h218z" />
    <glyph glyph-name="asciicircum" unicode="^" 
d="M526 285h-100l-127 307l-127 -307h-98l176 415h100z" />
    <glyph glyph-name="underscore" unicode="_" 
d="M76 -78v78h448v-78h-448z" />
    <glyph glyph-name="grave" unicode="`" 
d="M299 561l-93 139h112l42 -139h-61z" />
    <glyph glyph-name="a" unicode="a" 
d="M499 110q0 -75 5 -110h-88q-4 19 -6 71q-19 -35 -63 -58t-100 -23q-68 0 -114.5 41.5t-46.5 106.5q0 75 51 112.5t126 43.5l143 12v16q0 50 -28 80t-77 30h-5q-43 0 -72 -22t-33 -57h-95q6 69 61.5 113t140.5 44q94 0 147.5 -51t53.5 -134v-215zM270 68q51 0 93.5 36
t42.5 87v43l-128 -11q-42 -3 -70 -24t-28 -55q0 -33 23.5 -54.5t59.5 -21.5h7z" />
    <glyph glyph-name="b" unicode="b" 
d="M173 700v-273q20 35 64 59t93 24q101 0 161.5 -73.5t60.5 -186.5t-60.5 -186.5t-161.5 -73.5q-49 0 -93 24t-64 59v-73h-95v700h95zM319 432h-7q-63 0 -101 -52t-38 -130t38 -130t101 -52h7q64 0 101 51.5t37 130.5t-37 130.5t-101 51.5z" />
    <glyph glyph-name="c" unicode="c" 
d="M313 -10q-106 0 -170.5 72.5t-64.5 187.5t64.5 187.5t170.5 72.5q90 0 146 -46.5t63 -130.5h-95q-8 45 -36.5 72t-73.5 27h-8q-67 0 -101.5 -51.5t-34.5 -130.5t34.5 -130.5t101.5 -51.5h8q44 0 72.5 27t37.5 72h95q-11 -85 -65.5 -131t-143.5 -46z" />
    <glyph glyph-name="d" unicode="d" 
d="M518 700v-700h-95v73q-19 -35 -63 -59t-93 -24q-101 0 -162 73.5t-61 186.5t61 186.5t162 73.5q49 0 93 -24t63 -59v273h95zM284 432h-6q-64 0 -101 -51.5t-37 -130.5t37 -130.5t101 -51.5h6q63 0 101 52t38 130t-38 130t-101 52z" />
    <glyph glyph-name="e" unicode="e" 
d="M522 272q0 -7 -0.5 -21.5t-0.5 -22.5h-350q1 -74 40 -117t97 -43h6q41 0 71 21.5t41 60.5h94q-17 -75 -73 -117.5t-139 -42.5q-98 0 -164 69.5t-66 191.5q0 119 65 189t166 70q99 0 156 -67t57 -171zM302 432q-48 0 -85 -32t-45 -97h257q-2 55 -34 92t-85 37h-8z" />
    <glyph glyph-name="f" unicode="f" 
d="M224 0v422h-168v78h168v92q0 108 111 108h199v-79h-168q-28 0 -37.5 -9.5t-9.5 -37.5v-74h190v-78h-190v-422h-95z" />
    <glyph glyph-name="g" unicode="g" 
d="M284 -220q-103 0 -164 43t-67 114h95q16 -78 136 -78h8q61 0 101 37t40 111v74q-46 -81 -155 -81q-93 0 -154.5 67t-61.5 185q0 119 61.5 188.5t154.5 69.5q109 0 155 -81v71h95v-503q0 -93 -65 -155t-179 -62zM291 78h9q59 0 96 46.5t37 127.5q0 82 -37.5 131t-95.5 49
h-9q-59 0 -96.5 -49t-37.5 -131q0 -81 37.5 -127.5t96.5 -46.5z" />
    <glyph glyph-name="h" unicode="h" 
d="M347 510q84 0 128 -50.5t44 -134.5v-325h-95v308q0 124 -101 124h-9q-54 0 -93.5 -45t-39.5 -113v-274h-95v700h95v-279q24 42 67.5 65.5t98.5 23.5z" />
    <glyph glyph-name="i" unicode="i" 
d="M379 695v-123h-116v123h116zM369 78h177v-78h-454v78h182v344h-162v78h257v-422z" />
    <glyph glyph-name="j" unicode="j" 
d="M301 695h116v-123h-116v123zM407 500v-575q0 -106 -109 -106h-211v80h178q26 0 36.5 10.5t10.5 36.5v476h-161v78h256z" />
    <glyph glyph-name="k" unicode="k" 
d="M432 0l-163 235l-72 -71v-164h-95v700h95v-418l218 218h122l-201 -199l211 -301h-115z" />
    <glyph glyph-name="l" unicode="l" 
d="M354 78h177v-78h-454v78h182v544h-156v78h251v-622z" />
    <glyph glyph-name="m" unicode="m" 
d="M435 510q48 0 78.5 -34.5t30.5 -98.5v-377h-88v355q0 75 -43 75h-2q-30 0 -47 -31t-17 -77v-322h-91l2 14v341q0 75 -43 75h-1q-31 0 -48 -31t-17 -77v-322h-89v500h87v-50q33 60 94 60q64 0 91 -59q39 59 103 59z" />
    <glyph glyph-name="n" unicode="n" 
d="M86 0v500h95v-79q22 41 65.5 65t98.5 24q81 0 127.5 -49.5t46.5 -136.5v-324h-95v306q0 126 -101 126h-7q-62 0 -98.5 -49t-36.5 -120v-263h-95z" />
    <glyph glyph-name="o" unicode="o" 
d="M300 -10q-105 0 -173 73t-68 187t68 187t173 73t173 -73t68 -187t-68 -187t-173 -73zM295 68h10q61 0 100.5 49t39.5 133t-39.5 133t-100.5 49h-10q-61 0 -100.5 -49t-39.5 -133t39.5 -133t100.5 -49z" />
    <glyph glyph-name="p" unicode="p" 
d="M82 -200v700h95v-73q19 35 63 59t93 24q101 0 162 -73.5t61 -186.5t-61 -186.5t-162 -73.5q-49 0 -93 24t-63 59v-273h-95zM316 68h6q64 0 101 51.5t37 130.5t-37 130.5t-101 51.5h-6q-63 0 -101 -52t-38 -130t38 -130t101 -52z" />
    <glyph glyph-name="q" unicode="q" 
d="M427 -200v273q-20 -35 -64 -59t-93 -24q-101 0 -161.5 73.5t-60.5 186.5t60.5 186.5t161.5 73.5q49 0 93 -24t64 -59v73h95v-700h-95zM281 68h7q63 0 101 52t38 130t-38 130t-101 52h-7q-64 0 -101 -51.5t-37 -130.5t37 -130.5t101 -51.5z" />
    <glyph glyph-name="r" unicode="r" 
d="M147 0v500h92v-94q29 99 161 99h108v-85h-113q-75 0 -114 -45.5t-39 -127.5v-247h-95z" />
    <glyph glyph-name="s" unicode="s" 
d="M303 -10q-97 0 -151 45t-56 122h96q3 -43 32.5 -67t75.5 -24h9q43 0 67.5 19t24.5 52q0 26 -16 41t-55 23l-69 16q-71 16 -108 49.5t-37 93.5q0 68 53.5 109t135.5 41q93 0 143.5 -46t52.5 -121h-95q-5 40 -30.5 65.5t-67.5 25.5h-9q-40 0 -64 -20t-24 -51q0 -46 78 -64
l73 -17q133 -30 134 -140q0 -69 -51.5 -110.5t-141.5 -41.5z" />
    <glyph glyph-name="t" unicode="t" 
d="M335 0q-111 0 -111 108v314h-162v78h162v162h95v-162h183v-78h-183v-295q0 -28 9.5 -37.5t37.5 -9.5h158v-80h-189z" />
    <glyph glyph-name="u" unicode="u" 
d="M414 500h95v-500h-95v84q-21 -44 -62 -69t-95 -25q-83 0 -127 50.5t-44 134.5v325h95v-308q0 -124 99 -124h9q50 0 87.5 45t37.5 113v274z" />
    <glyph glyph-name="v" unicode="v" 
d="M450 500h99l-184 -500h-130l-183 500h101l149 -424z" />
    <glyph glyph-name="w" unicode="w" 
d="M471 500h87l-79 -500h-104l-74 303l-75 -303h-104l-79 500h88l52 -394l68 282h99l68 -283z" />
    <glyph glyph-name="x" unicode="x" 
d="M541 0h-108l-134 182l-135 -182h-104l187 253l-181 247h108l127 -174l129 174h105l-181 -245z" />
    <glyph glyph-name="y" unicode="y" 
d="M558 500l-209 -470v-105q0 -107 -111 -107h-166v81h138q28 0 37.5 9.5t9.5 37.5v80l-214 474h106l153 -358l152 358h104z" />
    <glyph glyph-name="z" unicode="z" 
d="M206 83h302v-83h-413v79l286 338h-281v83h393v-78z" />
    <glyph glyph-name="braceleft" unicode="{" 
d="M390 -145q-64 0 -94 38t-30 117v205q0 39 -10 53.5t-40 14.5h-25v134h25q30 0 40 14.5t10 53.5v205q0 79 30 117t94 38h75v-78h-44q-36 0 -48 -17t-12 -61v-241q0 -88 -80 -88v-20q80 0 80 -88v-241q0 -44 12 -61t48 -17h44v-78h-75z" />
    <glyph glyph-name="bar" unicode="|" 
d="M251 -85v870h97v-870h-97z" />
    <glyph glyph-name="braceright" unicode="}" 
d="M210 845q64 0 94 -38t30 -117v-205q0 -39 10 -53.5t40 -14.5h25v-134h-25q-30 0 -40 -14.5t-10 -53.5v-205q0 -79 -30 -117t-94 -38h-75v78h44q36 0 48 17t12 61v241q0 88 80 88v20q-80 0 -80 88v241q0 44 -12 61t-48 17h-44v78h75z" />
    <glyph glyph-name="asciitilde" unicode="~" 
d="M381 344q-34 0 -78 25l-29 16q-31 18 -44 18q-17 0 -27.5 -13.5t-10.5 -38.5h-71v17q0 50 29 80t73 30q30 0 73 -24l30 -17q30 -19 47 -19q35 0 35 52h71v-17q0 -48 -28 -78.5t-70 -30.5z" />
    <glyph glyph-name="uni00A0" unicode="&#xa0;" 
 />
    <glyph glyph-name="exclamdown" unicode="&#xa1;" 
d="M247 500h105v-109h-105v109zM276 309h49l25 -285v-224h-99v224z" />
    <glyph glyph-name="cent" unicode="&#xa2;" 
d="M426 167h96q-11 -82 -65.5 -129.5t-139.5 -47.5h-10l-19 -110h-80l21 124q-72 26 -111.5 91.5t-39.5 154.5q0 113 62.5 186t173.5 74l19 110h80l-21 -121q55 -18 89 -61t40 -105h-96q-9 50 -48 75l-56 -331h1q41 0 68.5 25.5t35.5 64.5zM174 250q0 -51 18 -92.5t52 -62.5
l56 327q-61 -4 -93.5 -53t-32.5 -119z" />
    <glyph glyph-name="sterling" unicode="&#xa3;" 
d="M207 88h340v-88h-494v88h31q67 0 73 77l8 115l-112 -26v83l119 27l9 127q15 209 211 209h105v-88h-108q-56 0 -81 -30.5t-30 -95.5l-8 -99l127 29v-83l-133 -31l-10 -123q-4 -63 -47 -91z" />
    <glyph glyph-name="currency" unicode="&#xa4;" 
d="M532 305q0 -67 -34 -121l75 -73l-64 -64l-75 71q-61 -40 -135 -40t-135 40l-74 -71l-64 64l75 72q-35 56 -35 122t33 119l-73 73l64 64l73 -70q60 41 136 41q77 0 137 -41l73 70l64 -64l-73 -74q32 -54 32 -118zM303 168q57 0 95 39.5t38 97.5t-38 97.5t-95 39.5h-8
q-57 0 -94.5 -39.5t-37.5 -97.5q0 -57 39 -97t96 -40h5z" />
    <glyph glyph-name="yen" unicode="&#xa5;" 
d="M568 700l-158 -305l110 25v-83l-159 -35l-12 -24v-52l141 32v-84l-141 -31v-143h-100v121l-139 -31v83l139 31v73l-169 -38v83l131 29l-179 349h110l158 -329h1l159 329h108z" />
    <glyph glyph-name="brokenbar" unicode="&#xa6;" 
d="M251 423v362h97v-362h-97zM251 -85v372h97v-372h-97z" />
    <glyph glyph-name="section" unicode="&#xa7;" 
d="M118 -60v83h201q69 0 69 58q0 21 -16 35.5t-53 28.5l-139 52q-104 40 -102 125q0 78 92 130q-56 45 -56 109q0 68 43.5 103.5t124.5 35.5h179v-83h-174q-76 0 -76 -57q0 -22 15.5 -36.5t51.5 -26.5l91 -30q77 -25 114.5 -56.5t37.5 -88.5q0 -85 -93 -135q58 -47 58 -107
t-42 -100t-128 -40h-198zM352 227q71 29 71 81q0 30 -24 47t-67 31l-87 28q-35 -15 -52 -38t-17 -46q0 -18 12 -31t26.5 -20t40.5 -16l9 -3z" />
    <glyph glyph-name="dieresis" unicode="&#xa8;" 
d="M159 578v104h96v-104h-96zM345 578v104h96v-104h-96z" />
    <glyph glyph-name="copyright" unicode="&#xa9;" 
d="M301 50q-124 0 -212 88t-88 212t88 212t212 88t212 -88t88 -212t-88 -212t-212 -88zM301 111q99 0 168 70t69 169t-69 169.5t-168 70.5t-168 -70.5t-69 -169.5t69 -169t168 -70zM306 180q-71 0 -112.5 45.5t-41.5 124.5q0 78 41 126.5t113 47.5q63 0 99 -32.5t40 -87.5
h-71q-4 28 -21.5 44.5t-44.5 16.5h-4q-36 0 -58 -30.5t-22 -84.5q0 -53 22 -82t58 -29h4q28 0 46 16t23 45h70q-5 -54 -42.5 -87t-98.5 -33z" />
    <glyph glyph-name="ordfeminine" unicode="&#xaa;" 
d="M262 410q-38 0 -63.5 23.5t-25.5 62.5q0 76 97 89l78 9v9q0 20 -12.5 32.5t-32.5 12.5h-4q-18 0 -31.5 -10t-14.5 -28h-73q2 44 36 69.5t87 25.5q51 0 85 -27.5t34 -73.5v-127q0 -34 4 -62h-68q-3 12 -5 44q-25 -49 -91 -49zM284 465h4q26 0 43.5 15.5t17.5 44.5v22
l-65 -9q-37 -6 -37 -39q0 -34 37 -34z" />
    <glyph glyph-name="guillemotleft" unicode="&#xab;" 
d="M319 500l-145 -214l146 -216h-110l-145 215l145 215h109zM384 286l146 -216h-110l-145 215l145 215h109z" />
    <glyph glyph-name="logicalnot" unicode="&#xac;" 
d="M431 123v140h-364v89h462v-229h-98z" />
    <glyph glyph-name="uni00AD" unicode="&#xad;" 
d="M166 263v79h268v-79h-268z" />
    <glyph glyph-name="registered" unicode="&#xae;" 
d="M302 50q-124 0 -212 88t-88 212t88 212t212 88t212 -88t88 -212t-88 -212t-212 -88zM302 111q99 0 168 70t69 169t-69 169.5t-168 70.5t-168 -70.5t-69 -169.5t69 -169t168 -70zM180 190v327h150q51 0 78.5 -25t27.5 -65q0 -35 -19 -56.5t-48 -27.5q33 0 48 -13.5
t15 -47.5v-92h-68v85q0 36 -40 36h-74v-121h-70zM250 367h61q56 0 56 46t-56 46h-61v-92z" />
    <glyph glyph-name="macron" unicode="&#xaf;" 
d="M156 578v79h288v-79h-288z" />
    <glyph glyph-name="degree" unicode="&#xb0;" 
d="M300 340q-79 0 -132 53t-53 132t53 132t132 53t132 -53t53 -132t-53 -132t-132 -53zM300 421q41 0 70 30.5t29 73.5t-29 72.5t-70 29.5t-70 -29.5t-29 -72.5t29 -73.5t70 -30.5z" />
    <glyph glyph-name="plusminus" unicode="&#xb1;" 
d="M348 372h199v-89h-199v-124h-96v124h-199v89h199v128h96v-128zM53 0v89h494v-89h-494z" />
    <glyph glyph-name="uni00B2" unicode="&#xb2;" 
d="M161 415v75l136 122q34 30 46 46t12 38t-14.5 36.5t-37.5 14.5h-5q-21 0 -38 -16t-17 -41h-82q1 56 42.5 90.5t100.5 34.5t96.5 -33t37.5 -83q0 -25 -11 -48t-23.5 -36.5t-35.5 -33.5l-110 -98h182v-68h-279z" />
    <glyph glyph-name="uni00B3" unicode="&#xb3;" 
d="M298 410q-60 0 -101 30.5t-41 84.5h82q1 -22 17 -35t40 -13h5q27 0 44.5 15t17.5 40q0 23 -16 36.5t-40 13.5h-41v64h42q24 0 38 13t14 37t-15 38t-41 14h-5q-22 0 -36.5 -12.5t-16.5 -32.5h-83q0 53 40.5 82.5t100.5 29.5q58 0 98 -29.5t40 -81.5q0 -65 -55 -90
q58 -24 58 -91q0 -53 -43 -83t-103 -30z" />
    <glyph glyph-name="acute" unicode="&#xb4;" 
d="M240 561l43 139h112l-94 -139h-61z" />
    <glyph glyph-name="uni00B5" unicode="&#xb5;" 
d="M419 500h95v-500h-95v84q-21 -44 -62 -69t-95 -25q-42 0 -76 14v-204h-95v700h95v-308q0 -124 99 -124h9q50 0 87.5 45t37.5 113v274z" />
    <glyph glyph-name="paragraph" unicode="&#xb6;" 
d="M235 -200v501h-12q-85 0 -143 59t-58 141t57.5 140.5t141.5 58.5h353v-78h-65v-822h-87v822h-100v-822h-87z" />
    <glyph glyph-name="periodcentered" unicode="&#xb7;" 
d="M237 289v126h126v-126h-126z" />
    <glyph glyph-name="cedilla" unicode="&#xb8;" 
d="M222 -234v64h73q45 0 45 38q0 37 -43 37h-40v110h57v-60q36 1 62 -23t26 -64q0 -46 -30 -74t-80 -28h-70z" />
    <glyph glyph-name="uni00B9" unicode="&#xb9;" 
d="M294 415v290l-113 -92v90l131 107h61v-395h-79z" />
    <glyph glyph-name="ordmasculine" unicode="&#xba;" 
d="M300 410q-65 0 -103.5 40.5t-38.5 106.5t38.5 107t103.5 41t103.5 -41t38.5 -107t-38.5 -106.5t-103.5 -40.5zM301 471q31 0 47 23.5t16 62.5q0 40 -17 63.5t-47 23.5q-31 0 -47.5 -24t-16.5 -63t17.5 -62.5t47.5 -23.5z" />
    <glyph glyph-name="guillemotright" unicode="&#xbb;" 
d="M180 500l145 -215l-145 -215h-109l145 214l-146 216h110zM390 500l145 -215l-145 -215h-109l145 214l-146 216h110z" />
    <glyph glyph-name="onequarter" unicode="&#xbc;" 
d="M117 404v203l-83 -69v82l95 80h58v-296h-70zM49 0l420 700h81l-420 -700h-81zM460 0v53h-144v69l133 174h77v-185h41v-58h-41v-53h-66zM379 111h81v108z" />
    <glyph glyph-name="onehalf" unicode="&#xbd;" 
d="M117 404v203l-83 -69v82l95 80h58v-296h-70zM49 0l420 700h81l-420 -700h-81zM357 0v63l106 96q38 33 38 51q-2 30 -35 30h-3q-15 0 -25 -10t-11 -26h-71q2 44 34 70t79 26q45 0 74.5 -25.5t29.5 -60.5q0 -19 -9 -36t-18 -26.5t-28 -26.5l-72 -63h129v-62h-218z" />
    <glyph glyph-name="threequarters" unicode="&#xbe;" 
d="M144 400q-46 0 -78 23.5t-32 64.5h72q1 -13 11.5 -21.5t25.5 -8.5h3q18 0 29.5 9.5t11.5 24.5t-10 23.5t-27 8.5h-28v58h28q16 0 25.5 9t9.5 23t-10.5 22.5t-26.5 8.5h-3q-32 0 -35 -28h-71q0 41 31 64t78 23t77.5 -22.5t30.5 -61.5q0 -49 -44 -66q47 -24 47 -71
q0 -39 -33 -61t-82 -22zM49 0l420 700h81l-420 -700h-81zM460 0v53h-144v69l133 174h77v-185h41v-58h-41v-53h-66zM379 111h81v108z" />
    <glyph glyph-name="questiondown" unicode="&#xbf;" 
d="M406 502v-109h-105v109h105zM398 301v-139q0 -80 -80 -80h-23q-49 0 -75.5 -26t-26.5 -72q0 -43 28.5 -69.5t78.5 -26.5h195v-88h-211q-82 0 -135.5 51t-53.5 132q0 80 48.5 131t124.5 51h8q17 0 23.5 6.5t6.5 23.5v106h92z" />
    <glyph glyph-name="Agrave" unicode="&#xc0;" 
d="M331 756h-74l-93 134h120zM477 0l-54 180h-248l-54 -180h-100l218 700h126l215 -700h-103zM202 270h195l-98 326z" />
    <glyph glyph-name="Aacute" unicode="&#xc1;" 
d="M438 890l-93 -134h-74l47 134h120zM477 0l-54 180h-248l-54 -180h-100l218 700h126l215 -700h-103zM202 270h195l-98 326z" />
    <glyph glyph-name="Acircumflex" unicode="&#xc2;" 
d="M302 821l-86 -65h-88l117 134h114l117 -134h-88zM477 0l-54 180h-248l-54 -180h-100l218 700h126l215 -700h-103zM202 270h195l-98 326z" />
    <glyph glyph-name="Atilde" unicode="&#xc3;" 
d="M234 819q-38 0 -38 -53h-71v24q0 44 28.5 74.5t70.5 30.5q31 0 73 -25l12 -8q4 -3 13 -9t13.5 -8.5t11.5 -6.5t12.5 -5.5t11.5 -1.5q35 0 35 54h71v-24q0 -44 -28.5 -74.5t-69.5 -30.5q-34 0 -78 30l-13 7q-3 2 -12 8.5t-14 9t-13 5.5t-15 3zM477 0l-54 180h-248
l-54 -180h-100l218 700h126l215 -700h-103zM202 270h195l-98 326z" />
    <glyph glyph-name="Adieresis" unicode="&#xc4;" 
d="M256 872v-99h-100v99h100zM446 872v-99h-100v99h100zM477 0l-54 180h-248l-54 -180h-100l218 700h126l215 -700h-103zM202 270h195l-98 326z" />
    <glyph glyph-name="Aring" unicode="&#xc5;" 
d="M304 746q-37 0 -65 27t-28 66q0 37 28.5 65t64.5 28q38 0 65.5 -27.5t27.5 -65.5q0 -39 -27 -66t-66 -27zM305 876q-15 0 -26 -11.5t-11 -25.5t11 -25.5t26 -11.5q14 0 24.5 11.5t10.5 25.5t-10.5 25.5t-24.5 11.5zM477 0l-54 180h-248l-54 -180h-100l218 700h126
l215 -700h-103zM202 270h195l-98 326z" />
    <glyph glyph-name="AE" unicode="&#xc6;" 
d="M378 90h193v-90h-293v168h-121l-48 -168h-99l208 700h343v-90h-183v-205h147v-90h-147v-225zM182 258h96v338z" />
    <glyph glyph-name="Ccedilla" unicode="&#xc7;" 
d="M322 80q60 0 92 38t38 104h100q-6 -98 -56.5 -160t-147.5 -71v-36q36 1 62 -23t26 -64q0 -46 -30 -74t-80 -28h-70v64h73q45 0 45 38q0 37 -43 37h-40v86q-119 10 -182.5 105.5t-63.5 253.5q0 166 70.5 263t203.5 97q108 0 167.5 -64t65.5 -168h-100q-4 63 -37.5 102.5
t-92.5 39.5h-6q-82 0 -126.5 -72t-44.5 -198q0 -127 44 -198.5t127 -71.5h6z" />
    <glyph glyph-name="Egrave" unicode="&#xc8;" 
d="M338 756h-74l-93 134h120zM81 0v700h443v-90h-343v-205h291v-90h-291v-225h353v-90h-453z" />
    <glyph glyph-name="Eacute" unicode="&#xc9;" 
d="M278 756l47 134h120l-93 -134h-74zM81 0v700h443v-90h-343v-205h291v-90h-291v-225h353v-90h-453z" />
    <glyph glyph-name="Ecircumflex" unicode="&#xca;" 
d="M309 821l-86 -65h-88l117 134h114l117 -134h-88zM181 90h353v-90h-453v700h443v-90h-343v-205h291v-90h-291v-225z" />
    <glyph glyph-name="Edieresis" unicode="&#xcb;" 
d="M163 773v99h100v-99h-100zM353 773v99h100v-99h-100zM81 0v700h443v-90h-343v-205h291v-90h-291v-225h353v-90h-453z" />
    <glyph glyph-name="Igrave" unicode="&#xcc;" 
d="M332 756h-74l-93 134h120zM494 617h-144v-534h144v-83h-388v83h144v534h-144v83h388v-83z" />
    <glyph glyph-name="Iacute" unicode="&#xcd;" 
d="M439 890l-93 -134h-74l47 134h120zM494 617h-144v-534h144v-83h-388v83h144v534h-144v83h388v-83z" />
    <glyph glyph-name="Icircumflex" unicode="&#xce;" 
d="M303 821l-86 -65h-88l117 134h114l117 -134h-88zM494 617h-144v-534h144v-83h-388v83h144v534h-144v83h388v-83z" />
    <glyph glyph-name="Idieresis" unicode="&#xcf;" 
d="M257 872v-99h-100v99h100zM447 872v-99h-100v99h100zM494 617h-144v-534h144v-83h-388v83h144v534h-144v83h388v-83z" />
    <glyph glyph-name="Eth" unicode="&#xd0;" 
d="M271 700q132 0 212.5 -93t80.5 -258t-79.5 -257t-210.5 -92h-192v307h-77v87h77v306h189zM266 90q95 0 146.5 64.5t51.5 195.5t-52 195.5t-146 64.5h-84v-216h153v-87h-153v-217h84z" />
    <glyph glyph-name="Ntilde" unicode="&#xd1;" 
d="M239 819q-38 0 -38 -53h-71v24q0 44 28.5 74.5t70.5 30.5q31 0 73 -25l12 -8q4 -3 13 -9t13.5 -8.5t11.5 -6.5t12.5 -5.5t11.5 -1.5q35 0 35 54h71v-24q0 -44 -28.5 -74.5t-69.5 -30.5q-34 0 -78 30l-13 7q-3 2 -12 8.5t-14 9t-13 5.5t-15 3zM436 700h99v-700h-114
l-257 537v-537h-99v700h118l253 -529v529z" />
    <glyph glyph-name="Ograve" unicode="&#xd2;" 
d="M332 756h-74l-93 134h120zM300 -10q-123 0 -190.5 96t-67.5 264t67.5 264t190.5 96t190.5 -96t67.5 -264t-67.5 -264t-190.5 -96zM298 80h4q76 0 116 71t40 199t-40 199t-116 71h-4q-76 0 -116 -71t-40 -199t40 -199t116 -71z" />
    <glyph glyph-name="Oacute" unicode="&#xd3;" 
d="M272 756l47 134h120l-93 -134h-74zM300 -10q-123 0 -190.5 96t-67.5 264t67.5 264t190.5 96t190.5 -96t67.5 -264t-67.5 -264t-190.5 -96zM298 80h4q76 0 116 71t40 199t-40 199t-116 71h-4q-76 0 -116 -71t-40 -199t40 -199t116 -71z" />
    <glyph glyph-name="Ocircumflex" unicode="&#xd4;" 
d="M303 821l-86 -65h-88l117 134h114l117 -134h-88zM300 710q123 0 190.5 -96t67.5 -264t-67.5 -264t-190.5 -96t-190.5 96t-67.5 264t67.5 264t190.5 96zM302 80q76 0 116 71t40 199t-40 199t-116 71h-4q-76 0 -116 -71t-40 -199t40 -199t116 -71h4z" />
    <glyph glyph-name="Otilde" unicode="&#xd5;" 
d="M380 756q-34 0 -78 30l-13 7q-3 2 -12 8.5t-14 9t-13 5.5t-15 3q-38 0 -38 -53h-71v24q0 44 28.5 74.5t70.5 30.5q31 0 73 -25l12 -8q4 -3 13 -9t13.5 -8.5t11.5 -6.5t12.5 -5.5t11.5 -1.5q35 0 35 54h71v-24q0 -44 -28.5 -74.5t-69.5 -30.5zM300 -10q-123 0 -190.5 96
t-67.5 264t67.5 264t190.5 96t190.5 -96t67.5 -264t-67.5 -264t-190.5 -96zM298 80h4q76 0 116 71t40 199t-40 199t-116 71h-4q-76 0 -116 -71t-40 -199t40 -199t116 -71z" />
    <glyph glyph-name="Odieresis" unicode="&#xd6;" 
d="M157 773v99h100v-99h-100zM347 773v99h100v-99h-100zM300 -10q-123 0 -190.5 96t-67.5 264t67.5 264t190.5 96t190.5 -96t67.5 -264t-67.5 -264t-190.5 -96zM298 80h4q76 0 116 71t40 199t-40 199t-116 71h-4q-76 0 -116 -71t-40 -199t40 -199t116 -71z" />
    <glyph glyph-name="multiply" unicode="&#xd7;" 
d="M517 104l-64 -63l-153 154l-154 -154l-63 63l154 153l-154 154l63 64l154 -154l154 153l62 -63l-153 -153z" />
    <glyph glyph-name="Oslash" unicode="&#xd8;" 
d="M571 689l-64 -99q52 -93 52 -240q0 -168 -67.5 -264t-190.5 -96q-88 0 -150 51l-49 -76l-72 46l65 100q-52 92 -52 239q0 168 67.5 264t190.5 96q88 0 150 -51l49 76zM143 350q0 -83 16 -140l239 368q-37 42 -95 42h-4q-76 0 -116 -71t-40 -199zM459 350q0 77 -16 141
l-239 -369q37 -42 95 -42h4q76 0 116 71t40 199z" />
    <glyph glyph-name="Ugrave" unicode="&#xd9;" 
d="M322 756h-74l-93 134h120zM300 -10q-113 0 -175.5 65t-62.5 180v465h100v-451q0 -169 136 -169h4q136 0 136 169v451h100v-465q0 -115 -62.5 -180t-175.5 -65z" />
    <glyph glyph-name="Uacute" unicode="&#xda;" 
d="M262 756l47 134h120l-93 -134h-74zM300 -10q-113 0 -175.5 65t-62.5 180v465h100v-451q0 -169 136 -169h4q136 0 136 169v451h100v-465q0 -115 -62.5 -180t-175.5 -65z" />
    <glyph glyph-name="Ucircumflex" unicode="&#xdb;" 
d="M293 821l-86 -65h-88l117 134h114l117 -134h-88zM438 700h100v-465q0 -115 -62.5 -180t-175.5 -65t-175.5 65t-62.5 180v465h100v-451q0 -169 136 -169h4q136 0 136 169v451z" />
    <glyph glyph-name="Udieresis" unicode="&#xdc;" 
d="M147 773v99h100v-99h-100zM337 773v99h100v-99h-100zM300 -10q-113 0 -175.5 65t-62.5 180v465h100v-451q0 -169 136 -169h4q136 0 136 169v451h100v-465q0 -115 -62.5 -180t-175.5 -65z" />
    <glyph glyph-name="Yacute" unicode="&#xdd;" 
d="M437 890l-93 -134h-74l47 134h120zM460 700h108l-219 -422v-278h-100v278l-217 422h110l159 -329z" />
    <glyph glyph-name="Thorn" unicode="&#xde;" 
d="M90 0v700h100v-138h168q99 0 159 -56t60 -155q0 -100 -60 -156.5t-159 -56.5h-168v-138h-100zM190 229h153q134 0 134 122q0 120 -134 120h-153v-242z" />
    <glyph glyph-name="germandbls" unicode="&#xdf;" 
d="M102 -185v688q0 100 54 153.5t151 53.5q87 0 142.5 -51t55.5 -128q0 -62 -31 -102.5t-77 -57.5q53 -9 93 -55t40 -115q0 -97 -59 -149t-160 -52h-53v81h43q67 0 100.5 34t33.5 93q0 58 -38.5 89t-98.5 31h-40v78h35q54 0 86.5 33.5t32.5 81.5q0 49 -28 80t-73 31h-8
q-46 0 -76 -33t-30 -103v-681h-95z" />
    <glyph glyph-name="agrave" unicode="&#xe0;" 
d="M338 561h-61l-93 139h112zM499 110q0 -75 5 -110h-88q-4 19 -6 71q-19 -35 -63 -58t-100 -23q-68 0 -114.5 41.5t-46.5 106.5q0 75 51 112.5t126 43.5l143 12v16q0 50 -28 80t-77 30h-5q-43 0 -72 -22t-33 -57h-95q6 69 61.5 113t140.5 44q94 0 147.5 -51t53.5 -134v-215
zM270 68q51 0 93.5 36t42.5 87v43l-128 -11q-42 -3 -70 -24t-28 -55q0 -33 23.5 -54.5t59.5 -21.5h7z" />
    <glyph glyph-name="aacute" unicode="&#xe1;" 
d="M418 700l-94 -139h-61l43 139h112zM499 110q0 -75 5 -110h-88q-4 19 -6 71q-19 -35 -63 -58t-100 -23q-68 0 -114.5 41.5t-46.5 106.5q0 75 51 112.5t126 43.5l143 12v16q0 50 -28 80t-77 30h-5q-43 0 -72 -22t-33 -57h-95q6 69 61.5 113t140.5 44q94 0 147.5 -51
t53.5 -134v-215zM270 68q51 0 93.5 36t42.5 87v43l-128 -11q-42 -3 -70 -24t-28 -55q0 -33 23.5 -54.5t59.5 -21.5h7z" />
    <glyph glyph-name="acircumflex" unicode="&#xe2;" 
d="M296 634l-100 -73h-69l114 139h110l114 -139h-69zM499 110q0 -75 5 -110h-88q-4 19 -6 71q-19 -35 -63 -58t-100 -23q-68 0 -114.5 41.5t-46.5 106.5q0 75 51 112.5t126 43.5l143 12v16q0 50 -28 80t-77 30h-5q-43 0 -72 -22t-33 -57h-95q6 69 61.5 113t140.5 44
q94 0 147.5 -51t53.5 -134v-215zM270 68q51 0 93.5 36t42.5 87v43l-128 -11q-42 -3 -70 -24t-28 -55q0 -33 23.5 -54.5t59.5 -21.5h7z" />
    <glyph glyph-name="atilde" unicode="&#xe3;" 
d="M229 621q-38 0 -38 -53h-71v24q0 44 28.5 74.5t70.5 30.5q31 0 73 -25l12 -8q4 -3 13 -9t13.5 -8.5t11.5 -6.5t12.5 -5.5t11.5 -1.5q35 0 35 54h71v-24q0 -44 -28.5 -74.5t-69.5 -30.5q-34 0 -78 30l-13 7q-3 2 -12 8.5t-14 9t-13 5.5t-15 3zM499 110q0 -75 5 -110h-88
q-4 19 -6 71q-19 -35 -63 -58t-100 -23q-68 0 -114.5 41.5t-46.5 106.5q0 75 51 112.5t126 43.5l143 12v16q0 50 -28 80t-77 30h-5q-43 0 -72 -22t-33 -57h-95q6 69 61.5 113t140.5 44q94 0 147.5 -51t53.5 -134v-215zM270 68q51 0 93.5 36t42.5 87v43l-128 -11
q-42 -3 -70 -24t-28 -55q0 -33 23.5 -54.5t59.5 -21.5h7z" />
    <glyph glyph-name="adieresis" unicode="&#xe4;" 
d="M251 682v-104h-96v104h96zM437 682v-104h-96v104h96zM499 110q0 -75 5 -110h-88q-4 19 -6 71q-19 -35 -63 -58t-100 -23q-68 0 -114.5 41.5t-46.5 106.5q0 75 51 112.5t126 43.5l143 12v16q0 50 -28 80t-77 30h-5q-43 0 -72 -22t-33 -57h-95q6 69 61.5 113t140.5 44
q94 0 147.5 -51t53.5 -134v-215zM270 68q51 0 93.5 36t42.5 87v43l-128 -11q-42 -3 -70 -24t-28 -55q0 -33 23.5 -54.5t59.5 -21.5h7z" />
    <glyph glyph-name="aring" unicode="&#xe5;" 
d="M296 553q-38 0 -66 27t-28 67q0 38 28.5 66t65.5 28q38 0 66 -27.5t28 -66.5q0 -40 -27.5 -67t-66.5 -27zM297 691q-18 0 -31 -13t-13 -31t13 -31t31 -13t30.5 13t12.5 31t-12.5 31t-30.5 13zM499 110q0 -75 5 -110h-88q-4 19 -6 71q-19 -35 -63 -58t-100 -23
q-68 0 -114.5 41.5t-46.5 106.5q0 75 51 112.5t126 43.5l143 12v16q0 50 -28 80t-77 30h-5q-43 0 -72 -22t-33 -57h-95q6 69 61.5 113t140.5 44q94 0 147.5 -51t53.5 -134v-215zM270 68q51 0 93.5 36t42.5 87v43l-128 -11q-42 -3 -70 -24t-28 -55q0 -33 23.5 -54.5
t59.5 -21.5h7z" />
    <glyph glyph-name="ae" unicode="&#xe6;" 
d="M594 285v-57h-241q0 -78 23 -119t61 -41h2q30 0 47.5 22.5t20.5 59.5h86q-4 -70 -42 -115t-108 -45q-95 0 -138 80q-49 -80 -140 -80q-72 0 -115 44t-43 112q0 78 48.5 116t119.5 38h82v30q0 102 -74 102h-3q-35 0 -54.5 -22t-21.5 -56h-88q5 69 48.5 112.5t119.5 43.5
q89 0 129 -67q18 29 50 48t73 19q79 0 118.5 -62t39.5 -163zM354 300h157q0 60 -18.5 96t-54.5 36h-2q-39 0 -59.5 -36t-22.5 -96zM257 176v52h-73q-40 0 -65.5 -22t-25.5 -59t21 -58t56 -21h2q41 0 63 30.5t22 77.5z" />
    <glyph glyph-name="ccedilla" unicode="&#xe7;" 
d="M317 68q44 0 72.5 27t37.5 72h95q-10 -79 -59 -125t-129 -51v-36q36 1 62 -23t26 -64q0 -46 -30 -74t-80 -28h-70v64h73q45 0 45 38q0 37 -43 37h-40v87q-91 13 -145 83t-54 175q0 115 64.5 187.5t170.5 72.5q90 0 146 -46.5t63 -130.5h-95q-8 45 -36.5 72t-73.5 27h-8
q-67 0 -101.5 -51.5t-34.5 -130.5t34.5 -130.5t101.5 -51.5h8z" />
    <glyph glyph-name="egrave" unicode="&#xe8;" 
d="M350 561h-61l-93 139h112zM522 272q0 -7 -0.5 -21.5t-0.5 -22.5h-350q1 -74 40 -117t97 -43h6q41 0 71 21.5t41 60.5h94q-17 -75 -73 -117.5t-139 -42.5q-98 0 -164 69.5t-66 191.5q0 119 65 189t166 70q99 0 156 -67t57 -171zM302 432q-48 0 -85 -32t-45 -97h257
q-2 55 -34 92t-85 37h-8z" />
    <glyph glyph-name="eacute" unicode="&#xe9;" 
d="M430 700l-94 -139h-61l43 139h112zM522 272q0 -7 -0.5 -21.5t-0.5 -22.5h-350q1 -74 40 -117t97 -43h6q41 0 71 21.5t41 60.5h94q-17 -75 -73 -117.5t-139 -42.5q-98 0 -164 69.5t-66 191.5q0 119 65 189t166 70q99 0 156 -67t57 -171zM302 432q-48 0 -85 -32t-45 -97
h257q-2 55 -34 92t-85 37h-8z" />
    <glyph glyph-name="ecircumflex" unicode="&#xea;" 
d="M308 634l-100 -73h-69l114 139h110l114 -139h-69zM522 272q0 -7 -0.5 -21.5t-0.5 -22.5h-350q1 -74 40 -117t97 -43h6q41 0 71 21.5t41 60.5h94q-17 -75 -73 -117.5t-139 -42.5q-98 0 -164 69.5t-66 191.5q0 119 65 189t166 70q99 0 156 -67t57 -171zM302 432
q-48 0 -85 -32t-45 -97h257q-2 55 -34 92t-85 37h-8z" />
    <glyph glyph-name="edieresis" unicode="&#xeb;" 
d="M263 682v-104h-96v104h96zM449 682v-104h-96v104h96zM522 272q0 -7 -0.5 -21.5t-0.5 -22.5h-350q1 -74 40 -117t97 -43h6q41 0 71 21.5t41 60.5h94q-17 -75 -73 -117.5t-139 -42.5q-98 0 -164 69.5t-66 191.5q0 119 65 189t166 70q99 0 156 -67t57 -171zM302 432
q-48 0 -85 -32t-45 -97h257q-2 55 -34 92t-85 37h-8z" />
    <glyph glyph-name="igrave" unicode="&#xec;" 
d="M363 561h-61l-93 139h112zM369 78h177v-78h-454v78h182v344h-162v78h257v-422z" />
    <glyph glyph-name="iacute" unicode="&#xed;" 
d="M443 700l-94 -139h-61l43 139h112zM369 78h177v-78h-454v78h182v344h-162v78h257v-422z" />
    <glyph glyph-name="icircumflex" unicode="&#xee;" 
d="M321 634l-100 -73h-69l114 139h110l114 -139h-69zM369 78h177v-78h-454v78h182v344h-162v78h257v-422z" />
    <glyph glyph-name="idieresis" unicode="&#xef;" 
d="M276 682v-104h-96v104h96zM462 682v-104h-96v104h96zM369 78h177v-78h-454v78h182v344h-162v78h257v-422z" />
    <glyph glyph-name="eth" unicode="&#xf0;" 
d="M435 599q98 -113 98 -317q0 -130 -63 -211t-176 -81q-106 0 -170.5 71t-64.5 180q0 100 62.5 167t165.5 67q84 0 141 -56q-14 80 -64 132l-72 -49l-41 58l50 34q-49 23 -115 23v83q120 0 194 -52l77 53l42 -59zM299 68q67 0 104 49t37 123q0 67 -37.5 112t-104.5 45h-9
q-64 0 -99.5 -44t-35.5 -112q0 -75 36.5 -124t102.5 -49h6z" />
    <glyph glyph-name="ntilde" unicode="&#xf1;" 
d="M378 558q-34 0 -78 30l-13 7q-3 2 -12 8.5t-14 9t-13 5.5t-15 3q-38 0 -38 -53h-71v24q0 44 28.5 74.5t70.5 30.5q31 0 73 -25l12 -8q4 -3 13 -9t13.5 -8.5t11.5 -6.5t12.5 -5.5t11.5 -1.5q35 0 35 54h71v-24q0 -44 -28.5 -74.5t-69.5 -30.5zM86 0v500h95v-79
q22 41 65.5 65t98.5 24q81 0 127.5 -49.5t46.5 -136.5v-324h-95v306q0 126 -101 126h-7q-62 0 -98.5 -49t-36.5 -120v-263h-95z" />
    <glyph glyph-name="ograve" unicode="&#xf2;" 
d="M281 561l-93 139h112l42 -139h-61zM300 -10q-105 0 -173 73t-68 187t68 187t173 73t173 -73t68 -187t-68 -187t-173 -73zM295 68h10q61 0 100.5 49t39.5 133t-39.5 133t-100.5 49h-10q-61 0 -100.5 -49t-39.5 -133t39.5 -133t100.5 -49z" />
    <glyph glyph-name="oacute" unicode="&#xf3;" 
d="M267 561l43 139h112l-94 -139h-61zM300 -10q-105 0 -173 73t-68 187t68 187t173 73t173 -73t68 -187t-68 -187t-173 -73zM295 68h10q61 0 100.5 49t39.5 133t-39.5 133t-100.5 49h-10q-61 0 -100.5 -49t-39.5 -133t39.5 -133t100.5 -49z" />
    <glyph glyph-name="ocircumflex" unicode="&#xf4;" 
d="M300 634l-100 -73h-69l114 139h110l114 -139h-69zM300 510q105 0 173 -73t68 -187t-68 -187t-173 -73t-173 73t-68 187t68 187t173 73zM305 68q61 0 100.5 49t39.5 133t-39.5 133t-100.5 49h-10q-61 0 -100.5 -49t-39.5 -133t39.5 -133t100.5 -49h10z" />
    <glyph glyph-name="otilde" unicode="&#xf5;" 
d="M378 558q-34 0 -78 30l-13 7q-3 2 -12 8.5t-14 9t-13 5.5t-15 3q-38 0 -38 -53h-71v24q0 44 28.5 74.5t70.5 30.5q31 0 73 -25l12 -8q4 -3 13 -9t13.5 -8.5t11.5 -6.5t12.5 -5.5t11.5 -1.5q35 0 35 54h71v-24q0 -44 -28.5 -74.5t-69.5 -30.5zM300 -10q-105 0 -173 73
t-68 187t68 187t173 73t173 -73t68 -187t-68 -187t-173 -73zM295 68h10q61 0 100.5 49t39.5 133t-39.5 133t-100.5 49h-10q-61 0 -100.5 -49t-39.5 -133t39.5 -133t100.5 -49z" />
    <glyph glyph-name="odieresis" unicode="&#xf6;" 
d="M159 578v104h96v-104h-96zM345 578v104h96v-104h-96zM300 -10q-105 0 -173 73t-68 187t68 187t173 73t173 -73t68 -187t-68 -187t-173 -73zM295 68h10q61 0 100.5 49t39.5 133t-39.5 133t-100.5 49h-10q-61 0 -100.5 -49t-39.5 -133t39.5 -133t100.5 -49z" />
    <glyph glyph-name="divide" unicode="&#xf7;" 
d="M247 370v109h105v-109h-105zM53 213v89h494v-89h-494zM247 36v109h105v-109h-105z" />
    <glyph glyph-name="oslash" unicode="&#xf8;" 
d="M484 424q57 -70 57 -174q0 -114 -68 -187t-173 -73q-67 0 -124 33l-49 -64l-62 51l50 66q-56 72 -56 174q0 114 68 187t173 73q68 0 123 -32l48 63l66 -48zM155 250q0 -55 19 -98l199 261q-32 19 -68 19h-10q-61 0 -100.5 -49t-39.5 -133zM305 68q61 0 100.5 49t39.5 133
q0 56 -19 99l-200 -261q31 -20 69 -20h10z" />
    <glyph glyph-name="ugrave" unicode="&#xf9;" 
d="M342 561h-61l-93 139h112zM414 500h95v-500h-95v84q-21 -44 -62 -69t-95 -25q-83 0 -127 50.5t-44 134.5v325h95v-308q0 -124 99 -124h9q50 0 87.5 45t37.5 113v274z" />
    <glyph glyph-name="uacute" unicode="&#xfa;" 
d="M422 700l-94 -139h-61l43 139h112zM414 500h95v-500h-95v84q-21 -44 -62 -69t-95 -25q-83 0 -127 50.5t-44 134.5v325h95v-308q0 -124 99 -124h9q50 0 87.5 45t37.5 113v274z" />
    <glyph glyph-name="ucircumflex" unicode="&#xfb;" 
d="M300 634l-100 -73h-69l114 139h110l114 -139h-69zM414 500h95v-500h-95v84q-21 -44 -62 -69t-95 -25q-83 0 -127 50.5t-44 134.5v325h95v-308q0 -124 99 -124h9q50 0 87.5 45t37.5 113v274z" />
    <glyph glyph-name="udieresis" unicode="&#xfc;" 
d="M255 682v-104h-96v104h96zM441 682v-104h-96v104h96zM414 500h95v-500h-95v84q-21 -44 -62 -69t-95 -25q-83 0 -127 50.5t-44 134.5v325h95v-308q0 -124 99 -124h9q50 0 87.5 45t37.5 113v274z" />
    <glyph glyph-name="yacute" unicode="&#xfd;" 
d="M427 700l-94 -139h-61l43 139h112zM558 500l-209 -470v-105q0 -107 -111 -107h-166v81h138q28 0 37.5 9.5t9.5 37.5v80l-214 474h106l153 -358l152 358h104z" />
    <glyph glyph-name="thorn" unicode="&#xfe;" 
d="M333 510q101 0 162 -73.5t61 -186.5t-61 -186.5t-162 -73.5q-49 0 -93 24t-63 59v-273h-95v900h95v-273q19 35 63 59t93 24zM322 68q64 0 101 51.5t37 130.5t-37 130.5t-101 51.5h-6q-63 0 -101 -52t-38 -130t38 -130t101 -52h6z" />
    <glyph glyph-name="ydieresis" unicode="&#xff;" 
d="M260 682v-104h-96v104h96zM446 682v-104h-96v104h96zM558 500l-209 -470v-105q0 -107 -111 -107h-166v81h138q28 0 37.5 9.5t9.5 37.5v80l-214 474h106l153 -358l152 358h104z" />
    <glyph glyph-name="Amacron" unicode="&#x100;" 
d="M456 853v-80h-303v80h303zM477 0l-54 180h-248l-54 -180h-100l218 700h126l215 -700h-103zM202 270h195l-98 326z" />
    <glyph glyph-name="amacron" unicode="&#x101;" 
d="M445 657v-79h-288v79h288zM499 110q0 -75 5 -110h-88q-4 19 -6 71q-19 -35 -63 -58t-100 -23q-68 0 -114.5 41.5t-46.5 106.5q0 75 51 112.5t126 43.5l143 12v16q0 50 -28 80t-77 30h-5q-43 0 -72 -22t-33 -57h-95q6 69 61.5 113t140.5 44q94 0 147.5 -51t53.5 -134v-215
zM270 68q51 0 93.5 36t42.5 87v43l-128 -11q-42 -3 -70 -24t-28 -55q0 -33 23.5 -54.5t59.5 -21.5h7z" />
    <glyph glyph-name="Abreve" unicode="&#x102;" 
d="M302 748q-69 0 -112.5 38t-44.5 104h81q6 -68 76 -68t76 68h81q-1 -66 -44.5 -104t-112.5 -38zM477 0l-54 180h-248l-54 -180h-100l218 700h126l215 -700h-103zM202 270h195l-98 326z" />
    <glyph glyph-name="abreve" unicode="&#x103;" 
d="M296 551q-67 0 -110 40t-44 109h78q2 -37 22.5 -57.5t53.5 -20.5t53.5 20.5t22.5 57.5h78q-1 -69 -44 -109t-110 -40zM499 110q0 -75 5 -110h-88q-4 19 -6 71q-19 -35 -63 -58t-100 -23q-68 0 -114.5 41.5t-46.5 106.5q0 75 51 112.5t126 43.5l143 12v16q0 50 -28 80
t-77 30h-5q-43 0 -72 -22t-33 -57h-95q6 69 61.5 113t140.5 44q94 0 147.5 -51t53.5 -134v-215zM270 68q51 0 93.5 36t42.5 87v43l-128 -11q-42 -3 -70 -24t-28 -55q0 -33 23.5 -54.5t59.5 -21.5h7z" />
    <glyph glyph-name="Aogonek" unicode="&#x104;" 
d="M538 0q-84 -52 -84 -95q0 -23 15.5 -34t37.5 -11h27v-67h-36q-52 0 -82 24.5t-30 64.5q0 72 90 121l-53 177h-248l-54 -180h-100l218 700h126l215 -700h-42zM202 270h195l-98 326z" />
    <glyph glyph-name="aogonek" unicode="&#x105;" 
d="M420 -95q0 -23 15.5 -34t37.5 -11h27v-67h-36q-52 0 -82 24.5t-30 64.5q0 70 85 118h-21q-4 19 -6 71q-19 -35 -63 -58t-100 -23q-68 0 -114.5 41.5t-46.5 106.5q0 75 51 112.5t126 43.5l143 12v16q0 50 -28 80t-77 30h-5q-43 0 -72 -22t-33 -57h-95q6 69 61.5 113
t140.5 44q94 0 147.5 -51t53.5 -134v-215q0 -75 5 -110q-84 -52 -84 -95zM270 68q51 0 93.5 36t42.5 87v43l-128 -11q-42 -3 -70 -24t-28 -55q0 -33 23.5 -54.5t59.5 -21.5h7z" />
    <glyph glyph-name="Cacute" unicode="&#x106;" 
d="M296 756l47 134h120l-93 -134h-74zM319 -10q-133 0 -203.5 96t-70.5 264q0 166 70.5 263t203.5 97q108 0 167.5 -64t65.5 -168h-100q-4 63 -37.5 102.5t-92.5 39.5h-6q-82 0 -126.5 -72t-44.5 -198q0 -127 44 -198.5t127 -71.5h6q60 0 92 38t38 104h100
q-6 -105 -64 -168.5t-169 -63.5z" />
    <glyph glyph-name="cacute" unicode="&#x107;" 
d="M279 561l43 139h112l-94 -139h-61zM313 -10q-106 0 -170.5 72.5t-64.5 187.5t64.5 187.5t170.5 72.5q90 0 146 -46.5t63 -130.5h-95q-8 45 -36.5 72t-73.5 27h-8q-67 0 -101.5 -51.5t-34.5 -130.5t34.5 -130.5t101.5 -51.5h8q44 0 72.5 27t37.5 72h95q-11 -85 -65.5 -131
t-143.5 -46z" />
    <glyph glyph-name="Ccircumflex" unicode="&#x108;" 
d="M327 821l-86 -65h-88l117 134h114l117 -134h-88zM322 80q60 0 92 38t38 104h100q-6 -105 -64 -168.5t-169 -63.5q-133 0 -203.5 96t-70.5 264q0 166 70.5 263t203.5 97q108 0 167.5 -64t65.5 -168h-100q-4 63 -37.5 102.5t-92.5 39.5h-6q-82 0 -126.5 -72t-44.5 -198
q0 -127 44 -198.5t127 -71.5h6z" />
    <glyph glyph-name="ccircumflex" unicode="&#x109;" 
d="M312 634l-100 -73h-69l114 139h110l114 -139h-69zM317 68q44 0 72.5 27t37.5 72h95q-11 -85 -65.5 -131t-143.5 -46q-106 0 -170.5 72.5t-64.5 187.5t64.5 187.5t170.5 72.5q90 0 146 -46.5t63 -130.5h-95q-8 45 -36.5 72t-73.5 27h-8q-67 0 -101.5 -51.5t-34.5 -130.5
t34.5 -130.5t101.5 -51.5h8z" />
    <glyph glyph-name="Cdotaccent" unicode="&#x10a;" 
d="M273 773v109h105v-109h-105zM319 -10q-133 0 -203.5 96t-70.5 264q0 166 70.5 263t203.5 97q108 0 167.5 -64t65.5 -168h-100q-4 63 -37.5 102.5t-92.5 39.5h-6q-82 0 -126.5 -72t-44.5 -198q0 -127 44 -198.5t127 -71.5h6q60 0 92 38t38 104h100q-6 -105 -64 -168.5
t-169 -63.5z" />
    <glyph glyph-name="cdotaccent" unicode="&#x10b;" 
d="M259 578v109h105v-109h-105zM313 -10q-106 0 -170.5 72.5t-64.5 187.5t64.5 187.5t170.5 72.5q90 0 146 -46.5t63 -130.5h-95q-8 45 -36.5 72t-73.5 27h-8q-67 0 -101.5 -51.5t-34.5 -130.5t34.5 -130.5t101.5 -51.5h8q44 0 72.5 27t37.5 72h95q-11 -85 -65.5 -131
t-143.5 -46z" />
    <glyph glyph-name="Ccaron" unicode="&#x10c;" 
d="M383 756h-114l-117 134h88l86 -64l86 64h88zM322 80q60 0 92 38t38 104h100q-6 -105 -64 -168.5t-169 -63.5q-133 0 -203.5 96t-70.5 264q0 166 70.5 263t203.5 97q108 0 167.5 -64t65.5 -168h-100q-4 63 -37.5 102.5t-92.5 39.5h-6q-82 0 -126.5 -72t-44.5 -198
q0 -127 44 -198.5t127 -71.5h6z" />
    <glyph glyph-name="ccaron" unicode="&#x10d;" 
d="M367 561h-110l-114 139h69l100 -73l100 73h69zM317 68q44 0 72.5 27t37.5 72h95q-11 -85 -65.5 -131t-143.5 -46q-106 0 -170.5 72.5t-64.5 187.5t64.5 187.5t170.5 72.5q90 0 146 -46.5t63 -130.5h-95q-8 45 -36.5 72t-73.5 27h-8q-67 0 -101.5 -51.5t-34.5 -130.5
t34.5 -130.5t101.5 -51.5h8z" />
    <glyph glyph-name="Dcaron" unicode="&#x10e;" 
d="M345 756h-114l-117 134h88l86 -64l86 64h88zM265 700q132 0 212.5 -93t80.5 -258t-79.5 -257t-210.5 -92h-192v700h189zM260 90q95 0 146.5 64.5t51.5 195.5t-52 195.5t-146 64.5h-84v-520h84z" />
    <glyph glyph-name="dcaron" unicode="&#x10f;" 
d="M222 -10q-97 0 -154 73t-57 187t57 187t154 73q47 0 86 -22t58 -58v270h95v-700h-95v70q-19 -36 -58 -58t-86 -22zM506 508v51h9q47 0 47 38v6h-38v97h91v-102q0 -40 -26.5 -65t-68.5 -25h-14zM233 68h6q59 0 93 51.5t34 130.5t-34 130.5t-93 51.5h-6q-60 0 -93.5 -51
t-33.5 -131t33.5 -131t93.5 -51z" />
    <glyph glyph-name="Dcroat" unicode="&#x110;" 
d="M271 700q132 0 212.5 -93t80.5 -258t-79.5 -257t-210.5 -92h-192v307h-77v87h77v306h189zM266 90q95 0 146.5 64.5t51.5 195.5t-52 195.5t-146 64.5h-84v-216h153v-87h-153v-217h84z" />
    <glyph glyph-name="dcroat" unicode="&#x111;" 
d="M591 634v-68h-73v-566h-95v73q-19 -35 -63 -59t-93 -24q-101 0 -162 73.5t-61 186.5t61 186.5t162 73.5q49 0 93 -24t63 -59v139h-135v68h135v66h95v-66h73zM284 68q63 0 101 52t38 130t-38 130t-101 52h-6q-64 0 -101 -51.5t-37 -130.5t37 -130.5t101 -51.5h6z" />
    <glyph glyph-name="Emacron" unicode="&#x112;" 
d="M160 773v80h303v-80h-303zM81 0v700h443v-90h-343v-205h291v-90h-291v-225h353v-90h-453z" />
    <glyph glyph-name="emacron" unicode="&#x113;" 
d="M457 657v-79h-288v79h288zM522 272q0 -7 -0.5 -21.5t-0.5 -22.5h-350q1 -74 40 -117t97 -43h6q41 0 71 21.5t41 60.5h94q-17 -75 -73 -117.5t-139 -42.5q-98 0 -164 69.5t-66 191.5q0 119 65 189t166 70q99 0 156 -67t57 -171zM302 432q-48 0 -85 -32t-45 -97h257
q-2 55 -34 92t-85 37h-8z" />
    <glyph glyph-name="Ebreve" unicode="&#x114;" 
d="M309 748q-69 0 -112.5 38t-44.5 104h81q6 -68 76 -68t76 68h81q-1 -66 -44.5 -104t-112.5 -38zM81 0v700h443v-90h-343v-205h291v-90h-291v-225h353v-90h-453z" />
    <glyph glyph-name="ebreve" unicode="&#x115;" 
d="M308 551q-67 0 -110 40t-44 109h78q2 -37 22.5 -57.5t53.5 -20.5t53.5 20.5t22.5 57.5h78q-1 -69 -44 -109t-110 -40zM522 272q0 -7 -0.5 -21.5t-0.5 -22.5h-350q1 -74 40 -117t97 -43h6q41 0 71 21.5t41 60.5h94q-17 -75 -73 -117.5t-139 -42.5q-98 0 -164 69.5
t-66 191.5q0 119 65 189t166 70q99 0 156 -67t57 -171zM302 432q-48 0 -85 -32t-45 -97h257q-2 55 -34 92t-85 37h-8z" />
    <glyph glyph-name="Edotaccent" unicode="&#x116;" 
d="M255 773v109h105v-109h-105zM81 0v700h443v-90h-343v-205h291v-90h-291v-225h353v-90h-453z" />
    <glyph glyph-name="edotaccent" unicode="&#x117;" 
d="M360 687v-109h-105v109h105zM522 272q0 -7 -0.5 -21.5t-0.5 -22.5h-350q1 -74 40 -117t97 -43h6q41 0 71 21.5t41 60.5h94q-17 -75 -73 -117.5t-139 -42.5q-98 0 -164 69.5t-66 191.5q0 119 65 189t166 70q99 0 156 -67t57 -171zM302 432q-48 0 -85 -32t-45 -97h257
q-2 55 -34 92t-85 37h-8z" />
    <glyph glyph-name="Eogonek" unicode="&#x118;" 
d="M534 0q-84 -52 -84 -95q0 -23 15.5 -34t37.5 -11h27v-67h-36q-52 0 -82 24.5t-30 64.5q0 70 85 118h-386v700h443v-90h-343v-205h291v-90h-291v-225h353v-90z" />
    <glyph glyph-name="eogonek" unicode="&#x119;" 
d="M522 272q0 -7 -0.5 -21.5t-0.5 -22.5h-350q1 -74 40 -117t97 -43h6q41 0 71 21.5t41 60.5h94q-23 -100 -111 -140q-84 -52 -84 -95q0 -23 15.5 -34t37.5 -11h27v-67h-36q-52 0 -82 24.5t-30 64.5q0 55 55 98h-4q-98 0 -164 69.5t-66 191.5q0 119 65 189t166 70
q99 0 156 -67t57 -171zM302 432q-48 0 -85 -32t-45 -97h257q-2 55 -34 92t-85 37h-8z" />
    <glyph glyph-name="Ecaron" unicode="&#x11a;" 
d="M365 756h-114l-117 134h88l86 -64l86 64h88zM181 90h353v-90h-453v700h443v-90h-343v-205h291v-90h-291v-225z" />
    <glyph glyph-name="ecaron" unicode="&#x11b;" 
d="M363 561h-110l-114 139h69l100 -73l100 73h69zM522 272q0 -7 -0.5 -21.5t-0.5 -22.5h-350q1 -74 40 -117t97 -43h6q41 0 71 21.5t41 60.5h94q-17 -75 -73 -117.5t-139 -42.5q-98 0 -164 69.5t-66 191.5q0 119 65 189t166 70q99 0 156 -67t57 -171zM302 432q-48 0 -85 -32
t-45 -97h257q-2 55 -34 92t-85 37h-8z" />
    <glyph glyph-name="Gcircumflex" unicode="&#x11c;" 
d="M320 821l-86 -65h-88l117 134h114l117 -134h-88zM481 357q74 0 74 -74v-283h-88v74q-53 -84 -163 -84q-123 0 -192.5 98.5t-69.5 261.5q0 164 70 262t205 98q112 0 170 -66.5t64 -175.5h-100q-5 71 -39 111.5t-94 40.5h-4q-83 0 -127.5 -71.5t-44.5 -198.5
q0 -124 44 -197t131 -73h4q64 0 105 41t41 113v33h-147v90h161z" />
    <glyph glyph-name="gcircumflex" unicode="&#x11d;" 
d="M289 634l-100 -73h-69l114 139h110l114 -139h-69zM433 500h95v-503q0 -93 -65 -155t-179 -62q-103 0 -164 43t-67 114h95q16 -78 136 -78h8q61 0 101 37t40 111v74q-46 -81 -155 -81q-93 0 -154.5 67t-61.5 185q0 119 61.5 188.5t154.5 69.5q109 0 155 -81v71zM300 78
q59 0 96 46.5t37 127.5q0 82 -37.5 131t-95.5 49h-9q-59 0 -96.5 -49t-37.5 -131q0 -81 37.5 -127.5t96.5 -46.5h9z" />
    <glyph glyph-name="Gbreve" unicode="&#x11e;" 
d="M320 748q-69 0 -112.5 38t-44.5 104h81q6 -68 76 -68t76 68h81q-1 -66 -44.5 -104t-112.5 -38zM304 -10q-123 0 -192.5 98.5t-69.5 261.5q0 164 70 262t205 98q112 0 170 -66.5t64 -175.5h-100q-5 71 -39 111.5t-94 40.5h-4q-83 0 -127.5 -71.5t-44.5 -198.5
q0 -124 44 -197t131 -73h4q64 0 105 41t41 113v33h-147v90h161q74 0 74 -74v-283h-88v74q-53 -84 -163 -84z" />
    <glyph glyph-name="gbreve" unicode="&#x11f;" 
d="M289 551q-67 0 -110 40t-44 109h78q2 -37 22.5 -57.5t53.5 -20.5t53.5 20.5t22.5 57.5h78q-1 -69 -44 -109t-110 -40zM284 -220q-103 0 -164 43t-67 114h95q16 -78 136 -78h8q61 0 101 37t40 111v74q-46 -81 -155 -81q-93 0 -154.5 67t-61.5 185q0 119 61.5 188.5
t154.5 69.5q109 0 155 -81v71h95v-503q0 -93 -65 -155t-179 -62zM291 78h9q59 0 96 46.5t37 127.5q0 82 -37.5 131t-95.5 49h-9q-59 0 -96.5 -49t-37.5 -131q0 -81 37.5 -127.5t96.5 -46.5z" />
    <glyph glyph-name="Gdotaccent" unicode="&#x120;" 
d="M266 773v109h105v-109h-105zM304 -10q-123 0 -192.5 98.5t-69.5 261.5q0 164 70 262t205 98q112 0 170 -66.5t64 -175.5h-100q-5 71 -39 111.5t-94 40.5h-4q-83 0 -127.5 -71.5t-44.5 -198.5q0 -124 44 -197t131 -73h4q64 0 105 41t41 113v33h-147v90h161q74 0 74 -74
v-283h-88v74q-53 -84 -163 -84z" />
    <glyph glyph-name="gdotaccent" unicode="&#x121;" 
d="M236 578v109h105v-109h-105zM284 -220q-103 0 -164 43t-67 114h95q16 -78 136 -78h8q61 0 101 37t40 111v74q-46 -81 -155 -81q-93 0 -154.5 67t-61.5 185q0 119 61.5 188.5t154.5 69.5q109 0 155 -81v71h95v-503q0 -93 -65 -155t-179 -62zM291 78h9q59 0 96 46.5
t37 127.5q0 82 -37.5 131t-95.5 49h-9q-59 0 -96.5 -49t-37.5 -131q0 -81 37.5 -127.5t96.5 -46.5z" />
    <glyph glyph-name="Gcommaaccent" unicode="&#x122;" 
d="M304 -10q-123 0 -192.5 98.5t-69.5 261.5q0 164 70 262t205 98q112 0 170 -66.5t64 -175.5h-100q-5 71 -39 111.5t-94 40.5h-4q-83 0 -127.5 -71.5t-44.5 -198.5q0 -124 44 -197t131 -73h4q64 0 105 41t41 113v33h-147v90h161q74 0 74 -74v-283h-88v74q-53 -84 -163 -84z
M249 -278v54h14q49 0 49 39v6h-40v101h95v-106q0 -42 -27.5 -68t-71.5 -26h-19z" />
    <glyph glyph-name="gcommaaccent" unicode="&#x123;" 
d="M359 778v-54h-14q-49 0 -49 -39v-6h40v-101h-95v106q0 42 27.5 68t71.5 26h19zM284 -220q-103 0 -164 43t-67 114h95q16 -78 136 -78h8q61 0 101 37t40 111v74q-46 -81 -155 -81q-93 0 -154.5 67t-61.5 185q0 119 61.5 188.5t154.5 69.5q109 0 155 -81v71h95v-503
q0 -93 -65 -155t-179 -62zM291 78h9q59 0 96 46.5t37 127.5q0 82 -37.5 131t-95.5 49h-9q-59 0 -96.5 -49t-37.5 -131q0 -81 37.5 -127.5t96.5 -46.5z" />
    <glyph glyph-name="Hcircumflex" unicode="&#x124;" 
d="M301 821l-86 -65h-88l117 134h114l117 -134h-88zM434 700h100v-700h-100v305h-268v-305h-100v700h100v-305h268v305z" />
    <glyph glyph-name="hcircumflex" unicode="&#x125;" 
d="M319 821l-86 -65h-88l117 134h114l117 -134h-88zM347 510q84 0 128 -50.5t44 -134.5v-325h-95v308q0 124 -101 124h-9q-54 0 -93.5 -45t-39.5 -113v-274h-95v700h95v-279q24 42 67.5 65.5t98.5 23.5z" />
    <glyph glyph-name="Hbar" unicode="&#x126;" 
d="M579 592v-85h-45v-507h-100v305h-268v-305h-100v507h-45v85h45v108h100v-108h268v108h100v-108h45zM434 395v112h-268v-112h268z" />
    <glyph glyph-name="hbar" unicode="&#x127;" 
d="M347 510q84 0 128 -50.5t44 -134.5v-325h-95v308q0 124 -101 124h-9q-54 0 -93.5 -45t-39.5 -113v-274h-95v566h-82v68h82v66h95v-66h126v-68h-126v-145q24 42 67.5 65.5t98.5 23.5z" />
    <glyph glyph-name="Itilde" unicode="&#x128;" 
d="M235 819q-38 0 -38 -53h-71v24q0 44 28.5 74.5t70.5 30.5q31 0 73 -25l12 -8q4 -3 13 -9t13.5 -8.5t11.5 -6.5t12.5 -5.5t11.5 -1.5q35 0 35 54h71v-24q0 -44 -28.5 -74.5t-69.5 -30.5q-34 0 -78 30l-13 7q-3 2 -12 8.5t-14 9t-13 5.5t-15 3zM494 617h-144v-534h144v-83
h-388v83h144v534h-144v83h388v-83z" />
    <glyph glyph-name="itilde" unicode="&#x129;" 
d="M254 621q-38 0 -38 -53h-71v24q0 44 28.5 74.5t70.5 30.5q31 0 73 -25l12 -8q4 -3 13 -9t13.5 -8.5t11.5 -6.5t12.5 -5.5t11.5 -1.5q35 0 35 54h71v-24q0 -44 -28.5 -74.5t-69.5 -30.5q-34 0 -78 30l-13 7q-3 2 -12 8.5t-14 9t-13 5.5t-15 3zM369 78h177v-78h-454v78h182
v344h-162v78h257v-422z" />
    <glyph glyph-name="Imacron" unicode="&#x12a;" 
d="M457 853v-80h-303v80h303zM494 617h-144v-534h144v-83h-388v83h144v534h-144v83h388v-83z" />
    <glyph glyph-name="imacron" unicode="&#x12b;" 
d="M470 657v-79h-288v79h288zM369 78h177v-78h-454v78h182v344h-162v78h257v-422z" />
    <glyph glyph-name="Ibreve" unicode="&#x12c;" 
d="M303 748q-69 0 -112.5 38t-44.5 104h81q6 -68 76 -68t76 68h81q-1 -66 -44.5 -104t-112.5 -38zM494 617h-144v-534h144v-83h-388v83h144v534h-144v83h388v-83z" />
    <glyph glyph-name="ibreve" unicode="&#x12d;" 
d="M321 551q-67 0 -110 40t-44 109h78q2 -37 22.5 -57.5t53.5 -20.5t53.5 20.5t22.5 57.5h78q-1 -69 -44 -109t-110 -40zM369 78h177v-78h-454v78h182v344h-162v78h257v-422z" />
    <glyph glyph-name="Iogonek" unicode="&#x12e;" 
d="M494 617h-144v-534h144v-83h-143q-84 -52 -84 -95q0 -23 15.5 -34t37.5 -11h27v-67h-36q-52 0 -82 24.5t-30 64.5q0 70 85 118h-178v83h144v534h-144v83h388v-83z" />
    <glyph glyph-name="iogonek" unicode="&#x12f;" 
d="M379 695v-123h-116v123h116zM369 78h177v-78h-177q-84 -52 -84 -95q0 -23 15.5 -34t37.5 -11h27v-67h-36q-52 0 -82 24.5t-30 64.5q0 70 85 118h-210v78h182v344h-162v78h257v-422z" />
    <glyph glyph-name="Idotaccent" unicode="&#x130;" 
d="M354 882v-109h-105v109h105zM494 617h-144v-534h144v-83h-388v83h144v534h-144v83h388v-83z" />
    <glyph glyph-name="dotlessi" unicode="&#x131;" 
d="M369 78h177v-78h-454v78h182v344h-162v78h257v-422z" />
    <glyph glyph-name="IJ" unicode="&#x132;" 
d="M418 700h100v-537q0 -78 -40 -120.5t-110 -42.5h-267v95h241q76 0 76 90v515zM201 700v-505h-100v505h100z" />
    <glyph glyph-name="ij" unicode="&#x133;" 
d="M114 578v109h105v-109h-105zM381 578v109h105v-109h-105zM120 -181v80h219q26 0 36.5 10.5t10.5 36.5v554h95v-575q0 -106 -109 -106h-252zM120 0v500h95v-500h-95z" />
    <glyph glyph-name="Jcircumflex" unicode="&#x134;" 
d="M492 890l117 -134h-88l-86 65l-86 -65h-88l117 134h114zM385 185v515h100v-537q0 -78 -40 -120.5t-110 -42.5h-235v95h209q76 0 76 90z" />
    <glyph glyph-name="jcircumflex" unicode="&#x135;" 
d="M407 700l114 -139h-69l-100 73l-100 -73h-69l114 139h110zM407 500v-575q0 -106 -109 -106h-211v80h178q26 0 36.5 10.5t10.5 36.5v476h-161v78h256z" />
    <glyph glyph-name="Kcommaaccent" unicode="&#x136;" 
d="M336 411l252 -411h-114l-204 332l-89 -107v-225h-100v700h100v-339l278 339h117zM279 -179v101h95v-106q0 -42 -27.5 -68t-71.5 -26h-19v54h14q49 0 49 39v6h-40z" />
    <glyph glyph-name="kcommaaccent" unicode="&#x137;" 
d="M336 301l211 -301h-115l-163 235l-72 -71v-164h-95v700h95v-418l218 218h122zM246 -179v101h95v-106q0 -42 -27.5 -68t-71.5 -26h-19v54h14q49 0 49 39v6h-40z" />
    <glyph glyph-name="Lacute" unicode="&#x139;" 
d="M92 756l47 134h120l-93 -134h-74zM73 0v700h100v-610h375v-90h-475z" />
    <glyph glyph-name="lacute" unicode="&#x13a;" 
d="M445 890l-93 -134h-74l47 134h120zM354 78h177v-78h-454v78h182v544h-156v78h251v-622z" />
    <glyph glyph-name="Lcommaaccent" unicode="&#x13b;" 
d="M73 0v700h100v-610h375v-90h-475zM253 -278v54h14q49 0 49 39v6h-40v101h95v-106q0 -42 -27.5 -68t-71.5 -26h-19z" />
    <glyph glyph-name="lcommaaccent" unicode="&#x13c;" 
d="M354 78h177v-78h-454v78h182v544h-156v78h251v-622zM258 -179v101h95v-106q0 -42 -27.5 -68t-71.5 -26h-19v54h14q49 0 49 39v6h-40z" />
    <glyph glyph-name="Lcaron" unicode="&#x13d;" 
d="M73 0v700h100v-610h375v-90h-475zM307 500v54h14q49 0 49 39v6h-40v101h95v-106q0 -42 -27.5 -68t-71.5 -26h-19z" />
    <glyph glyph-name="lcaron" unicode="&#x13e;" 
d="M354 78h177v-78h-454v78h182v544h-156v78h251v-622zM447 700h95v-106q0 -42 -27.5 -68t-71.5 -26h-19v54h14q49 0 49 39v6h-40v101z" />
    <glyph glyph-name="Ldot" unicode="&#x13f;" 
d="M73 0v700h100v-610h375v-90h-475zM351 314v126h126v-126h-126z" />
    <glyph glyph-name="ldot" unicode="&#x140;" 
d="M354 78h177v-78h-454v78h182v544h-156v78h251v-622zM542 440h126v-126h-126v126z" />
    <glyph glyph-name="Lslash" unicode="&#x141;" 
d="M206 90h375v-90h-475v266l-107 -61v101l107 60v334h100v-278l171 96v-99l-171 -97v-232z" />
    <glyph glyph-name="lslash" unicode="&#x142;" 
d="M369 78h177v-78h-454v78h182v249l-82 -46v91l82 46v204h-156v78h251v-228l84 47v-90l-84 -48v-303z" />
    <glyph glyph-name="Nacute" unicode="&#x143;" 
d="M443 890l-93 -134h-74l47 134h120zM436 700h99v-700h-114l-257 537v-537h-99v700h118l253 -529v529z" />
    <glyph glyph-name="nacute" unicode="&#x144;" 
d="M267 561l43 139h112l-94 -139h-61zM86 0v500h95v-79q22 41 65.5 65t98.5 24q81 0 127.5 -49.5t46.5 -136.5v-324h-95v306q0 126 -101 126h-7q-62 0 -98.5 -49t-36.5 -120v-263h-95z" />
    <glyph glyph-name="Ncommaaccent" unicode="&#x145;" 
d="M436 700h99v-700h-114l-257 537v-537h-99v700h118l253 -529v529zM259 -179v101h95v-106q0 -42 -27.5 -68t-71.5 -26h-19v54h14q49 0 49 39v6h-40z" />
    <glyph glyph-name="ncommaaccent" unicode="&#x146;" 
d="M86 0v500h95v-79q22 41 65.5 65t98.5 24q81 0 127.5 -49.5t46.5 -136.5v-324h-95v306q0 126 -101 126h-7q-62 0 -98.5 -49t-36.5 -120v-263h-95zM234 -278v54h14q49 0 49 39v6h-40v101h95v-106q0 -42 -27.5 -68t-71.5 -26h-19z" />
    <glyph glyph-name="Ncaron" unicode="&#x147;" 
d="M363 756h-114l-117 134h88l86 -64l86 64h88zM436 700h99v-700h-114l-257 537v-537h-99v700h118l253 -529v529z" />
    <glyph glyph-name="ncaron" unicode="&#x148;" 
d="M355 561h-110l-114 139h69l100 -73l100 73h69zM345 510q81 0 127.5 -49.5t46.5 -136.5v-324h-95v306q0 126 -101 126h-7q-62 0 -98.5 -49t-36.5 -120v-263h-95v500h95v-79q22 41 65.5 65t98.5 24z" />
    <glyph glyph-name="Eng" unicode="&#x14a;" 
d="M436 700h99v-770q0 -56 -30 -86.5t-86 -30.5h-118v86h84q28 0 39 11t11 39v51l-271 515v-515h-99v700h104l267 -507v507z" />
    <glyph glyph-name="eng" unicode="&#x14b;" 
d="M345 510q81 0 127.5 -49.5t46.5 -136.5v-400q0 -106 -109 -106h-104v81h71q26 0 36.5 10.5t10.5 36.5v360q0 126 -101 126h-7q-62 0 -98.5 -49t-36.5 -120v-263h-95v500h95v-79q22 41 65.5 65t98.5 24z" />
    <glyph glyph-name="Omacron" unicode="&#x14c;" 
d="M154 773v80h303v-80h-303zM300 -10q-123 0 -190.5 96t-67.5 264t67.5 264t190.5 96t190.5 -96t67.5 -264t-67.5 -264t-190.5 -96zM298 80h4q76 0 116 71t40 199t-40 199t-116 71h-4q-76 0 -116 -71t-40 -199t40 -199t116 -71z" />
    <glyph glyph-name="omacron" unicode="&#x14d;" 
d="M161 578v79h288v-79h-288zM300 -10q-105 0 -173 73t-68 187t68 187t173 73t173 -73t68 -187t-68 -187t-173 -73zM295 68h10q61 0 100.5 49t39.5 133t-39.5 133t-100.5 49h-10q-61 0 -100.5 -49t-39.5 -133t39.5 -133t100.5 -49z" />
    <glyph glyph-name="Obreve" unicode="&#x14e;" 
d="M303 748q-69 0 -112.5 38t-44.5 104h81q6 -68 76 -68t76 68h81q-1 -66 -44.5 -104t-112.5 -38zM300 -10q-123 0 -190.5 96t-67.5 264t67.5 264t190.5 96t190.5 -96t67.5 -264t-67.5 -264t-190.5 -96zM298 80h4q76 0 116 71t40 199t-40 199t-116 71h-4q-76 0 -116 -71
t-40 -199t40 -199t116 -71z" />
    <glyph glyph-name="obreve" unicode="&#x14f;" 
d="M300 551q-67 0 -110 40t-44 109h78q2 -37 22.5 -57.5t53.5 -20.5t53.5 20.5t22.5 57.5h78q-1 -69 -44 -109t-110 -40zM300 -10q-105 0 -173 73t-68 187t68 187t173 73t173 -73t68 -187t-68 -187t-173 -73zM295 68h10q61 0 100.5 49t39.5 133t-39.5 133t-100.5 49h-10
q-61 0 -100.5 -49t-39.5 -133t39.5 -133t100.5 -49z" />
    <glyph glyph-name="Ohungarumlaut" unicode="&#x150;" 
d="M182 756l47 134h120l-93 -134h-74zM358 756l47 134h120l-93 -134h-74zM300 -10q-123 0 -190.5 96t-67.5 264t67.5 264t190.5 96t190.5 -96t67.5 -264t-67.5 -264t-190.5 -96zM298 80h4q76 0 116 71t40 199t-40 199t-116 71h-4q-76 0 -116 -71t-40 -199t40 -199t116 -71z
" />
    <glyph glyph-name="ohungarumlaut" unicode="&#x151;" 
d="M193 561l43 139h112l-94 -139h-61zM351 561l43 139h112l-94 -139h-61zM300 -10q-105 0 -173 73t-68 187t68 187t173 73t173 -73t68 -187t-68 -187t-173 -73zM295 68h10q61 0 100.5 49t39.5 133t-39.5 133t-100.5 49h-10q-61 0 -100.5 -49t-39.5 -133t39.5 -133t100.5 -49
z" />
    <glyph glyph-name="OE" unicode="&#x152;" 
d="M408 90h156v-90h-267q-122 0 -191.5 92t-69.5 258t69.5 258t191.5 92h257v-90h-146v-205h134v-90h-134v-225zM294 90h15v520h-15q-74 0 -116 -69t-42 -191t42 -191t116 -69z" />
    <glyph glyph-name="oe" unicode="&#x153;" 
d="M183 -10q-85 0 -131 70.5t-46 189.5t46 189.5t131 70.5q89 0 128 -76q43 76 128 76q79 0 117 -61.5t38 -163.5v-57h-237q0 -79 22 -119.5t60 -40.5h2q29 0 46 22.5t20 59.5h86q-4 -70 -41 -115t-107 -45q-97 0 -138 76q-42 -76 -124 -76zM183 68h2q78 0 78 182t-78 182
h-2q-84 0 -84 -182t84 -182zM358 300h153q0 57 -17.5 94.5t-52.5 37.5h-2q-37 0 -58 -37.5t-23 -94.5z" />
    <glyph glyph-name="Racute" unicode="&#x154;" 
d="M433 890l-93 -134h-74l47 134h120zM431 339q51 0 74 -24t23 -72v-243h-100v227q0 29 -12.5 41.5t-41.5 12.5h-194v-281h-100v700h243q92 0 153.5 -53.5t61.5 -134.5q0 -129 -112 -173h5zM300 371q61 0 99.5 33t38.5 90q0 56 -36 86t-102 30h-120v-239h120z" />
    <glyph glyph-name="racute" unicode="&#x155;" 
d="M299 561l43 139h112l-94 -139h-61zM147 0v500h92v-94q29 99 161 99h108v-85h-113q-75 0 -114 -45.5t-39 -127.5v-247h-95z" />
    <glyph glyph-name="Rcommaaccent" unicode="&#x156;" 
d="M431 339q51 0 74 -24t23 -72v-243h-100v227q0 29 -12.5 41.5t-41.5 12.5h-194v-281h-100v700h243q92 0 153.5 -53.5t61.5 -134.5q0 -129 -112 -173h5zM300 371q61 0 99.5 33t38.5 90q0 56 -36 86t-102 30h-120v-239h120zM258 -179v101h95v-106q0 -42 -27.5 -68t-71.5 -26
h-19v54h14q49 0 49 39v6h-40z" />
    <glyph glyph-name="rcommaaccent" unicode="&#x157;" 
d="M147 0v500h92v-94q29 99 161 99h108v-85h-113q-75 0 -114 -45.5t-39 -127.5v-247h-95zM125 -278v54h14q49 0 49 39v6h-40v101h95v-106q0 -42 -27.5 -68t-71.5 -26h-19z" />
    <glyph glyph-name="Rcaron" unicode="&#x158;" 
d="M353 756h-114l-117 134h88l86 -64l86 64h88zM431 339q51 0 74 -24t23 -72v-243h-100v227q0 29 -12.5 41.5t-41.5 12.5h-194v-281h-100v700h243q92 0 153.5 -53.5t61.5 -134.5q0 -129 -112 -173h5zM300 371q61 0 99.5 33t38.5 90q0 56 -36 86t-102 30h-120v-239h120z" />
    <glyph glyph-name="rcaron" unicode="&#x159;" 
d="M163 700h69l100 -73l100 73h69l-114 -139h-110zM147 0v500h92v-94q29 99 161 99h108v-85h-113q-75 0 -114 -45.5t-39 -127.5v-247h-95z" />
    <glyph glyph-name="Sacute" unicode="&#x15a;" 
d="M285 758l47 134h120l-93 -134h-74zM301 -10q-132 0 -199.5 63.5t-69.5 173.5h100q7 -147 174 -147h5q66 0 103 31.5t37 78.5q0 80 -101 101l-111 24q-172 36 -172 190q0 85 66.5 145t177.5 60q116 0 182.5 -61t68.5 -161h-100q-4 62 -44.5 97t-105.5 35h-4
q-63 0 -102 -32.5t-39 -80.5q0 -41 24 -63.5t77 -33.5l101 -21q182 -38 182 -193q0 -91 -67 -148.5t-183 -57.5z" />
    <glyph glyph-name="sacute" unicode="&#x15b;" 
d="M268 561l43 139h112l-94 -139h-61zM303 -10q-97 0 -151 45t-56 122h96q3 -43 32.5 -67t75.5 -24h9q43 0 67.5 19t24.5 52q0 26 -16 41t-55 23l-69 16q-71 16 -108 49.5t-37 93.5q0 68 53.5 109t135.5 41q93 0 143.5 -46t52.5 -121h-95q-5 40 -30.5 65.5t-67.5 25.5h-9
q-40 0 -64 -20t-24 -51q0 -46 78 -64l73 -17q133 -30 134 -140q0 -69 -51.5 -110.5t-141.5 -41.5z" />
    <glyph glyph-name="Scircumflex" unicode="&#x15c;" 
d="M316 823l-86 -65h-88l117 134h114l117 -134h-88zM369 389q182 -38 182 -193q0 -91 -67 -148.5t-183 -57.5q-132 0 -199.5 63.5t-69.5 173.5h100q7 -147 174 -147h5q66 0 103 31.5t37 78.5q0 80 -101 101l-111 24q-172 36 -172 190q0 85 66.5 145t177.5 60
q116 0 182.5 -61t68.5 -161h-100q-4 62 -44.5 97t-105.5 35h-4q-63 0 -102 -32.5t-39 -80.5q0 -41 24 -63.5t77 -33.5z" />
    <glyph glyph-name="scircumflex" unicode="&#x15d;" 
d="M470 561h-69l-100 73l-100 -73h-69l114 139h110zM303 -10q-97 0 -151 45t-56 122h96q3 -43 32.5 -67t75.5 -24h9q43 0 67.5 19t24.5 52q0 26 -16 41t-55 23l-69 16q-71 16 -108 49.5t-37 93.5q0 68 53.5 109t135.5 41q93 0 143.5 -46t52.5 -121h-95q-5 40 -30.5 65.5
t-67.5 25.5h-9q-40 0 -64 -20t-24 -51q0 -46 78 -64l73 -17q133 -30 134 -140q0 -69 -51.5 -110.5t-141.5 -41.5z" />
    <glyph glyph-name="Scedilla" unicode="&#x15e;" 
d="M369 389q182 -38 182 -193q0 -86 -61 -143t-167 -62v-36q36 1 62 -23t26 -64q0 -46 -30 -74t-80 -28h-70v64h73q45 0 45 38q0 37 -43 37h-40v86q-115 9 -173.5 71t-60.5 165h100q7 -147 174 -147h5q66 0 103 31.5t37 78.5q0 80 -101 101l-111 24q-172 36 -172 190
q0 85 66.5 145t177.5 60q116 0 182.5 -61t68.5 -161h-100q-4 62 -44.5 97t-105.5 35h-4q-63 0 -102 -32.5t-39 -80.5q0 -41 24 -63.5t77 -33.5z" />
    <glyph glyph-name="scedilla" unicode="&#x15f;" 
d="M362 282q133 -30 134 -140q0 -66 -46.5 -107t-129.5 -45v-35q36 1 62 -23t26 -64q0 -46 -30 -74t-80 -28h-70v64h73q45 0 45 38q0 37 -43 37h-40v87q-79 10 -122 53.5t-45 111.5h96q3 -43 32.5 -67t75.5 -24h9q43 0 67.5 19t24.5 52q0 26 -16 41t-55 23l-69 16
q-71 16 -108 49.5t-37 93.5q0 68 53.5 109t135.5 41q93 0 143.5 -46t52.5 -121h-95q-5 40 -30.5 65.5t-67.5 25.5h-9q-40 0 -64 -20t-24 -51q0 -46 78 -64z" />
    <glyph glyph-name="Scaron" unicode="&#x160;" 
d="M372 758h-114l-117 134h88l86 -64l86 64h88zM369 389q182 -38 182 -193q0 -91 -67 -148.5t-183 -57.5q-132 0 -199.5 63.5t-69.5 173.5h100q7 -147 174 -147h5q66 0 103 31.5t37 78.5q0 80 -101 101l-111 24q-172 36 -172 190q0 85 66.5 145t177.5 60q116 0 182.5 -61
t68.5 -161h-100q-4 62 -44.5 97t-105.5 35h-4q-63 0 -102 -32.5t-39 -80.5q0 -41 24 -63.5t77 -33.5z" />
    <glyph glyph-name="scaron" unicode="&#x161;" 
d="M132 700h69l100 -73l100 73h69l-114 -139h-110zM303 -10q-97 0 -151 45t-56 122h96q3 -43 32.5 -67t75.5 -24h9q43 0 67.5 19t24.5 52q0 26 -16 41t-55 23l-69 16q-71 16 -108 49.5t-37 93.5q0 68 53.5 109t135.5 41q93 0 143.5 -46t52.5 -121h-95q-5 40 -30.5 65.5
t-67.5 25.5h-9q-40 0 -64 -20t-24 -51q0 -46 78 -64l73 -17q133 -30 134 -140q0 -69 -51.5 -110.5t-141.5 -41.5z" />
    <glyph glyph-name="uni0162" unicode="&#x162;" 
d="M350 0h-23v-45q36 1 62 -23t26 -64q0 -46 -30 -74t-80 -28h-70v64h73q45 0 45 38q0 37 -43 37h-40v95h-20v610h-199v90h498v-90h-199v-610z" />
    <glyph glyph-name="uni0163" unicode="&#x163;" 
d="M524 0h-151v-43q36 1 62 -23t26 -64q0 -46 -30 -74t-80 -28h-70v64h73q45 0 45 38q0 37 -43 37h-40v94q-92 8 -92 107v314h-162v78h162v162h95v-162h183v-78h-183v-295q0 -28 9.5 -37.5t37.5 -9.5h158v-80z" />
    <glyph glyph-name="Tcaron" unicode="&#x164;" 
d="M357 756h-114l-117 134h88l86 -64l86 64h88zM51 700h498v-90h-199v-610h-100v610h-199v90z" />
    <glyph glyph-name="tcaron" unicode="&#x165;" 
d="M370 528v46h13q43 0 43 34v5h-35v87h83v-91q0 -36 -24 -58.5t-63 -22.5h-17zM335 0q-111 0 -111 108v314h-162v78h162v162h95v-162h183v-78h-183v-295q0 -28 9.5 -37.5t37.5 -9.5h158v-80h-189z" />
    <glyph glyph-name="Tbar" unicode="&#x166;" 
d="M554 610h-199v-187h151v-85h-151v-338h-100v338h-152v85h152v187h-199v90h498v-90z" />
    <glyph glyph-name="tbar" unicode="&#x167;" 
d="M371 80h158v-80h-189q-111 0 -111 108v134h-146v78h146v102h-162v78h162v162h95v-162h183v-78h-183v-102h176v-78h-176v-115q0 -28 9.5 -37.5t37.5 -9.5z" />
    <glyph glyph-name="Utilde" unicode="&#x168;" 
d="M370 756q-34 0 -78 30l-13 7q-3 2 -12 8.5t-14 9t-13 5.5t-15 3q-38 0 -38 -53h-71v24q0 44 28.5 74.5t70.5 30.5q31 0 73 -25l12 -8q4 -3 13 -9t13.5 -8.5t11.5 -6.5t12.5 -5.5t11.5 -1.5q35 0 35 54h71v-24q0 -44 -28.5 -74.5t-69.5 -30.5zM300 -10q-113 0 -175.5 65
t-62.5 180v465h100v-451q0 -169 136 -169h4q136 0 136 169v451h100v-465q0 -115 -62.5 -180t-175.5 -65z" />
    <glyph glyph-name="utilde" unicode="&#x169;" 
d="M233 621q-38 0 -38 -53h-71v24q0 44 28.5 74.5t70.5 30.5q31 0 73 -25l12 -8q4 -3 13 -9t13.5 -8.5t11.5 -6.5t12.5 -5.5t11.5 -1.5q35 0 35 54h71v-24q0 -44 -28.5 -74.5t-69.5 -30.5q-34 0 -78 30l-13 7q-3 2 -12 8.5t-14 9t-13 5.5t-15 3zM414 500h95v-500h-95v84
q-21 -44 -62 -69t-95 -25q-83 0 -127 50.5t-44 134.5v325h95v-308q0 -124 99 -124h9q50 0 87.5 45t37.5 113v274z" />
    <glyph glyph-name="Umacron" unicode="&#x16a;" 
d="M144 773v80h303v-80h-303zM300 -10q-113 0 -175.5 65t-62.5 180v465h100v-451q0 -169 136 -169h4q136 0 136 169v451h100v-465q0 -115 -62.5 -180t-175.5 -65z" />
    <glyph glyph-name="umacron" unicode="&#x16b;" 
d="M449 657v-79h-288v79h288zM414 500h95v-500h-95v84q-21 -44 -62 -69t-95 -25q-83 0 -127 50.5t-44 134.5v325h95v-308q0 -124 99 -124h9q50 0 87.5 45t37.5 113v274z" />
    <glyph glyph-name="Ubreve" unicode="&#x16c;" 
d="M293 748q-69 0 -112.5 38t-44.5 104h81q6 -68 76 -68t76 68h81q-1 -66 -44.5 -104t-112.5 -38zM300 -10q-113 0 -175.5 65t-62.5 180v465h100v-451q0 -169 136 -169h4q136 0 136 169v451h100v-465q0 -115 -62.5 -180t-175.5 -65z" />
    <glyph glyph-name="ubreve" unicode="&#x16d;" 
d="M300 551q-67 0 -110 40t-44 109h78q2 -37 22.5 -57.5t53.5 -20.5t53.5 20.5t22.5 57.5h78q-1 -69 -44 -109t-110 -40zM414 500h95v-500h-95v84q-21 -44 -62 -69t-95 -25q-83 0 -127 50.5t-44 134.5v325h95v-308q0 -124 99 -124h9q50 0 87.5 45t37.5 113v274z" />
    <glyph glyph-name="Uring" unicode="&#x16e;" 
d="M295 746q-37 0 -65 27t-28 66q0 37 28.5 65t64.5 28q38 0 65.5 -27.5t27.5 -65.5q0 -39 -27 -66t-66 -27zM296 802q14 0 24.5 11.5t10.5 25.5t-10.5 25.5t-24.5 11.5q-15 0 -26 -11.5t-11 -25.5t11 -25.5t26 -11.5zM300 -10q-113 0 -175.5 65t-62.5 180v465h100v-451
q0 -169 136 -169h4q136 0 136 169v451h100v-465q0 -115 -62.5 -180t-175.5 -65z" />
    <glyph glyph-name="uring" unicode="&#x16f;" 
d="M300 553q-38 0 -66 27t-28 67q0 38 28.5 66t65.5 28q38 0 66 -27.5t28 -66.5q0 -40 -27.5 -67t-66.5 -27zM301 691q-18 0 -31 -13t-13 -31t13 -31t31 -13t30.5 13t12.5 31t-12.5 31t-30.5 13zM414 500h95v-500h-95v84q-21 -44 -62 -69t-95 -25q-83 0 -127 50.5t-44 134.5
v325h95v-308q0 -124 99 -124h9q50 0 87.5 45t37.5 113v274z" />
    <glyph glyph-name="Uhungarumlaut" unicode="&#x170;" 
d="M172 756l47 134h120l-93 -134h-74zM348 756l47 134h120l-93 -134h-74zM300 -10q-113 0 -175.5 65t-62.5 180v465h100v-451q0 -169 136 -169h4q136 0 136 169v451h100v-465q0 -115 -62.5 -180t-175.5 -65z" />
    <glyph glyph-name="uhungarumlaut" unicode="&#x171;" 
d="M348 700l-94 -139h-61l43 139h112zM506 700l-94 -139h-61l43 139h112zM414 500h95v-500h-95v84q-21 -44 -62 -69t-95 -25q-83 0 -127 50.5t-44 134.5v325h95v-308q0 -124 99 -124h9q50 0 87.5 45t37.5 113v274z" />
    <glyph glyph-name="Uogonek" unicode="&#x172;" 
d="M438 700h100v-465q0 -100 -47.5 -162.5t-135.5 -77.5q-75 -50 -75 -90q0 -23 15.5 -34t37.5 -11h27v-67h-36q-52 0 -82 24.5t-30 64.5q0 63 69 108q-105 6 -162 70.5t-57 174.5v465h100v-451q0 -169 136 -169h4q136 0 136 169v451z" />
    <glyph glyph-name="uogonek" unicode="&#x173;" 
d="M509 0q-84 -52 -84 -95q0 -23 15.5 -34t37.5 -11h27v-67h-36q-52 0 -82 24.5t-30 64.5q0 70 85 118h-28v84q-21 -44 -62 -69t-95 -25q-83 0 -127 50.5t-44 134.5v325h95v-308q0 -124 99 -124h9q50 0 87.5 45t37.5 113v274h95v-500z" />
    <glyph glyph-name="Wcircumflex" unicode="&#x174;" 
d="M296 821l-86 -65h-88l117 134h114l117 -134h-88zM471 700h93l-61 -700h-117l-85 407l-95 -407h-114l-55 700h91l36 -553l87 376h101l83 -377z" />
    <glyph glyph-name="wcircumflex" unicode="&#x175;" 
d="M300 634l-100 -73h-69l114 139h110l114 -139h-69zM471 500h87l-79 -500h-104l-74 303l-75 -303h-104l-79 500h88l52 -394l68 282h99l68 -283z" />
    <glyph glyph-name="Ycircumflex" unicode="&#x176;" 
d="M301 821l-86 -65h-88l117 134h114l117 -134h-88zM460 700h108l-219 -422v-278h-100v278l-217 422h110l159 -329z" />
    <glyph glyph-name="ycircumflex" unicode="&#x177;" 
d="M305 634l-100 -73h-69l114 139h110l114 -139h-69zM558 500l-209 -470v-105q0 -107 -111 -107h-166v81h138q28 0 37.5 9.5t9.5 37.5v80l-214 474h106l153 -358l152 358h104z" />
    <glyph glyph-name="Ydieresis" unicode="&#x178;" 
d="M255 872v-99h-100v99h100zM445 872v-99h-100v99h100zM460 700h108l-219 -422v-278h-100v278l-217 422h110l159 -329z" />
    <glyph glyph-name="Zacute" unicode="&#x179;" 
d="M436 890l-93 -134h-74l47 134h120zM178 90h356v-90h-464v94l343 516h-334v90h444v-90z" />
    <glyph glyph-name="zacute" unicode="&#x17a;" 
d="M418 700l-94 -139h-61l43 139h112zM206 83h302v-83h-413v79l286 338h-281v83h393v-78z" />
    <glyph glyph-name="Zdotaccent" unicode="&#x17b;" 
d="M351 882v-109h-105v109h105zM178 90h356v-90h-464v94l343 516h-334v90h444v-90z" />
    <glyph glyph-name="zdotaccent" unicode="&#x17c;" 
d="M348 687v-109h-105v109h105zM206 83h302v-83h-413v79l286 338h-281v83h393v-78z" />
    <glyph glyph-name="Zcaron" unicode="&#x17d;" 
d="M356 756h-114l-117 134h88l86 -64l86 64h88zM178 90h356v-90h-464v94l343 516h-334v90h444v-90z" />
    <glyph glyph-name="zcaron" unicode="&#x17e;" 
d="M351 561h-110l-114 139h69l100 -73l100 73h69zM206 83h302v-83h-413v79l286 338h-281v83h393v-78z" />
    <glyph glyph-name="florin" unicode="&#x192;" 
d="M485 612q-48 0 -67.5 -21.5t-28.5 -75.5l-9 -59h124v-84h-137l-58 -382q-16 -103 -57.5 -146.5t-127.5 -43.5h-56v88h47q50 0 70.5 22t29.5 75l59 387h-105v84h118l9 58q16 102 55.5 144t124.5 42h56v-88h-47z" />
    <glyph glyph-name="uni01E2" unicode="&#x1e2;" 
d="M477 853v-80h-303v80h303zM378 90h193v-90h-293v168h-121l-48 -168h-99l208 700h343v-90h-183v-205h147v-90h-147v-225zM182 258h96v338z" />
    <glyph glyph-name="uni01E3" unicode="&#x1e3;" 
d="M171 578v79h288v-79h-288zM594 285v-57h-241q0 -78 23 -119t61 -41h2q30 0 47.5 22.5t20.5 59.5h86q-4 -70 -42 -115t-108 -45q-95 0 -138 80q-49 -80 -140 -80q-72 0 -115 44t-43 112q0 78 48.5 116t119.5 38h82v30q0 102 -74 102h-3q-35 0 -54.5 -22t-21.5 -56h-88
q5 69 48.5 112.5t119.5 43.5q89 0 129 -67q18 29 50 48t73 19q79 0 118.5 -62t39.5 -163zM354 300h157q0 60 -18.5 96t-54.5 36h-2q-39 0 -59.5 -36t-22.5 -96zM257 176v52h-73q-40 0 -65.5 -22t-25.5 -59t21 -58t56 -21h2q41 0 63 30.5t22 77.5z" />
    <glyph glyph-name="Aringacute" unicode="&#x1fa;" 
d="M401 1016l-61 -88h-63l29 88h95zM302 745q-33 0 -55.5 22.5t-22.5 55.5t23 56t55 23t55 -23t23 -56t-22.5 -55.5t-55.5 -22.5zM302 852q-11 0 -20 -8.5t-9 -20.5q0 -11 9 -19.5t20 -8.5t19.5 8.5t8.5 19.5q0 12 -8.5 20.5t-19.5 8.5zM477 0l-54 180h-248l-54 -180h-100
l218 700h126l215 -700h-103zM202 270h195l-98 326z" />
    <glyph glyph-name="aringacute" unicode="&#x1fb;" 
d="M418 898l-91 -132h-63l42 132h112zM295 547q-38 0 -66 26.5t-28 66.5q0 38 28.5 66t65.5 28q38 0 66 -27.5t28 -66.5q0 -40 -27.5 -66.5t-66.5 -26.5zM296 684q-18 0 -31 -13t-13 -31t13 -31t31 -13t30.5 13t12.5 31t-12.5 31t-30.5 13zM499 110q0 -75 5 -110h-88
q-4 19 -6 71q-19 -35 -63 -58t-100 -23q-68 0 -114.5 41.5t-46.5 106.5q0 75 51 112.5t126 43.5l143 12v16q0 50 -28 80t-77 30h-5q-43 0 -72 -22t-33 -57h-95q6 69 61.5 113t140.5 44q94 0 147.5 -51t53.5 -134v-215zM270 68q51 0 93.5 36t42.5 87v43l-128 -11
q-42 -3 -70 -24t-28 -55q0 -33 23.5 -54.5t59.5 -21.5h7z" />
    <glyph glyph-name="AEacute" unicode="&#x1fc;" 
d="M459 890l-93 -134h-74l47 134h120zM378 90h193v-90h-293v168h-121l-48 -168h-99l208 700h343v-90h-183v-205h147v-90h-147v-225zM182 258h96v338z" />
    <glyph glyph-name="aeacute" unicode="&#x1fd;" 
d="M277 561l43 139h112l-94 -139h-61zM594 285v-57h-241q0 -78 23 -119t61 -41h2q30 0 47.5 22.5t20.5 59.5h86q-4 -70 -42 -115t-108 -45q-95 0 -138 80q-49 -80 -140 -80q-72 0 -115 44t-43 112q0 78 48.5 116t119.5 38h82v30q0 102 -74 102h-3q-35 0 -54.5 -22t-21.5 -56
h-88q5 69 48.5 112.5t119.5 43.5q89 0 129 -67q18 29 50 48t73 19q79 0 118.5 -62t39.5 -163zM354 300h157q0 60 -18.5 96t-54.5 36h-2q-39 0 -59.5 -36t-22.5 -96zM257 176v52h-73q-40 0 -65.5 -22t-25.5 -59t21 -58t56 -21h2q41 0 63 30.5t22 77.5z" />
    <glyph glyph-name="Oslashacute" unicode="&#x1fe;" 
d="M440 890l-93 -134h-74l47 134h120zM571 689l-64 -99q52 -93 52 -240q0 -168 -67.5 -264t-190.5 -96q-88 0 -150 51l-49 -76l-72 46l65 100q-52 92 -52 239q0 168 67.5 264t190.5 96q88 0 150 -51l49 76zM143 350q0 -83 16 -140l239 368q-37 42 -95 42h-4q-76 0 -116 -71
t-40 -199zM459 350q0 77 -16 141l-239 -369q37 -42 95 -42h4q76 0 116 71t40 199z" />
    <glyph glyph-name="oslashacute" unicode="&#x1ff;" 
d="M422 700l-94 -139h-61l43 139h112zM484 424q57 -70 57 -174q0 -114 -68 -187t-173 -73q-67 0 -124 33l-49 -64l-62 51l50 66q-56 72 -56 174q0 114 68 187t173 73q68 0 123 -32l48 63l66 -48zM155 250q0 -55 19 -98l199 261q-32 19 -68 19h-10q-61 0 -100.5 -49
t-39.5 -133zM305 68q61 0 100.5 49t39.5 133q0 56 -19 99l-200 -261q31 -20 69 -20h10z" />
    <glyph glyph-name="Scommaaccent" unicode="&#x218;" 
d="M301 -10q-132 0 -199.5 63.5t-69.5 173.5h100q7 -147 174 -147h5q66 0 103 31.5t37 78.5q0 80 -101 101l-111 24q-172 36 -172 190q0 85 66.5 145t177.5 60q116 0 182.5 -61t68.5 -161h-100q-4 62 -44.5 97t-105.5 35h-4q-63 0 -102 -32.5t-39 -80.5q0 -41 24 -63.5
t77 -33.5l101 -21q182 -38 182 -193q0 -91 -67 -148.5t-183 -57.5zM226 -278v54h14q49 0 49 39v6h-40v101h95v-106q0 -42 -27.5 -68t-71.5 -26h-19z" />
    <glyph glyph-name="scommaaccent" unicode="&#x219;" 
d="M303 -10q-97 0 -151 45t-56 122h96q3 -43 32.5 -67t75.5 -24h9q43 0 67.5 19t24.5 52q0 26 -16 41t-55 23l-69 16q-71 16 -108 49.5t-37 93.5q0 68 53.5 109t135.5 41q93 0 143.5 -46t52.5 -121h-95q-5 40 -30.5 65.5t-67.5 25.5h-9q-40 0 -64 -20t-24 -51q0 -46 78 -64
l73 -17q133 -30 134 -140q0 -69 -51.5 -110.5t-141.5 -41.5zM223 -278v54h14q49 0 49 39v6h-40v101h95v-106q0 -42 -27.5 -68t-71.5 -26h-19z" />
    <glyph glyph-name="uni021A" unicode="&#x21a;" 
d="M250 0v610h-199v90h498v-90h-199v-610h-100zM230 -278v54h14q49 0 49 39v6h-40v101h95v-106q0 -42 -27.5 -68t-71.5 -26h-19z" />
    <glyph glyph-name="uni021B" unicode="&#x21b;" 
d="M335 0q-111 0 -111 108v314h-162v78h162v162h95v-162h183v-78h-183v-295q0 -28 9.5 -37.5t37.5 -9.5h158v-80h-189zM276 -276v54h14q49 0 49 39v6h-40v101h95v-106q0 -42 -27.5 -68t-71.5 -26h-19z" />
    <glyph glyph-name="uni0226" unicode="&#x226;" 
d="M353 882v-109h-105v109h105zM477 0l-54 180h-248l-54 -180h-100l218 700h126l215 -700h-103zM202 270h195l-98 326z" />
    <glyph glyph-name="uni0227" unicode="&#x227;" 
d="M348 687v-109h-105v109h105zM499 110q0 -75 5 -110h-88q-4 19 -6 71q-19 -35 -63 -58t-100 -23q-68 0 -114.5 41.5t-46.5 106.5q0 75 51 112.5t126 43.5l143 12v16q0 50 -28 80t-77 30h-5q-43 0 -72 -22t-33 -57h-95q6 69 61.5 113t140.5 44q94 0 147.5 -51t53.5 -134
v-215zM270 68q51 0 93.5 36t42.5 87v43l-128 -11q-42 -3 -70 -24t-28 -55q0 -33 23.5 -54.5t59.5 -21.5h7z" />
    <glyph glyph-name="uni0232" unicode="&#x232;" 
d="M455 853v-80h-303v80h303zM460 700h108l-219 -422v-278h-100v278l-217 422h110l159 -329z" />
    <glyph glyph-name="uni0233" unicode="&#x233;" 
d="M454 657v-79h-288v79h288zM558 500l-209 -470v-105q0 -107 -111 -107h-166v81h138q28 0 37.5 9.5t9.5 37.5v80l-214 474h106l153 -358l152 358h104z" />
    <glyph glyph-name="uni0237" unicode="&#x237;" 
d="M407 500v-575q0 -106 -109 -106h-211v80h178q26 0 36.5 10.5t10.5 36.5v476h-161v78h256z" />
    <glyph glyph-name="circumflex" unicode="&#x2c6;" 
d="M469 561h-69l-100 73l-100 -73h-69l114 139h110z" />
    <glyph glyph-name="caron" unicode="&#x2c7;" 
d="M131 700h69l100 -73l100 73h69l-114 -139h-110z" />
    <glyph glyph-name="breve" unicode="&#x2d8;" 
d="M300 551q-67 0 -110 40t-44 109h78q2 -37 22.5 -57.5t53.5 -20.5t53.5 20.5t22.5 57.5h78q-1 -69 -44 -109t-110 -40z" />
    <glyph glyph-name="dotaccent" unicode="&#x2d9;" 
d="M247 578v109h105v-109h-105z" />
    <glyph glyph-name="ring" unicode="&#x2da;" 
d="M300 553q-38 0 -66 27t-28 67q0 38 28.5 66t65.5 28q38 0 66 -27.5t28 -66.5q0 -40 -27.5 -67t-66.5 -27zM301 603q18 0 30.5 13t12.5 31t-12.5 31t-30.5 13t-31 -13t-13 -31t13 -31t31 -13z" />
    <glyph glyph-name="ogonek" unicode="&#x2db;" 
d="M320 -207q-52 0 -82 24.5t-30 64.5q0 41 30.5 75t78.5 55l43 -12q-84 -52 -84 -95q0 -23 15.5 -34t37.5 -11h27v-67h-36z" />
    <glyph glyph-name="tilde" unicode="&#x2dc;" 
d="M378 558q-34 0 -78 30l-13 7q-3 2 -12 8.5t-14 9t-13 5.5t-15 3q-38 0 -38 -53h-71v24q0 44 28.5 74.5t70.5 30.5q31 0 73 -25l12 -8q4 -3 13 -9t13.5 -8.5t11.5 -6.5t12.5 -5.5t11.5 -1.5q35 0 35 54h71v-24q0 -44 -28.5 -74.5t-69.5 -30.5z" />
    <glyph glyph-name="hungarumlaut" unicode="&#x2dd;" 
d="M157 561l43 139h112l-94 -139h-61zM315 561l43 139h112l-94 -139h-61z" />
    <glyph glyph-name="uni0326" unicode="&#x326;" horiz-adv-x="0" 
d="M-370 -278v54h14q49 0 49 39v6h-40v101h95v-106q0 -42 -27.5 -68t-71.5 -26h-19z" />
    <glyph glyph-name="uni0394" unicode="&#x394;" 
d="M45 0v79l194 621h126l190 -621v-79h-510zM148 90h302l-151 506z" />
    <glyph glyph-name="uni03A9" unicode="&#x3a9;" 
d="M23 0v87h120q-106 103 -106 278q0 158 69.5 251.5t193.5 93.5t193.5 -93.5t69.5 -251.5q0 -175 -106 -278h120v-87h-235v80q46 33 84 102.5t38 173.5q0 124 -43 194t-119 70h-4q-76 0 -119 -70t-43 -194q0 -104 38 -173.5t84 -102.5v-80h-235z" />
    <glyph glyph-name="uni03BC" unicode="&#x3bc;" 
d="M419 500h95v-500h-95v84q-21 -44 -62 -69t-95 -25q-42 0 -76 14v-204h-95v700h95v-308q0 -124 99 -124h9q50 0 87.5 45t37.5 113v274z" />
    <glyph glyph-name="pi" unicode="&#x3c0;" 
d="M128 0v421h-105v79h541v-79h-101v-296q0 -46 43 -46h58v-79h-91q-105 0 -105 105v316h-145v-421h-95z" />
    <glyph glyph-name="Wgrave" unicode="&#x1e80;" 
d="M325 756h-74l-93 134h120zM471 700h93l-61 -700h-117l-85 407l-95 -407h-114l-55 700h91l36 -553l87 376h101l83 -377z" />
    <glyph glyph-name="wgrave" unicode="&#x1e81;" 
d="M342 561h-61l-93 139h112zM471 500h87l-79 -500h-104l-74 303l-75 -303h-104l-79 500h88l52 -394l68 282h99l68 -283z" />
    <glyph glyph-name="Wacute" unicode="&#x1e82;" 
d="M432 890l-93 -134h-74l47 134h120zM471 700h93l-61 -700h-117l-85 407l-95 -407h-114l-55 700h91l36 -553l87 376h101l83 -377z" />
    <glyph glyph-name="wacute" unicode="&#x1e83;" 
d="M422 700l-94 -139h-61l43 139h112zM471 500h87l-79 -500h-104l-74 303l-75 -303h-104l-79 500h88l52 -394l68 282h99l68 -283z" />
    <glyph glyph-name="Wdieresis" unicode="&#x1e84;" 
d="M250 872v-99h-100v99h100zM440 872v-99h-100v99h100zM471 700h93l-61 -700h-117l-85 407l-95 -407h-114l-55 700h91l36 -553l87 376h101l83 -377z" />
    <glyph glyph-name="wdieresis" unicode="&#x1e85;" 
d="M255 682v-104h-96v104h96zM441 682v-104h-96v104h96zM471 500h87l-79 -500h-104l-74 303l-75 -303h-104l-79 500h88l52 -394l68 282h99l68 -283z" />
    <glyph glyph-name="uni1E9E" unicode="&#x1e9e;" 
d="M85 0v700h221q88 0 144 -49.5t56 -132.5q0 -52 -25.5 -92t-69.5 -62q58 -9 99.5 -56.5t41.5 -113.5q0 -89 -60 -141.5t-157 -52.5h-61v90h49q59 0 94 29t35 82t-34.5 80t-94.5 27h-49v89h15q54 0 85.5 29t31.5 79q0 49 -32 77t-86 28h-103v-610h-100z" />
    <glyph glyph-name="uni1EA0" unicode="&#x1ea0;" 
d="M580 0h-103l-54 180h-248l-54 -180h-100l218 700h126zM202 270h195l-98 326zM247 -195v109h105v-109h-105z" />
    <glyph glyph-name="uni1EA1" unicode="&#x1ea1;" 
d="M499 110q0 -75 5 -110h-88q-4 19 -6 71q-19 -35 -63 -58t-100 -23q-68 0 -114.5 41.5t-46.5 106.5q0 75 51 112.5t126 43.5l143 12v16q0 50 -28 80t-77 30h-5q-43 0 -72 -22t-33 -57h-95q6 69 61.5 113t140.5 44q94 0 147.5 -51t53.5 -134v-215zM270 68q51 0 93.5 36
t42.5 87v43l-128 -11q-42 -3 -70 -24t-28 -55q0 -33 23.5 -54.5t59.5 -21.5h7zM241 -195v109h105v-109h-105z" />
    <glyph glyph-name="uni1EB8" unicode="&#x1eb8;" 
d="M81 0v700h443v-90h-343v-205h291v-90h-291v-225h353v-90h-453zM259 -195v109h105v-109h-105z" />
    <glyph glyph-name="uni1EB9" unicode="&#x1eb9;" 
d="M522 272q0 -7 -0.5 -21.5t-0.5 -22.5h-350q1 -74 40 -117t97 -43h6q41 0 71 21.5t41 60.5h94q-17 -75 -73 -117.5t-139 -42.5q-98 0 -164 69.5t-66 191.5q0 119 65 189t166 70q99 0 156 -67t57 -171zM302 432q-48 0 -85 -32t-45 -97h257q-2 55 -34 92t-85 37h-8z
M257 -195v109h105v-109h-105z" />
    <glyph glyph-name="uni1ECA" unicode="&#x1eca;" 
d="M494 617h-144v-534h144v-83h-388v83h144v534h-144v83h388v-83zM248 -195v109h105v-109h-105z" />
    <glyph glyph-name="uni1ECB" unicode="&#x1ecb;" 
d="M379 695v-123h-116v123h116zM369 78h177v-78h-454v78h182v344h-162v78h257v-422zM271 -195v109h105v-109h-105z" />
    <glyph glyph-name="uni1ECC" unicode="&#x1ecc;" 
d="M300 -10q-123 0 -190.5 96t-67.5 264t67.5 264t190.5 96t190.5 -96t67.5 -264t-67.5 -264t-190.5 -96zM298 80h4q76 0 116 71t40 199t-40 199t-116 71h-4q-76 0 -116 -71t-40 -199t40 -199t116 -71zM249 -195v109h105v-109h-105z" />
    <glyph glyph-name="uni1ECD" unicode="&#x1ecd;" 
d="M300 -10q-105 0 -173 73t-68 187t68 187t173 73t173 -73t68 -187t-68 -187t-173 -73zM295 68h10q61 0 100.5 49t39.5 133t-39.5 133t-100.5 49h-10q-61 0 -100.5 -49t-39.5 -133t39.5 -133t100.5 -49zM242 -195v109h105v-109h-105z" />
    <glyph glyph-name="uni1EE4" unicode="&#x1ee4;" 
d="M300 -10q-113 0 -175.5 65t-62.5 180v465h100v-451q0 -169 136 -169h4q136 0 136 169v451h100v-465q0 -115 -62.5 -180t-175.5 -65zM247 -195v109h105v-109h-105z" />
    <glyph glyph-name="uni1EE5" unicode="&#x1ee5;" 
d="M414 500h95v-500h-95v84q-21 -44 -62 -69t-95 -25q-83 0 -127 50.5t-44 134.5v325h95v-308q0 -124 99 -124h9q50 0 87.5 45t37.5 113v274zM250 -195v109h105v-109h-105z" />
    <glyph glyph-name="Ygrave" unicode="&#x1ef2;" 
d="M330 756h-74l-93 134h120zM460 700h108l-219 -422v-278h-100v278l-217 422h110l159 -329z" />
    <glyph glyph-name="ygrave" unicode="&#x1ef3;" 
d="M347 561h-61l-93 139h112zM558 500l-209 -470v-105q0 -107 -111 -107h-166v81h138q28 0 37.5 9.5t9.5 37.5v80l-214 474h106l153 -358l152 358h104z" />
    <glyph glyph-name="uni2002" unicode="&#x2002;" 
 />
    <glyph glyph-name="uni2003" unicode="&#x2003;" 
 />
    <glyph glyph-name="uni2009" unicode="&#x2009;" horiz-adv-x="300" 
 />
    <glyph glyph-name="endash" unicode="&#x2013;" 
d="M105 263v79h390v-79h-390z" />
    <glyph glyph-name="emdash" unicode="&#x2014;" 
d="M20 263v79h560v-79h-560z" />
    <glyph glyph-name="quoteleft" unicode="&#x2018;" 
d="M393 700v-56h-33q-61 0 -61 -62v-13h65v-126h-126v144q0 49 31.5 81t82.5 32h41z" />
    <glyph glyph-name="quoteright" unicode="&#x2019;" 
d="M207 443v56h33q61 0 61 62v13h-65v126h126v-144q0 -49 -31.5 -81t-82.5 -32h-41z" />
    <glyph glyph-name="quotesinglbase" unicode="&#x201a;" 
d="M212 -131v56h33q61 0 61 62v13h-65v126h126v-144q0 -49 -31.5 -81t-82.5 -32h-41z" />
    <glyph glyph-name="quotedblleft" unicode="&#x201c;" 
d="M283 716v-56h-33q-61 0 -61 -62v-13h65v-126h-126v144q0 49 31.5 81t82.5 32h41zM488 716v-56h-33q-61 0 -61 -62v-13h65v-126h-126v144q0 49 31.5 81t82.5 32h41z" />
    <glyph glyph-name="quotedblright" unicode="&#x201d;" 
d="M112 443v56h33q61 0 61 62v13h-65v126h126v-144q0 -49 -31.5 -81t-82.5 -32h-41zM317 443v56h33q61 0 61 62v13h-65v126h126v-144q0 -49 -31.5 -81t-82.5 -32h-41z" />
    <glyph glyph-name="quotedblbase" unicode="&#x201e;" 
d="M112 -131v56h33q61 0 61 62v13h-65v126h126v-144q0 -49 -31.5 -81t-82.5 -32h-41zM317 -131v56h33q61 0 61 62v13h-65v126h126v-144q0 -49 -31.5 -81t-82.5 -32h-41z" />
    <glyph glyph-name="dagger" unicode="&#x2020;" 
d="M252 -85v551h-168v80h168v239h95v-239h169v-80h-169v-551h-95z" />
    <glyph glyph-name="daggerdbl" unicode="&#x2021;" 
d="M516 466h-169v-232h169v-80h-169v-239h-95v239h-168v80h168v232h-168v80h168v239h95v-239h169v-80z" />
    <glyph glyph-name="bullet" unicode="&#x2022;" 
d="M300 164q-76 0 -131 55t-55 131t55 131t131 55t131 -55t55 -131t-55 -131t-131 -55z" />
    <glyph glyph-name="ellipsis" unicode="&#x2026;" 
d="M42 0v126h126v-126h-126zM237 0v126h126v-126h-126zM432 0v126h126v-126h-126z" />
    <glyph glyph-name="perthousand" unicode="&#x2030;" 
d="M137 400q-62 0 -95.5 43.5t-33.5 108.5t33.5 108.5t95.5 43.5q63 0 96.5 -43.5t33.5 -108.5t-33.5 -108.5t-96.5 -43.5zM136 642q-27 0 -41.5 -25t-14.5 -65t14.5 -65.5t41.5 -25.5h3q27 0 41.5 25.5t14.5 65.5t-14.5 65t-41.5 25h-3zM377 467v-66l-339 -168v66zM462 300
q63 0 96.5 -43.5t33.5 -108.5t-33.5 -108.5t-96.5 -43.5q-58 0 -94 41q-34 -41 -94 -41q-62 0 -95.5 43.5t-33.5 108.5t33.5 108.5t95.5 43.5q60 0 94 -41q36 41 94 41zM276 57q27 0 41.5 25.5t14.5 65.5t-14.5 65t-41.5 25h-3q-27 0 -41.5 -25t-14.5 -65t14.5 -65.5
t41.5 -25.5h3zM464 57q27 0 41.5 25.5t14.5 65.5t-14.5 65t-41.5 25h-3q-27 0 -41.5 -25t-14.5 -65t14.5 -65.5t41.5 -25.5h3z" />
    <glyph glyph-name="guilsinglleft" unicode="&#x2039;" 
d="M276 286l146 -216h-110l-145 215l145 215h109z" />
    <glyph glyph-name="guilsinglright" unicode="&#x203a;" 
d="M290 500l145 -215l-145 -215h-109l145 214l-146 216h110z" />
    <glyph glyph-name="fraction" unicode="&#x2044;" 
d="M49 0l420 700h81l-420 -700h-81z" />
    <glyph glyph-name="uni2070" unicode="&#x2070;" 
d="M300 815q80 0 124 -57t44 -146t-44 -145.5t-124 -56.5t-124 56.5t-44 145.5t44 146t124 57zM298 746q-40 0 -61.5 -38t-21.5 -96q0 -26 4 -45l139 150q-23 29 -56 29h-4zM302 479q40 0 61.5 37.5t21.5 95.5q0 25 -5 50l-140 -151q22 -32 58 -32h4z" />
    <glyph glyph-name="uni2074" unicode="&#x2074;" 
d="M331 415v80h-191v81l177 234h88v-249h54v-66h-54v-80h-74zM214 561h117v158z" />
    <glyph glyph-name="uni2075" unicode="&#x2075;" 
d="M299 410q-62 0 -102 31t-44 86h84q4 -23 21.5 -36t41.5 -13h4q26 0 43.5 18.5t17.5 46.5t-16.5 44t-43.5 16h-3q-36 0 -56 -26h-78l44 233h229v-68h-169l-20 -98q28 26 73 26q51 0 86.5 -34t35.5 -89q0 -62 -42 -99.5t-106 -37.5z" />
    <glyph glyph-name="uni2076" unicode="&#x2076;" 
d="M301 410q-71 0 -113 50t-42 137q0 100 48 159t125 59q62 0 98 -33.5t37 -80.5h-80q-9 46 -57 46h-6q-35 0 -60.5 -33t-29.5 -86q30 48 100 48q54 0 90.5 -35t36.5 -91q0 -61 -40.5 -100.5t-106.5 -39.5zM298 478h4q28 0 46.5 19t18.5 48q0 28 -18 46.5t-46 18.5h-3
q-28 0 -46.5 -18.5t-18.5 -47.5t17.5 -47.5t45.5 -18.5z" />
    <glyph glyph-name="uni2077" unicode="&#x2077;" 
d="M226 415v25q0 189 130 302h-197v68h281v-65q-129 -120 -129 -302v-28h-85z" />
    <glyph glyph-name="uni2078" unicode="&#x2078;" 
d="M298 410q-60 0 -99.5 29t-39.5 78q0 32 18 56t49 36q-73 30 -73 97q0 49 41.5 79t104.5 30q64 0 105.5 -30t41.5 -79q0 -68 -74 -97q30 -12 48 -36t18 -56q0 -49 -40 -78t-100 -29zM296 644h5q26 0 45 13.5t19 37.5q0 25 -18 38.5t-45 13.5h-5q-27 0 -45 -13.5t-18 -38.5
q0 -24 18 -37.5t44 -13.5zM296 478h5q24 0 39.5 13.5t15.5 37.5q0 22 -16 36.5t-39 14.5h-5q-23 0 -39.5 -14.5t-16.5 -36.5q0 -24 16 -37.5t40 -13.5z" />
    <glyph glyph-name="uni2079" unicode="&#x2079;" 
d="M299 815q71 0 113 -50t42 -137q0 -100 -48 -159t-125 -59q-62 0 -98 33.5t-37 80.5h80q9 -46 57 -46h6q35 0 60.5 33t29.5 86q-30 -48 -100 -48q-54 0 -90.5 35t-36.5 91q0 61 40.5 100.5t106.5 39.5zM302 747h-4q-28 0 -46.5 -19t-18.5 -48q0 -28 18 -46.5t46 -18.5h3
q28 0 46.5 18.5t18.5 47.5t-17.5 47.5t-45.5 18.5z" />
    <glyph glyph-name="Euro" unicode="&#x20ac;" 
d="M341 78q56 0 88 35t40 99h98q-11 -104 -70.5 -163t-160.5 -59q-178 0 -231 190l-81 -18v83l66 15q-3 22 -5 71l-61 -14v83l63 14q12 143 75.5 219.5t174.5 76.5q100 0 159 -58.5t71 -163.5h-98q-8 64 -40 99t-88 35h-9q-123 0 -145 -185l179 40v-83l-184 -41v-3
q0 -38 3 -69l139 31v-83l-126 -28q34 -123 134 -123h9z" />
    <glyph glyph-name="uni20BF" unicode="&#x20bf;" 
d="M422 355q54 -11 92 -54t38 -111q0 -85 -57.5 -137.5t-152.5 -52.5h-70l-20 -120h-86l20 120h-100v700h217l21 120h86l-21 -125q70 -13 109 -60.5t39 -116.5q0 -62 -31.5 -104.5t-83.5 -58.5zM186 610v-211h134q54 0 85.5 27.5t31.5 78.5q0 105 -117 105h-134zM324 90
q128 0 128 111q0 53 -34 81t-93 28h-139v-220h138z" />
    <glyph glyph-name="uni2105" unicode="&#x2105;" 
d="M146 410q-64 0 -102.5 37t-38.5 108t39.5 110.5t102.5 39.5q56 0 90 -29.5t38 -75.5h-78q-2 20 -15.5 32t-34.5 12h-4q-31 0 -45.5 -25.5t-14.5 -63.5q0 -84 60 -84h4q42 0 50 43h77q-5 -47 -38.5 -75.5t-89.5 -28.5zM49 0l420 700h81l-420 -700h-81zM453 -10
q-65 0 -103.5 40.5t-38.5 106.5t38.5 107t103.5 41t103.5 -41t38.5 -107t-38.5 -106.5t-103.5 -40.5zM454 51q31 0 47 23.5t16 62.5q0 40 -17 63.5t-47 23.5q-31 0 -47.5 -24t-16.5 -63t17.5 -62.5t47.5 -23.5z" />
    <glyph glyph-name="uni2113" unicode="&#x2113;" 
d="M291 137q0 -28 11 -38.5t38 -10.5h88v-88h-134q-99 0 -99 105v90l-75 -46v101l75 45v245q0 82 38 126t107 44q74 0 112.5 -53t38.5 -129t-40 -139t-105 -102l-55 -34v-116zM291 553v-202l11 7q92 55 92 164q0 100 -55 100q-48 0 -48 -69z" />
    <glyph glyph-name="uni2116" unicode="&#x2116;" horiz-adv-x="1200" 
d="M951 411q-65 0 -103 40.5t-38 106.5q0 65 38.5 106.5t102.5 41.5q65 0 103.5 -41t38.5 -107t-38.5 -106.5t-103.5 -40.5zM608 145v556h100v-700h-126l-346 561v-561h-100v700h129zM951 644q-30 0 -46.5 -23.5t-16.5 -62.5q0 -40 17 -63t47 -23q63 0 63 86q0 40 -17 63
t-47 23zM817 289v62h273v-62h-273z" />
    <glyph glyph-name="uni2117" unicode="&#x2117;" 
d="M302 50q-124 0 -212 88t-88 212t88 212t212 88t212 -88t88 -212t-88 -212t-212 -88zM302 111q99 0 168 70t69 169t-69 169.5t-168 70.5t-168 -70.5t-69 -169.5t69 -169t168 -70zM200 191v327h141q53 0 84 -27.5t31 -77.5q0 -49 -31.5 -76t-83.5 -27h-71v-119h-70z
M270 367h62q54 0 54 47q0 46 -55 46h-61v-93z" />
    <glyph glyph-name="trademark" unicode="&#x2122;" 
d="M16 636v64h221v-64h-74v-316h-72v316h-75zM466 700h96v-380h-65v300l-48 -197h-66l-48 193v-296h-66v380h98l50 -205z" />
    <glyph glyph-name="uni2126" unicode="&#x2126;" 
d="M23 0v87h120q-106 103 -106 278q0 158 69.5 251.5t193.5 93.5t193.5 -93.5t69.5 -251.5q0 -175 -106 -278h120v-87h-235v80q46 33 84 102.5t38 173.5q0 124 -43 194t-119 70h-4q-76 0 -119 -70t-43 -194q0 -104 38 -173.5t84 -102.5v-80h-235z" />
    <glyph glyph-name="uni2153" unicode="&#x2153;" 
d="M117 404v203l-83 -69v82l95 80h58v-296h-70zM49 0l420 700h81l-420 -700h-81zM454 -4q-46 0 -78 23.5t-32 64.5h72q1 -13 11.5 -21.5t25.5 -8.5h3q18 0 29.5 9.5t11.5 24.5t-10 23.5t-27 8.5h-28v58h28q16 0 25.5 9t9.5 23t-10.5 22.5t-26.5 8.5h-3q-32 0 -35 -28h-71
q0 41 31 64t78 23t77.5 -22.5t30.5 -61.5q0 -49 -44 -66q47 -24 47 -71q0 -39 -33 -61t-82 -22z" />
    <glyph glyph-name="uni2154" unicode="&#x2154;" 
d="M6 404v63l106 96q38 33 38 51q-2 30 -35 30h-3q-15 0 -25 -10t-11 -26h-71q2 44 34 70t79 26q45 0 74.5 -25.5t29.5 -60.5q0 -19 -9 -36t-18 -26.5t-28 -26.5l-72 -63h129v-62h-218zM49 0l420 700h81l-420 -700h-81zM454 -4q-46 0 -78 23.5t-32 64.5h72q1 -13 11.5 -21.5
t25.5 -8.5h3q18 0 29.5 9.5t11.5 24.5t-10 23.5t-27 8.5h-28v58h28q16 0 25.5 9t9.5 23t-10.5 22.5t-26.5 8.5h-3q-32 0 -35 -28h-71q0 41 31 64t78 23t77.5 -22.5t30.5 -61.5q0 -49 -44 -66q47 -24 47 -71q0 -39 -33 -61t-82 -22z" />
    <glyph glyph-name="uni2155" unicode="&#x2155;" 
d="M117 404v203l-83 -69v82l95 80h58v-296h-70zM49 0l420 700h81l-420 -700h-81zM452 -4q-46 0 -78.5 24.5t-36.5 65.5h75q5 -31 41 -31h3q18 0 30 12t12 29t-11.5 27.5t-28.5 10.5h-3q-19 0 -34 -15h-71l33 177h182v-59h-130l-13 -64q22 19 57 19q36 0 62.5 -25t26.5 -67
q0 -47 -33 -75.5t-83 -28.5z" />
    <glyph glyph-name="uni2156" unicode="&#x2156;" 
d="M33 404v63l106 96q38 33 38 51q-2 30 -35 30h-3q-15 0 -25 -10t-11 -26h-71q2 44 34 70t79 26q45 0 74.5 -25.5t29.5 -60.5q0 -19 -9 -36t-18 -26.5t-28 -26.5l-72 -63h129v-62h-218zM49 0l420 700h81l-420 -700h-81zM452 -4q-46 0 -78.5 24.5t-36.5 65.5h75
q5 -31 41 -31h3q18 0 30 12t12 29t-11.5 27.5t-28.5 10.5h-3q-19 0 -34 -15h-71l33 177h182v-59h-130l-13 -64q22 19 57 19q36 0 62.5 -25t26.5 -67q0 -47 -33 -75.5t-83 -28.5z" />
    <glyph glyph-name="uni2157" unicode="&#x2157;" 
d="M141 400q-46 0 -78 23.5t-32 64.5h72q1 -13 11.5 -21.5t25.5 -8.5h3q18 0 29.5 9.5t11.5 24.5t-10 23.5t-27 8.5h-28v58h28q16 0 25.5 9t9.5 23t-10.5 22.5t-26.5 8.5h-3q-32 0 -35 -28h-71q0 41 31 64t78 23t77.5 -22.5t30.5 -61.5q0 -49 -44 -66q47 -24 47 -71
q0 -39 -33 -61t-82 -22zM49 0l420 700h81l-420 -700h-81zM452 -4q-46 0 -78.5 24.5t-36.5 65.5h75q5 -31 41 -31h3q18 0 30 12t12 29t-11.5 27.5t-28.5 10.5h-3q-19 0 -34 -15h-71l33 177h182v-59h-130l-13 -64q22 19 57 19q36 0 62.5 -25t26.5 -67q0 -47 -33 -75.5
t-83 -28.5z" />
    <glyph glyph-name="uni2158" unicode="&#x2158;" 
d="M149 404v53h-144v69l133 174h77v-185h41v-58h-41v-53h-66zM49 0l420 700h81l-420 -700h-81zM68 515h81v108zM452 -4q-46 0 -78.5 24.5t-36.5 65.5h75q5 -31 41 -31h3q18 0 30 12t12 29t-11.5 27.5t-28.5 10.5h-3q-19 0 -34 -15h-71l33 177h182v-59h-130l-13 -64
q22 19 57 19q36 0 62.5 -25t26.5 -67q0 -47 -33 -75.5t-83 -28.5z" />
    <glyph glyph-name="uni2159" unicode="&#x2159;" 
d="M117 404v203l-83 -69v82l95 80h58v-296h-70zM49 0l420 700h81l-420 -700h-81zM469 -4q-55 0 -88 37.5t-33 102.5q0 76 38 120t100 44q47 0 73.5 -25t27.5 -62h-69q-5 27 -36 27h-3q-25 0 -43 -22.5t-22 -56.5q24 34 72 34q42 0 69.5 -26.5t27.5 -69.5q0 -44 -31.5 -73.5
t-82.5 -29.5zM467 56h2q19 0 31 11.5t12 29.5q0 17 -11.5 28.5t-30.5 11.5h-2q-18 0 -30.5 -11.5t-12.5 -28.5q0 -18 12 -29.5t30 -11.5z" />
    <glyph glyph-name="uni215A" unicode="&#x215a;" 
d="M113 400q-46 0 -78.5 24.5t-36.5 65.5h75q5 -31 41 -31h3q18 0 30 12t12 29t-11.5 27.5t-28.5 10.5h-3q-19 0 -34 -15h-71l33 177h182v-59h-130l-13 -64q22 19 57 19q36 0 62.5 -25t26.5 -67q0 -47 -33 -75.5t-83 -28.5zM49 0l420 700h81l-420 -700h-81zM469 -4
q-55 0 -88 37.5t-33 102.5q0 76 38 120t100 44q47 0 73.5 -25t27.5 -62h-69q-5 27 -36 27h-3q-25 0 -43 -22.5t-22 -56.5q24 34 72 34q42 0 69.5 -26.5t27.5 -69.5q0 -44 -31.5 -73.5t-82.5 -29.5zM467 56h2q19 0 31 11.5t12 29.5q0 17 -11.5 28.5t-30.5 11.5h-2
q-18 0 -30.5 -11.5t-12.5 -28.5q0 -18 12 -29.5t30 -11.5z" />
    <glyph glyph-name="oneeighth" unicode="&#x215b;" 
d="M117 404v203l-83 -69v82l95 80h58v-296h-70zM49 0l420 700h81l-420 -700h-81zM473 -4q-47 0 -78 22t-31 59q0 51 54 68q-58 23 -58 73q0 37 32.5 59.5t80.5 22.5q49 0 81.5 -22.5t32.5 -59.5q0 -48 -56 -73q23 -8 37 -26t14 -42q0 -37 -31 -59t-78 -22zM472 177h3
q18 0 30.5 8.5t12.5 24.5q0 15 -12.5 23t-30.5 8h-3q-19 0 -31.5 -8t-12.5 -23q0 -16 13 -24.5t31 -8.5zM472 55h3q16 0 27 8.5t11 22.5q0 15 -11 24t-27 9h-3q-16 0 -27 -9t-11 -24q0 -14 11 -22.5t27 -8.5z" />
    <glyph glyph-name="threeeighths" unicode="&#x215c;" 
d="M144 400q-46 0 -78 23.5t-32 64.5h72q1 -13 11.5 -21.5t25.5 -8.5h3q18 0 29.5 9.5t11.5 24.5t-10 23.5t-27 8.5h-28v58h28q16 0 25.5 9t9.5 23t-10.5 22.5t-26.5 8.5h-3q-32 0 -35 -28h-71q0 41 31 64t78 23t77.5 -22.5t30.5 -61.5q0 -49 -44 -66q47 -24 47 -71
q0 -39 -33 -61t-82 -22zM50 0l420 700h81l-420 -700h-81zM473 -4q-47 0 -78 22t-31 59q0 51 54 68q-58 23 -58 73q0 37 32.5 59.5t80.5 22.5q49 0 81.5 -22.5t32.5 -59.5q0 -48 -56 -73q23 -8 37 -26t14 -42q0 -37 -31 -59t-78 -22zM472 177h3q18 0 30.5 8.5t12.5 24.5
q0 15 -12.5 23t-30.5 8h-3q-19 0 -31.5 -8t-12.5 -23q0 -16 13 -24.5t31 -8.5zM472 55h3q16 0 27 8.5t11 22.5q0 15 -11 24t-27 9h-3q-16 0 -27 -9t-11 -24q0 -14 11 -22.5t27 -8.5z" />
    <glyph glyph-name="fiveeighths" unicode="&#x215d;" 
d="M123 400q-46 0 -78.5 24.5t-36.5 65.5h75q5 -31 41 -31h3q18 0 30 12t12 29t-11.5 27.5t-28.5 10.5h-3q-19 0 -34 -15h-71l33 177h182v-59h-130l-13 -64q22 19 57 19q36 0 62.5 -25t26.5 -67q0 -47 -33 -75.5t-83 -28.5zM49 0l420 700h81l-420 -700h-81zM473 -4
q-47 0 -78 22t-31 59q0 51 54 68q-58 23 -58 73q0 37 32.5 59.5t80.5 22.5q49 0 81.5 -22.5t32.5 -59.5q0 -48 -56 -73q23 -8 37 -26t14 -42q0 -37 -31 -59t-78 -22zM472 177h3q18 0 30.5 8.5t12.5 24.5q0 15 -12.5 23t-30.5 8h-3q-19 0 -31.5 -8t-12.5 -23q0 -16 13 -24.5
t31 -8.5zM472 55h3q16 0 27 8.5t11 22.5q0 15 -11 24t-27 9h-3q-16 0 -27 -9t-11 -24q0 -14 11 -22.5t27 -8.5z" />
    <glyph glyph-name="seveneighths" unicode="&#x215e;" 
d="M97 404v16q0 130 93 219h-142v61h218v-56q-95 -90 -95 -221v-19h-74zM49 0l420 700h81l-420 -700h-81zM473 -4q-47 0 -78 22t-31 59q0 51 54 68q-58 23 -58 73q0 37 32.5 59.5t80.5 22.5q49 0 81.5 -22.5t32.5 -59.5q0 -48 -56 -73q23 -8 37 -26t14 -42q0 -37 -31 -59
t-78 -22zM472 177h3q18 0 30.5 8.5t12.5 24.5q0 15 -12.5 23t-30.5 8h-3q-19 0 -31.5 -8t-12.5 -23q0 -16 13 -24.5t31 -8.5zM472 55h3q16 0 27 8.5t11 22.5q0 15 -11 24t-27 9h-3q-16 0 -27 -9t-11 -24q0 -14 11 -22.5t27 -8.5z" />
    <glyph glyph-name="uni215F" unicode="&#x215f;" 
d="M49 0l420 700h81l-420 -700h-81zM147 434v182l-74 -62v74l85 72h52v-266h-63z" />
    <glyph glyph-name="uni2160" unicode="&#x2160;" 
d="M109 0v78h144v544h-144v78h383v-78h-144v-544h144v-78h-383z" />
    <glyph glyph-name="uni2161" unicode="&#x2161;" 
d="M29 0v78h111v544h-111v78h543v-78h-111v-544h111v-78h-543zM235 78h131v544h-131v-544z" />
    <glyph glyph-name="uni2162" unicode="&#x2162;" 
d="M17 0v78h69v544h-69v78h567v-78h-69v-544h69v-78h-567zM179 78h75v544h-75v-544zM347 78h75v544h-75v-544z" />
    <glyph glyph-name="uni2163" unicode="&#x2163;" horiz-adv-x="1200" 
d="M127 0v78h144v544h-144v78h553v-78h-110l177 -514l167 514h-108v78h299v-78h-96l-179 -544h154v-78h-857zM366 78h299l-189 544h-110v-544z" />
    <glyph glyph-name="uni2164" unicode="&#x2164;" 
d="M590 622h-79l-132 -544h128v-78h-413v78h128l-132 544h-79v78h251v-78h-77l116 -505l115 505h-77v78h251v-78z" />
    <glyph glyph-name="uni2165" unicode="&#x2165;" horiz-adv-x="1200" 
d="M206 0v78h154l-179 544h-96v78h300v-78h-109l168 -514l177 514h-110v78h553v-78h-144v-544h144v-78h-858zM525 78h300v544h-111z" />
    <glyph glyph-name="uni2166" unicode="&#x2166;" horiz-adv-x="1200" 
d="M1145 622h-119v-544h119v-78h-1011v78h143l-155 544h-89v78h273v-78h-89l143 -504l148 504h-90v78h727v-78zM696 78v544h-94l-161 -544h255zM931 78v544h-140v-544h140z" />
    <glyph glyph-name="uni2167" unicode="&#x2167;" horiz-adv-x="1200" 
d="M1137 622h-74v-544h74v-78h-1022v78h129l-133 544h-79v78h251v-78h-78l118 -505l116 505h-78v78h776v-78zM616 78v544h-83l-133 -544h216zM793 78v544h-84v-544h84zM970 78v544h-84v-544h84z" />
    <glyph glyph-name="uni2168" unicode="&#x2168;" horiz-adv-x="1200" 
d="M99 0v78h153v544h-153v78h996v-78h-99l-191 -268l198 -276h102v-78h-1006zM347 78h154l198 275l-193 269h-159v-544zM753 426l139 196h-279zM606 78h290l-145 204z" />
    <glyph glyph-name="uni2169" unicode="&#x2169;" 
d="M508 78h78v-78h-568v78h83l156 279l-148 265h-81v78h548v-78h-76l-148 -265zM204 622l101 -180l100 180h-201zM305 272l-109 -194h217z" />
    <glyph glyph-name="uni216C" unicode="&#x216c;" 
d="M37 0v78h99v544h-99v78h312v-78h-118v-544h236v170h95v-248h-525z" />
    <glyph glyph-name="uni216D" unicode="&#x216d;" 
d="M304 -10q-136 0 -207 97t-71 263t71 263t207 97q114 0 163 -78v68h92v-222h-90q-33 154 -154 154h-5q-98 0 -143.5 -76.5t-45.5 -205.5t45.5 -205.5t143.5 -76.5h5q63 0 102 40.5t52 113.5h90v-222h-92v63q-50 -73 -163 -73z" />
    <glyph glyph-name="uni216E" unicode="&#x216e;" 
d="M14 0v78h84v544h-84v78h253q144 0 220.5 -92t76.5 -256q0 -169 -76 -260.5t-219 -91.5h-255zM193 78h57q112 0 165.5 67.5t53.5 205.5q0 271 -214 271h-62v-544z" />
    <glyph glyph-name="uni216F" unicode="&#x216f;" 
d="M579 622h-66v-544h66v-78h-225v78h71v448l-82 -326h-85l-83 326v-448h71v-78h-225v78h66v544h-66v78h185l94 -377l94 377h185v-78z" />
    <glyph glyph-name="arrowleft" unicode="&#x2190;" 
d="M271 110l-240 240l240 240l64 -65l-132 -130h348v-90h-348l132 -130z" />
    <glyph glyph-name="arrowup" unicode="&#x2191;" 
d="M60 379l240 240l240 -240l-65 -64l-130 132v-348h-90v348l-130 -132z" />
    <glyph glyph-name="arrowright" unicode="&#x2192;" 
d="M329 590l240 -240l-240 -240l-64 65l132 130h-348v90h348l-132 130z" />
    <glyph glyph-name="arrowdown" unicode="&#x2193;" 
d="M540 332l-240 -240l-240 240l65 64l130 -132v348h90v-348l130 132z" />
    <glyph glyph-name="uni2196" unicode="&#x2196;" 
d="M456 173l-251 250v-192h-92v347h349v-91h-194l251 -250z" />
    <glyph glyph-name="uni2197" unicode="&#x2197;" 
d="M144 173l-63 64l251 250h-194v91h349v-347h-92v192z" />
    <glyph glyph-name="uni2198" unicode="&#x2198;" 
d="M144 527l251 -250v192h92v-347h-349v91h194l-251 250z" />
    <glyph glyph-name="uni2199" unicode="&#x2199;" 
d="M456 527l63 -64l-251 -250h194v-91h-349v347h92v-192z" />
    <glyph glyph-name="uni21A4" unicode="&#x21a4;" 
d="M450 561h96v-422h-96v166h-253l132 -130l-64 -65l-240 240l240 240l64 -65l-132 -130h253v166z" />
    <glyph glyph-name="uni21A5" unicode="&#x21a5;" 
d="M345 443v-253h166v-96h-422v96h166v253l-130 -132l-65 64l240 240l240 -240l-65 -64z" />
    <glyph glyph-name="uni21A6" unicode="&#x21a6;" 
d="M330 590l240 -240l-240 -240l-64 65l132 130h-253v-166h-96v422h96v-166h253l-132 130z" />
    <glyph glyph-name="uni21A7" unicode="&#x21a7;" 
d="M475 369l65 -64l-240 -240l-240 240l65 64l130 -132v253h-166v96h422v-96h-166v-253z" />
    <glyph glyph-name="uni21B0" unicode="&#x21b0;" 
d="M196 395h348v-395h-97v305h-251l132 -130l-64 -65l-240 240l240 240l64 -65z" />
    <glyph glyph-name="uni21B1" unicode="&#x21b1;" 
d="M336 590l240 -240l-240 -240l-64 65l132 130h-251v-305h-97v395h348l-132 130z" />
    <glyph glyph-name="uni21B2" unicode="&#x21b2;" 
d="M447 700h97v-395h-348l132 -130l-64 -65l-240 240l240 240l64 -65l-132 -130h251v305z" />
    <glyph glyph-name="uni21B3" unicode="&#x21b3;" 
d="M336 590l240 -240l-240 -240l-64 65l132 130h-348v395h97v-305h251l-132 130z" />
    <glyph glyph-name="partialdiff" unicode="&#x2202;" 
d="M237 710q147 0 223.5 -113.5t76.5 -294.5q0 -153 -65 -232.5t-174 -79.5q-108 0 -172 68.5t-64 182.5q0 106 63 175t158 69q99 0 146 -62q-9 100 -66.5 149.5t-133.5 49.5q-56 0 -102 -16v88q46 16 110 16zM301 80q59 0 99 41t40 119q0 76 -39 118t-100 42h-10
q-59 0 -95 -41t-36 -118q0 -78 38.5 -119.5t97.5 -41.5h5z" />
    <glyph glyph-name="uni2206" unicode="&#x2206;" 
d="M45 0v79l194 621h126l190 -621v-79h-510zM148 90h302l-151 506z" />
    <glyph glyph-name="product" unicode="&#x220f;" 
d="M119 0v612h-101v88h564v-88h-100v-612h-97v612h-168v-612h-98z" />
    <glyph glyph-name="summation" unicode="&#x2211;" 
d="M524 700v-87h-325l194 -263l-195 -263h326v-87h-443v82l196 268l-196 272v78h443z" />
    <glyph glyph-name="minus" unicode="&#x2212;" 
d="M53 213v89h494v-89h-494z" />
    <glyph glyph-name="uni2215" unicode="&#x2215;" 
d="M115 0l270 700h100l-267 -700h-103z" />
    <glyph glyph-name="uni2219" unicode="&#x2219;" 
d="M300 164q-76 0 -131 55t-55 131t55 131t131 55t131 -55t55 -131t-55 -131t-131 -55z" />
    <glyph glyph-name="radical" unicode="&#x221a;" 
d="M579 700v-83h-168l-120 -617h-121l-136 500h97l97 -386l113 586h238z" />
    <glyph glyph-name="infinity" unicode="&#x221e;" 
d="M147 175q-60 0 -100 37.5t-40 97.5t40 97.5t100 37.5q94 0 153 -83q59 83 153 83q60 0 100 -37.5t40 -97.5t-40 -97.5t-100 -37.5q-94 0 -153 83q-59 -83 -153 -83zM151 247h4q53 0 100 63q-47 63 -100 63h-4q-29 0 -48.5 -17t-19.5 -46t19.5 -46t48.5 -17zM445 247h4
q29 0 48.5 17t19.5 46t-19.5 46t-48.5 17h-4q-53 0 -100 -63q47 -63 100 -63z" />
    <glyph glyph-name="integral" unicode="&#x222b;" 
d="M109 -100v88h43q54 0 75.5 23t21.5 79v425q0 97 46 141t137 44h55v-88h-44q-54 0 -75 -23t-21 -79v-425q0 -97 -46 -141t-138 -44h-54z" />
    <glyph glyph-name="approxequal" unicode="&#x2248;" 
d="M414 278q-38 0 -114.5 33t-92.5 33q-53 0 -53 -56h-95v32q0 51 36 85t92 34q41 0 115.5 -33t90.5 -33q53 0 53 53h95v-32q0 -51 -35 -83.5t-92 -32.5zM414 75q-38 0 -114.5 33t-92.5 33q-53 0 -53 -56h-95v32q0 51 36 85t92 34q41 0 115.5 -33t90.5 -33q53 0 53 53h95
v-32q0 -51 -35 -83.5t-92 -32.5z" />
    <glyph glyph-name="notequal" unicode="&#x2260;" 
d="M553 308h-189l-32 -101h221v-89h-248l-32 -103h-95l32 103h-151v89h178l32 101h-210v89h237l32 103h95l-32 -103h162v-89z" />
    <glyph glyph-name="lessequal" unicode="&#x2264;" 
d="M547 517v-97l-381 -95l381 -96v-99l-494 136v115zM53 13v89h494v-89h-494z" />
    <glyph glyph-name="greaterequal" unicode="&#x2265;" 
d="M53 517l494 -136v-115l-494 -136v97l383 96l-383 95v99zM53 13v89h494v-89h-494z" />
    <glyph glyph-name="uni2460" unicode="&#x2460;" 
d="M300 50q-124 0 -212 88t-88 212t88 212t212 88t212 -88t88 -212t-88 -212t-212 -88zM300 111q99 0 168 70t69 169t-69 169.5t-168 70.5t-168 -70.5t-69 -169.5t69 -169t168 -70zM284 204v203l-83 -69v82l95 80h58v-296h-70z" />
    <glyph glyph-name="uni2461" unicode="&#x2461;" 
d="M300 50q-124 0 -212 88t-88 212t88 212t212 88t212 -88t88 -212t-88 -212t-212 -88zM300 111q99 0 168 70t69 169t-69 169.5t-168 70.5t-168 -70.5t-69 -169.5t69 -169t168 -70zM192 204v63l106 96q38 33 38 51q-2 30 -35 30h-3q-15 0 -25 -10t-11 -26h-71q2 44 34 70
t79 26q45 0 74.5 -25.5t29.5 -60.5q0 -19 -9 -36t-18 -26.5t-28 -26.5l-72 -63h129v-62h-218z" />
    <glyph glyph-name="uni2462" unicode="&#x2462;" 
d="M300 50q-124 0 -212 88t-88 212t88 212t212 88t212 -88t88 -212t-88 -212t-212 -88zM300 111q99 0 168 70t69 169t-69 169.5t-168 70.5t-168 -70.5t-69 -169.5t69 -169t168 -70zM297 200q-46 0 -78 23.5t-32 64.5h72q1 -13 11.5 -21.5t25.5 -8.5h3q18 0 29.5 9.5
t11.5 24.5t-10 23.5t-27 8.5h-28v58h28q16 0 25.5 9t9.5 23t-10.5 22.5t-26.5 8.5h-3q-32 0 -35 -28h-71q0 41 31 64t78 23t77.5 -22.5t30.5 -61.5q0 -49 -44 -66q47 -24 47 -71q0 -39 -33 -61t-82 -22z" />
    <glyph glyph-name="uni2463" unicode="&#x2463;" 
d="M300 50q-124 0 -212 88t-88 212t88 212t212 88t212 -88t88 -212t-88 -212t-212 -88zM300 111q99 0 168 70t69 169t-69 169.5t-168 70.5t-168 -70.5t-69 -169.5t69 -169t168 -70zM309 204v53h-144v69l133 174h77v-185h41v-58h-41v-53h-66zM228 315h81v108z" />
    <glyph glyph-name="uni2464" unicode="&#x2464;" 
d="M300 50q-124 0 -212 88t-88 212t88 212t212 88t212 -88t88 -212t-88 -212t-212 -88zM300 111q99 0 168 70t69 169t-69 169.5t-168 70.5t-168 -70.5t-69 -169.5t69 -169t168 -70zM292 200q-46 0 -78.5 24.5t-36.5 65.5h75q5 -31 41 -31h3q18 0 30 12t12 29t-11.5 27.5
t-28.5 10.5h-3q-19 0 -34 -15h-71l33 177h182v-59h-130l-13 -64q22 19 57 19q36 0 62.5 -25t26.5 -67q0 -47 -33 -75.5t-83 -28.5z" />
    <glyph glyph-name="uni2465" unicode="&#x2465;" 
d="M300 50q-124 0 -212 88t-88 212t88 212t212 88t212 -88t88 -212t-88 -212t-212 -88zM300 111q99 0 168 70t69 169t-69 169.5t-168 70.5t-168 -70.5t-69 -169.5t69 -169t168 -70zM298 200q-55 0 -88 37.5t-33 102.5q0 76 38 120t100 44q47 0 73.5 -25t27.5 -62h-69
q-5 27 -36 27h-3q-25 0 -43 -22.5t-22 -56.5q24 34 72 34q42 0 69.5 -26.5t27.5 -69.5q0 -44 -31.5 -73.5t-82.5 -29.5zM296 260h2q19 0 31 11.5t12 29.5q0 17 -11.5 28.5t-30.5 11.5h-2q-18 0 -30.5 -11.5t-12.5 -28.5q0 -18 12 -29.5t30 -11.5z" />
    <glyph glyph-name="uni2466" unicode="&#x2466;" 
d="M300 50q-124 0 -212 88t-88 212t88 212t212 88t212 -88t88 -212t-88 -212t-212 -88zM300 111q99 0 168 70t69 169t-69 169.5t-168 70.5t-168 -70.5t-69 -169.5t69 -169t168 -70zM242 204v16q0 130 93 219h-142v61h218v-56q-95 -90 -95 -221v-19h-74z" />
    <glyph glyph-name="uni2467" unicode="&#x2467;" 
d="M300 50q-124 0 -212 88t-88 212t88 212t212 88t212 -88t88 -212t-88 -212t-212 -88zM300 111q99 0 168 70t69 169t-69 169.5t-168 70.5t-168 -70.5t-69 -169.5t69 -169t168 -70zM299 200q-47 0 -78 22t-31 59q0 51 54 68q-58 23 -58 73q0 37 32.5 59.5t80.5 22.5
q49 0 81.5 -22.5t32.5 -59.5q0 -48 -56 -73q23 -8 37 -26t14 -42q0 -37 -31 -59t-78 -22zM298 381h3q18 0 30.5 8.5t12.5 24.5q0 15 -12.5 23t-30.5 8h-3q-19 0 -31.5 -8t-12.5 -23q0 -16 13 -24.5t31 -8.5zM298 259h3q16 0 27 8.5t11 22.5q0 15 -11 24t-27 9h-3
q-16 0 -27 -9t-11 -24q0 -14 11 -22.5t27 -8.5z" />
    <glyph glyph-name="uni2468" unicode="&#x2468;" 
d="M300 50q-124 0 -212 88t-88 212t88 212t212 88t212 -88t88 -212t-88 -212t-212 -88zM300 111q99 0 168 70t69 169t-69 169.5t-168 70.5t-168 -70.5t-69 -169.5t69 -169t168 -70zM301 503q56 0 88.5 -37.5t32.5 -102.5q0 -76 -38 -120t-100 -44q-47 0 -73.5 25t-27.5 62
h69q7 -28 36 -28h4q25 0 43 23t21 57q-24 -34 -72 -34q-41 0 -68.5 26.5t-27.5 69.5q0 44 31 73.5t82 29.5zM304 443h-3q-18 0 -30.5 -11.5t-12.5 -29.5q0 -17 12 -28.5t30 -11.5h3q18 0 30.5 11.5t12.5 28.5q0 18 -12 29.5t-30 11.5z" />
    <glyph glyph-name="uni24EA" unicode="&#x24ea;" 
d="M300 50q-124 0 -212 88t-88 212t88 212t212 88t212 -88t88 -212t-88 -212t-212 -88zM300 111q99 0 168 70t69 169t-69 169.5t-168 70.5t-168 -70.5t-69 -169.5t69 -169t168 -70zM299 200q-62 0 -95.5 43.5t-33.5 108.5t33.5 108.5t95.5 43.5q63 0 96.5 -43.5t33.5 -108.5
t-33.5 -108.5t-96.5 -43.5zM298 261h3q27 0 41.5 25.5t14.5 65.5t-14.5 65t-41.5 25h-3q-27 0 -41.5 -25t-14.5 -65t14.5 -65.5t41.5 -25.5z" />
    <glyph glyph-name="uni24FF" unicode="&#x24ff;" 
d="M300 50q124 0 212 88t88 212t-88 212t-212 88t-212 -88t-88 -212t88 -212t212 -88zM299 200q-62 0 -95.5 43.5t-33.5 108.5t33.5 108.5t95.5 43.5q63 0 96.5 -43.5t33.5 -108.5t-33.5 -108.5t-96.5 -43.5zM298 261h3q27 0 41.5 25.5t14.5 65.5t-14.5 65t-41.5 25h-3
q-27 0 -41.5 -25t-14.5 -65t14.5 -65.5t41.5 -25.5z" />
    <glyph glyph-name="lozenge" unicode="&#x25ca;" 
d="M349 700l233 -350l-233 -350h-94l-238 350l238 350h94zM302 92l175 256l-177 264l-175 -262z" />
    <glyph glyph-name="uni2776" unicode="&#x2776;" 
d="M300 50q124 0 212 88t88 212t-88 212t-212 88t-212 -88t-88 -212t88 -212t212 -88zM277 204v203l-83 -69v82l95 80h58v-296h-70z" />
    <glyph glyph-name="uni2777" unicode="&#x2777;" 
d="M300 50q124 0 212 88t88 212t-88 212t-212 88t-212 -88t-88 -212t88 -212t212 -88zM192 204v63l106 96q38 33 38 51q-2 30 -35 30h-3q-15 0 -25 -10t-11 -26h-71q2 44 34 70t79 26q45 0 74.5 -25.5t29.5 -60.5q0 -19 -9 -36t-18 -26.5t-28 -26.5l-72 -63h129v-62h-218z
" />
    <glyph glyph-name="uni2778" unicode="&#x2778;" 
d="M300 50q124 0 212 88t88 212t-88 212t-212 88t-212 -88t-88 -212t88 -212t212 -88zM297 200q-46 0 -78 23.5t-32 64.5h72q1 -13 11.5 -21.5t25.5 -8.5h3q18 0 29.5 9.5t11.5 24.5t-10 23.5t-27 8.5h-28v58h28q16 0 25.5 9t9.5 23t-10.5 22.5t-26.5 8.5h-3q-32 0 -35 -28
h-71q0 41 31 64t78 23t77.5 -22.5t30.5 -61.5q0 -49 -44 -66q47 -24 47 -71q0 -39 -33 -61t-82 -22z" />
    <glyph glyph-name="uni2779" unicode="&#x2779;" 
d="M300 50q124 0 212 88t88 212t-88 212t-212 88t-212 -88t-88 -212t88 -212t212 -88zM309 204v53h-144v69l133 174h77v-185h41v-58h-41v-53h-66zM228 315h81v108z" />
    <glyph glyph-name="uni277A" unicode="&#x277a;" 
d="M300 50q124 0 212 88t88 212t-88 212t-212 88t-212 -88t-88 -212t88 -212t212 -88zM297 200q-46 0 -78.5 24.5t-36.5 65.5h75q5 -31 41 -31h3q18 0 30 12t12 29t-11.5 27.5t-28.5 10.5h-3q-19 0 -34 -15h-71l33 177h182v-59h-130l-13 -64q22 19 57 19q36 0 62.5 -25
t26.5 -67q0 -47 -33 -75.5t-83 -28.5z" />
    <glyph glyph-name="uni277B" unicode="&#x277b;" 
d="M300 50q124 0 212 88t88 212t-88 212t-212 88t-212 -88t-88 -212t88 -212t212 -88zM301 200q-55 0 -88 37.5t-33 102.5q0 76 38 120t100 44q47 0 73.5 -25t27.5 -62h-69q-5 27 -36 27h-3q-25 0 -43 -22.5t-22 -56.5q24 34 72 34q42 0 69.5 -26.5t27.5 -69.5
q0 -44 -31.5 -73.5t-82.5 -29.5zM299 260h2q19 0 31 11.5t12 29.5q0 17 -11.5 28.5t-30.5 11.5h-2q-18 0 -30.5 -11.5t-12.5 -28.5q0 -18 12 -29.5t30 -11.5z" />
    <glyph glyph-name="uni277C" unicode="&#x277c;" 
d="M300 50q124 0 212 88t88 212t-88 212t-212 88t-212 -88t-88 -212t88 -212t212 -88zM241 204v16q0 130 93 219h-142v61h218v-56q-95 -90 -95 -221v-19h-74z" />
    <glyph glyph-name="uni277D" unicode="&#x277d;" 
d="M300 50q124 0 212 88t88 212t-88 212t-212 88t-212 -88t-88 -212t88 -212t212 -88zM299 200q-47 0 -78 22t-31 59q0 51 54 68q-58 23 -58 73q0 37 32.5 59.5t80.5 22.5q49 0 81.5 -22.5t32.5 -59.5q0 -48 -56 -73q23 -8 37 -26t14 -42q0 -37 -31 -59t-78 -22zM298 381h3
q18 0 30.5 8.5t12.5 24.5q0 15 -12.5 23t-30.5 8h-3q-19 0 -31.5 -8t-12.5 -23q0 -16 13 -24.5t31 -8.5zM298 259h3q16 0 27 8.5t11 22.5q0 15 -11 24t-27 9h-3q-16 0 -27 -9t-11 -24q0 -14 11 -22.5t27 -8.5z" />
    <glyph glyph-name="uni277E" unicode="&#x277e;" 
d="M300 50q124 0 212 88t88 212t-88 212t-212 88t-212 -88t-88 -212t88 -212t212 -88zM299 503q56 0 88.5 -37.5t32.5 -102.5q0 -76 -38 -120t-100 -44q-47 0 -73.5 25t-27.5 62h69q7 -28 36 -28h4q25 0 43 23t21 57q-24 -34 -72 -34q-41 0 -68.5 26.5t-27.5 69.5
q0 44 31 73.5t82 29.5zM302 443h-3q-18 0 -30.5 -11.5t-12.5 -29.5q0 -17 12 -28.5t30 -11.5h3q18 0 30.5 11.5t12.5 28.5q0 18 -12 29.5t-30 11.5z" />
    <glyph glyph-name="uniE000" unicode="&#xe000;" 
d="M129 179v342h342v-342h-342zM193 243h214v214h-214v-214z" />
    <glyph glyph-name="uniE001" unicode="&#xe001;" 
d="M64 114h472v472h-472v-472zM129 179v342h342v-342h-342z" />
    <glyph glyph-name="uniE002" unicode="&#xe002;" 
d="M0 50v600h600v-600h-600zM64 114h472v472h-472v-472z" />
    <glyph glyph-name="uniE009" unicode="&#xe009;" 
d="M129 179v342h342v-342h-342zM193 243h214v214h-214v-214zM257 307v86h86v-86h-86z" />
    <glyph glyph-name="uniE00A" unicode="&#xe00a;" 
d="M64 114h472v472h-472v-472zM129 179v342h342v-342h-342zM193 243h214v214h-214v-214zM257 307v86h86v-86h-86z" />
    <glyph glyph-name="uniE00B" unicode="&#xe00b;" 
d="M0 50v600h600v-600h-600zM64 114h472v472h-472v-472zM129 179v342h342v-342h-342zM193 243h214v214h-214v-214zM257 307v86h86v-86h-86z" />
    <glyph glyph-name="uniE00C" unicode="&#xe00c;" 
d="M129 179v342h342v-342h-342z" />
    <glyph glyph-name="uniE00D" unicode="&#xe00d;" 
d="M64 114h472v472h-472v-472z" />
    <glyph glyph-name="uniE00E" unicode="&#xe00e;" 
d="M0 50v600h600v-600h-600z" />
    <glyph glyph-name="uniE010" unicode="&#xe010;" 
d="M300 165q-76 0 -130.5 54.5t-54.5 130.5t54.5 130.5t130.5 54.5t130.5 -54.5t54.5 -130.5t-54.5 -130.5t-130.5 -54.5zM300 223q52 0 89.5 37.5t37.5 89.5t-37.5 89.5t-89.5 37.5t-89.5 -37.5t-37.5 -89.5t37.5 -89.5t89.5 -37.5zM300 281q-28 0 -48.5 20.5t-20.5 48.5
t20.5 48.5t48.5 20.5t48.5 -20.5t20.5 -48.5t-20.5 -48.5t-48.5 -20.5z" />
    <glyph glyph-name="uniE011" unicode="&#xe011;" 
d="M300 108q100 0 171 71t71 171t-71 171t-171 71t-171 -71t-71 -171t71 -171t171 -71zM300 165q-76 0 -130.5 54.5t-54.5 130.5t54.5 130.5t130.5 54.5t130.5 -54.5t54.5 -130.5t-54.5 -130.5t-130.5 -54.5zM300 223q52 0 89.5 37.5t37.5 89.5t-37.5 89.5t-89.5 37.5
t-89.5 -37.5t-37.5 -89.5t37.5 -89.5t89.5 -37.5zM300 281q-28 0 -48.5 20.5t-20.5 48.5t20.5 48.5t48.5 20.5t48.5 -20.5t20.5 -48.5t-20.5 -48.5t-48.5 -20.5z" />
    <glyph glyph-name="uniE012" unicode="&#xe012;" 
d="M300 50q-124 0 -212 88t-88 212t88 212t212 88t212 -88t88 -212t-88 -212t-212 -88zM300 108q100 0 171 71t71 171t-71 171t-171 71t-171 -71t-71 -171t71 -171t171 -71zM300 165q-76 0 -130.5 54.5t-54.5 130.5t54.5 130.5t130.5 54.5t130.5 -54.5t54.5 -130.5
t-54.5 -130.5t-130.5 -54.5zM300 223q52 0 89.5 37.5t37.5 89.5t-37.5 89.5t-89.5 37.5t-89.5 -37.5t-37.5 -89.5t37.5 -89.5t89.5 -37.5zM300 281q-28 0 -48.5 20.5t-20.5 48.5t20.5 48.5t48.5 20.5t48.5 -20.5t20.5 -48.5t-20.5 -48.5t-48.5 -20.5z" />
    <glyph glyph-name="uniF8FF" unicode="&#xf8ff;" horiz-adv-x="1200" 
d="M926 705q33 4 67 -2.5t47 -17.5q-3 -27 -4 -28q-14 -8 -32.5 -7.5t-31.5 4.5q2 -43 -18 -75t-59 -29q-10 -33 -35 -55t-53.5 -29.5t-59 -11.5t-51.5 0l4 -12q3 -11 8 -30t11 -42.5t12 -53t9 -56.5q58 -65 81 -86q46 -41 60 -78q9 -24 -17 -29q-22 13 -41.5 32t-44 47
t-41.5 45q-2 -39 11 -103.5t14 -70.5q-29 -23 -42 -3q-14 22 -22 67t-12 89.5t-5 48.5q-33 2 -223 -44q-1 -28 12.5 -55.5t30.5 -47t36 -48.5t27 -56q-14 -18 -37 -5q-10 5 -21 18t-26.5 35.5t-20.5 29.5q-11 15 -23.5 42t-18.5 31q-48 -141 -63 -142h-13t-12 5t-5 15
q2 29 19.5 80.5t42.5 95.5q-7 1 -51.5 4.5t-82 12t-60.5 26.5q-5 6 -10 14q6 7 12.5 12.5t10.5 8t12.5 7.5t12.5 8q14 19 52 47.5t53 50.5l-44 24q-44 23 -50 42q2 2 9 19q9 8 91 -34q8 67 10 71q1 4 10.5 7t18.5 5l8 1q9 -5 11 -15q2 -9 -5 -42t-5 -49q30 0 76 29.5
t60 33.5q4 1 52 13.5t73 20.5q-19 34 -20 72.5t17 60.5q79 1 111.5 -34t15.5 -85q19 2 40.5 14t24.5 24q-9 8 -27 23t-31 29q-23 26 -14.5 54t41.5 40q45 17 73.5 -13.5t21.5 -83.5q27 13 23 114zM857 588q7 19 -2 39t-32 26q-12 -22 1 -42t33 -23zM727 509q14 5 14 34
q-28 28 -57 28q-5 -15 -3 -34.5t11 -28.5q6 -6 35 1zM444 224q33 2 110 25.5t131 19.5q-3 17 -10 41t-9 36q-2 13 -4 29l-3 24t-5 17.5t-11 18.5q-48 -11 -117 -47t-109 -46q6 -22 12.5 -50t10 -47t4.5 -21zM280 236q83 -13 111 -10q-5 13 -13 44t-16 47q-10 -9 -29.5 -25
t-31.5 -28.5t-21 -27.5z" />
    <glyph glyph-name="G.ss02" 
d="M322 357h240v-133q0 -98 -64.5 -166t-179.5 -68q-137 0 -208 98t-71 262q0 165 71 262.5t210 97.5q113 0 172.5 -66.5t65.5 -175.5h-100q-5 72 -40 112t-97 40h-4q-87 0 -132.5 -71t-45.5 -199q0 -129 46.5 -199.5t133.5 -70.5h5q70 0 105.5 42t35.5 109v36h-143v90z" />
    <glyph glyph-name="Gbreve.ss02" 
d="M322 748q-69 0 -112.5 38t-44.5 104h81q6 -68 76 -68t76 68h81q-1 -66 -44.5 -104t-112.5 -38zM322 357h240v-133q0 -98 -64.5 -166t-179.5 -68q-137 0 -208 98t-71 262q0 165 71 262.5t210 97.5q113 0 172.5 -66.5t65.5 -175.5h-100q-5 72 -40 112t-97 40h-4
q-87 0 -132.5 -71t-45.5 -199q0 -129 46.5 -199.5t133.5 -70.5h5q70 0 105.5 42t35.5 109v36h-143v90z" />
    <glyph glyph-name="Gcircumflex.ss02" 
d="M322 821l-86 -65h-88l117 134h114l117 -134h-88zM322 357h240v-133q0 -98 -64.5 -166t-179.5 -68q-137 0 -208 98t-71 262q0 165 71 262.5t210 97.5q113 0 172.5 -66.5t65.5 -175.5h-100q-5 72 -40 112t-97 40h-4q-87 0 -132.5 -71t-45.5 -199q0 -129 46.5 -199.5
t133.5 -70.5h5q70 0 105.5 42t35.5 109v36h-143v90z" />
    <glyph glyph-name="Gcommaaccent.ss02" 
d="M322 357h240v-133q0 -98 -64.5 -166t-179.5 -68q-137 0 -208 98t-71 262q0 165 71 262.5t210 97.5q113 0 172.5 -66.5t65.5 -175.5h-100q-5 72 -40 112t-97 40h-4q-87 0 -132.5 -71t-45.5 -199q0 -129 46.5 -199.5t133.5 -70.5h5q70 0 105.5 42t35.5 109v36h-143v90z
M254 -179v101h95v-106q0 -42 -27.5 -68t-71.5 -26h-19v54h14q49 0 49 39v6h-40z" />
    <glyph glyph-name="Gdotaccent.ss02" 
d="M373 882v-109h-105v109h105zM322 357h240v-133q0 -98 -64.5 -166t-179.5 -68q-137 0 -208 98t-71 262q0 165 71 262.5t210 97.5q113 0 172.5 -66.5t65.5 -175.5h-100q-5 72 -40 112t-97 40h-4q-87 0 -132.5 -71t-45.5 -199q0 -129 46.5 -199.5t133.5 -70.5h5
q70 0 105.5 42t35.5 109v36h-143v90z" />
    <glyph glyph-name="R.ss02" 
d="M77 0v700h243q92 0 153.5 -54.5t61.5 -134.5q0 -64 -32 -111t-82 -65q38 -1 56.5 -19.5t30.5 -58.5l82 -257h-108l-71 224q-10 31 -25.5 44t-46.5 13h-162v-281h-100zM177 371h119q65 0 102 31.5t37 87.5q0 58 -36.5 89t-102.5 31h-119v-239z" />
    <glyph glyph-name="Racute.ss02" 
d="M270 756l47 134h120l-93 -134h-74zM77 0v700h243q92 0 153.5 -54.5t61.5 -134.5q0 -64 -32 -111t-82 -65q38 -1 56.5 -19.5t30.5 -58.5l82 -257h-108l-71 224q-10 31 -25.5 44t-46.5 13h-162v-281h-100zM177 371h119q65 0 102 31.5t37 87.5q0 58 -36.5 89t-102.5 31h-119
v-239z" />
    <glyph glyph-name="Rcaron.ss02" 
d="M357 756h-114l-117 134h88l86 -64l86 64h88zM508 257l82 -257h-108l-71 224q-10 31 -25.5 44t-46.5 13h-162v-281h-100v700h243q92 0 153.5 -54.5t61.5 -134.5q0 -64 -32 -111t-82 -65q38 -1 56.5 -19.5t30.5 -58.5zM296 371q65 0 102 31.5t37 87.5q0 58 -36.5 89
t-102.5 31h-119v-239h119z" />
    <glyph glyph-name="Rcommaaccent.ss02" 
d="M77 0v700h243q92 0 153.5 -54.5t61.5 -134.5q0 -64 -32 -111t-82 -65q38 -1 56.5 -19.5t30.5 -58.5l82 -257h-108l-71 224q-10 31 -25.5 44t-46.5 13h-162v-281h-100zM177 371h119q65 0 102 31.5t37 87.5q0 58 -36.5 89t-102.5 31h-119v-239zM248 -278v54h14q49 0 49 39
v6h-40v101h95v-106q0 -42 -27.5 -68t-71.5 -26h-19z" />
    <glyph glyph-name="i.dot" 
d="M379 695v-123h-116v123h116zM369 78h177v-78h-454v78h182v344h-162v78h257v-422z" />
    <glyph glyph-name="a.ss01" 
d="M272 -10q-92 0 -156 70t-64 190q0 121 63 190.5t157 69.5q53 0 96 -24t63 -61v75h95v-500h-95v75q-20 -37 -63.5 -61t-95.5 -24zM286 68h6q64 0 101.5 51.5t37.5 130.5t-37.5 130.5t-101.5 51.5h-6q-63 0 -101 -52t-38 -130q0 -77 38 -129.5t101 -52.5z" />
    <glyph glyph-name="aacute.ss01" 
d="M264 561l43 139h112l-94 -139h-61zM272 -10q-92 0 -156 70t-64 190q0 121 63 190.5t157 69.5q53 0 96 -24t63 -61v75h95v-500h-95v75q-20 -37 -63.5 -61t-95.5 -24zM286 68h6q64 0 101.5 51.5t37.5 130.5t-37.5 130.5t-101.5 51.5h-6q-63 0 -101 -52t-38 -130
q0 -77 38 -129.5t101 -52.5z" />
    <glyph glyph-name="abreve.ss01" 
d="M297 551q-67 0 -110 40t-44 109h78q2 -37 22.5 -57.5t53.5 -20.5t53.5 20.5t22.5 57.5h78q-1 -69 -44 -109t-110 -40zM272 -10q-92 0 -156 70t-64 190q0 121 63 190.5t157 69.5q53 0 96 -24t63 -61v75h95v-500h-95v75q-20 -37 -63.5 -61t-95.5 -24zM286 68h6
q64 0 101.5 51.5t37.5 130.5t-37.5 130.5t-101.5 51.5h-6q-63 0 -101 -52t-38 -130q0 -77 38 -129.5t101 -52.5z" />
    <glyph glyph-name="acircumflex.ss01" 
d="M466 561h-69l-100 73l-100 -73h-69l114 139h110zM272 -10q-92 0 -156 70t-64 190q0 121 63 190.5t157 69.5q53 0 96 -24t63 -61v75h95v-500h-95v75q-20 -37 -63.5 -61t-95.5 -24zM286 68h6q64 0 101.5 51.5t37.5 130.5t-37.5 130.5t-101.5 51.5h-6q-63 0 -101 -52
t-38 -130q0 -77 38 -129.5t101 -52.5z" />
    <glyph glyph-name="adieresis.ss01" 
d="M156 578v104h96v-104h-96zM342 578v104h96v-104h-96zM272 -10q-92 0 -156 70t-64 190q0 121 63 190.5t157 69.5q53 0 96 -24t63 -61v75h95v-500h-95v75q-20 -37 -63.5 -61t-95.5 -24zM286 68h6q64 0 101.5 51.5t37.5 130.5t-37.5 130.5t-101.5 51.5h-6q-63 0 -101 -52
t-38 -130q0 -77 38 -129.5t101 -52.5z" />
    <glyph glyph-name="uni0227.ss01" 
d="M244 578v109h105v-109h-105zM272 -10q-92 0 -156 70t-64 190q0 121 63 190.5t157 69.5q53 0 96 -24t63 -61v75h95v-500h-95v75q-20 -37 -63.5 -61t-95.5 -24zM286 68h6q64 0 101.5 51.5t37.5 130.5t-37.5 130.5t-101.5 51.5h-6q-63 0 -101 -52t-38 -130q0 -77 38 -129.5
t101 -52.5z" />
    <glyph glyph-name="uni1EA1.ss01" 
d="M272 -10q-92 0 -156 70t-64 190q0 121 63 190.5t157 69.5q53 0 96 -24t63 -61v75h95v-500h-95v75q-20 -37 -63.5 -61t-95.5 -24zM286 68h6q64 0 101.5 51.5t37.5 130.5t-37.5 130.5t-101.5 51.5h-6q-63 0 -101 -52t-38 -130q0 -77 38 -129.5t101 -52.5zM257 -195v109h105
v-109h-105z" />
    <glyph glyph-name="agrave.ss01" 
d="M278 561l-93 139h112l42 -139h-61zM272 -10q-92 0 -156 70t-64 190q0 121 63 190.5t157 69.5q53 0 96 -24t63 -61v75h95v-500h-95v75q-20 -37 -63.5 -61t-95.5 -24zM286 68h6q64 0 101.5 51.5t37.5 130.5t-37.5 130.5t-101.5 51.5h-6q-63 0 -101 -52t-38 -130
q0 -77 38 -129.5t101 -52.5z" />
    <glyph glyph-name="amacron.ss01" 
d="M158 578v79h288v-79h-288zM272 -10q-92 0 -156 70t-64 190q0 121 63 190.5t157 69.5q53 0 96 -24t63 -61v75h95v-500h-95v75q-20 -37 -63.5 -61t-95.5 -24zM286 68h6q64 0 101.5 51.5t37.5 130.5t-37.5 130.5t-101.5 51.5h-6q-63 0 -101 -52t-38 -130q0 -77 38 -129.5
t101 -52.5z" />
    <glyph glyph-name="aogonek.ss01" 
d="M526 0q-84 -52 -84 -95q0 -23 15.5 -34t37.5 -11h27v-67h-36q-52 0 -82 24.5t-30 64.5q0 70 85 118h-28v75q-20 -37 -63.5 -61t-95.5 -24q-92 0 -156 70t-64 190q0 121 63 190.5t157 69.5q53 0 96 -24t63 -61v75h95v-500zM292 68q64 0 101.5 51.5t37.5 130.5t-37.5 130.5
t-101.5 51.5h-6q-63 0 -101 -52t-38 -130q0 -77 38 -129.5t101 -52.5h6z" />
    <glyph glyph-name="aring.ss01" 
d="M297 553q-38 0 -66 27t-28 67q0 38 28.5 66t65.5 28q38 0 66 -27.5t28 -66.5q0 -40 -27.5 -67t-66.5 -27zM298 603q18 0 30.5 13t12.5 31t-12.5 31t-30.5 13t-31 -13t-13 -31t13 -31t31 -13zM272 -10q-92 0 -156 70t-64 190q0 121 63 190.5t157 69.5q53 0 96 -24t63 -61
v75h95v-500h-95v75q-20 -37 -63.5 -61t-95.5 -24zM286 68h6q64 0 101.5 51.5t37.5 130.5t-37.5 130.5t-101.5 51.5h-6q-63 0 -101 -52t-38 -130q0 -77 38 -129.5t101 -52.5z" />
    <glyph glyph-name="aringacute.ss01" 
d="M265 766l42 132h112l-91 -132h-63zM296 547q-38 0 -66 26.5t-28 66.5q0 38 28.5 66t65.5 28q38 0 66 -27.5t28 -66.5q0 -40 -27.5 -66.5t-66.5 -26.5zM297 596q18 0 30.5 13t12.5 31t-12.5 31t-30.5 13t-31 -13t-13 -31t13 -31t31 -13zM272 -10q-92 0 -156 70t-64 190
q0 121 63 190.5t157 69.5q53 0 96 -24t63 -61v75h95v-500h-95v75q-20 -37 -63.5 -61t-95.5 -24zM286 68h6q64 0 101.5 51.5t37.5 130.5t-37.5 130.5t-101.5 51.5h-6q-63 0 -101 -52t-38 -130q0 -77 38 -129.5t101 -52.5z" />
    <glyph glyph-name="atilde.ss01" 
d="M375 558q-34 0 -78 30l-13 7q-3 2 -12 8.5t-14 9t-13 5.5t-15 3q-38 0 -38 -53h-71v24q0 44 28.5 74.5t70.5 30.5q31 0 73 -25l12 -8q4 -3 13 -9t13.5 -8.5t11.5 -6.5t12.5 -5.5t11.5 -1.5q35 0 35 54h71v-24q0 -44 -28.5 -74.5t-69.5 -30.5zM272 -10q-92 0 -156 70
t-64 190q0 121 63 190.5t157 69.5q53 0 96 -24t63 -61v75h95v-500h-95v75q-20 -37 -63.5 -61t-95.5 -24zM286 68h6q64 0 101.5 51.5t37.5 130.5t-37.5 130.5t-101.5 51.5h-6q-63 0 -101 -52t-38 -130q0 -77 38 -129.5t101 -52.5z" />
    <glyph glyph-name="y.ss03" 
d="M443 500h103l-238 -586q-19 -49 -46 -70t-76 -21h-131v82h107q28 0 40.5 13t27.5 49l25 62l-225 471h106l166 -354z" />
    <glyph glyph-name="yacute.ss03" 
d="M417 700l-94 -139h-61l43 139h112zM443 500h103l-238 -586q-19 -49 -46 -70t-76 -21h-131v82h107q28 0 40.5 13t27.5 49l25 62l-225 471h106l166 -354z" />
    <glyph glyph-name="ycircumflex.ss03" 
d="M295 634l-100 -73h-69l114 139h110l114 -139h-69zM443 500h103l-238 -586q-19 -49 -46 -70t-76 -21h-131v82h107q28 0 40.5 13t27.5 49l25 62l-225 471h106l166 -354z" />
    <glyph glyph-name="ydieresis.ss03" 
d="M250 682v-104h-96v104h96zM436 682v-104h-96v104h96zM443 500h103l-238 -586q-19 -49 -46 -70t-76 -21h-131v82h107q28 0 40.5 13t27.5 49l25 62l-225 471h106l166 -354z" />
    <glyph glyph-name="ygrave.ss03" 
d="M337 561h-61l-93 139h112zM443 500h103l-238 -586q-19 -49 -46 -70t-76 -21h-131v82h107q28 0 40.5 13t27.5 49l25 62l-225 471h106l166 -354z" />
    <glyph glyph-name="uni0233.ss03" 
d="M444 657v-79h-288v79h288zM443 500h103l-238 -586q-19 -49 -46 -70t-76 -21h-131v82h107q28 0 40.5 13t27.5 49l25 62l-225 471h106l166 -354z" />
    <glyph glyph-name="i.dot.ss07" 
d="M275 695h116v-123h-116v123zM124 500h257v-500h-95v422h-162v78z" />
    <glyph glyph-name="i.ss07" 
d="M275 695h116v-123h-116v123zM124 500h257v-500h-95v422h-162v78z" />
    <glyph glyph-name="dotlessi.ss07" 
d="M381 500v-500h-95v422h-162v78h257z" />
    <glyph glyph-name="iacute.ss07" 
d="M455 700l-94 -139h-61l43 139h112zM124 500h257v-500h-95v422h-162v78z" />
    <glyph glyph-name="ibreve.ss07" 
d="M409 700h78q-1 -69 -44 -109t-110 -40t-110 40t-44 109h78q2 -37 22.5 -57.5t53.5 -20.5t53.5 20.5t22.5 57.5zM124 500h257v-500h-95v422h-162v78z" />
    <glyph glyph-name="icircumflex.ss07" 
d="M388 700l114 -139h-69l-100 73l-100 -73h-69l114 139h110zM124 500h257v-500h-95v422h-162v78z" />
    <glyph glyph-name="idieresis.ss07" 
d="M288 682v-104h-96v104h96zM378 682h96v-104h-96v104zM124 500h257v-500h-95v422h-162v78z" />
    <glyph glyph-name="uni1ECB.ss07" 
d="M275 695h116v-123h-116v123zM286 0v422h-162v78h257v-500h-95zM283 -195v109h105v-109h-105z" />
    <glyph glyph-name="igrave.ss07" 
d="M375 561h-61l-93 139h112zM381 500v-500h-95v422h-162v78h257z" />
    <glyph glyph-name="imacron.ss07" 
d="M194 657h288v-79h-288v79zM124 500h257v-500h-95v422h-162v78z" />
    <glyph glyph-name="iogonek.ss07" 
d="M275 695h116v-123h-116v123zM124 500h257v-500q-84 -52 -84 -95q0 -23 15.5 -34t37.5 -11h27v-67h-36q-52 0 -82 24.5t-30 64.5q0 70 85 118h-28v422h-162v78z" />
    <glyph glyph-name="itilde.ss07" 
d="M438 687h71v-24q0 -44 -28.5 -74.5t-69.5 -30.5q-34 0 -78 30l-13 7q-3 2 -12 8.5t-14 9t-13 5.5t-15 3q-38 0 -38 -53h-71v24q0 44 28.5 74.5t70.5 30.5q31 0 73 -25l12 -8q4 -3 13 -9t13.5 -8.5t11.5 -6.5t12.5 -5.5t11.5 -1.5q35 0 35 54zM124 500h257v-500h-95v422
h-162v78z" />
    <glyph glyph-name="r.ss07" 
d="M100 0v500h95v-77q17 35 57.5 61t98.5 26q77 0 126.5 -45t51.5 -112h-95q-4 32 -29 55t-70 23h-2q-62 0 -100 -50.5t-38 -124.5v-256h-95z" />
    <glyph glyph-name="racute.ss07" 
d="M280 561l43 139h112l-94 -139h-61zM100 0v500h95v-77q17 35 57.5 61t98.5 26q77 0 126.5 -45t51.5 -112h-95q-4 32 -29 55t-70 23h-2q-62 0 -100 -50.5t-38 -124.5v-256h-95z" />
    <glyph glyph-name="rcaron.ss07" 
d="M144 700h69l100 -73l100 73h69l-114 -139h-110zM100 0v500h95v-77q17 35 57.5 61t98.5 26q77 0 126.5 -45t51.5 -112h-95q-4 32 -29 55t-70 23h-2q-62 0 -100 -50.5t-38 -124.5v-256h-95z" />
    <glyph glyph-name="rcommaaccent.ss07" 
d="M100 0v500h95v-77q17 35 57.5 61t98.5 26q77 0 126.5 -45t51.5 -112h-95q-4 32 -29 55t-70 23h-2q-62 0 -100 -50.5t-38 -124.5v-256h-95zM77 -278v54h14q49 0 49 39v6h-40v101h95v-106q0 -42 -27.5 -68t-71.5 -26h-19z" />
    <glyph glyph-name="I_S_B_N" horiz-adv-x="1800" 
d="M1463 710q125 0 190 -68.5t65 -189.5v-452h-100v440q0 87 -40 133.5t-115 46.5h-9q-72 0 -142 -54v99q68 45 151 45zM1147 355q53 -7 91.5 -52t38.5 -113q0 -84 -59.5 -137t-150.5 -53h-177v90h160q59 0 93 28.5t34 82.5q0 53 -34 81t-93 28h-160v89h156q54 0 85 27.5
t31 78.5q0 50 -31.5 77.5t-84.5 27.5h-480q-64 0 -102 -26.5t-38 -74.5q0 -43 25.5 -65.5t77.5 -32.5l93 -19q197 -41 197 -190q0 -90 -66.5 -146t-191.5 -56h-474v700h100v-610h385q70 0 105.5 28.5t35.5 76.5q0 43 -27.5 67.5t-82.5 36.5l-104 22q-85 19 -129 63t-44 121
q0 85 65 140t179 55h491q89 0 145 -50.5t56 -131.5q0 -60 -33 -104.5t-82 -58.5z" />
    <glyph glyph-name="w_w_w" horiz-adv-x="1800" 
d="M1698 500h86l-85 -500h-112l-98 300l-98 -300h-112l-85 412l-85 -412h-112l-98 300l-98 -300h-111l-85 412l-85 -412h-112l-98 300l-98 -300h-112l-84 500h86l63 -406l96 294h98l99 -303l84 415h126l84 -415l98 303h98l99 -303l84 415h126l85 -415l98 303h98l97 -295z
" />
    <glyph glyph-name="f_f_i.ss07" horiz-adv-x="1800" 
d="M261 0v422h-168v78h168v92q0 108 111 108h269v-79h-238q-28 0 -37.5 -9.5t-9.5 -37.5v-74h530v92q0 108 111 108h269v-79h-238q-28 0 -37.5 -9.5t-9.5 -37.5v-74h625v-500h-95v422h-530v-422h-95v422h-530v-422h-95zM1495 572v123h116v-123h-116z" />
    <glyph glyph-name="fi.ss07" horiz-adv-x="1200" 
d="M293 0v422h-203v78h203v92q0 108 111 108h269v-79h-239q-27 0 -36.5 -9.5t-9.5 -37.5v-74h607v-500h-92v422h-515v-422h-95zM893 578v117h111v-117h-111z" />
    <glyph glyph-name="a.sups.ss01" 
d="M277 410q-54 0 -88.5 41.5t-34.5 106.5t35 106t90 41q59 0 86 -41v36h75v-285h-76v39q-35 -44 -87 -44zM297 471q31 0 49 24t18 63q0 38 -17.5 62t-49.5 24q-30 0 -48 -24t-18 -62t18 -62.5t48 -24.5z" />
    <glyph glyph-name="y.sups.ss03" 
d="M381 700h81l-155 -344q-13 -30 -27.5 -43t-39.5 -13h-85v63h51q15 0 23 7t16 25l15 33l-123 272h82l81 -182z" />
    <glyph glyph-name="a.sups" 
d="M262 410q-38 0 -63.5 23.5t-25.5 62.5q0 76 97 89l78 9v9q0 20 -12.5 32.5t-32.5 12.5h-4q-18 0 -31.5 -10t-14.5 -28h-73q2 44 36 69.5t87 25.5q51 0 85 -27.5t34 -73.5v-127q0 -34 4 -62h-68q-3 12 -5 44q-25 -49 -91 -49zM284 465h4q26 0 43.5 15.5t17.5 44.5v22
l-65 -9q-37 -6 -37 -39q0 -34 37 -34z" />
    <glyph glyph-name="b.sups" 
d="M328 705q55 0 89.5 -41t34.5 -106t-34 -106.5t-89 -41.5q-56 0 -87 44v-39h-78v395h77v-147q28 42 87 42zM308 471q30 0 48 24.5t18 62.5t-18 62t-48 24q-31 0 -49 -24t-18 -62q0 -39 18 -63t49 -24z" />
    <glyph glyph-name="c.sups" 
d="M306 410q-64 0 -102.5 37t-38.5 108t39.5 110.5t102.5 39.5q56 0 90 -29.5t38 -75.5h-78q-2 20 -15.5 32t-34.5 12h-4q-31 0 -45.5 -25.5t-14.5 -63.5q0 -84 60 -84h4q42 0 50 43h77q-5 -47 -38.5 -75.5t-89.5 -28.5z" />
    <glyph glyph-name="d.sups" 
d="M359 810h77v-395h-78v40q-31 -45 -88 -45q-55 0 -88.5 41t-33.5 106t34.5 106.5t89.5 41.5q58 0 87 -43v148zM292 471q31 0 49 24t18 62t-18 62.5t-49 24.5q-30 0 -48 -24.5t-18 -62.5t18 -62t48 -24z" />
    <glyph glyph-name="e.sups" 
d="M436 558v-21h-201q3 -32 21 -50.5t47 -18.5h5q46 0 55 37h69q-5 -44 -40.5 -69.5t-87.5 -25.5q-63 0 -102 40t-39 103q0 67 39 109.5t101 42.5q61 0 97 -41.5t36 -105.5zM301 647q-26 0 -43.5 -17t-21.5 -48h127q-2 27 -16 46t-42 19h-4z" />
    <glyph glyph-name="f.sups" 
d="M246 415v224h-55v61h55v29q0 39 20 60t59 21h86v-57h-59q-28 0 -28 -32v-21h68v-61h-68v-224h-78z" />
    <glyph glyph-name="g.sups" 
d="M357 700h77v-284q0 -56 -36.5 -91t-109.5 -35q-56 0 -91.5 25t-39.5 71h77q11 -37 55 -37h4q67 0 67 70v41q-23 -46 -85 -46q-54 0 -87.5 41t-33.5 105t32.5 104.5t89.5 40.5q56 0 81 -42v37zM294 474q30 0 47 24.5t17 61.5t-16.5 61t-46.5 24t-47.5 -23.5t-17.5 -61.5
q0 -39 17.5 -62.5t46.5 -23.5z" />
    <glyph glyph-name="h.sups" 
d="M336 705q50 0 75.5 -30.5t25.5 -81.5v-178h-78v171q0 27 -13 42.5t-35 15.5h-5q-25 0 -42.5 -20t-17.5 -50v-159h-77v395h77v-153q30 48 90 48z" />
    <glyph glyph-name="i.sups" 
d="M258 741v69h83v-69h-83zM261 415v285h77v-285h-77z" />
    <glyph glyph-name="j.sups" 
d="M264 741v69h83v-69h-83zM180 295v65h52q21 0 28 7.5t7 28.5v304h77v-325q0 -38 -20.5 -59t-59.5 -21h-84z" />
    <glyph glyph-name="k.sups" 
d="M366 415l-78 118l-39 -41v-77h-76v395h76v-223l103 113h96l-108 -113l115 -172h-89z" />
    <glyph glyph-name="l.sups" 
d="M261 415v395h77v-395h-77z" />
    <glyph glyph-name="m.sups" 
d="M428 705q47 0 72.5 -30t25.5 -80v-180h-77v168q0 61 -48 61h-3q-25 0 -42 -20.5t-17 -49.5v-159h-78v168q0 61 -47 61h-4q-27 0 -43 -20t-16 -51v-158h-78v285h78v-42q26 47 88 47q66 0 89 -55q32 55 100 55z" />
    <glyph glyph-name="n.sups" 
d="M333 705q50 0 75.5 -31t25.5 -81v-178h-78v171q0 28 -13 43t-35 15h-5q-25 0 -42.5 -20t-17.5 -50v-159h-78v285h78v-43q29 48 90 48z" />
    <glyph glyph-name="o.sups" 
d="M300 410q-65 0 -103.5 40.5t-38.5 106.5t38.5 107t103.5 41t103.5 -41t38.5 -107t-38.5 -106.5t-103.5 -40.5zM301 471q31 0 47 23.5t16 62.5q0 40 -17 63.5t-47 23.5q-31 0 -47.5 -24t-16.5 -63t17.5 -62.5t47.5 -23.5z" />
    <glyph glyph-name="p.sups" 
d="M328 705q54 0 87.5 -41t33.5 -107q0 -65 -34 -106t-89 -41q-29 0 -52.5 12t-35.5 30v-147h-76v395h78v-39q31 44 88 44zM306 471q30 0 48 24t18 62q0 39 -18 63t-48 24q-32 0 -49.5 -24.5t-17.5 -63.5q0 -38 17.5 -61.5t49.5 -23.5z" />
    <glyph glyph-name="q.sups" 
d="M360 700h78v-395h-76v147q-12 -18 -35.5 -30t-52.5 -12q-55 0 -89 40.5t-34 105.5q0 66 34 107.5t90 41.5t85 -43v38zM294 471q32 0 49.5 23.5t17.5 61.5q0 39 -18 63t-49 24q-30 0 -48 -24t-18 -63q0 -38 18 -61.5t48 -23.5z" />
    <glyph glyph-name="r.sups" 
d="M387 704h8v-68h-25q-72 0 -72 -88v-133h-76v285h78v-56q20 60 87 60z" />
    <glyph glyph-name="s.sups" 
d="M300 410q-125 0 -128 99h75q2 -44 52 -44h5q20 0 33 8t13 22q0 24 -34 31l-57 12q-78 16 -78 78q0 43 33.5 66t86.5 23q59 0 91 -26t34 -71h-74q-2 42 -47 42h-6q-19 0 -31.5 -8t-12.5 -21q0 -12 8 -17.5t28 -9.5l55 -12q79 -17 79 -81q0 -44 -35 -67.5t-90 -23.5z" />
    <glyph glyph-name="t.sups" 
d="M329 415q-79 0 -79 79v145h-56v61h56v90h77v-90h71v-61h-71v-122q0 -22 8 -30.5t31 -8.5h40v-63h-77z" />
    <glyph glyph-name="u.sups" 
d="M266 410q-50 0 -75 30.5t-25 81.5v178h78v-171q0 -27 12.5 -42.5t33.5 -15.5h5q25 0 42.5 20t17.5 50v159h78v-285h-78v45q-11 -23 -35 -36.5t-54 -13.5z" />
    <glyph glyph-name="v.sups" 
d="M380 700h76l-110 -285h-93l-109 285h80l78 -207z" />
    <glyph glyph-name="w.sups" 
d="M451 700h70l-95 -285h-63l-61 195l-58 -195h-68l-98 285h76l56 -184l58 184h74l54 -186z" />
    <glyph glyph-name="x.sups" 
d="M154 415l105 142l-103 143h83l62 -87l62 87h81l-103 -141l104 -144h-83l-62 87l-64 -87h-82z" />
    <glyph glyph-name="y.sups" 
d="M383 700h82l-126 -254v-70q0 -76 -77 -76h-94v63h65q32 0 32 33v38l-129 266h85l79 -178z" />
    <glyph glyph-name="z.sups" 
d="M275 478h150v-63h-250v47l143 176h-140v62h238v-52z" />
    <glyph glyph-name="zero.osf" 
d="M297 513q110 0 182.5 -73t72.5 -187t-72.5 -187t-182.5 -73t-182.5 73t-72.5 187t72.5 187t182.5 73zM292 435q-66 0 -110.5 -51t-44.5 -131q0 -57 25 -101l233 249q-40 34 -94 34h-9zM301 71q67 0 111.5 51t44.5 131q0 50 -19 91l-229 -246q38 -27 85 -27h7z" />
    <glyph glyph-name="one.osf" 
d="M328 500h72v-500h-91v370l-168 -159v107z" />
    <glyph glyph-name="two.osf" 
d="M386 209l-167 -129h255v-80h-358v100l217 170q56 43 56 90q0 30 -23 51t-57 21h-7q-85 0 -91 -93h-95q1 80 54 125.5t137 45.5q78 0 127.5 -41.5t49.5 -103.5q0 -45 -22.5 -80t-75.5 -76z" />
    <glyph glyph-name="three.osf" 
d="M415 153q55 -15 90 -59t35 -106q0 -93 -67 -145.5t-173 -52.5q-105 0 -170.5 51.5t-70.5 143.5h95q7 -54 44 -85.5t97 -31.5h10q62 0 101 35t39 89q0 55 -39 87t-101 32h-51v79h49q62 0 99.5 32.5t37.5 86.5q0 55 -38 89t-95 34h-10q-53 0 -89 -32.5t-41 -86.5h-95
q2 87 67 142t164 55q103 0 167.5 -54t64.5 -139q0 -60 -33 -103.5t-87 -60.5z" />
    <glyph glyph-name="four.osf" 
d="M467 78h105v-78h-105v-200h-92v200h-333v97l319 403h106v-422zM135 78h240v306z" />
    <glyph glyph-name="five.osf" 
d="M320 238q96 0 156 -61t60 -154q0 -103 -68 -168t-175 -65q-101 0 -169.5 53t-78.5 144h96q10 -56 50 -87.5t98 -31.5h8q63 0 103.5 42t40.5 108q0 64 -38.5 103t-98.5 39h-8q-78 0 -135 -77h-91l85 417h374v-80h-299l-52 -241q51 59 142 59z" />
    <glyph glyph-name="six.osf" 
d="M334 460q95 0 158 -64t63 -164q0 -106 -67 -174t-175 -68q-125 0 -192.5 87t-67.5 253q0 169 83 274.5t210 105.5q89 0 149.5 -48.5t73.5 -133.5h-95q-8 46 -43 75t-86 29h-9q-77 0 -133 -74t-63 -209q26 53 78 82t116 29zM318 68q63 0 102.5 44t39.5 113q0 70 -38 113.5
t-101 43.5h-9q-68 0 -110 -43t-42 -113q0 -71 40.5 -114.5t108.5 -43.5h9z" />
    <glyph glyph-name="seven.osf" 
d="M59 500h483v-86q-130 -81 -196.5 -217.5t-66.5 -355.5v-41h-98v46q0 407 255 574h-377v80z" />
    <glyph glyph-name="eight.osf" 
d="M412 340q49 -20 77.5 -61t28.5 -96q0 -85 -59 -139t-159 -54t-159 54t-59 139q0 55 28.5 96t77.5 61q-55 22 -87.5 68t-32.5 108q0 83 63 138.5t169 55.5t169 -55.5t63 -138.5q0 -62 -32.5 -108t-87.5 -68zM295 632q-58 0 -95 -35.5t-37 -91.5q0 -53 37.5 -87t94.5 -34
h10q57 0 94.5 34t37.5 87q0 56 -37 91.5t-95 35.5h-10zM305 68q52 0 85 33.5t33 87.5q0 51 -33 82.5t-85 31.5h-10q-52 0 -85 -31.5t-33 -82.5q0 -54 33 -87.5t85 -33.5h10z" />
    <glyph glyph-name="nine.osf" 
d="M286 510q125 0 192.5 -87t67.5 -253q0 -169 -83 -274.5t-210 -105.5q-89 0 -149.5 48.5t-73.5 133.5h95q8 -46 43 -75t86 -29h9q77 0 133 74t63 209q-26 -53 -78 -82t-116 -29q-95 0 -158 64t-63 164q0 106 67 174t175 68zM287 118q68 0 110 43t42 113q0 71 -40.5 114.5
t-108.5 43.5h-9q-63 0 -102.5 -44t-39.5 -113q0 -70 38 -113.5t101 -43.5h9z" />
    <glyph glyph-name="zero.osf.zero" 
d="M301 -10q-110 0 -182.5 73t-72.5 187t72.5 187t182.5 73t182.5 -73t72.5 -187t-72.5 -187t-182.5 -73zM298 68h7q67 0 111.5 51t44.5 131t-44.5 131t-111.5 51h-9q-66 0 -110.5 -51t-44.5 -131t45.5 -131t111.5 -51z" />
    <glyph glyph-name="zero.zero" 
d="M300 -10q-126 0 -196 95t-70 265q0 169 70.5 264.5t195.5 95.5t195.5 -95.5t70.5 -264.5q0 -170 -70 -265t-196 -95zM295 78h10q73 0 118 68t45 204t-45 204t-118 68h-10q-73 0 -118 -68t-45 -204t45 -204t118 -68z" />
    <glyph glyph-name="zero.subs" 
d="M300 285q80 0 124 -57t44 -146t-44 -145.5t-124 -56.5t-124 56.5t-44 145.5t44 146t124 57zM298 216q-40 0 -61.5 -38t-21.5 -96q0 -26 4 -45l139 150q-23 29 -56 29h-4zM302 -51q40 0 61.5 37.5t21.5 95.5q0 25 -5 50l-140 -151q22 -32 58 -32h4z" />
    <glyph glyph-name="one.subs" 
d="M294 -115v290l-113 -92v90l131 107h61v-395h-79z" />
    <glyph glyph-name="two.subs" 
d="M161 -115v75l136 122q34 30 46 46t12 38t-14.5 36.5t-37.5 14.5h-5q-21 0 -38 -16t-17 -41h-82q1 56 42.5 90.5t100.5 34.5t96.5 -33t37.5 -83q0 -25 -11 -48t-23.5 -36.5t-35.5 -33.5l-110 -98h182v-68h-279z" />
    <glyph glyph-name="three.subs" 
d="M298 -120q-60 0 -101 30.5t-41 84.5h82q1 -22 17 -35t40 -13h5q27 0 44.5 15t17.5 40q0 23 -16 36.5t-40 13.5h-41v64h42q24 0 38 13t14 37t-15 38t-41 14h-5q-22 0 -36.5 -12.5t-16.5 -32.5h-83q0 53 40.5 82.5t100.5 29.5q58 0 98 -29.5t40 -81.5q0 -65 -55 -90
q58 -24 58 -91q0 -53 -43 -83t-103 -30z" />
    <glyph glyph-name="four.subs" 
d="M331 -115v80h-191v81l177 234h88v-249h54v-66h-54v-80h-74zM214 31h117v158z" />
    <glyph glyph-name="five.subs" 
d="M299 -120q-62 0 -102 31t-44 86h84q4 -23 21.5 -36t41.5 -13h4q26 0 43.5 18.5t17.5 46.5t-16.5 44t-43.5 16h-3q-36 0 -56 -26h-78l44 233h229v-68h-169l-20 -98q28 26 73 26q51 0 86.5 -34t35.5 -89q0 -62 -42 -99.5t-106 -37.5z" />
    <glyph glyph-name="six.subs" 
d="M301 -120q-71 0 -113 50t-42 137q0 100 48 159t125 59q62 0 98 -33.5t37 -80.5h-80q-9 46 -57 46h-6q-35 0 -60.5 -33t-29.5 -86q30 48 100 48q54 0 90.5 -35t36.5 -91q0 -61 -40.5 -100.5t-106.5 -39.5zM298 -52h4q28 0 46.5 19t18.5 48q0 28 -18 46.5t-46 18.5h-3
q-28 0 -46.5 -18.5t-18.5 -47.5t17.5 -47.5t45.5 -18.5z" />
    <glyph glyph-name="seven.subs" 
d="M226 -115v25q0 189 130 302h-197v68h281v-65q-129 -120 -129 -302v-28h-85z" />
    <glyph glyph-name="eight.subs" 
d="M298 -121q-60 0 -99.5 29t-39.5 78q0 32 18 56t49 36q-73 30 -73 97q0 49 41.5 79t104.5 30q64 0 105.5 -30t41.5 -79q0 -68 -74 -97q30 -12 48 -36t18 -56q0 -49 -40 -78t-100 -29zM296 113h5q26 0 45 13.5t19 37.5q0 25 -18 38.5t-45 13.5h-5q-27 0 -45 -13.5
t-18 -38.5q0 -24 18 -37.5t44 -13.5zM296 -53h5q24 0 39.5 13.5t15.5 37.5q0 22 -16 36.5t-39 14.5h-5q-23 0 -39.5 -14.5t-16.5 -36.5q0 -24 16 -37.5t40 -13.5z" />
    <glyph glyph-name="nine.subs" 
d="M299 285q71 0 113 -50t42 -137q0 -100 -48 -159t-125 -59q-62 0 -98 33.5t-37 80.5h80q9 -46 57 -46h6q35 0 60.5 33t29.5 86q-30 -48 -100 -48q-54 0 -90.5 35t-36.5 91q0 61 40.5 100.5t106.5 39.5zM302 217h-4q-28 0 -46.5 -19t-18.5 -48q0 -28 18 -46.5t46 -18.5h3
q28 0 46.5 18.5t18.5 47.5t-17.5 47.5t-45.5 18.5z" />
    <glyph glyph-name="zero.dnom" 
d="M299 300q63 0 96.5 -43.5t33.5 -108.5t-33.5 -108.5t-96.5 -43.5q-62 0 -95.5 43.5t-33.5 108.5t33.5 108.5t95.5 43.5zM298 238q-27 0 -41.5 -25t-14.5 -65q0 -9 2 -25l92 99q-14 16 -35 16h-3zM301 57q27 0 41.5 25.5t14.5 65.5q0 14 -1 20l-90 -98q13 -13 32 -13h3z
" />
    <glyph glyph-name="one.dnom" 
d="M277 0v203l-83 -69v82l95 80h58v-296h-70z" />
    <glyph glyph-name="two.dnom" 
d="M192 0v63l106 96q38 33 38 51q-2 30 -35 30h-3q-15 0 -25 -10t-11 -26h-71q2 44 34 70t79 26q45 0 74.5 -25.5t29.5 -60.5q0 -19 -9 -36t-18 -26.5t-28 -26.5l-72 -63h129v-62h-218z" />
    <glyph glyph-name="three.dnom" 
d="M297 -4q-46 0 -78 23.5t-32 64.5h72q1 -13 11.5 -21.5t25.5 -8.5h3q18 0 29.5 9.5t11.5 24.5t-10 23.5t-27 8.5h-28v58h28q16 0 25.5 9t9.5 23t-10.5 22.5t-26.5 8.5h-3q-32 0 -35 -28h-71q0 41 31 64t78 23t77.5 -22.5t30.5 -61.5q0 -49 -44 -66q47 -24 47 -71
q0 -39 -33 -61t-82 -22z" />
    <glyph glyph-name="four.dnom" 
d="M314 0v53h-144v69l133 174h77v-185h41v-58h-41v-53h-66zM233 111h81v108z" />
    <glyph glyph-name="five.dnom" 
d="M297 -4q-46 0 -78.5 24.5t-36.5 65.5h75q5 -31 41 -31h3q18 0 30 12t12 29t-11.5 27.5t-28.5 10.5h-3q-19 0 -34 -15h-71l33 177h182v-59h-130l-13 -64q22 19 57 19q36 0 62.5 -25t26.5 -67q0 -47 -33 -75.5t-83 -28.5z" />
    <glyph glyph-name="six.dnom" 
d="M301 -4q-55 0 -88 37.5t-33 102.5q0 76 38 120t100 44q47 0 73.5 -25t27.5 -62h-69q-5 27 -36 27h-3q-25 0 -43 -22.5t-22 -56.5q24 34 72 34q42 0 69.5 -26.5t27.5 -69.5q0 -44 -31.5 -73.5t-82.5 -29.5zM299 56h2q19 0 31 11.5t12 29.5q0 17 -11.5 28.5t-30.5 11.5h-2
q-18 0 -30.5 -11.5t-12.5 -28.5q0 -18 12 -29.5t30 -11.5z" />
    <glyph glyph-name="seven.dnom" 
d="M241 0v16q0 130 93 219h-142v61h218v-56q-95 -90 -95 -221v-19h-74z" />
    <glyph glyph-name="eight.dnom" 
d="M299 -4q-47 0 -78 22t-31 59q0 51 54 68q-58 23 -58 73q0 37 32.5 59.5t80.5 22.5q49 0 81.5 -22.5t32.5 -59.5q0 -48 -56 -73q23 -8 37 -26t14 -42q0 -37 -31 -59t-78 -22zM298 177h3q18 0 30.5 8.5t12.5 24.5q0 15 -12.5 23t-30.5 8h-3q-19 0 -31.5 -8t-12.5 -23
q0 -16 13 -24.5t31 -8.5zM298 55h3q16 0 27 8.5t11 22.5q0 15 -11 24t-27 9h-3q-16 0 -27 -9t-11 -24q0 -14 11 -22.5t27 -8.5z" />
    <glyph glyph-name="nine.dnom" 
d="M299 299q56 0 88.5 -37.5t32.5 -102.5q0 -76 -38 -120t-100 -44q-47 0 -73.5 25t-27.5 62h69q7 -28 36 -28h4q25 0 43 23t21 57q-24 -34 -72 -34q-41 0 -68.5 26.5t-27.5 69.5q0 44 31 73.5t82 29.5zM302 239h-3q-18 0 -30.5 -11.5t-12.5 -29.5q0 -17 12 -28.5t30 -11.5
h3q18 0 30.5 11.5t12.5 28.5q0 18 -12 29.5t-30 11.5z" />
    <glyph glyph-name="zero.numr" 
d="M299 704q63 0 96.5 -43.5t33.5 -108.5t-33.5 -108.5t-96.5 -43.5q-62 0 -95.5 43.5t-33.5 108.5t33.5 108.5t95.5 43.5zM298 642q-27 0 -41.5 -25t-14.5 -65q0 -9 2 -25l92 99q-14 16 -35 16h-3zM301 461q27 0 41.5 25.5t14.5 65.5q0 14 -1 20l-90 -98q13 -13 32 -13h3z
" />
    <glyph glyph-name="one.numr" 
d="M277 404v203l-83 -69v82l95 80h58v-296h-70z" />
    <glyph glyph-name="two.numr" 
d="M192 404v63l106 96q38 33 38 51q-2 30 -35 30h-3q-15 0 -25 -10t-11 -26h-71q2 44 34 70t79 26q45 0 74.5 -25.5t29.5 -60.5q0 -19 -9 -36t-18 -26.5t-28 -26.5l-72 -63h129v-62h-218z" />
    <glyph glyph-name="three.numr" 
d="M297 400q-46 0 -78 23.5t-32 64.5h72q1 -13 11.5 -21.5t25.5 -8.5h3q18 0 29.5 9.5t11.5 24.5t-10 23.5t-27 8.5h-28v58h28q16 0 25.5 9t9.5 23t-10.5 22.5t-26.5 8.5h-3q-32 0 -35 -28h-71q0 41 31 64t78 23t77.5 -22.5t30.5 -61.5q0 -49 -44 -66q47 -24 47 -71
q0 -39 -33 -61t-82 -22z" />
    <glyph glyph-name="four.numr" 
d="M314 404v53h-144v69l133 174h77v-185h41v-58h-41v-53h-66zM233 515h81v108z" />
    <glyph glyph-name="five.numr" 
d="M297 400q-46 0 -78.5 24.5t-36.5 65.5h75q5 -31 41 -31h3q18 0 30 12t12 29t-11.5 27.5t-28.5 10.5h-3q-19 0 -34 -15h-71l33 177h182v-59h-130l-13 -64q22 19 57 19q36 0 62.5 -25t26.5 -67q0 -47 -33 -75.5t-83 -28.5z" />
    <glyph glyph-name="six.numr" 
d="M301 400q-55 0 -88 37.5t-33 102.5q0 76 38 120t100 44q47 0 73.5 -25t27.5 -62h-69q-5 27 -36 27h-3q-25 0 -43 -22.5t-22 -56.5q24 34 72 34q42 0 69.5 -26.5t27.5 -69.5q0 -44 -31.5 -73.5t-82.5 -29.5zM299 460h2q19 0 31 11.5t12 29.5q0 17 -11.5 28.5t-30.5 11.5
h-2q-18 0 -30.5 -11.5t-12.5 -28.5q0 -18 12 -29.5t30 -11.5z" />
    <glyph glyph-name="seven.numr" 
d="M241 404v16q0 130 93 219h-142v61h218v-56q-95 -90 -95 -221v-19h-74z" />
    <glyph glyph-name="eight.numr" 
d="M299 400q-47 0 -78 22t-31 59q0 51 54 68q-58 23 -58 73q0 37 32.5 59.5t80.5 22.5q49 0 81.5 -22.5t32.5 -59.5q0 -48 -56 -73q23 -8 37 -26t14 -42q0 -37 -31 -59t-78 -22zM298 581h3q18 0 30.5 8.5t12.5 24.5q0 15 -12.5 23t-30.5 8h-3q-19 0 -31.5 -8t-12.5 -23
q0 -16 13 -24.5t31 -8.5zM298 459h3q16 0 27 8.5t11 22.5q0 15 -11 24t-27 9h-3q-16 0 -27 -9t-11 -24q0 -14 11 -22.5t27 -8.5z" />
    <glyph glyph-name="nine.numr" 
d="M299 703q56 0 88.5 -37.5t32.5 -102.5q0 -76 -38 -120t-100 -44q-47 0 -73.5 25t-27.5 62h69q7 -28 36 -28h4q25 0 43 23t21 57q-24 -34 -72 -34q-41 0 -68.5 26.5t-27.5 69.5q0 44 31 73.5t82 29.5zM302 643h-3q-18 0 -30.5 -11.5t-12.5 -29.5q0 -17 12 -28.5t30 -11.5
h3q18 0 30.5 11.5t12.5 28.5q0 18 -12 29.5t-30 11.5z" />
    <glyph glyph-name="zero.subs.zero" 
d="M300 -120q-80 0 -124 56.5t-44 145.5t44 146t124 57t124 -57t44 -146t-44 -145.5t-124 -56.5zM298 -51h4q40 0 61.5 37.5t21.5 95.5t-21.5 96t-61.5 38h-4q-40 0 -61.5 -38t-21.5 -96t21.5 -95.5t61.5 -37.5z" />
    <glyph glyph-name="zero.dnom.zero" 
d="M299 -6q-62 0 -95.5 43.5t-33.5 108.5t33.5 108.5t95.5 43.5q63 0 96.5 -43.5t33.5 -108.5t-33.5 -108.5t-96.5 -43.5zM298 55h3q27 0 41.5 25.5t14.5 65.5t-14.5 65t-41.5 25h-3q-27 0 -41.5 -25t-14.5 -65t14.5 -65.5t41.5 -25.5z" />
    <glyph glyph-name="zero.numr.zero" 
d="M299 400q-62 0 -95.5 43.5t-33.5 108.5t33.5 108.5t95.5 43.5q63 0 96.5 -43.5t33.5 -108.5t-33.5 -108.5t-96.5 -43.5zM298 461h3q27 0 41.5 25.5t14.5 65.5t-14.5 65t-41.5 25h-3q-27 0 -41.5 -25t-14.5 -65t14.5 -65.5t41.5 -25.5z" />
    <glyph glyph-name="uni2070.zero" 
d="M300 410q-80 0 -124 56.5t-44 145.5t44 146t124 57t124 -57t44 -146t-44 -145.5t-124 -56.5zM298 479h4q40 0 61.5 37.5t21.5 95.5t-21.5 96t-61.5 38h-4q-40 0 -61.5 -38t-21.5 -96t21.5 -95.5t61.5 -37.5z" />
    <glyph glyph-name="exclamdown.case" 
d="M248 700h105v-109h-105v109zM277 509h49l25 -285v-224h-99v224z" />
    <glyph glyph-name="questiondown.case" 
d="M404 702v-109h-105v109h105zM396 501v-139q0 -80 -80 -80h-23q-49 0 -75.5 -26t-26.5 -72q0 -43 28.5 -69.5t78.5 -26.5h195v-88h-211q-82 0 -135.5 51t-53.5 132q0 80 48.5 131t124.5 51h8q17 0 23.5 6.5t6.5 23.5v106h92z" />
    <glyph glyph-name="questiondown.ss05.case" 
d="M391 700v-109h-105v109h105zM385 502v-103q0 -60 -55 -81l-42 -16q-27 -10 -43.5 -18.5t-34 -22.5t-25.5 -34.5t-8 -47.5q0 -46 31 -76t87 -30q52 0 85.5 29.5t37.5 79.5h96q-4 -89 -66 -140.5t-153 -51.5t-152.5 52t-61.5 137q0 68 36.5 114t92.5 68l34 14
q30 12 38.5 22t8.5 32v73h94z" />
    <glyph glyph-name="question.ss05" 
d="M220 198v103q0 60 55 81l42 16q27 10 43.5 18.5t34 22.5t25.5 34.5t8 47.5q0 46 -31 76t-87 30q-52 0 -85.5 -29.5t-37.5 -79.5h-96q4 89 66 140.5t153 51.5t152.5 -52t61.5 -137q0 -68 -36.5 -114t-92.5 -68l-34 -14q-30 -12 -38.5 -22t-8.5 -32v-73h-94zM214 0v109h105
v-109h-105z" />
    <glyph glyph-name="questiondown.ss05" 
d="M396 500v-109h-105v109h105zM390 302v-103q0 -60 -55 -81l-42 -16q-27 -10 -43.5 -18.5t-34 -22.5t-25.5 -34.5t-8 -47.5q0 -46 31 -76t87 -30q52 0 85.5 29.5t37.5 79.5h96q-4 -89 -66 -140.5t-153 -51.5t-152.5 52t-61.5 137q0 68 36.5 114t92.5 68l34 14
q30 12 38.5 22t8.5 32v73h94z" />
    <glyph glyph-name="braceleft.case" 
d="M363 0q-64 0 -94 38t-30 117v54q0 38 -10 51.5t-40 13.5h-21v152h21q30 0 40 13.5t10 51.5v54q0 79 30 117t94 38h79v-90h-40q-40 0 -52.5 -14.5t-12.5 -56.5v-94q0 -84 -80 -84v-22q80 0 80 -84v-94q0 -42 12.5 -56.5t52.5 -14.5h40v-90h-79z" />
    <glyph glyph-name="braceright.case" 
d="M237 700q64 0 94 -38t30 -117v-54q0 -38 10 -51.5t40 -13.5h21v-152h-21q-30 0 -40 -13.5t-10 -51.5v-54q0 -79 -30 -117t-94 -38h-79v90h40q40 0 52.5 14.5t12.5 56.5v94q0 84 80 84v22q-80 0 -80 84v94q0 42 -12.5 56.5t-52.5 14.5h-40v90h79z" />
    <glyph glyph-name="bracketleft.case" 
d="M211 0v700h199v-90h-99v-520h99v-90h-199z" />
    <glyph glyph-name="bracketright.case" 
d="M389 700v-700h-199v90h99v520h-99v90h199z" />
    <glyph glyph-name="parenleft.case" 
d="M429 -10q-111 10 -184.5 111.5t-73.5 248.5t73.5 248.5t184.5 111.5v-93q-72 -16 -115 -86t-43 -181q0 -110 43 -180t115 -87v-93z" />
    <glyph glyph-name="parenright.case" 
d="M171 710q111 -10 184.5 -111.5t73.5 -248.5t-73.5 -248.5t-184.5 -111.5v93q72 16 115 86t43 181q0 110 -43 180t-115 87v93z" />
    <glyph glyph-name="emdash.case" 
d="M20 308v79h560v-79h-560z" />
    <glyph glyph-name="endash.case" 
d="M105 308v79h390v-79h-390z" />
    <glyph glyph-name="hyphen.case" 
d="M166 311v79h268v-79h-268z" />
    <glyph glyph-name="uni00AD.case" 
d="M166 311v79h268v-79h-268z" />
    <glyph glyph-name="guillemotleft.case" 
d="M320 565l-145 -214l146 -216h-113l-145 215l145 215h112zM385 351l146 -216h-113l-145 215l145 215h112z" />
    <glyph glyph-name="guillemotright.case" 
d="M184 565l145 -215l-145 -215h-112l145 214l-146 216h113zM394 565l145 -215l-145 -215h-112l145 214l-146 216h113z" />
    <glyph glyph-name="guilsinglleft.case" 
d="M281 351l146 -216h-113l-145 215l145 215h112z" />
    <glyph glyph-name="guilsinglright.case" 
d="M284 565l145 -215l-145 -215h-112l145 214l-146 216h113z" />
    <glyph glyph-name="bullet_one" 
d="M300 110q-99 0 -169.5 70.5t-70.5 169.5t70.5 169.5t169.5 70.5t169.5 -70.5t70.5 -169.5t-70.5 -169.5t-169.5 -70.5z" />
    <glyph glyph-name="bullet_two" 
d="M300 80q-112 0 -191 79.5t-79 190.5t79 190.5t191 79.5q111 0 190.5 -79.5t79.5 -190.5t-79.5 -190.5t-190.5 -79.5z" />
    <glyph glyph-name="bullet_three" 
d="M300 50q124 0 212 88t88 212t-88 212t-212 88t-212 -88t-88 -212t88 -212t212 -88z" />
    <glyph glyph-name="plus.case" 
d="M252 108v200h-199v85h199v200h96v-200h199v-85h-199v-200h-96z" />
    <glyph glyph-name="minus.case" 
d="M53 306v89h494v-89h-494z" />
    <glyph glyph-name="multiply.case" 
d="M517 197l-64 -63l-153 154l-154 -154l-63 63l154 153l-154 154l63 64l154 -154l154 153l62 -63l-153 -153z" />
    <glyph glyph-name="divide.case" 
d="M247 463v109h105v-109h-105zM53 306v89h494v-89h-494zM247 129v109h105v-109h-105z" />
    <glyph glyph-name="equal.case" 
d="M53 401v89h494v-89h-494zM53 211v89h494v-89h-494z" />
    <glyph glyph-name="notequal.case" 
d="M553 401h-189l-32 -101h221v-89h-248l-32 -103h-95l32 103h-151v89h178l32 101h-210v89h237l32 103h95l-32 -103h162v-89z" />
    <glyph glyph-name="greater.case" 
d="M90 566l425 -174v-86l-425 -174v92l318 124l-318 124v94z" />
    <glyph glyph-name="less.case" 
d="M510 566v-92l-318 -124l318 -124v-94l-425 174v86z" />
    <glyph glyph-name="greaterequal.case" 
d="M53 610l494 -136v-115l-494 -136v97l383 96l-383 95v99zM53 106v89h494v-89h-494z" />
    <glyph glyph-name="lessequal.case" 
d="M547 610v-97l-381 -95l381 -96v-99l-494 136v115zM53 106v89h494v-89h-494z" />
    <glyph glyph-name="plusminus.case" 
d="M348 465h199v-89h-199v-124h-96v124h-199v89h199v128h96v-128zM53 93v89h494v-89h-494z" />
    <glyph glyph-name="approxequal.case" 
d="M414 371q-38 0 -114.5 33t-92.5 33q-53 0 -53 -56h-95v32q0 51 36 85t92 34q41 0 115.5 -33t90.5 -33q53 0 53 53h95v-32q0 -51 -35 -83.5t-92 -32.5zM414 168q-38 0 -114.5 33t-92.5 33q-53 0 -53 -56h-95v32q0 51 36 85t92 34q41 0 115.5 -33t90.5 -33q53 0 53 53h95
v-32q0 -51 -35 -83.5t-92 -32.5z" />
    <glyph glyph-name="logicalnot.case" 
d="M431 216v140h-364v89h462v-229h-98z" />
    <glyph glyph-name="copyright.alt" 
d="M300 280q-94 0 -162 68t-68 162q0 95 67.5 162.5t162.5 67.5t162.5 -67.5t67.5 -162.5t-67.5 -162.5t-162.5 -67.5zM300 325q76 0 129 54t53 131t-53 131t-129 54q-75 0 -128.5 -54t-53.5 -131q0 -76 53.5 -130.5t128.5 -54.5zM303 385q-48 0 -77 32t-29 93t29 93t77 32
q42 0 67.5 -22.5t28.5 -58.5h-53q-6 36 -41 36h-4q-25 0 -37.5 -22.5t-12.5 -57.5t12.5 -58t37.5 -23h4q29 0 39 35h53q-3 -36 -27.5 -57.5t-66.5 -21.5z" />
    <glyph glyph-name="registered.alt" 
d="M300 280q-94 0 -162 68t-68 162q0 95 67.5 162.5t162.5 67.5t162.5 -67.5t67.5 -162.5t-67.5 -162.5t-162.5 -67.5zM300 325q76 0 129 54t53 131t-53 131t-129 54q-75 0 -128.5 -54t-53.5 -131q0 -76 53.5 -130.5t128.5 -54.5zM219 395v230h97q37 0 57.5 -18.5
t20.5 -45.5q0 -22 -11.5 -39t-30.5 -21q39 0 39 -33v-73h-47v60q0 13 -5.5 18t-19.5 5h-53v-83h-47zM266 518h45q36 0 36 35q0 32 -37 32h-44v-67z" />
    <glyph glyph-name="uni2117.alt" 
d="M300 280q-94 0 -162 68t-68 162q0 95 67.5 162.5t162.5 67.5t162.5 -67.5t67.5 -162.5t-67.5 -162.5t-162.5 -67.5zM300 325q76 0 129 54t53 131t-53 131t-129 54q-75 0 -128.5 -54t-53.5 -131q0 -76 53.5 -130.5t128.5 -54.5zM225 395v230h99q36 0 56.5 -20t20.5 -56
t-20.5 -56t-56.5 -20h-52v-78h-47zM272 513h42q40 0 40 36t-40 36h-42v-72z" />
    <glyph glyph-name="at.case" 
d="M411 -95q-187 0 -285.5 114t-98.5 318q0 194 77 308.5t217 114.5q114 0 176.5 -67t62.5 -169v-399h-86v66q-42 -76 -122 -76q-75 0 -120 60t-45 154t45 152.5t120 58.5q83 0 122 -75v45q0 77 -40 124t-110 47h-9q-97 0 -148.5 -93.5t-51.5 -248.5q0 -357 297 -357h153
v-77h-154zM371 191h6q42 0 67.5 39t25.5 99t-25 97.5t-68 37.5h-6q-45 0 -70.5 -37.5t-25.5 -96.5q0 -61 25.5 -100t70.5 -39z" />
    <glyph glyph-name="at.ss06.case" 
d="M369 -95q-177 0 -265 106.5t-88 328.5q0 199 80 309.5t214 110.5q137 0 208 -100t71 -276q0 -142 -30.5 -200.5t-106.5 -58.5h-79v48q-22 -58 -83 -58q-63 0 -98.5 59.5t-35.5 155.5q0 90 35 150t98 60q58 0 84 -51v41h71v-335h13q31 0 42.5 41t11.5 146q0 306 -201 306
q-110 0 -163 -93.5t-53 -254.5q0 -189 66 -275t215 -86h104v-74h-110zM300 185h4q32 0 50.5 38.5t18.5 106.5t-19 104t-50 36h-4q-33 0 -51.5 -38.5t-18.5 -101.5q0 -66 18.5 -105.5t51.5 -39.5z" />
    <glyph glyph-name="ampersand.ss04" 
d="M590 0h-109l-45 54q-74 -64 -183 -64q-97 0 -155.5 48.5t-58.5 126.5q0 106 116 183l24 15q-29 34 -45 57t-30 58t-14 70q0 71 50 116.5t122 45.5q77 0 124 -47t47 -122q0 -62 -31 -106.5t-91 -84.5l-5 -4l127 -155q18 48 18 167v34h95v-38q0 -148 -54 -235zM183 545
q0 -25 12 -51.5t21.5 -38.5t36.5 -44l13 9q74 48 74 118q0 38 -21.5 63.5t-57.5 25.5t-57 -23.5t-21 -58.5zM253 73q79 0 129 46l-149 178l-21 -14q-38 -26 -56.5 -51t-18.5 -62q0 -43 33 -70t83 -27z" />
    <glyph glyph-name="at.ss06" 
d="M369 -125q-177 0 -265 106.5t-88 328.5q0 199 80 309.5t214 110.5q137 0 208 -100t71 -276q0 -142 -30.5 -200.5t-106.5 -58.5h-79v48q-22 -58 -83 -58q-63 0 -98.5 59.5t-35.5 155.5q0 90 35 150t98 60q58 0 84 -51v41h71v-335h13q31 0 42.5 41t11.5 146q0 306 -201 306
q-110 0 -163 -93.5t-53 -254.5q0 -189 66 -275t215 -86h104v-74h-110zM300 155h4q32 0 50.5 38.5t18.5 106.5t-19 104t-50 36h-4q-33 0 -51.5 -38.5t-18.5 -101.5q0 -66 18.5 -105.5t51.5 -39.5z" />
    <glyph glyph-name="whiteCircle_three_numbers" 
d="M300 50q-124 0 -212 88t-88 212t88 212t212 88t212 -88t88 -212t-88 -212t-212 -88zM300 111q99 0 168 70t69 169t-69 169.5t-168 70.5t-168 -70.5t-69 -169.5t69 -169t168 -70z" />
    <glyph glyph-name="circle_one" 
d="M300 110q-99 0 -169.5 70.5t-70.5 169.5t70.5 169.5t169.5 70.5t169.5 -70.5t70.5 -169.5t-70.5 -169.5t-169.5 -70.5zM300 185q68 0 116.5 48.5t48.5 116.5t-48.5 116.5t-116.5 48.5t-116.5 -48.5t-48.5 -116.5t48.5 -116.5t116.5 -48.5z" />
    <glyph glyph-name="circle_two" 
d="M300 80q-112 0 -191 79.5t-79 190.5t79 190.5t191 79.5q111 0 190.5 -79.5t79.5 -190.5t-79.5 -190.5t-190.5 -79.5zM300 155q80 0 137.5 57.5t57.5 137.5t-57.5 137.5t-137.5 57.5q-81 0 -138 -57.5t-57 -137.5t57 -137.5t138 -57.5z" />
    <glyph glyph-name="caroncomb.alt" horiz-adv-x="0" 
d="M-370 500v54h14q49 0 49 39v6h-40v101h95v-106q0 -42 -27.5 -68t-71.5 -26h-19z" />
    <glyph glyph-name="acute.case" 
d="M249 756l47 134h120l-93 -134h-74z" />
    <glyph glyph-name="breve.case" 
d="M300 748q-69 0 -112.5 38t-44.5 104h81q6 -68 76 -68t76 68h81q-1 -66 -44.5 -104t-112.5 -38z" />
    <glyph glyph-name="caron.case" 
d="M386 890h88l-117 -134h-114l-117 134h88l86 -64z" />
    <glyph glyph-name="circumflex.case" 
d="M474 756h-88l-86 65l-86 -65h-88l117 134h114z" />
    <glyph glyph-name="dieresis.case" 
d="M155 773v99h100v-99h-100zM345 773v99h100v-99h-100z" />
    <glyph glyph-name="dotaccent.case" 
d="M247 773v109h105v-109h-105z" />
    <glyph glyph-name="grave.case" 
d="M341 756h-74l-93 134h120z" />
    <glyph glyph-name="hungarumlaut.case" 
d="M167 756l47 134h120l-93 -134h-74zM343 756l47 134h120l-93 -134h-74z" />
    <glyph glyph-name="macron.case" 
d="M149 773v80h303v-80h-303z" />
    <glyph glyph-name="ring.case" 
d="M300 746q-37 0 -65 27t-28 66q0 37 28.5 65t64.5 28q38 0 65.5 -27.5t27.5 -65.5q0 -39 -27 -66t-66 -27zM301 802q14 0 24.5 11.5t10.5 25.5t-10.5 25.5t-24.5 11.5q-15 0 -26 -11.5t-11 -25.5t11 -25.5t26 -11.5z" />
    <glyph glyph-name="tilde.case" 
d="M378 756q-34 0 -78 30l-13 7q-3 2 -12 8.5t-14 9t-13 5.5t-15 3q-38 0 -38 -53h-71v24q0 44 28.5 74.5t70.5 30.5q31 0 73 -25l12 -8q4 -3 13 -9t13.5 -8.5t11.5 -6.5t12.5 -5.5t11.5 -1.5q35 0 35 54h71v-24q0 -44 -28.5 -74.5t-69.5 -30.5z" />
    <glyph glyph-name="dotaccent.low" 
d="M247 -195v109h105v-109h-105z" />
    <glyph glyph-name="whitateCircle_three" 
d="M300 50q-124 0 -212 88t-88 212t88 212t212 88t212 -88t88 -212t-88 -212t-212 -88zM300 125q93 0 159 66t66 159t-66 159t-159 66t-159 -66t-66 -159t66 -159t159 -66z" />
    <glyph glyph-name="edgeleft.case" 
d="M338 0q-60 0 -100 36.5t-40 93.5q0 66 46 93q-42 13 -66 48t-24 80t24.5 78t66.5 46q-47 29 -47 95q0 57 39 93.5t99 36.5h99v-93h-89q-23 0 -38 -12t-15 -33v-4q0 -22 15 -35t39 -13h32v-93h-55q-34 0 -54.5 -18t-20.5 -45v-6q0 -28 20.5 -46.5t54.5 -18.5h55v-93h-32
q-24 0 -39 -13t-15 -34v-5q0 -20 15.5 -32.5t38.5 -12.5h88v-93h-97z" />
    <glyph glyph-name="edgeleft" 
d="M373 -145q-56 0 -95.5 34.5t-39.5 90.5q0 47 36 87q-81 17 -81 112v342q0 97 81 114q-36 39 -36 85q0 56 39.5 90.5t95.5 34.5h102v-78h-83q-27 0 -43 -14.5t-16 -37.5v-8q0 -23 16 -37.5t43 -14.5h18v-78h-46q-76 0 -76 -75v-304q0 -75 76 -75h46v-78h-18
q-27 0 -43 -14.5t-16 -37.5v-8q0 -23 16 -37.5t43 -14.5h83v-78h-102z" />
    <glyph glyph-name="edgeright.case" 
d="M262 0h-97v93h88q23 0 38.5 12.5t15.5 32.5v5q0 21 -15 34t-39 13h-32v93h55q34 0 54.5 18.5t20.5 46.5v6q0 27 -20.5 45t-54.5 18h-55v93h32q24 0 39 13t15 35v4q0 21 -15 33t-38 12h-89v93h99q60 0 99 -36.5t39 -93.5q0 -66 -47 -95q42 -13 66.5 -46t24.5 -78t-24 -80
t-66 -48q46 -27 46 -93q0 -57 -40 -93.5t-100 -36.5z" />
    <glyph glyph-name="edgeright" 
d="M227 -145h-102v78h83q27 0 43 14.5t16 37.5v8q0 23 -16 37.5t-43 14.5h-18v78h46q76 0 76 75v304q0 75 -76 75h-46v78h18q27 0 43 14.5t16 37.5v8q0 23 -16 37.5t-43 14.5h-83v78h102q56 0 95.5 -34.5t39.5 -90.5q0 -46 -36 -85q81 -17 81 -114v-342q0 -95 -81 -112
q36 -40 36 -87q0 -56 -39.5 -90.5t-95.5 -34.5z" />
    <glyph glyph-name="ringacute.case" 
d="M276 928l29 88h95l-61 -88h-63zM301 745q-33 0 -55.5 22.5t-22.5 55.5t22.5 56t55.5 23t55.5 -23t22.5 -56t-22.5 -55.5t-55.5 -22.5zM301 795q11 0 19.5 8.5t8.5 19.5q0 12 -8.5 20.5t-19.5 8.5t-20 -8.5t-9 -20.5q0 -11 9 -19.5t20 -8.5z" />
    <glyph glyph-name="ringacute" 
d="M269 766l42 132h112l-91 -132h-63zM300 547q-38 0 -66 26.5t-28 66.5q0 38 28.5 66t65.5 28q38 0 66 -27.5t28 -66.5q0 -40 -27.5 -66.5t-66.5 -26.5zM301 596q18 0 30.5 13t12.5 31t-12.5 31t-30.5 13t-31 -13t-13 -31t13 -31t31 -13z" />
    <glyph glyph-name="Triangle" 
d="M0 0l300 534l300 -534h-600z" />
  </font>
</defs>
</svg>
